<svg width="119" height="119" viewBox="0 0 119 119" fill="none" xmlns="http://www.w3.org/2000/svg">
<g clip-path="url(#clip0_52:185)">
<path d="M119 8.79998C115.05 14.945 109.651 19.792 104.54 24.8906C99.9348 29.4831 95.2367 33.9855 90.5572 38.5034C89.8715 39.1648 89.7039 39.7548 89.9584 40.7298C90.7962 43.9404 89.9987 46.7878 87.6466 49.1446C83.7367 53.0632 79.8237 56.985 75.8642 60.8539C75.0636 61.6364 75.017 62.1301 75.8673 62.8878C77.1395 64.018 78.3125 65.2601 79.5103 66.4711C79.954 66.9213 80.3295 67.1076 80.8694 66.5735C84.8103 62.6859 88.8102 58.8605 92.7046 54.9263C94.945 52.6627 96.8379 50.1134 98.1319 47.1635C99.3203 44.4466 99.6617 41.6706 98.7835 38.7891C98.6749 38.432 98.5973 38.0128 98.6718 37.6588C98.8518 36.808 99.4538 36.2895 100.316 36.2864C101.288 36.2864 101.865 36.8577 102.076 37.8203C103.463 44.1205 102.188 49.8339 97.7781 54.5351C93.0397 59.5871 88.0189 64.3782 83.085 69.247C81.4807 70.8306 79.1379 70.8524 77.5243 69.3681C76.2148 68.1634 74.9519 66.9027 73.6982 65.642C73.2638 65.2073 72.8759 64.7136 72.5284 64.2043C71.1444 62.1674 71.2902 60.559 73.0404 58.8015C75.9107 55.9199 78.7997 53.0601 81.6793 50.191C82.8864 48.9893 84.1028 47.7939 85.2944 46.5767C86.3091 45.5396 86.8646 44.3099 86.7715 42.6083C84.6211 44.6018 82.6847 46.7754 79.5227 46.2258C77.2916 45.8377 75.7773 44.3068 74.3716 42.6798C71.585 39.4536 71.9512 37.5222 76.3669 32.0945C74.5205 31.8398 73.1055 32.5323 71.8798 33.7557C67.9854 37.6371 64.0911 41.5185 60.1936 45.3967C57.8415 47.738 55.7159 47.738 53.3855 45.4092C52.1256 44.1516 50.7696 42.9779 49.6152 41.6302C47.4865 39.1399 47.6572 37.3794 49.969 35.0785C53.8385 31.2281 57.6243 27.2909 61.5559 23.5057C63.1633 21.9594 64.9786 20.5901 66.8404 19.3542C73.5089 14.9326 80.2023 15.1903 86.8398 19.4909C87.2928 19.7827 87.7397 20.0808 88.3789 20.5C88.8599 19.9442 89.3067 19.3573 89.8249 18.8357C95.3732 13.2682 100.931 7.70698 106.488 2.14884C109.359 -0.723376 112.766 -0.720271 115.695 2.10227C117.191 3.54304 118.541 5.05522 119 7.16359C119 7.7163 119 8.25969 119 8.79998ZM80.6212 43.0275C81.3163 42.5462 82.1417 42.1333 82.7623 41.5154C93.1483 31.1629 103.506 20.7826 113.871 10.4084C115.947 8.33111 115.944 7.31263 113.861 5.17943C113.725 5.0397 113.588 4.90618 113.449 4.76955C111.652 3.0369 110.501 3.04933 108.723 4.82855C98.2746 15.2834 87.8265 25.7414 77.3816 36.1963C77.1085 36.4696 76.8137 36.7335 76.6027 37.0533C75.9573 38.0221 75.9045 39.0654 76.6399 39.9659C77.3443 40.8291 78.1822 41.593 79.0293 42.3227C79.3862 42.627 79.9168 42.7263 80.6212 43.0275ZM85.7289 22.9344C85.3161 22.6332 85.0214 22.3941 84.7048 22.1892C79.0572 18.5314 71.3244 19.0686 66.437 23.6983C61.5776 28.3031 56.9137 33.1098 52.1442 37.8079C51.567 38.3761 51.5733 38.786 52.1535 39.3356C53.3886 40.5062 54.6298 41.6799 55.7717 42.9375C56.5537 43.7976 57.0564 43.661 57.8167 42.8909C61.621 39.0344 65.4906 35.2399 69.3167 31.4051C72.0039 28.713 75.1318 27.9026 78.7718 29.0297C79.0479 29.1136 79.5072 29.1167 79.6778 28.949C81.6949 26.9897 83.6746 24.9869 85.7289 22.9344Z" fill="#013E46"/>
<path d="M7.27364 119C4.64533 118.351 2.85175 116.553 1.26918 114.522C-0.214097 112.616 -0.487168 110.417 0.927837 108.477C2.43904 106.399 4.30399 104.571 6.10377 102.723C6.76163 102.046 7.6429 102.291 8.28214 102.95C8.92137 103.608 9.08894 104.409 8.4497 105.142C7.7391 105.955 6.90437 106.657 6.16273 107.446C5.4242 108.231 4.66084 109.014 4.04643 109.896C3.34824 110.896 3.4134 111.951 4.33192 112.839C5.05183 113.538 5.75002 114.277 6.55682 114.864C7.75151 115.733 8.71657 115.625 9.77782 114.585C11.6831 112.712 13.5605 110.812 15.4503 108.921C24.1513 100.211 32.8554 91.5012 41.5565 82.7883C43.3159 81.0277 43.3469 79.9937 41.7023 78.1368C41.5223 77.935 41.333 77.7394 41.1406 77.5469C39.1485 75.5689 38.05 75.5658 36.0764 77.5375C28.9611 84.6576 21.8488 91.7838 14.7241 98.8944C14.3238 99.2919 13.7932 99.8664 13.3495 99.8415C12.7164 99.8074 11.9438 99.4409 11.5249 98.9628C10.8918 98.2393 11.2673 97.4537 11.9127 96.8109C14.4635 94.2678 17.0018 91.7154 19.5525 89.1724C19.8535 88.8743 20.2073 88.6259 20.561 88.334C19.9404 87.3217 19.3787 86.4523 18.8636 85.558C15.3385 79.4348 15.4006 73.3581 19.0995 67.3186C21.3461 63.6515 24.3064 60.593 27.335 57.5966C30.0875 54.8734 32.8554 52.1657 35.6141 49.4519C37.3114 47.7813 39.0678 47.4615 40.9017 48.9675C42.9218 50.6287 44.793 52.5104 46.4966 54.4977C47.8309 56.0533 47.412 58.1741 45.7735 59.8291C41.8233 63.8192 37.8669 67.7999 33.8981 71.7714C32.6568 73.0134 31.9617 74.4418 32.1758 76.4445C33.9508 74.6405 35.6327 72.8737 38.1648 72.5973C40.8769 72.3023 42.6456 74.0008 44.2872 75.7925C47.3934 79.1864 47.1141 81.1985 42.8132 86.6883C44.5106 86.8839 45.7549 86.1697 46.841 85.0767C50.695 81.2078 54.5397 77.3357 58.3876 73.4636C60.9197 70.9175 62.9677 70.9299 65.5153 73.5071C66.6852 74.6902 67.9388 75.8049 69.0094 77.0718C71.1505 79.6055 70.9861 81.3724 68.6525 83.726C64.9475 87.4646 61.3324 91.2994 57.559 94.9696C55.8492 96.6339 53.9377 98.1306 51.9642 99.472C45.3236 103.984 38.6427 103.723 32.0207 99.354C31.6328 99.0994 31.2511 98.8386 30.7546 98.5063C30.1495 99.0714 29.5165 99.621 28.9269 100.22C24.2009 105.021 19.5649 109.911 14.7272 114.594C12.9523 116.311 10.7056 117.547 8.67623 119C8.20146 119 7.7391 119 7.27364 119ZM23.0435 85.7071C25.107 83.6298 27.0992 81.6394 29.0573 79.618C29.2093 79.4596 29.2279 79.0528 29.1503 78.8137C27.9215 74.9789 28.9021 71.7807 31.7445 68.9923C35.583 65.2258 39.3284 61.3631 43.139 57.5686C43.769 56.9414 43.8465 56.5036 43.167 55.8608C41.9288 54.6933 40.7248 53.4854 39.5798 52.2247C38.8785 51.4547 38.4161 51.5292 37.7117 52.2465C33.2961 56.7489 28.8369 61.2109 24.3933 65.6854C21.6006 68.4986 20.0894 71.8956 19.9311 75.8484C19.7853 79.4348 20.7658 82.6951 23.0435 85.7071ZM33.2495 95.9725C38.7327 99.9843 44.1599 100.326 49.7082 96.8047C51.9735 95.3671 54.0712 93.5878 55.9982 91.7123C59.6288 88.1818 63.0732 84.4619 66.6138 80.8383C67.1382 80.3042 66.9986 79.9254 66.5456 79.4751C65.3664 78.3045 64.2027 77.1121 63.0298 75.9322C61.9375 74.8299 61.9313 74.8299 60.87 75.898C57.1029 79.6832 53.314 83.4435 49.5841 87.2627C46.9589 89.9486 43.9055 90.8367 40.2842 89.8369C39.9832 89.753 39.4867 89.8307 39.2757 90.0356C37.2711 91.9608 35.31 93.9325 33.2495 95.9725Z" fill="#013E46"/>
<path d="M36.9918 33.0228C36.5884 33.5103 36.2626 34.2276 35.7288 34.4512C35.2448 34.6561 34.348 34.5319 33.9632 34.1872C32.5265 32.9017 31.1984 31.4951 29.8857 30.0761C29.1782 29.3091 29.2496 28.3465 29.923 27.6789C30.5933 27.0114 31.5769 26.9524 32.3124 27.6634C33.6994 29.0048 35.0369 30.399 36.365 31.8025C36.607 32.0634 36.7094 32.4639 36.9918 33.0228Z" fill="#013E46"/>
<path d="M43.8156 19.9409C44.52 19.9533 45.1034 20.416 45.3361 21.2389C45.8295 22.9808 46.3043 24.729 46.7232 26.4896C46.9838 27.5857 46.4842 28.3558 45.4788 28.6073C44.4517 28.865 43.6822 28.4458 43.3719 27.3466C42.8785 25.6046 42.4161 23.8533 41.9972 22.0928C41.7272 20.947 42.5154 19.9658 43.8156 19.9409Z" fill="#013E46"/>
<path d="M22.9534 38.938C23.1458 38.9846 23.453 39.028 23.7385 39.1336C25.2931 39.7112 26.8509 40.2856 28.3931 40.9004C29.5071 41.3444 29.9322 42.2201 29.5785 43.1889C29.234 44.1359 28.2907 44.5396 27.1953 44.1453C25.5259 43.5429 23.8657 42.9094 22.2149 42.2542C21.377 41.922 21.0543 41.2327 21.2405 40.3757C21.4267 39.5528 21.9294 39.0001 22.9534 38.938Z" fill="#013E46"/>
<path d="M80.981 43.0275C80.2766 42.7263 79.746 42.627 79.3922 42.3227C78.5451 41.593 77.7072 40.8291 77.0028 39.9659C76.2674 39.0685 76.3233 38.0221 76.9656 37.0533C77.1766 36.7366 77.4714 36.4695 77.7445 36.1963C88.1894 25.7383 98.6375 15.2834 109.086 4.82852C110.864 3.0493 112.015 3.03688 113.812 4.76952C113.951 4.90304 114.088 5.03967 114.224 5.1794C116.306 7.3126 116.31 8.33108 114.234 10.4084C103.869 20.7825 93.5081 31.1629 83.1252 41.5153C82.5046 42.1332 81.6761 42.5431 80.981 43.0275Z" fill="#71DFDF"/>
<path d="M7.77639 115.963C7.07199 115.662 6.54137 115.563 6.18762 115.258C5.34047 114.529 4.50264 113.765 3.79824 112.902C3.06281 112.004 3.11867 110.958 3.76101 109.989C3.97202 109.672 4.26681 109.405 4.53988 109.132C14.9848 98.6741 25.4329 88.2192 35.881 77.7643C37.659 75.9851 38.8103 75.9727 40.607 77.7053C40.7466 77.8388 40.8831 77.9755 41.0197 78.1152C43.1018 80.2484 43.105 81.2669 41.029 83.3442C30.6647 93.7183 20.3035 104.099 9.92062 114.451C9.2969 115.069 8.47148 115.482 7.77639 115.963Z" fill="#71DFDF"/>
<path d="M85.7288 22.9343C83.6746 24.9868 81.6948 26.9896 79.6747 28.952C79.504 29.1197 79.0448 29.1166 78.7686 29.0327C75.1287 27.9056 72.0008 28.716 69.3135 31.4081C65.4874 35.2429 61.6179 39.0374 57.8135 42.8939C57.0533 43.664 56.5506 43.8006 55.7686 42.9405C54.6266 41.6829 53.3854 40.5092 52.1504 39.3386C51.5701 38.789 51.5639 38.3791 52.1411 37.8109C56.9105 33.1128 61.5744 28.3061 66.4339 23.7013C71.3212 19.0716 79.0541 18.5313 84.7017 22.1922C85.0213 22.394 85.3161 22.6331 85.7288 22.9343Z" fill="#49A6A6"/>
<path d="M96.301 32.9917C94.2498 35.0473 92.2483 37.0283 90.2872 39.0498C90.1196 39.2205 90.1227 39.6801 90.2065 39.9564C91.3329 43.5987 90.523 46.7287 87.8327 49.4177C84.0004 53.2463 80.2084 57.1184 76.3544 60.9252C75.5848 61.686 75.4483 62.189 76.3078 62.9715C77.5646 64.1142 78.7375 65.3562 79.9074 66.592C80.4566 67.1727 80.8662 67.1789 81.4341 66.6013C86.1291 61.8288 90.9326 57.1618 95.5345 52.2992C100.161 47.4087 100.701 39.6708 97.0426 34.0195C96.844 33.6997 96.6051 33.4047 96.301 32.9917Z" fill="#49A6A6"/>
<path d="M23.0435 85.7071C20.7658 82.6951 19.7853 79.4348 19.9311 75.8484C20.0925 71.8956 21.6006 68.4986 24.3933 65.6853C28.8369 61.2109 33.2961 56.7489 37.7117 52.2465C38.4161 51.5292 38.8785 51.4547 39.5798 52.2247C40.7248 53.4854 41.9288 54.6902 43.167 55.8608C43.8465 56.5035 43.769 56.9414 43.139 57.5686C39.3254 61.363 35.5799 65.2227 31.7445 68.9923C28.9021 71.7807 27.9215 74.9789 29.1504 78.8137C29.2279 79.0528 29.2093 79.4627 29.0573 79.618C27.0992 81.6394 25.107 83.6297 23.0435 85.7071Z" fill="#49A6A6"/>
<path d="M33.2495 95.9725C35.3069 93.9324 37.2711 91.9607 39.2726 90.0355C39.4836 89.8306 39.9801 89.753 40.2811 89.8368C43.9055 90.8366 46.9589 89.9486 49.581 87.2627C53.3109 83.4434 57.0998 79.6831 60.8669 75.898C61.9313 74.8298 61.9344 74.8298 63.0267 75.9321C64.1996 77.1121 65.3602 78.3013 66.5425 79.4751C66.9955 79.9253 67.1351 80.3041 66.6107 80.8382C63.0701 84.4619 59.6226 88.1818 55.9951 91.7123C54.0681 93.5878 51.9704 95.367 49.7051 96.8047C44.1599 100.326 38.7327 99.9843 33.2495 95.9725Z" fill="#49A6A6"/>
</g>
<defs>
<clipPath id="clip0_52:185">
<rect width="119" height="119" fill="white"/>
</clipPath>
</defs>
</svg>
