<svg width="115" height="116" viewBox="0 0 115 116" fill="none" xmlns="http://www.w3.org/2000/svg">
<path d="M77.6613 42.0285C77.4809 42.141 77.2953 42.2567 77.1152 42.3763C76.9151 42.2951 76.7296 42.2288 76.5654 42.17L76.5461 42.1631C76.5459 42.1631 76.5457 42.163 76.5455 42.1629C76.0867 41.9978 75.8356 41.9016 75.6429 41.738C74.8058 41.0214 73.8646 40.1798 73.0989 39.2438L73.0984 39.2432C72.7576 38.8279 72.5987 38.3924 72.5925 37.9528C72.5862 37.5093 72.735 37.0203 73.0801 36.5048C73.2449 36.2605 73.4627 36.0438 73.7148 35.7996L73.716 35.7985L73.8806 35.638L73.8844 35.6342C85.1893 24.3735 96.4975 13.1161 107.806 1.85869L107.812 1.85249C108.827 0.841965 109.534 0.5 110.153 0.5C110.761 0.5 111.456 0.827587 112.463 1.79096C112.615 1.93826 112.761 2.08104 112.904 2.22639C114.063 3.40691 114.499 4.16929 114.5 4.83308C114.5 5.49349 114.069 6.23944 112.915 7.38692L112.915 7.38718L107.234 13.042L107.234 13.0421C98.0635 22.1748 88.5809 31.6181 79.236 40.8875L79.2354 40.8881C78.809 41.3126 78.282 41.6414 77.7145 41.9953L77.7144 41.9953L77.6613 42.0285Z" fill="#71DFDF" stroke="#013E46"/>
<path d="M5.02814 114.784C5.20761 114.665 5.39248 114.55 5.57227 114.438L5.62551 114.405L5.62556 114.405C6.19306 114.051 6.72006 113.722 7.14645 113.297L7.14703 113.297C16.4818 104.034 25.9578 94.6008 35.1183 85.4749L35.1183 85.4749L40.8222 79.7933L40.8226 79.7929C41.9769 78.6454 42.4082 77.8995 42.4076 77.2391C42.4069 76.5753 41.9706 75.8129 40.8116 74.6324C40.6689 74.4871 40.5222 74.3443 40.3709 74.197C39.3636 73.2336 38.6687 72.906 38.0611 72.906C37.442 72.906 36.7349 73.248 35.7198 74.2585L35.7081 74.2702C24.4016 85.5258 13.0951 96.7813 1.79209 108.04L1.78841 108.044L1.62044 108.208L1.61915 108.209C1.36628 108.454 1.14902 108.67 0.988009 108.911L0.573068 108.633L0.988008 108.911C0.642722 109.426 0.493925 109.915 0.50019 110.359C0.506401 110.798 0.665264 111.234 1.00607 111.649L5.02814 114.784ZM5.02814 114.784C4.82604 114.702 4.63888 114.635 4.47321 114.576L4.45379 114.569C4.45358 114.569 4.45337 114.569 4.45316 114.569C3.99446 114.404 3.74336 114.308 3.55064 114.144C2.71437 113.428 1.77577 112.586 1.0061 111.649L5.02814 114.784Z" fill="#71DFDF" stroke="#013E46"/>
<path d="M47.4246 38.632L47.4239 38.6327C47.1045 38.9446 47.0561 39.1213 47.0571 39.2225L47.4246 38.632ZM47.4246 38.632C49.2198 36.8716 51.0316 35.0713 52.7818 33.329C56.0713 30.0543 59.4659 26.675 62.8932 23.4433M47.4246 38.632L82.9438 22.3423M82.9438 22.3423L82.9404 22.3398L82.9202 22.3248C82.671 22.1387 82.4718 21.9899 82.2623 21.8539C79.6912 20.1987 76.6821 19.3225 73.5516 19.3225C69.4906 19.3225 65.7084 20.7896 62.8932 23.4433M82.9438 22.3423C82.9744 22.3648 83.0078 22.3897 83.0434 22.4163L81.9159 23.5411C81.9159 23.5411 81.9159 23.5411 81.9159 23.5411C81.7293 23.727 81.5438 23.9117 81.3593 24.0954C79.7994 25.6489 78.3096 27.1326 76.7716 28.6189L76.7706 28.6199M82.9438 22.3423L76.7706 28.6199M62.8932 23.4433L62.5508 23.08L62.8932 23.4433ZM76.7706 28.6199C76.7708 28.6197 76.7709 28.6196 76.7708 28.6196C76.7706 28.6193 76.7478 28.6364 76.6803 28.6516C76.6099 28.6675 76.5305 28.6724 76.464 28.6724C76.3292 28.6724 76.2084 28.6538 76.1244 28.6266L76.1244 28.6265M76.7706 28.6199L76.1244 28.6265M76.1244 28.6265L76.1175 28.6244M76.1244 28.6265L76.1175 28.6244M76.1175 28.6244C74.9478 28.264 73.7996 28.0772 72.7051 28.0772C70.0639 28.0772 67.6507 29.1678 65.5497 31.2629L65.5496 31.2629M76.1175 28.6244L65.5496 31.2629M65.5496 31.2629C63.8809 32.9275 62.2054 34.5854 60.5291 36.2442C58.0879 38.6576 55.5642 41.1533 53.1039 43.6359C52.9269 43.8104 52.7575 43.9628 52.5891 44.0713C52.4205 44.1799 52.2866 44.2224 52.1771 44.2224C52.0132 44.2224 51.762 44.1296 51.3635 43.6959M65.5496 31.2629L51.3635 43.6959M51.3635 43.6959C50.1361 42.3488 48.7854 41.0755 47.4911 39.8572L47.4287 39.7983C47.4285 39.7981 47.4284 39.798 47.4282 39.7978C47.1095 39.4954 47.0583 39.3223 47.0571 39.2225L51.3635 43.6959Z" fill="#49A6A6" stroke="#013E46"/>
<path d="M70.5184 61.9226C70.5237 62.0856 70.6203 62.333 71.0488 62.7196L71.0494 62.7202C72.389 63.9328 73.6592 65.2666 74.8746 66.5428L74.902 66.5716L74.9021 66.5718L74.9615 66.6342C74.9617 66.6344 74.9619 66.6346 74.9621 66.6348C75.2681 66.9542 75.4442 67.005 75.5477 67.005C75.6541 67.005 75.8352 66.9511 76.1484 66.6429C77.9123 64.8568 79.7229 63.0544 81.4714 61.3138L81.4733 61.3119C84.7627 58.0373 88.1573 54.6579 91.4035 51.246L70.5184 61.9226ZM70.5184 61.9226C70.5162 61.7488 70.5966 61.5024 71.1069 61.004L71.1081 61.0028C73.5991 58.5531 76.1099 56.0402 78.5353 53.609L78.537 53.6073C80.2026 51.9392 81.8676 50.2716 83.5359 48.6109C85.0382 47.1186 86.025 45.5018 86.4707 43.7356C86.9166 41.9689 86.8118 40.0901 86.1901 38.0893L86.1897 38.0882C86.1596 37.9919 86.1354 37.831 86.1445 37.675C86.1547 37.5025 86.1981 37.4432 86.1976 37.4437L86.1982 37.4431C87.8662 35.7327 89.5312 34.0783 91.296 32.3248L91.312 32.3089L91.312 32.3089L92.4336 31.1948C92.462 31.2323 92.4901 31.269 92.5178 31.3053C92.7071 31.5533 92.8592 31.7586 92.9999 31.9733C96.9386 38.0357 96.2571 46.1425 91.4036 51.2459L70.5184 61.9226Z" fill="#49A6A6" stroke="#013E46"/>
<path d="M40.8758 47.6652L40.5081 48.004C40.5079 48.0037 40.5076 48.0035 40.5074 48.0032C40.1276 47.5912 39.9134 47.5198 39.7706 47.5198C39.6228 47.5198 39.3971 47.5927 38.9649 48.0324L38.9645 48.0328C35.769 51.2762 32.5049 54.5432 29.3209 57.73C28.912 58.1393 28.5044 58.5472 28.0985 58.9537L28.098 58.9541C26.9121 60.138 25.7268 61.3213 24.545 62.5079L24.5446 62.5082C21.568 65.491 19.9788 69.0915 19.8094 73.231L19.8094 73.2312C19.6548 76.9798 20.6589 80.2786 22.8825 83.3261L44.4064 51.9353M40.8758 47.6652C42.0246 48.9226 43.291 50.2 44.7489 51.5711M40.8758 47.6652C40.466 47.2204 40.1267 47.0198 39.7706 47.0198C39.4145 47.0198 39.0652 47.2171 38.6083 47.6819L40.8758 47.6652ZM44.7489 51.5711L44.4059 51.9348C44.406 51.935 44.4062 51.9351 44.4064 51.9353M44.7489 51.5711L44.4064 51.9353M44.7489 51.5711C45.1319 51.9322 45.3133 52.2499 45.3166 52.5709M44.4064 51.9353C44.7517 52.2611 44.8154 52.4573 44.8167 52.5762M45.3166 52.5709L44.8167 52.576C44.8167 52.576 44.8167 52.5761 44.8167 52.5762M45.3166 52.5709C45.32 52.9053 45.1352 53.2364 44.7187 53.6477M45.3166 52.5709L44.8167 52.5762M44.8167 52.5762L44.7187 53.6477M44.7187 53.6477C42.9854 55.3632 41.2352 57.1222 39.5422 58.8244L44.7187 53.6477Z" fill="#49A6A6" stroke="#013E46"/>
<path d="M40.9435 95.54C37.9849 95.54 34.9428 94.4742 31.8857 92.3228L33.0916 91.1322L33.0921 91.1318C34.8151 89.4265 36.4448 87.8175 38.1241 86.2091C38.1587 86.1764 38.2332 86.1324 38.3547 86.0976C38.4717 86.0641 38.5964 86.0496 38.6928 86.0496C38.7815 86.0496 38.851 86.0592 38.9022 86.0726C39.9632 86.3633 41.0048 86.5144 41.9983 86.5144C44.7391 86.5144 47.1335 85.4151 49.295 83.2147L49.2952 83.2146C52.0373 80.4212 54.8526 77.6155 57.587 74.8903C57.7277 74.7501 57.8682 74.6101 58.0084 74.4703L58.0087 74.47C58.4741 74.0054 58.9406 73.5407 59.4075 73.0756C60.1083 72.3776 60.8099 71.6788 61.5095 70.9784C61.8213 70.6662 62.0215 70.4677 62.1858 70.3415C62.3406 70.2226 62.4005 70.2188 62.4255 70.2188C62.4487 70.2188 62.5117 70.2227 62.6756 70.3497C62.8469 70.4825 63.0561 70.6908 63.3776 71.0142L63.3781 71.0148C63.8115 71.4496 64.2442 71.8837 64.6767 72.3209L64.6773 72.3215L64.6785 72.3227C65.5109 73.1614 66.3453 74.0021 67.1868 74.8331C67.3967 75.0404 67.4959 75.1925 67.519 75.3137C67.5329 75.386 67.54 75.5457 67.2589 75.8323C66.1376 76.9714 65.0114 78.1375 63.9116 79.2762C63.7244 79.47 63.538 79.663 63.3525 79.855L63.352 79.8555C60.8925 82.4076 58.352 85.0367 55.7691 87.5379L55.769 87.538C53.4096 89.8238 51.1993 91.5997 49.0142 92.9786C46.3006 94.6902 43.5903 95.54 40.9435 95.54Z" fill="#49A6A6" stroke="#013E46"/>
<line x1="21.6565" y1="17.9558" x2="36.809" y2="33.1083" stroke="#013E46"/>
<line x1="44.5315" y1="7.57642" x2="44.5315" y2="29.0053" stroke="#013E46"/>
<line x1="11.2012" y1="41.1692" x2="32.63" y2="41.1692" stroke="#013E46"/>
</svg>
