<svg width="136" height="136" viewBox="0 0 136 136" fill="none" xmlns="http://www.w3.org/2000/svg">
<mask id="mask0_90:4840" style="mask-type:alpha" maskUnits="userSpaceOnUse" x="0" y="0" width="136" height="136">
<circle cx="68" cy="68" r="68" fill="#C4C4C4"/>
</mask>
<g mask="url(#mask0_90:4840)">
<rect x="-61.2944" y="-4" width="252.295" height="185.137" fill="#BAF8F6"/>
<path d="M88.1387 118.455L50.4668 121.237C49.9568 116.879 49.2381 99.9091 49.2381 99.9091C49.2381 99.9091 33.4507 98.4486 32.3148 82.8467C31.1788 67.2447 31.6425 31.1957 31.6425 31.1957C40.2873 26.8359 49.9389 24.8618 59.6012 25.4772C69.2636 26.0926 78.5868 29.2751 86.6087 34.6963L88.927 36.3422L88.1387 118.455Z" fill="#FFBE9D"/>
<path d="M36.7894 57.8329C37.0748 57.6406 37.3138 57.3872 37.4891 57.091C37.6644 56.7948 37.7716 56.4633 37.8028 56.1206C37.834 55.7778 37.7885 55.4325 37.6696 55.1095C37.5507 54.7865 37.3615 54.4941 37.1155 54.2534C36.8696 54.0127 36.5731 53.8298 36.2476 53.7179C35.9221 53.6061 35.5758 53.5681 35.2338 53.6067C34.8918 53.6453 34.5628 53.7596 34.2705 53.9413C33.9782 54.1229 33.73 54.3674 33.5439 54.6569C33.2554 55.1057 33.1305 55.6403 33.1904 56.1705C33.2503 56.7007 33.4912 57.1941 33.8726 57.5672C34.2539 57.9404 34.7524 58.1706 35.2837 58.219C35.8151 58.2674 36.3469 58.131 36.7894 57.8329Z" fill="#263238"/>
<path d="M32.8017 54.4943C33.0567 54.7493 34.5172 53.4743 36.6732 53.3352C38.8291 53.1961 40.452 54.1929 40.6607 53.9147C40.8693 53.6365 40.4984 53.312 39.7797 52.8252C38.8285 52.2189 37.7044 51.942 36.5805 52.0369C35.4455 52.1146 34.365 52.5533 33.4971 53.2888C32.8712 53.8684 32.6626 54.3784 32.8017 54.4943Z" fill="#263238"/>
<path d="M57.6997 54.8421C57.3143 55.0988 57.0145 55.465 56.8391 55.8936C56.6637 56.3222 56.6208 56.7935 56.7157 57.2468C56.8107 57.7001 57.0391 58.1145 57.3717 58.4367C57.7043 58.7589 58.1257 58.9741 58.5818 59.0546C59.0378 59.1351 59.5076 59.0772 59.9304 58.8883C60.3532 58.6993 60.7098 58.3881 60.9541 57.9947C61.1984 57.6013 61.3193 57.1438 61.3012 56.6811C61.2831 56.2183 61.1268 55.7716 60.8525 55.3985C60.4994 54.9181 59.9748 54.5923 59.3876 54.4887C58.8005 54.385 58.196 54.5116 57.6997 54.8421Z" fill="#263238"/>
<path d="M56.2625 54.9349C56.5407 55.1899 58.0011 53.9148 60.1339 53.7757C62.2667 53.6366 63.9128 54.6567 64.1446 54.3553C64.3765 54.0539 63.9824 53.7525 63.2637 53.2889C62.3074 52.6728 61.1753 52.3877 60.0413 52.4775C58.9105 52.5617 57.8372 53.009 56.9811 53.7526C56.3552 54.3321 56.1466 54.8421 56.2625 54.9349Z" fill="#263238"/>
<path d="M48.7512 73.226C47.5947 73.528 46.3963 73.6377 45.2042 73.5506C44.8811 73.5936 44.5537 73.5936 44.2306 73.5506C44.0063 73.5029 43.7968 73.4022 43.6193 73.2571C43.4419 73.1119 43.3017 72.9264 43.2105 72.716C43.0064 71.9466 43.0635 71.1312 43.3728 70.3977L44.7175 65.9003C45.7277 61.9909 47.1095 58.1871 48.8439 54.5408C48.2345 58.4919 47.2407 62.3741 45.8766 66.1321C45.3666 67.6853 44.903 69.1458 44.4393 70.6063C44.1867 71.116 44.0823 71.6863 44.1379 72.2523C44.1379 72.5537 44.6479 72.6464 45.2274 72.6696C46.4242 72.6652 47.614 72.853 48.7512 73.226Z" fill="#263238"/>
<path d="M55.8686 75.1734C58.0246 73.6897 49.9106 78.8131 45.5291 78.8827C46.3258 79.9641 47.4659 80.7433 48.7629 81.0928C50.0599 81.4423 51.4371 81.3415 52.6694 80.8068C57.2363 78.8131 55.8686 75.1734 55.8686 75.1734Z" fill="white"/>
<path d="M49.0991 99.6773C56.3092 99.3896 63.2719 96.9692 69.1058 92.7225C69.1058 92.7225 64.9793 104.314 49.3078 103.827L49.0991 99.6773Z" fill="#EB996E"/>
<path d="M85.4265 53.6135C85.7743 53.4744 97.0178 52.0139 95.9514 65.2048C94.885 78.3958 81.8333 73.0174 81.8333 72.6465C81.8333 72.2755 85.4265 53.6135 85.4265 53.6135Z" fill="#FFBE9D"/>
<path d="M86.2843 68.404C86.2843 68.404 86.493 68.5663 86.8639 68.7749C87.397 69.0613 88.021 69.1279 88.6026 68.9604C89.5034 68.487 90.2616 67.7821 90.7995 66.9183C91.3373 66.0544 91.6354 65.0629 91.6627 64.0456C91.7966 62.9021 91.6616 61.7432 91.2685 60.661C91.1763 60.2381 90.9825 59.844 90.7038 59.5128C90.4251 59.1816 90.0698 58.9232 89.6689 58.76C89.4106 58.6678 89.1284 58.6683 88.8705 58.7613C88.6125 58.8544 88.3948 59.0342 88.2548 59.27C88.0462 59.6409 88.1158 59.9191 88.0462 59.9191C87.9767 59.9191 87.7679 59.6873 87.9302 59.1309C88.0287 58.8102 88.233 58.5324 88.5098 58.3427C88.9042 58.0989 89.3773 58.0159 89.8312 58.1109C90.3854 58.2632 90.8905 58.557 91.297 58.9634C91.7034 59.3698 91.9972 59.8749 92.1495 60.4292C92.619 61.6299 92.794 62.9257 92.6596 64.2079C92.6271 65.3972 92.2446 66.5505 91.5602 67.5236C90.8757 68.4967 89.9195 69.2465 88.8112 69.6791C88.4456 69.7494 88.069 69.738 87.7084 69.6458C87.3477 69.5537 87.0118 69.3829 86.7248 69.1459C86.2843 68.7286 86.238 68.4272 86.2843 68.404Z" fill="#EB996E"/>
<path d="M32.7784 32.1463C30.8655 31.578 29.1951 30.3913 28.0289 28.772C26.8626 27.1527 26.2665 25.1923 26.3337 23.1978C26.4796 21.2076 27.1624 19.2941 28.3096 17.6612C29.4567 16.0282 31.0252 14.7369 32.8481 13.9247C34.6832 13.1335 36.6653 12.7409 38.6635 12.7729C40.6617 12.8048 42.6305 13.2607 44.4394 14.1102C45.0042 11.206 46.5811 8.59637 48.8896 6.74585C51.1981 4.89533 54.0883 3.92397 57.0458 4.00465C60.0034 4.08534 62.8363 5.21284 65.0405 7.18647C67.2446 9.1601 68.677 11.8518 69.0826 14.7825C69.4767 11.7687 72.8846 10.146 76.0374 9.91415C77.5483 9.75453 79.0756 9.94318 80.5022 10.4656C81.9288 10.988 83.2168 11.8303 84.2672 12.9279C85.2806 14.059 85.8409 15.5242 85.8409 17.0428C85.8409 18.5615 85.2806 20.0267 84.2672 21.1577C87.6728 20.7074 91.1245 21.5332 93.9576 23.476C95.3503 24.461 96.4744 25.7788 97.2275 27.3094C97.9807 28.84 98.3389 30.5347 98.2695 32.2391C98.1431 33.938 97.4867 35.5543 96.3929 36.8603C95.299 38.1663 93.8228 39.096 92.1725 39.5184C91.0133 39.7503 89.6456 39.8198 89.0196 40.8167C88.7375 41.3998 88.625 42.0505 88.6951 42.6945L89.0429 53.938C87.9955 53.5749 86.8491 53.6244 85.837 54.0766C84.8249 54.5289 84.0231 55.3497 83.5948 56.3722C82.8059 58.4563 82.5899 60.7138 82.969 62.9098C82.0185 64.3471 79.5843 63.9298 78.541 62.5388C77.6459 61.0389 77.2483 59.2942 77.4051 57.5546C77.3124 51.5271 77.2352 45.5073 77.1733 39.4952C76.2827 39.9879 75.2813 40.246 74.2635 40.2454C73.2456 40.2448 72.2447 39.9855 71.3546 39.4918C70.4645 38.9981 69.7147 38.2862 69.1753 37.423C68.6359 36.5599 68.3247 35.5738 68.2711 34.5574C66.9902 35.7835 65.4519 36.7083 63.7682 37.2644C62.0844 37.8204 60.2978 37.9937 58.5386 37.7716C56.7794 37.5495 55.0919 36.9376 53.5993 35.9804C52.1066 35.0233 50.8464 33.7451 49.9105 32.2391C48.1156 33.7988 46.129 35.1232 43.9989 36.1801C41.8367 37.2403 39.3565 37.4552 37.0441 36.7829C35.9062 36.419 34.9071 35.7149 34.1817 34.7657C33.4562 33.8164 33.0394 32.6676 32.9872 31.4741L33.7753 30.8017" fill="#FF725E"/>
<path d="M88.2549 30.6857C88.2549 30.5234 89.2285 29.6888 90.5731 28.1356C91.3977 27.2605 92.0365 26.2274 92.4509 25.0987C92.7084 24.4571 92.8191 23.766 92.7749 23.0761C92.7308 22.3861 92.533 21.7148 92.1959 21.1113C91.8855 20.5229 91.3993 20.0459 90.8052 19.7468C90.211 19.4476 89.5384 19.3411 88.8808 19.4421C87.6895 19.6366 86.5477 20.0619 85.5193 20.6939C83.7111 21.7372 82.807 22.7572 82.6679 22.6413C82.5288 22.5254 83.2243 21.2967 84.9862 19.9753C86.0722 19.1657 87.3224 18.6039 88.6489 18.3293C89.5022 18.1688 90.3843 18.274 91.1759 18.6307C92.0056 19.0434 92.698 19.6876 93.1696 20.4853C93.5941 21.2442 93.8381 22.0908 93.8823 22.9593C93.9265 23.8277 93.7699 24.6947 93.4247 25.4928C92.9139 26.7397 92.1203 27.8508 91.1064 28.7383C90.3189 29.5988 89.3429 30.2653 88.2549 30.6857Z" fill="#FF725E"/>
<path d="M58.3721 14.5738C58.6386 13.3476 59.1513 12.1882 59.879 11.1659C60.5804 9.97666 61.4734 8.91139 62.5219 8.01307C63.8801 6.8822 65.5774 6.23761 67.3439 6.18165C68.2485 6.15254 69.146 6.34922 69.9555 6.75397C70.765 7.15872 71.461 7.75879 71.9804 8.49992C72.7986 9.68215 73.2131 11.0969 73.1626 12.5337C73.2334 13.8133 72.9098 15.0837 72.2354 16.1734C72.0268 16.1734 72.4209 14.7361 72.2354 12.5801C72.1624 11.3461 71.7447 10.1574 71.0299 9.14903C70.5718 8.59021 69.9895 8.14616 69.3294 7.85233C68.6693 7.5585 67.9496 7.42304 67.2279 7.45671C65.8448 7.60064 64.5132 8.06005 63.3356 8.79958C62.158 9.5391 61.1657 10.539 60.4354 11.7223C59.2762 13.461 58.5343 14.6665 58.3721 14.5738Z" fill="#FF725E"/>
<path opacity="0.4" d="M32.7789 32.1463C30.866 31.578 29.1956 30.3913 28.0293 28.772C26.8631 27.1527 26.267 25.1923 26.3342 23.1978C26.4801 21.2076 27.1629 19.2941 28.3101 17.6612C29.4572 16.0282 31.0257 14.7369 32.8486 13.9247C34.6837 13.1335 36.6658 12.7409 38.664 12.7729C40.6622 12.8048 42.631 13.2607 44.4399 14.1102C45.0047 11.206 46.5816 8.59637 48.8901 6.74585C51.1986 4.89533 54.0888 3.92397 57.0463 4.00465C60.0039 4.08534 62.8368 5.21284 65.041 7.18647C67.2451 9.1601 68.6775 11.8518 69.0831 14.7825C69.4772 11.7687 72.8851 10.146 76.0379 9.91415C77.5487 9.75453 79.076 9.94318 80.5027 10.4656C81.9293 10.988 83.2172 11.8303 84.2677 12.9279C85.2811 14.059 85.8414 15.5242 85.8414 17.0428C85.8414 18.5615 85.2811 20.0267 84.2677 21.1577C87.6733 20.7074 91.125 21.5332 93.9581 23.476C95.3508 24.461 96.4749 25.7788 97.228 27.3094C97.9812 28.84 98.3394 30.5347 98.27 32.2391C98.1436 33.938 97.4872 35.5543 96.3933 36.8603C95.2995 38.1663 93.8233 39.096 92.173 39.5184C91.0138 39.7503 89.6461 39.8198 89.0201 40.8167C88.738 41.3998 88.6255 42.0505 88.6955 42.6945L89.0433 53.938C87.996 53.5749 86.8496 53.6244 85.8375 54.0766C84.8254 54.5289 84.0236 55.3497 83.5953 56.3722C82.8064 58.4563 82.5904 60.7138 82.9695 62.9098C82.019 64.3471 79.5847 63.9298 78.5415 62.5388C77.6464 61.0389 77.2488 59.2942 77.4056 57.5546C77.3129 51.5271 77.2356 45.5073 77.1738 39.4952C76.2832 39.9879 75.2818 40.246 74.264 40.2454C73.2461 40.2448 72.2452 39.9855 71.3551 39.4918C70.465 38.9981 69.7152 38.2862 69.1758 37.423C68.6364 36.5599 68.3252 35.5738 68.2716 34.5574C66.9907 35.7835 65.4524 36.7083 63.7687 37.2644C62.0849 37.8204 60.2983 37.9937 58.5391 37.7716C56.7799 37.5495 55.0924 36.9376 53.5998 35.9804C52.1071 35.0233 50.8469 33.7451 49.911 32.2391C48.1161 33.7988 46.1295 35.1232 43.9994 36.1801C41.8371 37.2403 39.357 37.4552 37.0446 36.7829C35.9067 36.419 34.9076 35.7149 34.1822 34.7657C33.4567 33.8164 33.0399 32.6676 32.9876 31.4741L33.7758 30.8017" fill="black"/>
<path opacity="0.4" d="M88.2551 30.6857C88.2551 30.5234 89.2288 29.6888 90.5734 28.1356C91.398 27.2605 92.0367 26.2274 92.4512 25.0987C92.7086 24.4571 92.8193 23.766 92.7752 23.0761C92.7311 22.3861 92.5333 21.7148 92.1962 21.1113C91.8857 20.5229 91.3996 20.0459 90.8054 19.7468C90.2112 19.4476 89.5386 19.3411 88.8811 19.4421C87.6898 19.6366 86.5479 20.0619 85.5196 20.6939C83.7113 21.7372 82.8072 22.7572 82.6681 22.6413C82.529 22.5254 83.2245 21.2967 84.9864 19.9753C86.0725 19.1657 87.3226 18.6039 88.6492 18.3293C89.5025 18.1688 90.3845 18.274 91.1761 18.6307C92.0058 19.0434 92.6983 19.6876 93.1698 20.4853C93.5944 21.2442 93.8383 22.0908 93.8825 22.9593C93.9268 23.8277 93.7702 24.6947 93.4249 25.4928C92.9141 26.7397 92.1205 27.8508 91.1067 28.7383C90.3192 29.5988 89.3431 30.2653 88.2551 30.6857Z" fill="black"/>
<path opacity="0.4" d="M58.3721 14.5738C58.6386 13.3476 59.1513 12.1882 59.879 11.1659C60.5804 9.97666 61.4734 8.91139 62.5219 8.01307C63.8801 6.8822 65.5774 6.23761 67.3439 6.18165C68.2485 6.15254 69.146 6.34922 69.9555 6.75397C70.765 7.15872 71.461 7.75879 71.9804 8.49992C72.7986 9.68215 73.2131 11.0969 73.1626 12.5337C73.2334 13.8133 72.9098 15.0837 72.2354 16.1734C72.0268 16.1734 72.4209 14.7361 72.2354 12.5801C72.1624 11.3461 71.7447 10.1574 71.0299 9.14903C70.5718 8.59021 69.9895 8.14616 69.3294 7.85233C68.6693 7.5585 67.9496 7.42304 67.2279 7.45671C65.8448 7.60064 64.5132 8.06005 63.3356 8.79958C62.158 9.5391 61.1657 10.539 60.4354 11.7223C59.2762 13.461 58.5343 14.6665 58.3721 14.5738Z" fill="black"/>
<path d="M102.383 115.071C97.435 113.23 92.2445 112.194 86.994 112C74.9033 115.981 61.9287 115.981 49.838 112C38.4352 113.073 27.1566 115.276 16.1555 118.58L-31 131.829L-15.5692 192.106L12.8925 182.103C12.8925 182.103 -2.68567 294.08 -2.412 306.605L122.529 298.028L117.75 236.085L116.171 182.323L151.959 189.166L176 139.177" fill="#FF725E"/>
<path d="M91.7126 112.014C91.7126 112.014 91.2088 112.496 90.1804 113.176C88.7136 114.122 87.1764 114.943 85.5836 115.631C83.2329 116.698 80.7953 117.542 78.3002 118.153C75.237 118.87 72.1177 119.296 68.9809 119.424C65.8384 119.498 62.6965 119.256 59.5985 118.701C57.0749 118.246 54.5953 117.556 52.1892 116.64C50.5606 116.044 48.9811 115.311 47.4665 114.447C46.8852 114.174 46.3416 113.82 45.8503 113.395C45.8503 113.22 48.3271 114.513 52.4201 115.873C54.8222 116.663 57.278 117.264 59.7665 117.67C62.8022 118.142 65.8704 118.348 68.9389 118.284C72.0075 118.156 75.0611 117.767 78.0694 117.122C80.5236 116.574 82.9366 115.841 85.2897 114.93C89.3197 113.351 91.6287 111.839 91.7126 112.014Z" fill="#263238"/>
</g>
</svg>
