<svg width="136" height="136" viewBox="0 0 136 136" fill="none" xmlns="http://www.w3.org/2000/svg">
<mask id="mask0_90:4764" style="mask-type:alpha" maskUnits="userSpaceOnUse" x="0" y="0" width="136" height="136">
<circle cx="68" cy="68" r="68" fill="#C4C4C4"/>
</mask>
<g mask="url(#mask0_90:4764)">
<rect x="-61.2944" y="-4" width="252.295" height="185.137" fill="#BAF8F6"/>
<path d="M41.2658 125.407L79.8502 121.667C80.3389 117.311 79.574 96.1708 79.574 96.1708C79.574 96.1708 95.2967 94.6835 96.4228 79.1732C97.5489 63.663 96.9965 27.692 96.9965 27.692C88.3721 23.3553 78.7463 21.3998 69.1133 22.0273C59.4804 22.6548 50.1896 25.8426 42.2007 31.2615L39.7786 32.8975L41.2658 125.407Z" fill="#B78876"/>
<path d="M88.0089 53.9744C87.7783 53.766 87.5929 53.5126 87.4641 53.2298C87.3354 52.947 87.266 52.6408 87.2602 52.3301C87.2544 52.0194 87.3123 51.7108 87.4305 51.4234C87.5486 51.136 87.7244 50.8758 87.947 50.659C88.1697 50.4422 88.4344 50.2733 88.7248 50.1628C89.0153 50.0524 89.3253 50.0026 89.6358 50.0166C89.9462 50.0306 90.2504 50.1081 90.5297 50.2443C90.809 50.3806 91.0575 50.5726 91.2596 50.8086C91.6356 51.2474 91.8303 51.813 91.8043 52.3902C91.7782 52.9675 91.5333 53.5132 91.1193 53.9164C90.7053 54.3196 90.1533 54.5499 89.5755 54.5607C88.9978 54.5715 88.4376 54.3618 88.0089 53.9744V53.9744Z" fill="#263238"/>
<path d="M95.2966 50.7663C95.0417 51.0213 93.5969 49.7677 91.4509 49.619C89.305 49.4703 87.669 50.4901 87.4565 50.2139C87.2441 49.9377 87.6265 49.5978 88.3276 49.1303C89.2829 48.5251 90.407 48.2418 91.535 48.3221C92.663 48.4024 93.7356 48.842 94.5955 49.5765C95.2329 50.1502 95.4241 50.6601 95.2966 50.7663Z" fill="#263238"/>
<path d="M68.6316 51.2549C68.9997 51.5133 69.2828 51.8751 69.4452 52.2945C69.6076 52.7139 69.642 53.172 69.544 53.6109C69.446 54.0498 69.2199 54.4498 68.8946 54.7603C68.5692 55.0707 68.159 55.2777 67.716 55.355C67.273 55.4323 66.817 55.3765 66.4057 55.1946C65.9944 55.0127 65.6462 54.7129 65.4054 54.3331C65.1645 53.9533 65.0416 53.5106 65.0524 53.061C65.0632 52.6114 65.2071 52.1751 65.4658 51.8073C65.8161 51.319 66.3439 50.9877 66.9359 50.8844C67.5278 50.7811 68.1367 50.9141 68.6316 51.2549V51.2549Z" fill="#263238"/>
<path d="M72.4776 51.3609C72.2014 51.6159 70.7565 50.3411 68.6106 50.2136C66.4647 50.0861 64.8287 51.0847 64.6162 50.7873C64.4037 50.4898 64.7862 50.1924 65.4873 49.7249C66.4426 49.1197 67.5667 48.8364 68.6947 48.9167C69.8227 48.997 70.8953 49.4366 71.7552 50.1711C72.3926 50.7448 72.605 51.2547 72.4776 51.3609Z" fill="#263238"/>
<path d="M79.9988 69.5697C81.141 69.2201 82.3316 69.0551 83.5258 69.081C84.0782 69.081 84.5456 68.9536 84.6094 68.6348C84.6744 68.0652 84.571 67.4891 84.3119 66.9776L82.8884 62.5157C81.5167 58.7315 80.5065 54.8259 79.8713 50.8512C81.5957 54.4892 82.9757 58.2806 83.9932 62.1758C84.4607 63.7268 84.9069 65.2141 85.3318 66.6589C85.6482 67.397 85.7081 68.2199 85.5018 68.996C85.4101 69.2015 85.2723 69.3832 85.0991 69.5269C84.926 69.6706 84.7221 69.7725 84.5032 69.8247C84.1856 69.8632 83.8646 69.8632 83.547 69.8247C82.3584 69.9397 81.1588 69.8535 79.9988 69.5697Z" fill="#263238"/>
<path d="M79.7013 95.9585C72.4974 95.6641 65.5444 93.2306 59.7292 88.9683C59.7292 88.9683 63.8512 100.463 79.4889 99.9954L79.7013 95.9585Z" fill="#A36957"/>
<path d="M42.8807 46.6654C42.5407 46.5379 31.3224 45.0931 32.406 58.3299C33.4896 71.5667 46.5139 66.1063 46.4927 65.7239C46.4714 65.3414 42.8807 46.6654 42.8807 46.6654Z" fill="#B78876"/>
<path d="M42.0519 61.4108C42.0519 61.4108 41.8394 61.6021 41.457 61.8145C40.9238 62.081 40.311 62.1415 39.736 61.9845C38.8412 61.5056 38.0877 60.8003 37.5509 59.939C37.014 59.0777 36.7124 58.0907 36.6764 57.0765C36.5584 55.943 36.6889 54.7973 37.0589 53.7194C37.1498 53.2955 37.3423 52.9 37.6199 52.5669C37.8975 52.2338 38.2518 51.9731 38.6524 51.8072C38.9147 51.72 39.1989 51.7252 39.4578 51.8218C39.7168 51.9184 39.9349 52.1007 40.0759 52.3384C40.2672 52.6784 40.2034 52.9546 40.2884 52.9758C40.3734 52.9971 40.5434 52.7208 40.3946 52.1897C40.2963 51.8651 40.0853 51.5864 39.7997 51.4035C39.4149 51.1591 38.9496 51.0752 38.5036 51.1698C37.9882 51.3355 37.5231 51.6288 37.1516 52.0226C36.7801 52.4164 36.5143 52.8978 36.379 53.422C35.901 54.6142 35.7258 55.9063 35.8691 57.1827C35.9009 58.365 36.2808 59.5115 36.961 60.479C37.6413 61.4465 38.5917 62.1919 39.6935 62.6219C40.0644 62.7082 40.4505 62.7051 40.8199 62.6127C41.1893 62.5203 41.5315 62.3414 41.8182 62.0907C42.0519 61.6658 42.1156 61.4321 42.0519 61.4108Z" fill="#A36957"/>
<path d="M57.6469 19.1721C57.6469 19.1721 59.6229 8.22992 84.0568 9.7597C87.4239 9.98813 90.6253 11.3056 93.1779 13.5132C95.7305 15.7209 97.4958 18.6989 98.2073 21.9979C99.5487 21.8726 100.886 22.2788 101.931 23.1291C102.976 23.9794 103.645 25.2059 103.795 26.5448C103.863 27.8896 103.574 29.2284 102.959 30.426C102.343 31.6235 101.422 32.6374 100.289 33.365C97.9322 34.6399 95.3176 35.3661 92.6406 35.4897C76.2167 37.9119 64.7646 28.4357 56.3296 27.5859C47.8946 26.736 50.8267 34.2149 50.8267 34.2149C53.4188 48.2591 48.362 51.8711 44.3251 59.8812H42.2004L40.2882 48.7265C39.5476 47.7725 39.0188 46.6715 38.7372 45.497V45.497C37.4624 41.3751 37.1012 36.9982 35.6776 32.9613C32.3206 23.5064 38.8859 18.8321 38.8859 18.8321C38.8859 18.8321 42.0092 13.5841 57.6469 19.1721Z" fill="#263238"/>
<path d="M80.6147 74.159C80.6147 74.2652 80.381 74.7539 79.5736 75.1576C79.0271 75.4124 78.4344 75.5532 77.8317 75.5715C77.229 75.5898 76.6288 75.4851 76.0679 75.2638C75.5106 75.0387 75.0038 74.7048 74.577 74.2816C74.1502 73.8584 73.8119 73.3545 73.582 72.7992C73.2633 71.9493 73.3695 71.3757 73.582 71.3544C73.7945 71.3332 74.3894 73.4791 76.5353 74.244C78.6813 75.0089 80.466 73.904 80.6147 74.159Z" fill="#263238"/>
<path d="M70.1192 42.7561C69.9705 43.0536 68.4407 42.5224 66.5285 42.7561C64.6163 42.9898 63.1715 43.6272 62.9803 43.3723C62.789 43.1173 64.1913 41.8212 66.4435 41.6513C68.6957 41.4813 70.2892 42.5436 70.1192 42.7561Z" fill="#263238"/>
<path d="M92.2583 42.6499C92.1095 42.9261 90.7072 42.3949 88.965 42.2037C87.2227 42.0125 85.7355 42.2037 85.6292 41.9062C85.523 41.6088 87.0528 40.8864 89.0712 41.1201C91.0897 41.3538 92.407 42.3949 92.2583 42.6499Z" fill="#263238"/>
<path d="M59.2829 9.95091C59.2829 10.0996 58.603 10.0784 57.7956 10.6096C57.3091 10.9863 56.9201 11.4743 56.6613 12.0326C56.4025 12.5909 56.2815 13.2031 56.3083 13.8178C56.2967 15.1116 56.6423 16.3835 57.3069 17.4936C57.8168 18.3647 58.2843 18.8321 58.1993 18.9596C58.1143 19.0871 57.4344 18.8109 56.6695 17.9397C55.6573 16.7605 55.1263 15.2434 55.1822 13.6904C55.1648 12.9037 55.3661 12.1276 55.7637 11.4486C56.1614 10.7696 56.7397 10.2143 57.4344 9.84467C58.5817 9.44098 59.3466 9.82343 59.2829 9.95091Z" fill="#263238"/>
<path d="M115.226 184.091L116.607 255.714L122.174 306.707L4.14722 299.376L10.3301 239.885L4.29597 177.207L-28.488 149.586C-26.2359 146.569 -24.0545 143.785 -21.944 141.236C-7.30486 123.622 17.8727 112.616 40.7556 111.809C40.7556 111.809 45.7487 119.989 64.7009 120.307C77.959 120.562 80.4661 111.681 80.4661 111.681C89.2836 112.234 113.548 116.377 132.372 144.359" fill="#455A64"/>
<path d="M125.722 137.645C125.534 138.095 125.283 138.517 124.978 138.898C124.14 140.023 123.161 141.037 122.068 141.915C117.892 145.04 112.791 146.678 107.577 146.569C103.986 146.508 100.416 145.994 96.9537 145.039C93.2355 144.083 89.3898 142.723 85.3529 141.342C81.2158 139.838 76.9481 138.721 72.6048 138.006C67.909 137.372 63.1325 137.727 58.5818 139.047C49.2119 141.639 40.7131 146.399 31.8957 146.887C29.7642 147.018 27.6247 146.896 25.5216 146.526C23.5566 146.129 21.6454 145.501 19.8274 144.656C16.6181 143.121 13.5776 141.255 10.755 139.09C6.79252 135.93 2.58673 133.088 -1.82316 130.591C-5.03144 128.955 -7.0074 128.466 -6.9649 128.466C-6.47942 128.527 -6.00207 128.641 -5.54137 128.806C-4.19709 129.186 -2.8889 129.684 -1.63194 130.293C2.89266 132.689 7.19451 135.483 11.2224 138.643C14.0298 140.727 17.041 142.521 20.2099 143.998C21.9689 144.775 23.8068 145.359 25.6916 145.74C27.7046 146.086 29.7523 146.186 31.7894 146.037C40.2882 145.527 48.6807 140.811 58.2631 138.155C62.95 136.784 67.8741 136.422 72.711 137.092C77.1602 137.827 81.5287 138.987 85.7566 140.556C89.7935 141.958 93.5967 143.339 97.2512 144.316C100.606 145.282 104.067 145.831 107.556 145.952C112.635 146.108 117.629 144.617 121.791 141.703C123.268 140.522 124.589 139.158 125.722 137.645Z" fill="#263238"/>
<path d="M24.8629 134.139C24.5867 134.288 23.4181 132.631 22.2283 130.442C21.3493 129.174 20.7749 127.72 20.5498 126.193C20.826 126.044 22.0159 127.701 23.1844 129.89C24.0697 131.155 24.6447 132.611 24.8629 134.139V134.139Z" fill="white"/>
<path d="M52.8876 127.17C53.0576 127.425 51.3578 128.891 49.0844 130.442C47.7851 131.53 46.2724 132.333 44.6438 132.801C44.4738 132.546 46.1736 131.08 48.4682 129.529C50.7629 127.978 52.7176 126.915 52.8876 127.17Z" fill="white"/>
<path d="M93.8518 132.057C90.4095 130.857 87.2547 128.954 84.5881 126.469C86.3684 126.888 88.0406 127.677 89.4962 128.785C91.1485 129.579 92.6285 130.691 93.8518 132.057V132.057Z" fill="white"/>
<path d="M112.23 125.406C112.528 125.406 112.485 127.255 112.23 129.443C111.975 131.632 111.317 133.374 111.019 133.31C110.722 133.247 110.764 131.462 111.126 129.273C111.487 127.085 111.933 125.406 112.23 125.406Z" fill="white"/>
<path d="M125.722 137.645C125.534 138.095 125.283 138.517 124.978 138.898C124.14 140.023 123.161 141.037 122.068 141.915C117.892 145.04 112.791 146.678 107.577 146.569C103.986 146.508 100.416 145.994 96.9537 145.039C93.2355 144.083 89.3898 142.723 85.3529 141.342C81.2158 139.838 76.9481 138.721 72.6048 138.006C67.909 137.372 63.1325 137.727 58.5818 139.047C49.2119 141.639 40.7131 146.399 31.8957 146.887C29.7642 147.018 27.6247 146.896 25.5216 146.526C23.5566 146.129 21.6454 145.501 19.8274 144.656C16.6181 143.121 13.5776 141.255 10.755 139.09C6.79252 135.93 2.58673 133.088 -1.82316 130.591C-5.03144 128.955 -7.0074 128.466 -6.9649 128.466C-6.47942 128.527 -6.00207 128.641 -5.54137 128.806C-4.19709 129.186 -2.8889 129.684 -1.63194 130.293C2.89266 132.689 7.19451 135.483 11.2224 138.643C14.0298 140.727 17.041 142.521 20.2099 143.998C21.9689 144.775 23.8068 145.359 25.6916 145.74C27.7046 146.086 29.7523 146.186 31.7894 146.037C40.2882 145.527 48.6807 140.811 58.2631 138.155C62.95 136.784 67.8741 136.422 72.711 137.092C77.1602 137.827 81.5287 138.987 85.7566 140.556C89.7935 141.958 93.5967 143.339 97.2512 144.316C100.606 145.282 104.067 145.831 107.556 145.952C112.635 146.108 117.629 144.617 121.791 141.703C123.268 140.522 124.589 139.158 125.722 137.645Z" fill="#263238"/>
<path d="M24.8629 134.139C24.5867 134.288 23.4181 132.631 22.2283 130.442C21.3493 129.174 20.7749 127.72 20.5498 126.193C20.826 126.044 22.0159 127.701 23.1844 129.89C24.0697 131.155 24.6447 132.611 24.8629 134.139V134.139Z" fill="white"/>
<path d="M52.8876 127.17C53.0576 127.425 51.3578 128.891 49.0844 130.442C47.7851 131.53 46.2724 132.333 44.6438 132.801C44.4738 132.546 46.1736 131.08 48.4682 129.529C50.7629 127.978 52.7176 126.915 52.8876 127.17Z" fill="white"/>
<path d="M93.8518 132.057C90.4095 130.857 87.2547 128.954 84.5881 126.469C86.3684 126.888 88.0406 127.677 89.4962 128.785C91.1485 129.579 92.6285 130.691 93.8518 132.057V132.057Z" fill="white"/>
<path d="M112.23 125.406C112.528 125.406 112.485 127.255 112.23 129.443C111.975 131.632 111.317 133.374 111.019 133.31C110.722 133.247 110.764 131.462 111.126 129.273C111.487 127.085 111.933 125.406 112.23 125.406Z" fill="white"/>
</g>
</svg>
