<svg width="136" height="136" viewBox="0 0 136 136" fill="none" xmlns="http://www.w3.org/2000/svg">
<mask id="mask0_90:4765" style="mask-type:alpha" maskUnits="userSpaceOnUse" x="0" y="0" width="136" height="136">
<circle cx="68" cy="68" r="68" fill="#C4C4C4"/>
</mask>
<g mask="url(#mask0_90:4765)">
<rect x="-61.2944" y="-4" width="252.295" height="185.137" fill="#49A6A6"/>
<path d="M45.9999 59.4286C47.2592 58.0311 45.5466 55.8405 43.7584 55.1858C41.9702 54.5312 39.7664 54.2416 38.91 52.5546C37.8774 50.5025 39.7034 48.1986 40.0308 45.9198C40.3582 43.6411 38.973 41.1735 38.5574 38.7437C38.2927 37.1924 38.4371 35.5989 38.9764 34.1204C39.5156 32.6419 40.4312 31.3295 41.6326 30.3126C42.8341 29.2958 44.2799 28.6097 45.8276 28.322C47.3752 28.0343 48.9711 28.1549 50.4579 28.672C50.5533 26.2827 51.3735 23.9789 52.8096 22.0667C54.2457 20.1544 56.2297 18.7242 58.4981 17.966C60.7666 17.2078 63.2121 17.1574 65.5098 17.8216C67.8075 18.4859 69.8488 19.8332 71.3624 21.6847C73.632 19.7948 76.1433 18.2156 78.8301 16.9888C80.1765 16.3824 81.6294 16.048 83.1055 16.0048C84.5816 15.9616 86.0516 16.2104 87.4312 16.737C88.7963 17.3066 89.9409 18.3019 90.6943 19.5746C91.4477 20.8473 91.7696 22.3293 91.6121 23.7998C92.7103 22.6514 94.1463 21.8833 95.7113 21.607C97.2764 21.3308 98.8887 21.5609 100.314 22.2638C101.72 23.0048 102.952 24.0372 103.927 25.292C104.902 26.5469 105.598 27.9954 105.968 29.5407C107.127 33.8212 106.119 38.857 102.707 41.6771C99.2938 44.4972 93.4632 44.1951 90.932 40.607" fill="#263238"/>
<path d="M62.6931 131.428C67.1492 131.451 71.4434 129.757 74.6861 126.697C77.9289 123.638 79.8718 119.447 80.1125 114.993C80.5002 107.319 80.8253 99.9712 80.8253 99.9712C80.8253 99.9712 95.056 98.9323 96.369 84.9499C97.682 70.9676 97.8571 38.797 97.8571 38.797C90.1373 34.7441 81.4832 32.8094 72.7744 33.1898C64.0656 33.5702 55.6127 36.252 48.2749 40.9626L46.9243 41.8263L45.2862 113.916C45.268 116.213 45.7052 118.492 46.5724 120.619C47.4397 122.746 48.7198 124.68 50.3386 126.309C51.9575 127.937 53.883 129.228 56.0036 130.107C58.1242 130.986 60.3979 131.435 62.6931 131.428Z" fill="#FFBE9D"/>
<path d="M70.8099 60.1094C71.2973 60.2872 71.6984 60.6485 71.93 61.1183C72.1617 61.5881 72.2061 62.1303 72.054 62.6324C71.8708 63.141 71.4995 63.5572 71.0187 63.7928C70.5379 64.0283 69.9855 64.0646 69.4787 63.8939C68.9895 63.7187 68.5863 63.3577 68.3543 62.8871C68.1222 62.4165 68.0793 61.8729 68.2347 61.3709C68.4151 60.8603 68.7861 60.4419 69.2678 60.206C69.7495 59.97 70.3033 59.9353 70.8099 60.1094Z" fill="#263238"/>
<path d="M74.968 61.1128C74.7225 61.3433 73.353 60.1779 71.3634 60.0627C69.3738 59.9474 67.8364 60.8567 67.6297 60.6006C67.4229 60.3444 67.7847 60.0499 68.4436 59.6017C69.3383 59.047 70.3888 58.7911 71.4409 58.8717C72.4935 58.9393 73.4954 59.3438 74.2962 60.0243C74.8905 60.5493 75.0843 61.0103 74.968 61.1128Z" fill="#263238"/>
<path d="M91.9546 60.1094C92.4405 60.2898 92.84 60.6515 93.0714 61.1205C93.3028 61.5894 93.3487 62.1303 93.1996 62.6324C93.0164 63.141 92.6447 63.5572 92.1636 63.7928C91.6824 64.0283 91.1296 64.0646 90.6225 63.8939C90.1329 63.7187 89.7295 63.3577 89.4973 62.8871C89.265 62.4165 89.2221 61.8729 89.3775 61.3709C89.5581 60.8603 89.9294 60.4419 90.4114 60.206C90.8935 59.97 91.4476 59.9353 91.9546 60.1094Z" fill="#263238"/>
<path d="M96.112 61.1129C95.897 61.3425 94.6309 60.1818 92.7794 60.0543C90.928 59.9268 89.5305 60.8578 89.3394 60.59C89.1483 60.3222 89.4827 60.0416 90.0919 59.6079C90.9179 59.0546 91.8871 58.796 92.8597 58.8694C93.8323 58.9427 94.7579 59.3443 95.5028 60.016C96.0523 60.539 96.2195 60.9981 96.112 61.1129Z" fill="#263238"/>
<path d="M81.8572 76.2144C82.9035 75.8957 83.9974 75.756 85.0914 75.8014C85.6115 75.8014 86.0173 75.7138 86.0807 75.4384C86.1344 74.9365 86.0466 74.4297 85.8271 73.9739C85.4339 72.7223 85.028 71.3454 84.5587 69.9561C82.8845 64.2234 81.7557 59.5046 82.0221 59.4295C82.2884 59.3544 83.9246 63.923 85.6115 69.6431C86.0047 71.045 86.3851 72.3843 86.7656 73.6986C87.0385 74.3682 87.0742 75.1092 86.8671 75.8014C86.7781 75.9893 86.6457 76.154 86.4804 76.2822C86.3152 76.4105 86.1219 76.4987 85.9159 76.5399C85.6214 76.582 85.3224 76.582 85.028 76.5399C83.9602 76.6026 82.8891 76.4927 81.8572 76.2144Z" fill="#263238"/>
<path d="M75.1966 77.7144C78.2381 79.2295 81.4274 80.4279 84.7143 81.2907C83.9544 82.2693 82.8875 82.9644 81.6848 83.2643C80.4822 83.5642 79.2136 83.4515 78.0827 82.9443C73.8754 81.0215 75.1966 77.7144 75.1966 77.7144Z" fill="white"/>
<path d="M80.7143 99.8027C74.2909 99.3959 68.1289 97.0792 63 93.1428C63 93.1428 66.4809 103.553 80.4789 103.427L80.7143 99.8027Z" fill="#EB996E"/>
<path d="M46.428 62.1561C46.4388 61.6114 46.234 61.0837 45.8563 60.6836C45.4787 60.2836 44.9576 60.0422 44.4022 60.01C41.7266 59.8853 37.331 60.8335 36.7577 67.9828C35.9678 78.2139 46.1732 75.8558 46.2114 75.5563C46.2496 75.2569 46.377 66.1237 46.428 62.1561Z" fill="#FFBE9D"/>
<path d="M44.143 71.7842C44.143 71.7842 43.9456 71.8984 43.6035 72.0254C43.1406 72.1681 42.6393 72.141 42.1958 71.9492C41.0775 71.4541 40.2355 69.6389 40.3407 67.7602C40.3807 66.8722 40.6281 66.0043 41.0643 65.2214C41.1947 64.9051 41.403 64.6241 41.6712 64.4029C41.9394 64.1818 42.2595 64.027 42.6036 63.952C42.8245 63.9077 43.0545 63.9409 43.2523 64.0456C43.4501 64.1503 43.6026 64.3197 43.6825 64.5233C43.8009 64.8279 43.6825 65.031 43.7746 65.0437C43.8667 65.0564 44.0246 64.8914 43.9719 64.4598C43.9363 64.1938 43.8005 63.9498 43.5904 63.7743C43.4518 63.6539 43.2895 63.5615 43.1133 63.5026C42.937 63.4437 42.7503 63.4196 42.5642 63.4316C42.1112 63.4801 41.679 63.6413 41.31 63.8994C40.9409 64.1576 40.6478 64.5037 40.4591 64.9041C39.9243 65.7708 39.6213 66.7524 39.5776 67.7602C39.4855 69.8547 40.446 71.8984 41.9853 72.4442C42.2719 72.5492 42.5795 72.59 42.8849 72.5637C43.1903 72.5373 43.4855 72.4444 43.7483 72.2919C44.064 72.038 44.143 71.8096 44.143 71.7842Z" fill="#EB996E"/>
<path d="M67.6584 55.0611C68.0984 55.6487 69.6323 55.3745 71.6187 55.2961C73.6052 55.2178 75.1767 55.2047 75.5287 54.5648C75.8808 53.9249 74.02 52.3709 71.4553 52.5929C68.8905 52.8149 67.1555 54.4473 67.6584 55.0611Z" fill="#263238"/>
<path d="M90.4392 54.872C90.5827 55.4791 91.8022 55.7667 93.189 55.9371C94.5759 56.1076 95.8431 55.9371 96.1062 55.3619C96.3692 54.7868 95.1975 53.8707 93.4162 53.7322C91.6348 53.5938 90.2958 54.2861 90.4392 54.872Z" fill="#263238"/>
<path d="M100.249 43.1668C100.249 43.1668 91.7556 47.3126 80.7239 41.7469C73.4741 38.0955 65.0307 36.3206 63.1335 37.7913C61.2362 39.2619 60.8718 46.7928 53.6974 48.9861C53.6974 48.9861 54.1875 63.3632 48.5083 62.8434C42.8291 62.3236 46.3848 40.0226 46.3848 40.0226L60.2059 33.1764L75.3714 30.2858L89.6574 32.3143L100.714 35.3697L100.249 43.1668Z" fill="#263238"/>
<path d="M5.28564 125.625C20.081 110.398 46.1044 112.053 46.1044 112.053L79.901 113.306C88.5722 114.488 96.9887 117.096 104.81 121.026L105.636 121.289V121.452C115.112 126.603 128.518 138.997 141.286 150.928L126.002 165.115L109.091 180.154C109.127 180.251 109.127 180.357 109.091 180.455C108.916 181.357 111.845 199.554 114.424 215.257C101.807 225.039 86.7027 231.083 70.8271 232.703C54.9515 234.322 38.9404 231.452 24.6123 224.418L23.3606 209.893C22.209 196.722 21.3328 180.417 21.3328 180.417" fill="#FF725E"/>
<path d="M93.2959 116C93.4093 116.196 93.4974 116.406 93.5582 116.625C93.733 117.099 93.9453 117.699 94.195 118.436C94.7445 120.009 95.4438 122.308 96.3679 125.155C98.1287 130.851 100.389 138.782 102.524 147.638C104.66 156.493 106.271 164.575 107.307 170.457C107.819 173.393 108.206 175.766 108.444 177.427C108.543 178.189 108.631 178.813 108.693 179.326C108.721 179.549 108.721 179.776 108.693 180C108.604 179.793 108.545 179.574 108.519 179.351L108.144 177.464C107.807 175.741 107.357 173.393 106.795 170.532C105.659 164.687 103.973 156.631 101.8 147.788C99.6272 138.945 97.4793 131.026 95.8309 125.305C95.0192 122.52 94.3449 120.222 93.8579 118.536L93.3334 116.687C93.2869 116.461 93.2743 116.23 93.2959 116Z" fill="#263238"/>
<path opacity="0.2" d="M92.1983 115.571C99.3851 119.451 81.3803 128.812 73.2856 128.567L79.199 112.571C79.199 112.571 89.7901 114.265 92.1983 115.571Z" fill="black"/>
<path d="M43.5715 112.737V101.143C43.5715 101.143 66.4142 106.972 67.2391 120.53C67.2391 120.53 70.1451 105.549 81.9091 104.819L83.5715 125.893L69.8786 137.714H56.0081L45.0182 128.31L43.5715 113.682" fill="#FF725E"/>
<path d="M72.1656 185.143C72.1341 184.932 72.1341 184.718 72.1656 184.508C72.1656 184.01 72.1656 183.412 72.1656 182.677C72.1656 181.096 72.2397 178.792 72.252 175.966C72.252 170.3 72.1162 162.467 71.4121 153.851C70.708 145.234 69.584 137.488 68.6205 131.897C68.1511 129.108 67.7435 126.917 67.3853 125.298C67.2618 124.576 67.1506 123.978 67.0642 123.505C67.0133 123.293 66.9925 123.075 67.0024 122.857C67.0845 123.054 67.1466 123.258 67.1877 123.467C67.3112 123.953 67.4594 124.538 67.6324 125.248C68.0029 126.78 68.4846 128.984 69.0281 131.823C70.404 139.091 71.3976 146.427 72.005 153.801C72.6089 161.172 72.8274 168.571 72.6596 175.966C72.5855 178.805 72.4867 181.108 72.3632 182.69C72.3632 183.412 72.2644 184.022 72.2273 184.508C72.2409 184.721 72.2201 184.936 72.1656 185.143Z" fill="#263238"/>
<path d="M66.4266 116.779C65.9733 116.691 65.5039 116.725 65.0692 116.879C64.5607 117.07 64.12 117.402 63.8005 117.835C63.3731 118.426 63.0156 119.064 62.7349 119.734C60.848 123.715 59.3855 127.875 58.3708 132.149L58.2693 132.571L57.8887 132.348C56.5186 131.541 55.1231 130.672 53.7149 129.728C51.1487 128.033 48.6796 126.201 46.3188 124.241C45.2387 123.372 44.3716 122.278 43.7815 121.038C43.3253 119.943 43.0636 118.78 43.0077 117.599C42.9616 115.93 43.1234 114.263 43.4898 112.633C43.5808 112.025 43.7425 111.429 43.9718 110.857C43.9496 111.467 43.8732 112.073 43.7435 112.67C43.4792 114.312 43.3899 115.976 43.4771 117.636C43.5567 118.752 43.8269 119.847 44.2763 120.876C44.849 122.033 45.6765 123.05 46.6994 123.856C49.0551 125.779 51.5111 127.582 54.0574 129.257C55.4529 130.188 56.8484 131.057 58.1932 131.864L57.7111 132.062C58.7561 127.764 60.3057 123.598 62.3289 119.647C62.6463 118.961 63.0467 118.315 63.5214 117.723C63.8947 117.272 64.3922 116.936 64.955 116.754C65.9572 116.432 66.4646 116.779 66.4266 116.779Z" fill="#263238"/>
<path d="M81.8012 105.143C81.9282 105.733 81.993 106.333 81.9949 106.936C82.0853 108.181 82.2014 109.862 82.3434 111.829C82.4854 113.797 82.7695 116.325 83.1955 119.027C83.5687 120.454 83.665 121.936 83.4795 123.397C82.911 124.925 81.8471 126.235 80.4457 127.133C78.6042 128.215 76.875 129.466 75.2817 130.868L74.7782 131.429V130.681C74.4929 126.744 73.3069 122.917 71.3054 119.475C69.8208 116.922 68.5944 115.615 68.7235 115.553C69.0647 115.811 69.3686 116.113 69.6272 116.449C70.4011 117.336 71.1005 118.281 71.7186 119.276C73.8708 122.723 75.1573 126.607 75.4754 130.619L74.9073 130.432C76.4893 128.981 78.2194 127.688 80.0713 126.572C81.3525 125.768 82.3339 124.59 82.8727 123.21C83.0423 121.829 82.9593 120.43 82.6275 119.076C82.2272 116.349 82.0207 113.884 81.9045 111.817C81.7883 109.75 81.7754 108.081 81.7754 106.911C81.7348 106.322 81.7434 105.731 81.8012 105.143Z" fill="#263238"/>
<path d="M154.361 108C153.444 109.075 120.143 153.362 120.143 153.362L124.832 156L159 112.239L154.361 108Z" fill="#263238"/>
<path d="M20.7339 142.782C20.7339 142.782 55.6771 193.245 57.7835 194.238C61.921 196.188 109.728 154.744 114.292 150.782C114.919 149.939 116.21 148.166 118.755 144.631C118.755 144.631 122.517 127.311 126.554 128.645C130.591 129.978 124.347 137.449 126.968 144.015C129.588 150.58 141.599 134.908 142.013 133.5L145.11 129.437C145.11 129.437 148.357 138.682 148.132 142.531C147.429 154.882 135.782 169.573 135.782 169.573C135.782 169.573 83.5238 234.601 47.6904 236.563C37.3717 237.142 19.0288 207.772 6.76671 185.736C3.21692 179.305 2.12822 171.796 3.70484 164.617C5.28146 157.438 9.41506 151.083 15.3301 146.744L20.7339 142.782Z" fill="#FFBE9D"/>
<path d="M14.9921 118.286C14.9921 118.286 -22.6013 131.617 5.31411 194.857L48.7143 168.672L42.543 153.895L14.9921 118.286Z" fill="#FF725E"/>
<path d="M12.0762 119.429H12.3792H13.2501C14.3865 119.448 15.5171 119.595 16.6201 119.868C18.3597 120.316 20.0229 121.018 21.5553 121.951C23.5702 123.2 25.4118 124.706 27.0332 126.431C31.1463 131.016 34.592 136.152 37.2696 141.689C40.4629 147.826 43.4417 154.815 46.4962 162.156L49.1721 168.581L49.2856 168.857L49.0206 168.995C36.3987 175.834 25.4302 182.233 17.6804 187.039C13.8054 189.436 10.7131 191.406 8.59259 192.774L6.15656 194.343C5.88093 194.538 5.58964 194.71 5.28564 194.857C5.53651 194.635 5.80218 194.429 6.08083 194.242C6.62357 193.866 7.41875 193.289 8.45375 192.573C10.5364 191.143 13.5909 189.11 17.4532 186.663C25.1525 181.769 36.0957 175.282 48.7177 168.418L48.5662 168.832L45.8903 162.407C42.8358 155.066 39.8823 148.089 36.7395 141.966C34.0826 136.472 30.6855 131.364 26.6419 126.782C25.0633 125.058 23.2641 123.548 21.2902 122.29C19.8421 121.337 18.2655 120.594 16.6075 120.081C15.1192 119.732 13.603 119.514 12.0762 119.429Z" fill="#263238"/>
</g>
</svg>
