<svg width="1119" height="1378" viewBox="0 0 1119 1378" fill="none" xmlns="http://www.w3.org/2000/svg">
<rect x="881" width="300" height="228" rx="8" fill="#71DFDF"/>
<rect x="198.5" y="115.5" width="865" height="1023" rx="6.5" stroke="#164A89" stroke-width="3"/>
<path d="M821.723 1048.51C821.116 1048.64 804.08 980.673 783.663 896.662C763.245 812.608 747.206 744.376 747.813 744.246C748.42 744.116 765.456 812.088 785.873 896.142C806.291 980.152 822.33 1048.38 821.723 1048.51Z" fill="#EBEBEB"/>
<path d="M448.968 1309.58C445.192 1306.35 436.761 1296.07 443.268 1284.12C445.643 1279.75 450.725 1277.57 455.309 1275.64C459.892 1273.72 464.713 1272.03 468.489 1268.8C475.637 1262.72 477.609 1252.61 482.358 1244.48C487.797 1235.18 497.985 1228.19 508.719 1228.67C521.021 1229.24 531.28 1239.28 535.935 1250.73C540.59 1262.2 540.756 1274.91 540.851 1287.3C540.899 1294.14 540.59 1301.86 535.579 1306.49C530.948 1310.74 523.966 1310.81 517.696 1310.62C495.278 1309.94 472.859 1309.25 450.44 1308.56" fill="#F5F5F5"/>
<path d="M577.59 1124.63H400.71L432.581 1314.59C433.982 1322.88 439.967 1329.29 447.685 1331.5C447.899 1331.57 448.089 1331.62 448.303 1331.67C448.825 1331.81 449.348 1331.97 449.87 1332.07C451.034 1332.31 452.245 1332.43 453.456 1332.47C453.456 1332.52 453.48 1332.59 453.48 1332.66L454.335 1332.52H533.156C534.629 1332.52 536.078 1332.38 537.479 1332.09C546.788 1330.64 554.245 1323.19 555.361 1313.52L570.727 1182.62L571.415 1177.42H571.344L577.424 1125.58L577.59 1124.63ZM544.223 1245.81H526.079L527.908 1190.67H548.949L544.223 1245.81ZM550.707 1190.67H568.091L561.631 1245.81H546.004L550.707 1190.67ZM498.84 1306.94L497.747 1259.04H523.895L522.303 1306.94H498.84ZM470.603 1259.04H495.99L497.082 1306.94H474.307L470.603 1259.04ZM472.55 1306.94H451.247C449.229 1294 446.593 1277.21 443.743 1259.04H468.821L472.55 1306.94ZM469.558 1245.81L465.283 1190.67H494.423L495.681 1245.81H469.558ZM497.439 1245.81L496.18 1190.67H526.174L524.346 1245.81H497.439ZM495.871 1177.47L494.684 1126.41H528.288L526.602 1177.47H495.871ZM494.114 1177.47H464.262L460.296 1126.41H492.95L494.114 1177.47ZM462.481 1177.47H430.895C429.779 1170.41 428.71 1163.74 427.76 1157.73C424.459 1137.09 423.224 1129.33 422.535 1126.41H458.515L462.481 1177.47ZM463.526 1190.67L467.8 1245.81H441.677C440.798 1240.21 439.919 1234.56 439.017 1228.91C436.975 1215.89 434.908 1202.88 432.985 1190.69H463.526V1190.67ZM439.896 1245.81H422.82L413.582 1190.67H431.204C433.911 1207.72 436.903 1226.67 439.896 1245.81ZM441.986 1259.04C444.598 1275.62 447.139 1291.96 449.49 1306.94H433.08L425.053 1259.04H441.986ZM524.061 1306.94L525.652 1259.04H543.107L539.022 1306.94H524.061ZM528.359 1177.47L530.045 1126.41H554.435L550.065 1177.47H528.359ZM420.873 1126.41C421.585 1130.09 424.792 1150.18 429.138 1177.47H411.374L402.8 1126.41H420.873ZM554.435 1306.94H540.756L544.841 1259.04H560.04L554.435 1306.94ZM569.634 1177.47H551.847L556.216 1126.41H575.643L569.634 1177.47Z" fill="#E0E0E0"/>
<path d="M831.463 336.433C840.582 332.61 847.066 323.205 847.113 312.138C847.161 297.628 836.189 285.825 822.605 285.753C809.021 285.682 797.93 297.39 797.882 311.901C797.835 323.086 804.366 332.586 813.58 336.409C775.677 342.109 777.411 383.313 777.411 383.313L867.015 383.717C866.967 383.74 869.009 342.109 831.463 336.433Z" fill="#EBEBEB"/>
<path d="M822.177 433.517C767.722 433.517 723.431 389.226 723.431 334.771C723.407 280.291 767.722 236 822.177 236C876.633 236 920.948 280.291 920.948 334.747C920.924 389.202 876.633 433.517 822.177 433.517ZM822.177 238.375C769.028 238.375 725.806 281.621 725.806 334.747C725.806 387.896 769.052 431.119 822.177 431.119C875.327 431.119 918.573 387.872 918.573 334.747C918.549 281.621 875.327 238.375 822.177 238.375Z" fill="#EBEBEB"/>
<path d="M85.4 725.317C38.3065 725.317 0 687.01 0 639.917C0 592.823 38.3065 554.517 85.4 554.517C132.494 554.517 170.8 592.823 170.8 639.917C170.8 687.01 132.494 725.317 85.4 725.317ZM85.4 556.891C39.6127 556.891 2.37486 594.129 2.37486 639.917C2.37486 685.704 39.6127 722.942 85.4 722.942C131.187 722.942 168.425 685.704 168.425 639.917C168.425 594.129 131.187 556.891 85.4 556.891Z" fill="#EBEBEB"/>
<path d="M148.476 975.176C124.466 975.176 104.945 955.654 104.945 931.645C104.945 907.635 124.466 888.113 148.476 888.113C172.486 888.113 192.007 907.635 192.007 931.645C192.007 955.654 172.486 975.176 148.476 975.176ZM148.476 890.488C125.796 890.488 107.32 908.941 107.32 931.645C107.32 954.324 125.772 972.801 148.476 972.801C171.156 972.801 189.632 954.348 189.632 931.645C189.632 908.965 171.18 890.488 148.476 890.488Z" fill="#EBEBEB"/>
<path d="M93.3087 639.869C101.074 636.615 106.584 628.612 106.632 619.184C106.679 606.835 97.3459 596.789 85.7566 596.741C74.191 596.694 64.7628 606.645 64.7153 618.994C64.6678 628.517 70.225 636.592 78.062 639.869C45.8114 644.737 47.2601 679.79 47.2601 679.79L123.541 680.147C123.541 680.147 125.274 644.69 93.3087 639.869Z" fill="#EBEBEB"/>
<path d="M152.372 932.357C156.171 930.766 158.879 926.824 158.902 922.217C158.926 916.161 154.343 911.221 148.667 911.197C142.991 911.174 138.36 916.066 138.336 922.122C138.312 926.8 141.043 930.766 144.891 932.357C129.05 934.732 129.787 951.95 129.787 951.95L167.214 952.116C167.214 952.116 168.069 934.708 152.372 932.357Z" fill="#EBEBEB"/>
<path d="M785.652 391.601C785.771 391.933 645.488 438.504 472.384 495.62C299.233 552.759 158.807 598.808 158.712 598.475C158.593 598.143 298.853 551.572 472.004 494.432C645.108 437.317 785.557 391.268 785.652 391.601Z" fill="#EBEBEB"/>
<path d="M141.826 889.301C141.494 889.372 132.161 852.134 120.975 806.109C109.79 760.061 101.003 722.68 101.335 722.609C101.668 722.538 111.001 759.776 122.186 805.824C133.372 851.849 142.159 889.229 141.826 889.301Z" fill="#EBEBEB"/>
<path d="M1049.9 656.113C1025.89 656.113 1006.37 636.592 1006.37 612.582C1006.37 588.572 1025.89 569.051 1049.9 569.051C1073.91 569.051 1093.43 588.572 1093.43 612.582C1093.43 636.592 1073.89 656.113 1049.9 656.113ZM1049.9 571.425C1027.22 571.425 1008.75 589.878 1008.75 612.582C1008.75 635.285 1027.2 653.738 1049.9 653.738C1072.58 653.738 1091.06 635.285 1091.06 612.582C1091.06 589.878 1072.58 571.425 1049.9 571.425Z" fill="#EBEBEB"/>
<path d="M1053.77 613.294C1057.57 611.703 1060.28 607.761 1060.3 603.153C1060.33 597.098 1055.74 592.158 1050.07 592.134C1044.39 592.11 1039.76 597.003 1039.74 603.058C1039.71 607.737 1042.45 611.703 1046.29 613.294C1030.45 615.669 1031.19 632.887 1031.19 632.887L1068.62 633.053C1068.62 633.053 1069.47 615.645 1053.77 613.294Z" fill="#EBEBEB"/>
<path d="M122.543 401.884C98.5331 401.884 79.0117 382.363 79.0117 358.353C79.0117 334.343 98.5331 314.822 122.543 314.822C146.553 314.822 166.074 334.343 166.074 358.353C166.05 382.339 146.529 401.884 122.543 401.884ZM122.543 317.196C99.863 317.196 81.3866 335.649 81.3866 358.353C81.3866 381.056 99.8393 399.509 122.543 399.509C145.247 399.509 163.699 381.056 163.699 358.353C163.699 335.649 145.223 317.196 122.543 317.196Z" fill="#EBEBEB"/>
<path d="M126.414 359.041C130.214 357.45 132.921 353.508 132.945 348.901C132.969 342.845 128.385 337.905 122.709 337.881C117.033 337.858 112.402 342.75 112.379 348.806C112.355 353.484 115.086 357.45 118.933 359.041C103.093 361.416 103.829 378.634 103.829 378.634L141.257 378.8C141.257 378.824 142.112 361.416 126.414 359.041Z" fill="#EBEBEB"/>
<path d="M1023.3 578.669C1023.07 578.906 987.99 544.114 944.981 500.939C901.949 457.764 867.276 422.569 867.513 422.332C867.751 422.094 902.828 456.886 945.836 500.061C988.869 543.236 1023.54 578.431 1023.3 578.669Z" fill="#EBEBEB"/>
<path d="M314.622 552.569C314.384 552.807 277.052 516.97 231.24 472.536C185.406 428.079 148.477 391.839 148.714 391.601C148.952 391.364 186.284 427.2 232.095 471.658C277.907 516.091 314.859 552.332 314.622 552.569Z" fill="#EBEBEB"/>
<path d="M43.0803 1331.97C43.0803 1331.64 273.561 1331.36 557.808 1331.36C842.15 1331.36 1072.58 1331.64 1072.58 1331.97C1072.58 1332.31 842.15 1332.59 557.808 1332.59C273.561 1332.59 43.0803 1332.31 43.0803 1331.97Z" fill="#263238"/>
<path d="M748.651 1065.63H258.1C244.824 1065.63 234.066 1054.88 234.066 1041.6V316.674C234.066 303.399 244.824 292.641 258.1 292.641H748.651C761.926 292.641 772.685 303.399 772.685 316.674V1041.6C772.685 1054.88 761.926 1065.63 748.651 1065.63Z" fill="#263238"/>
<path d="M748.651 1065.63C748.651 1065.63 749.221 1065.59 750.337 1065.52C750.907 1065.52 751.572 1065.4 752.403 1065.25C753.234 1065.16 754.161 1064.92 755.229 1064.64C757.319 1064.02 759.908 1063 762.544 1061.07C765.156 1059.17 767.911 1056.42 769.882 1052.62C770.88 1050.72 771.616 1048.56 772.115 1046.23C772.59 1043.88 772.566 1041.36 772.566 1038.7C772.566 1033.41 772.542 1027.59 772.542 1021.3C772.518 1008.71 772.518 994.222 772.495 977.883C772.447 912.551 772.4 818.008 772.328 701.212C772.305 642.814 772.281 578.835 772.257 510.154C772.257 475.814 772.233 440.31 772.233 403.713C772.233 385.427 772.233 366.855 772.21 348.046C772.21 338.642 772.21 329.166 772.21 319.643C772.186 317.244 772.305 314.893 771.83 312.59C771.402 310.31 770.737 308.03 769.597 305.94C767.46 301.736 764.016 298.245 759.884 295.966C757.794 294.873 755.538 294.066 753.234 293.567C750.907 293.116 748.532 293.116 746.086 293.116C741.241 293.116 736.349 293.116 731.481 293.116C721.72 293.116 711.888 293.116 701.985 293.116C682.202 293.116 662.206 293.116 641.996 293.116C601.576 293.116 560.301 293.116 518.289 293.139C434.267 293.139 347.252 293.139 258.147 293.139C252.685 293.163 247.294 295.063 243.09 298.554C238.911 302.021 236.013 306.961 234.992 312.281C234.422 314.917 234.612 317.672 234.565 320.45V328.739C234.565 334.248 234.565 339.758 234.565 345.268C234.565 367.283 234.565 389.131 234.565 410.838C234.565 454.25 234.565 497.021 234.565 539.033C234.565 623.079 234.541 704.157 234.541 781.387C234.517 858.618 234.517 932.001 234.493 1000.68C234.493 1009.28 234.493 1017.78 234.493 1026.21C234.493 1030.44 234.493 1034.62 234.493 1038.8C234.493 1040.89 234.446 1042.95 234.778 1044.97C235.016 1047.02 235.681 1048.96 236.417 1050.84C239.623 1058.32 246.843 1063.88 254.798 1064.87C256.77 1065.18 258.764 1065.14 260.807 1065.14C262.826 1065.14 264.844 1065.14 266.863 1065.14C270.876 1065.14 274.89 1065.14 278.88 1065.14C310.75 1065.16 341.362 1065.16 370.549 1065.16C487.345 1065.23 581.888 1065.3 647.197 1065.33C679.851 1065.37 705.215 1065.4 722.409 1065.42C731.006 1065.44 737.56 1065.47 741.978 1065.47C746.395 1065.59 748.651 1065.63 748.651 1065.63C748.651 1065.63 746.395 1065.68 741.978 1065.68C737.56 1065.71 731.006 1065.71 722.409 1065.73C705.215 1065.75 679.851 1065.78 647.197 1065.82C581.864 1065.87 487.345 1065.92 370.549 1065.99C341.338 1065.99 310.75 1066.01 278.88 1066.01C274.89 1066.01 270.9 1066.01 266.863 1066.01C264.844 1066.01 262.826 1066.01 260.807 1066.01C258.812 1066.01 256.722 1066.06 254.68 1065.75C246.439 1064.73 238.934 1058.98 235.61 1051.22C234.826 1049.27 234.161 1047.23 233.9 1045.14C233.567 1043.05 233.615 1040.91 233.615 1038.85C233.615 1034.67 233.615 1030.46 233.615 1026.26C233.615 1017.83 233.615 1009.3 233.615 1000.73C233.591 932.049 233.591 858.665 233.567 781.435C233.567 704.204 233.543 623.126 233.543 539.08C233.543 497.045 233.543 454.274 233.543 410.885C233.543 389.179 233.543 367.33 233.543 345.315C233.543 339.805 233.543 334.296 233.543 328.786V320.498C233.591 317.767 233.401 314.917 233.971 312.115C235.016 306.557 238.056 301.38 242.425 297.747C246.819 294.113 252.471 292.118 258.171 292.094C347.276 292.094 434.291 292.094 518.313 292.094C560.324 292.094 601.6 292.094 642.02 292.118C662.23 292.118 682.226 292.118 702.009 292.118C711.888 292.118 721.72 292.118 731.504 292.118C736.397 292.118 741.265 292.118 746.11 292.118C748.508 292.118 751.026 292.118 753.448 292.593C755.871 293.092 758.198 293.947 760.383 295.087C764.681 297.485 768.291 301.119 770.5 305.489C771.663 307.65 772.352 310.025 772.803 312.423C773.302 314.822 773.16 317.292 773.183 319.643C773.183 329.166 773.183 338.642 773.183 348.046C773.183 366.855 773.183 385.427 773.16 403.713C773.16 440.286 773.136 475.814 773.136 510.154C773.112 578.835 773.088 642.814 773.065 701.212C772.993 818.008 772.922 912.551 772.898 977.883C772.875 994.222 772.875 1008.73 772.851 1021.3C772.851 1027.59 772.827 1033.38 772.827 1038.7C772.827 1041.34 772.827 1043.9 772.352 1046.28C771.83 1048.63 771.093 1050.82 770.072 1052.72C768.054 1056.56 765.299 1059.32 762.639 1061.22C759.955 1063.12 757.367 1064.14 755.253 1064.76C754.184 1065.04 753.234 1065.28 752.403 1065.35C751.572 1065.49 750.883 1065.56 750.337 1065.56C749.197 1065.63 748.651 1065.63 748.651 1065.63Z" fill="#263238"/>
<path d="M753.709 347.785H249.028V993.32H753.709V347.785Z" fill="white"/>
<path d="M753.709 993.32C753.709 989.045 753.519 730.993 753.211 347.785L753.686 348.26C603.072 348.284 430.99 348.284 249.075 348.307H249.028L249.574 347.761C249.55 587.147 249.503 809.411 249.479 993.296L249.028 992.845C553.604 993.154 749.981 993.32 753.709 993.32C749.981 993.32 553.627 993.51 249.028 993.771H248.576V993.32C248.553 809.434 248.529 587.147 248.481 347.785V347.239H249.028H249.075C431.013 347.263 603.072 347.286 753.686 347.286H754.184V347.761C753.899 730.993 753.709 989.069 753.709 993.32Z" fill="#263238"/>
<path d="M524.036 1026.78C524.036 1038.2 514.775 1047.44 503.375 1047.44C491.952 1047.44 482.714 1038.18 482.714 1026.78C482.714 1015.36 491.976 1006.12 503.375 1006.12C514.775 1006.12 524.036 1015.38 524.036 1026.78Z" fill="#455A64"/>
<path d="M556.382 325.817H446.378C442.151 325.817 438.708 322.374 438.708 318.147C438.708 313.919 442.151 310.476 446.378 310.476H556.382C560.609 310.476 564.053 313.919 564.053 318.147C564.053 322.374 560.609 325.817 556.382 325.817Z" fill="#455A64"/>
<path d="M748.271 397.016C748.271 397.23 636.842 397.42 499.433 397.42C361.976 397.42 250.571 397.23 250.571 397.016C250.571 396.802 361.976 396.612 499.433 396.612C636.842 396.612 748.271 396.779 748.271 397.016Z" fill="#263238"/>
<path d="M592.599 375.404C592.599 375.618 554.577 375.808 507.697 375.808C460.794 375.808 422.796 375.618 422.796 375.404C422.796 375.191 460.794 375.001 507.697 375.001C554.577 375.001 592.599 375.167 592.599 375.404Z" fill="#455A64"/>
<path d="M274.676 372.555C274.676 375.381 272.396 377.661 269.57 377.661C266.744 377.661 264.464 375.381 264.464 372.555C264.464 369.729 266.744 367.449 269.57 367.449C272.373 367.449 274.676 369.729 274.676 372.555Z" fill="#E0E0E0"/>
<path d="M292.012 372.555C292.012 375.381 289.732 377.661 286.906 377.661C284.08 377.661 281.8 375.381 281.8 372.555C281.8 369.729 284.08 367.449 286.906 367.449C289.732 367.449 292.012 369.729 292.012 372.555Z" fill="#E0E0E0"/>
<path d="M309.349 372.555C309.349 375.381 307.069 377.661 304.243 377.661C301.417 377.661 299.137 375.381 299.137 372.555C299.137 369.729 301.417 367.449 304.243 367.449C307.045 367.449 309.349 369.729 309.349 372.555Z" fill="#E0E0E0"/>
<path d="M439.919 464.011H428.52L426.335 469.283H420.516L431.464 444.727H437.069L448.041 469.283H442.08L439.919 464.011ZM438.114 459.688L434.219 450.284L430.325 459.688H438.114Z" fill="#455A64"/>
<path d="M466.256 469.259L461.53 462.42H461.245H456.305V469.259H450.629V444.703H461.269C467.823 444.703 471.932 448.099 471.932 453.609C471.932 457.29 470.08 459.997 466.873 461.375L472.383 469.259H466.256ZM460.913 449.334H456.282V457.907H460.913C464.38 457.907 466.137 456.292 466.137 453.633C466.161 450.925 464.404 449.334 460.913 449.334Z" fill="#455A64"/>
<path d="M481.123 449.334H473.262V444.703H494.659V449.334H486.799V469.259H481.123V449.334Z" fill="#455A64"/>
<path d="M497.723 444.703H503.399V469.259H497.723V444.703Z" fill="#455A64"/>
<path d="M507.698 456.981C507.698 449.572 513.373 444.276 521.02 444.276C525.271 444.276 528.81 445.82 531.137 448.622L527.48 451.994C525.841 450.094 523.752 449.121 521.305 449.121C516.698 449.121 513.445 452.35 513.445 456.981C513.445 461.612 516.698 464.842 521.305 464.842C523.752 464.842 525.841 463.868 527.48 461.921L531.137 465.293C528.81 468.143 525.272 469.687 520.997 469.687C513.373 469.687 507.698 464.391 507.698 456.981Z" fill="#455A64"/>
<path d="M534.961 444.703H540.637V464.628H552.962V469.259H534.961V444.703Z" fill="#455A64"/>
<path d="M575.167 464.699V469.259H556.144V444.703H574.716V449.263H561.796V454.606H573.196V459.024H561.796V464.699H575.167Z" fill="#455A64"/>
<path d="M408.357 459.19C408.357 459.403 382.019 459.593 349.508 459.593C316.996 459.593 290.658 459.403 290.658 459.19C290.658 458.976 316.996 458.786 349.508 458.786C382.019 458.786 408.357 458.976 408.357 459.19Z" fill="#263238"/>
<path d="M721.269 459.19C721.269 459.403 693.601 459.593 659.498 459.593C625.372 459.593 597.728 459.403 597.728 459.19C597.728 458.976 625.372 458.786 659.498 458.786C693.601 458.786 721.269 458.976 721.269 459.19Z" fill="#263238"/>
<path d="M496.227 530.911C496.227 531.291 450.012 531.576 392.992 531.576C335.971 531.576 289.756 531.267 289.756 530.911C289.756 530.531 335.971 530.246 392.992 530.246C449.988 530.222 496.227 530.531 496.227 530.911Z" fill="#263238"/>
<path d="M566.808 528.844C566.808 529.224 554.292 529.509 538.832 529.509C523.372 529.509 510.856 529.2 510.856 528.844C510.856 528.464 523.372 528.179 538.832 528.179C554.269 528.179 566.808 528.488 566.808 528.844Z" fill="#263238"/>
<path d="M703.695 527.657C703.695 528.037 677.856 528.322 645.962 528.322C614.067 528.322 588.229 528.013 588.229 527.657C588.229 527.277 614.067 526.992 645.962 526.992C677.832 526.992 703.695 527.301 703.695 527.657Z" fill="#263238"/>
<path d="M702.507 551.477C702.507 551.857 609.769 552.142 495.395 552.142C380.998 552.142 288.284 551.833 288.284 551.477C288.284 551.097 380.998 550.812 495.395 550.812C609.769 550.788 702.507 551.097 702.507 551.477Z" fill="#263238"/>
<path d="M481.099 576.46C481.099 576.84 438.185 577.125 385.273 577.125C332.338 577.125 289.448 576.817 289.448 576.46C289.448 576.08 332.338 575.795 385.273 575.795C438.209 575.795 481.099 576.104 481.099 576.46Z" fill="#263238"/>
<path d="M551.324 576.46C551.324 576.84 539.592 577.125 525.129 577.125C510.666 577.125 498.934 576.817 498.934 576.46C498.934 576.08 510.666 575.795 525.129 575.795C539.616 575.795 551.324 576.104 551.324 576.46Z" fill="#263238"/>
<path d="M702.507 574.085C702.507 574.465 672.394 574.75 635.251 574.75C598.108 574.75 567.995 574.442 567.995 574.085C567.995 573.729 598.108 573.42 635.251 573.42C672.394 573.42 702.507 573.705 702.507 574.085Z" fill="#263238"/>
<path d="M493.614 790.649C493.614 791.029 447.399 791.314 390.379 791.314C333.359 791.314 287.144 791.005 287.144 790.649C287.144 790.269 333.359 789.984 390.379 789.984C447.376 789.984 493.614 790.269 493.614 790.649Z" fill="#263238"/>
<path d="M564.195 788.607C564.195 788.987 551.68 789.272 536.22 789.272C520.759 789.272 508.244 788.963 508.244 788.607C508.244 788.227 520.759 787.942 536.22 787.942C551.68 787.918 564.195 788.227 564.195 788.607Z" fill="#263238"/>
<path d="M701.082 787.42C701.082 787.8 675.244 788.085 643.35 788.085C611.455 788.085 585.617 787.776 585.617 787.42C585.617 787.04 611.455 786.755 643.35 786.755C675.22 786.731 701.082 787.04 701.082 787.42Z" fill="#263238"/>
<path d="M699.895 811.216C699.895 811.596 607.157 811.881 492.783 811.881C378.386 811.881 285.672 811.572 285.672 811.216C285.672 810.836 378.386 810.551 492.783 810.551C607.157 810.551 699.895 810.836 699.895 811.216Z" fill="#263238"/>
<path d="M478.487 836.223C478.487 836.603 435.573 836.888 382.661 836.888C329.725 836.888 286.835 836.579 286.835 836.223C286.835 835.843 329.725 835.558 382.661 835.558C435.597 835.534 478.487 835.843 478.487 836.223Z" fill="#263238"/>
<path d="M548.711 836.223C548.711 836.603 536.979 836.888 522.516 836.888C508.054 836.888 496.322 836.579 496.322 836.223C496.322 835.843 508.054 835.558 522.516 835.558C537.003 835.534 548.711 835.843 548.711 836.223Z" fill="#263238"/>
<path d="M699.895 833.824C699.895 834.204 669.782 834.489 632.639 834.489C595.496 834.489 565.383 834.181 565.383 833.824C565.383 833.444 595.496 833.159 632.639 833.159C669.782 833.159 699.895 833.468 699.895 833.824Z" fill="#263238"/>
<path d="M541.516 602.916H287.999V764.763H541.516V602.916Z" fill="#71DFDF"/>
<path d="M530.591 751.891C530.591 751.891 530.544 751.013 530.544 749.374C530.52 747.688 530.52 745.242 530.496 742.083C530.473 735.671 530.425 726.29 530.354 714.274C530.283 690.24 530.188 655.638 530.069 613.247L530.591 613.769C468.489 613.817 388.242 613.864 300.871 613.912H300.847L301.512 613.247C301.488 662.359 301.488 709.239 301.465 751.891L300.847 751.274C368.151 751.393 425.504 751.511 466.066 751.583C486.348 751.654 502.449 751.701 513.516 751.749C519.026 751.773 523.253 751.796 526.174 751.82C527.599 751.844 528.668 751.844 529.451 751.868C530.211 751.868 530.591 751.891 530.591 751.891C530.591 751.891 530.235 751.915 529.523 751.939C528.763 751.939 527.694 751.963 526.317 751.986C523.419 752.01 519.239 752.034 513.777 752.058C502.758 752.105 486.704 752.153 466.47 752.224C425.812 752.295 368.317 752.414 300.823 752.533H300.206V751.915C300.182 709.263 300.182 662.383 300.158 613.271V612.606H300.847H300.871C388.242 612.653 468.489 612.724 530.591 612.748H531.114V613.271C530.995 655.781 530.9 690.501 530.829 714.606C530.781 726.575 530.734 735.909 530.686 742.297C530.663 745.432 530.639 747.83 530.639 749.493C530.639 751.108 530.591 751.891 530.591 751.891Z" fill="#263238"/>
<g opacity="0.2">
<g opacity="0.2">
<path opacity="0.2" d="M307.069 751.891L373.518 666.253L421.561 721.113L458.3 688.031L525.153 751.891H307.069Z" fill="black"/>
</g>
</g>
<g opacity="0.2">
<g opacity="0.2">
<path opacity="0.2" d="M436.404 656.065C436.404 664.259 429.778 670.884 421.585 670.884C413.392 670.884 406.766 664.259 406.766 656.065C406.766 647.872 413.392 641.246 421.585 641.246C429.778 641.246 436.404 647.872 436.404 656.065Z" fill="black"/>
</g>
</g>
<path d="M702.507 601.515C702.507 601.895 670.684 602.18 631.451 602.18C592.195 602.18 560.396 601.872 560.396 601.515C560.396 601.135 592.219 600.85 631.451 600.85C670.684 600.827 702.507 601.135 702.507 601.515Z" fill="#263238"/>
<path d="M702.507 626.712C702.507 627.092 670.684 627.377 631.451 627.377C592.195 627.377 560.396 627.069 560.396 626.712C560.396 626.332 592.219 626.047 631.451 626.047C670.684 626.024 702.507 626.332 702.507 626.712Z" fill="#263238"/>
<path d="M697.402 736.336C697.402 736.716 665.578 737.001 626.346 737.001C587.089 737.001 555.29 736.693 555.29 736.336C555.29 735.956 587.113 735.671 626.346 735.671C665.578 735.648 697.402 735.956 697.402 736.336Z" fill="#263238"/>
<path d="M697.402 764.763C697.402 765.143 665.578 765.428 626.346 765.428C587.089 765.428 555.29 765.119 555.29 764.763C555.29 764.383 587.113 764.098 626.346 764.098C665.578 764.098 697.402 764.383 697.402 764.763Z" fill="#263238"/>
<path d="M656.079 651.886C656.079 652.266 634.657 652.551 608.225 652.551C581.793 652.551 560.372 652.242 560.372 651.886C560.372 651.506 581.793 651.221 608.225 651.221C634.657 651.221 656.079 651.53 656.079 651.886Z" fill="#263238"/>
<path d="M703.552 651.601C703.552 651.981 695.549 652.266 685.693 652.266C675.814 652.266 667.834 651.957 667.834 651.601C667.834 651.245 675.838 650.936 685.693 650.936C695.573 650.936 703.552 651.221 703.552 651.601Z" fill="#263238"/>
<path d="M703.553 679.529C703.553 679.909 682.203 680.194 655.889 680.194C629.552 680.194 608.226 679.886 608.226 679.529C608.226 679.149 629.576 678.864 655.889 678.864C682.226 678.841 703.553 679.149 703.553 679.529Z" fill="#263238"/>
<path d="M656.079 707.743C656.079 708.123 634.657 708.408 608.225 708.408C581.793 708.408 560.372 708.099 560.372 707.743C560.372 707.363 581.793 707.078 608.225 707.078C634.657 707.054 656.079 707.363 656.079 707.743Z" fill="#263238"/>
<path d="M703.552 707.434C703.552 707.814 695.549 708.099 685.693 708.099C675.814 708.099 667.834 707.79 667.834 707.434C667.834 707.054 675.838 706.769 685.693 706.769C695.573 706.769 703.552 707.078 703.552 707.434Z" fill="#263238"/>
<path d="M589.298 678.865C589.298 679.245 583.408 679.53 576.141 679.53C568.874 679.53 562.984 679.221 562.984 678.865C562.984 678.485 568.874 678.2 576.141 678.2C583.408 678.2 589.298 678.508 589.298 678.865Z" fill="#263238"/>
<path d="M466.708 942.545C466.708 942.545 467.135 942.474 467.966 942.426C468.394 942.403 468.916 942.355 469.51 942.308C470.127 942.213 470.816 942.094 471.6 941.952C474.735 941.358 479.437 939.933 484.186 936.062C488.817 932.238 493.496 925.636 494.161 916.944C494.303 914.807 494.256 912.527 494.256 910.2C494.232 909.036 494.28 907.849 494.185 906.661C494.161 906.067 494.113 905.474 494.09 904.88C493.995 904.286 493.9 903.693 493.805 903.075C493.686 901.864 493.258 900.676 492.973 899.465C492.522 898.302 492.166 897.067 491.549 895.927C490.48 893.576 488.984 891.367 487.179 889.372C483.617 885.311 478.558 882.2 472.811 880.894C469.914 880.229 466.945 880.158 463.786 880.205C460.675 880.205 457.493 880.205 454.263 880.229C441.344 880.253 427.546 880.276 413.012 880.276C383.944 880.3 352.025 880.3 318.492 880.324C310.275 880.3 302.296 884.195 297.285 890.441C294.791 893.552 292.986 897.185 292.036 900.985C291.015 904.785 291.205 908.751 291.181 912.717C291.11 916.659 291.538 920.483 292.891 924.045C294.198 927.607 296.24 930.861 298.829 933.545C303.958 938.959 311.249 941.952 318.374 941.928C347.418 941.975 373.589 942.023 395.58 942.07C417.524 942.142 435.288 942.213 447.614 942.26C453.717 942.308 458.467 942.355 461.768 942.379C463.335 942.403 464.57 942.427 465.449 942.45C466.28 942.498 466.708 942.545 466.708 942.545C466.708 942.545 466.28 942.593 465.449 942.617C464.57 942.64 463.359 942.64 461.768 942.688C458.49 942.712 453.717 942.759 447.614 942.806C435.264 942.854 417.5 942.925 395.58 942.997C373.589 943.044 347.418 943.068 318.374 943.115C310.964 943.163 303.341 940.052 297.974 934.399C295.29 931.597 293.129 928.225 291.775 924.496C290.35 920.792 289.899 916.707 289.97 912.741C289.994 908.822 289.78 904.714 290.849 900.7C291.846 896.71 293.723 892.911 296.335 889.657C301.56 883.15 309.895 879.065 318.492 879.089C352.025 879.113 383.967 879.113 413.012 879.136C427.546 879.16 441.344 879.184 454.263 879.184C457.493 879.184 460.675 879.184 463.786 879.208C466.874 879.16 470.056 879.255 473.001 879.968C478.938 881.345 484.163 884.575 487.82 888.778C489.672 890.868 491.216 893.148 492.285 895.571C492.902 896.734 493.258 898.017 493.733 899.228C494.018 900.486 494.446 901.698 494.565 902.956C494.66 903.574 494.755 904.191 494.826 904.809C494.85 905.426 494.873 906.044 494.921 906.637C495.016 907.872 494.945 909.036 494.968 910.2C494.945 912.527 494.992 914.783 494.826 916.992C494.09 925.897 489.221 932.595 484.471 936.418C479.579 940.289 474.782 941.667 471.623 942.189C470.816 942.308 470.127 942.403 469.51 942.474C468.916 942.498 468.394 942.498 467.966 942.521C467.111 942.569 466.708 942.545 466.708 942.545Z" fill="#263238"/>
<path d="M694.932 941.192H546.717C531.304 941.192 518.812 928.7 518.812 913.287V906.282C518.812 890.869 531.304 878.377 546.717 878.377H694.932C710.345 878.377 722.836 890.869 722.836 906.282V913.287C722.836 928.7 710.345 941.192 694.932 941.192Z" fill="#6EA3A3"/>
<path d="M592.932 916.945L594.286 913.952C595.734 914.997 597.895 915.734 599.961 915.734C602.313 915.734 603.263 914.95 603.263 913.881C603.263 910.675 593.288 912.884 593.288 906.495C593.288 903.574 595.639 901.152 600.531 901.152C602.693 901.152 604.901 901.674 606.492 902.672L605.257 905.688C603.666 904.785 602.028 904.334 600.508 904.334C598.157 904.334 597.254 905.213 597.254 906.305C597.254 909.464 607.229 907.279 607.229 913.596C607.229 916.47 604.854 918.916 599.938 918.916C597.207 918.94 594.452 918.132 592.932 916.945Z" fill="white"/>
<path d="M625.681 901.461V918.631H621.715V911.602H613.926V918.631H609.959V901.461H613.926V908.229H621.715V901.461H625.681Z" fill="white"/>
<path d="M641.047 914.95H633.067L631.547 918.631H627.486L635.133 901.461H639.052L646.723 918.631H642.543L641.047 914.95ZM639.812 911.934L637.081 905.356L634.35 911.934H639.812Z" fill="white"/>
<path d="M659.475 918.631L656.174 913.858H655.984H652.517V918.631H648.551V901.461H655.984C660.568 901.461 663.441 903.836 663.441 907.683C663.441 910.248 662.135 912.148 659.903 913.098L663.75 918.607H659.475V918.631ZM655.747 904.714H652.517V910.699H655.747C658.169 910.699 659.404 909.559 659.404 907.707C659.404 905.807 658.169 904.714 655.747 904.714Z" fill="white"/>
<path d="M679.852 915.449V918.631H666.552V901.461H679.519V904.643H670.495V908.372H678.474V911.459H670.495V915.425H679.852V915.449Z" fill="white"/>
<path d="M582.53 919.818H564.196C563.531 919.818 563.008 919.296 563.008 918.631V904.666C563.008 904.001 563.531 903.479 564.196 903.479H568.257C568.922 903.479 569.444 904.001 569.444 904.666C569.444 905.331 568.922 905.854 568.257 905.854H565.383V917.443H581.342V905.854H578.397C577.732 905.854 577.21 905.331 577.21 904.666C577.21 904.001 577.732 903.479 578.397 903.479H582.53C583.195 903.479 583.717 904.001 583.717 904.666V918.631C583.717 919.296 583.171 919.818 582.53 919.818Z" fill="white"/>
<path d="M573.363 914.118C572.698 914.118 572.176 913.596 572.176 912.931V895.832C572.176 895.167 572.698 894.645 573.363 894.645C574.028 894.645 574.55 895.167 574.55 895.832V912.931C574.55 913.596 574.004 914.118 573.363 914.118Z" fill="white"/>
<path d="M576.901 901.603C576.545 901.603 576.189 901.437 575.951 901.152L573.291 897.708L570.299 901.199C569.872 901.698 569.112 901.746 568.613 901.318C568.114 900.891 568.067 900.131 568.494 899.632L572.436 895.025C572.674 894.763 573.006 894.597 573.363 894.621C573.719 894.621 574.051 894.811 574.265 895.072L577.827 899.679C578.231 900.202 578.136 900.938 577.614 901.342C577.424 901.532 577.162 901.603 576.901 901.603Z" fill="white"/>
<path d="M345.851 909.843C345.851 905.165 349.437 901.816 354.258 901.816C356.941 901.816 359.174 902.79 360.622 904.571L358.319 906.709C357.274 905.521 355.968 904.904 354.424 904.904C351.527 904.904 349.461 906.946 349.461 909.867C349.461 912.788 351.527 914.831 354.424 914.831C355.968 914.831 357.274 914.213 358.319 913.002L360.622 915.116C359.15 916.897 356.918 917.894 354.234 917.894C349.437 917.871 345.851 914.522 345.851 909.843Z" fill="#263238"/>
<path d="M372.948 914.285H365.752L364.375 917.609H360.694L367.604 902.102H371.143L378.078 917.609H374.302L372.948 914.285ZM371.808 911.553L369.362 905.616L366.892 911.553H371.808Z" fill="#263238"/>
<path d="M393.918 902.102V917.586H390.973L383.255 908.182V917.586H379.716V902.078H382.685L390.379 911.483V902.078H393.918V902.102Z" fill="#263238"/>
<path d="M396.602 909.843C396.602 905.165 400.188 901.816 405.009 901.816C407.692 901.816 409.925 902.79 411.397 904.571L409.094 906.709C408.049 905.521 406.742 904.904 405.199 904.904C402.301 904.904 400.235 906.946 400.235 909.867C400.235 912.788 402.301 914.831 405.199 914.831C406.742 914.831 408.049 914.213 409.094 913.002L411.397 915.116C409.925 916.897 407.692 917.894 405.009 917.894C400.188 917.871 396.602 914.522 396.602 909.843Z" fill="#263238"/>
<path d="M425.813 914.712V917.586H413.82V902.078H425.528V904.952H417.382V908.324H424.578V911.103H417.382V914.689H425.813V914.712Z" fill="#263238"/>
<path d="M428.663 902.102H432.249V914.688H440.014V917.586H428.663V902.102Z" fill="#263238"/>
<path d="M696.879 920.055L702.793 955.108L710.772 949.575L719.654 960.974L729.177 954.134L720.366 942.973L727.942 937.083L696.879 920.055Z" fill="#263238"/>
<path d="M171.18 1087.29C171.441 1087.6 173.555 1086.34 175.93 1084.44C178.305 1082.54 180.014 1080.76 179.753 1080.43C179.492 1080.12 177.378 1081.38 175.003 1083.28C172.629 1085.18 170.919 1086.96 171.18 1087.29Z" fill="#263238"/>
<path d="M106.584 990.73C106.204 981.706 105.942 972.468 108.792 963.894C111.642 955.321 118.244 947.437 127.079 945.608C137.172 943.518 147.502 949.883 153.155 958.504C158.807 967.124 160.754 977.574 162.417 987.738C173.935 1057.82 178.186 1129.07 175.075 1200.03L133.776 1205.82C115.655 1131.73 109.861 1066.96 106.584 990.73Z" fill="#455A64"/>
<path d="M132.802 945.3C132.778 945.3 132.849 945.537 132.992 945.965C133.182 946.463 133.396 947.081 133.681 947.841C134.346 949.598 135.272 951.973 136.435 954.965C137.005 956.509 137.765 958.195 138.383 960.119C139 962.043 139.665 964.132 140.378 966.365C141.114 968.621 141.874 971.02 142.681 973.537C143.346 976.125 144.059 978.857 144.819 981.73C147.93 993.177 150.518 1007.09 152.798 1022.6C155.031 1038.13 156.503 1055.33 157.643 1073.4C159.757 1109.57 160.089 1142.41 161.015 1166.16C161.466 1178.04 161.87 1187.65 162.321 1194.28C162.535 1197.51 162.701 1200.05 162.844 1201.93C162.915 1202.73 162.963 1203.38 163.01 1203.9C163.058 1204.35 163.105 1204.56 163.129 1204.56C163.153 1204.56 163.176 1204.33 163.176 1203.87C163.176 1203.33 163.153 1202.69 163.153 1201.88C163.105 1200 163.01 1197.46 162.915 1194.23C162.63 1187.61 162.393 1177.99 162.084 1166.11C161.419 1142.37 161.253 1109.52 159.139 1073.28C157.975 1055.18 156.479 1037.94 154.152 1022.39C151.801 1006.83 149.093 992.892 145.84 981.445C145.056 978.572 144.296 975.84 143.607 973.252C142.753 970.711 141.945 968.312 141.185 966.08C140.425 963.847 139.713 961.758 139.048 959.834C138.383 957.91 137.575 956.248 136.958 954.704C135.675 951.736 134.678 949.385 133.942 947.651C133.609 946.915 133.348 946.321 133.134 945.846C132.944 945.49 132.826 945.3 132.802 945.3Z" fill="#263238"/>
<path d="M128.979 945.324C128.979 945.324 126.438 947.912 123.944 953.873C121.356 959.763 119.717 969.144 120.168 980.59C121.261 1003.41 123.303 1034.86 126.034 1069.55C128.765 1104.27 131.781 1135.67 134.227 1158.35C135.438 1169.7 136.507 1178.87 137.267 1185.21C137.671 1188.27 137.98 1190.69 138.193 1192.5C138.312 1193.26 138.407 1193.88 138.478 1194.4C138.55 1194.83 138.597 1195.04 138.621 1195.04C138.645 1195.04 138.645 1194.83 138.621 1194.38C138.573 1193.85 138.55 1193.24 138.478 1192.48C138.312 1190.67 138.098 1188.25 137.813 1185.16C137.196 1178.68 136.317 1169.53 135.225 1158.28C133.064 1135.57 130.19 1104.18 127.459 1069.48C124.752 1034.78 122.543 1003.34 121.166 980.59C120.572 969.239 122.02 960 124.419 954.135C126.77 948.15 129.169 945.419 128.979 945.324Z" fill="#263238"/>
<path d="M100.338 1052.19C100.481 1052.57 103.972 1051.67 108.175 1050.17C112.355 1048.68 115.632 1047.13 115.513 1046.75C115.371 1046.37 111.88 1047.28 107.676 1048.77C103.497 1050.29 100.219 1051.81 100.338 1052.19Z" fill="#263238"/>
<path d="M95.3744 1010.11C95.2081 1010.49 98.5329 1012.34 102.808 1014.24C107.082 1016.17 110.692 1017.4 110.858 1017.04C111.025 1016.66 107.7 1014.81 103.401 1012.91C99.1504 1010.99 95.5406 1009.73 95.3744 1010.11Z" fill="#263238"/>
<path d="M97.963 975.769C97.9868 976.173 100.742 976.315 104.114 976.078C107.486 975.84 110.194 975.318 110.17 974.914C110.146 974.51 107.391 974.368 104.019 974.605C100.647 974.843 97.9155 975.365 97.963 975.769Z" fill="#263238"/>
<path d="M140.568 953.754C140.924 953.968 142.729 951.712 144.605 948.72C146.481 945.727 147.74 943.115 147.384 942.901C147.028 942.687 145.223 944.944 143.347 947.936C141.47 950.928 140.212 953.541 140.568 953.754Z" fill="#263238"/>
<path d="M154.651 974.51C154.651 974.914 157.287 975.199 160.517 975.128C163.747 975.057 166.359 974.677 166.359 974.273C166.359 973.869 163.723 973.584 160.493 973.655C157.239 973.727 154.627 974.107 154.651 974.51Z" fill="#263238"/>
<path d="M164.768 1016.07C164.91 1016.45 167.689 1015.69 170.942 1014.38C174.196 1013.08 176.713 1011.7 176.571 1011.32C176.428 1010.94 173.65 1011.7 170.396 1013.01C167.119 1014.34 164.602 1015.69 164.768 1016.07Z" fill="#263238"/>
<path d="M165.837 1051.03C165.742 1051.43 168.117 1052.26 171.085 1052.88C174.078 1053.5 176.547 1053.69 176.642 1053.28C176.737 1052.88 174.362 1052.05 171.394 1051.43C168.402 1050.81 165.932 1050.62 165.837 1051.03Z" fill="#263238"/>
<path d="M170.586 1108.19C170.515 1108.6 173.009 1109.38 176.167 1109.95C179.326 1110.52 181.938 1110.64 182.009 1110.23C182.081 1109.83 179.587 1109.05 176.428 1108.48C173.27 1107.93 170.657 1107.79 170.586 1108.19Z" fill="#263238"/>
<path d="M173.745 1139.75C173.555 1140.11 175.645 1141.58 178.4 1143.05C181.155 1144.5 183.553 1145.41 183.743 1145.05C183.933 1144.69 181.843 1143.22 179.089 1141.75C176.334 1140.28 173.935 1139.4 173.745 1139.75Z" fill="#263238"/>
<path d="M147.978 1175.57C148.334 1175.78 150.139 1173.26 152.039 1169.96C153.915 1166.66 155.174 1163.83 154.817 1163.64C154.461 1163.43 152.656 1165.95 150.756 1169.25C148.88 1172.53 147.622 1175.38 147.978 1175.57Z" fill="#263238"/>
<path d="M140.544 1116.05C140.259 1116.34 142.278 1118.78 145.057 1121.51C147.835 1124.25 150.329 1126.22 150.614 1125.93C150.899 1125.65 148.88 1123.2 146.102 1120.47C143.323 1117.74 140.829 1115.77 140.544 1116.05Z" fill="#263238"/>
<path d="M142.207 1084.82C142.516 1085.11 144.392 1083.56 146.387 1081.38C148.405 1079.19 149.783 1077.22 149.498 1076.94C149.189 1076.65 147.313 1078.2 145.318 1080.38C143.275 1082.54 141.898 1084.54 142.207 1084.82Z" fill="#263238"/>
<path d="M137.077 1044.93C136.768 1045.19 138.454 1047.56 140.829 1050.22C143.204 1052.88 145.389 1054.8 145.698 1054.54C146.006 1054.28 144.32 1051.91 141.945 1049.25C139.571 1046.59 137.386 1044.64 137.077 1044.93Z" fill="#263238"/>
<path d="M134.203 1015.95C134.488 1016.24 136.839 1014.38 139.452 1011.82C142.064 1009.26 143.964 1006.93 143.679 1006.64C143.394 1006.36 141.043 1008.21 138.431 1010.77C135.818 1013.34 133.918 1015.67 134.203 1015.95Z" fill="#263238"/>
<path d="M128.551 976.814C128.195 977.028 129.383 979.64 131.188 982.68C132.992 985.72 134.75 988 135.082 987.786C135.439 987.572 134.251 984.96 132.446 981.92C130.641 978.88 128.908 976.6 128.551 976.814Z" fill="#263238"/>
<path d="M117.912 940.526C117.555 940.716 118.6 943.352 120.239 946.392C121.878 949.432 123.516 951.759 123.873 951.569C124.229 951.379 123.184 948.743 121.545 945.703C119.907 942.64 118.268 940.336 117.912 940.526Z" fill="#263238"/>
<path d="M105.848 957.008C105.682 957.364 107.32 958.528 109.529 959.597C111.737 960.665 113.685 961.212 113.851 960.855C114.017 960.499 112.379 959.335 110.17 958.267C107.961 957.198 106.038 956.628 105.848 957.008Z" fill="#263238"/>
<path d="M105.563 1087.29C105.634 1087.67 109.386 1087.15 113.637 1085.35C117.888 1083.54 120.857 1081.19 120.643 1080.86C120.406 1080.5 117.176 1082.23 113.067 1083.97C108.935 1085.75 105.468 1086.89 105.563 1087.29Z" fill="#263238"/>
<path d="M110.502 1114.89C110.431 1115.29 112.901 1116.1 116.059 1116.72C119.194 1117.33 121.807 1117.5 121.902 1117.1C121.973 1116.69 119.503 1115.89 116.344 1115.27C113.186 1114.65 110.573 1114.48 110.502 1114.89Z" fill="#263238"/>
<path d="M116.558 1162.2C116.796 1162.5 119.954 1160.34 122.851 1156.69C125.773 1153.03 127.15 1149.47 126.794 1149.3C126.414 1149.11 124.49 1152.25 121.688 1155.76C118.909 1159.3 116.273 1161.89 116.558 1162.2Z" fill="#263238"/>
<path d="M182.935 1183.83C183.197 1183.52 181.534 1181.65 179.183 1179.65C176.856 1177.66 174.742 1176.28 174.481 1176.59C174.22 1176.9 175.882 1178.77 178.233 1180.77C180.561 1182.79 182.674 1184.14 182.935 1183.83Z" fill="#263238"/>
<path d="M202.005 1080.57C204.689 1072.19 209.747 1062.4 218.558 1062.26C223.783 1062.19 228.485 1065.94 230.955 1070.55C233.425 1075.16 234.446 1080.52 234.303 1085.75C233.306 1120.28 227.321 1159.77 215.376 1195.73H183.101C183.529 1155.78 189.822 1118.64 202.005 1080.57Z" fill="#455A64"/>
<path d="M260.309 1027.75C264.821 1009.73 278.262 999.992 293.865 999.09C308.115 1001.58 313.648 1015.62 315.334 1029.99C317.02 1044.35 312.555 1058.65 308.162 1072.45C294.008 1116.69 279.877 1160.94 265.723 1205.18C252.353 1203.73 238.982 1202.26 225.612 1200.81C238.317 1141.51 245.608 1086.56 260.309 1027.75Z" fill="#455A64"/>
<path d="M218.558 1062.26C218.416 1062.38 219.888 1063.71 221.289 1066.82C222.691 1069.96 223.356 1074.94 222.809 1081.07C222.192 1087.2 221.479 1094.58 220.458 1102.66C219.413 1110.76 217.941 1119.64 216.136 1128.9C212.479 1147.42 208.394 1164.05 205.782 1176.16C204.452 1182.22 203.454 1187.13 202.837 1190.53C202.576 1192.1 202.338 1193.4 202.172 1194.47C202.029 1195.37 201.982 1195.85 202.029 1195.87C202.077 1195.87 202.219 1195.42 202.457 1194.54C202.718 1193.5 203.027 1192.21 203.407 1190.67C204.262 1187.08 205.402 1182.26 206.803 1176.4C209.676 1164.36 213.927 1147.78 217.585 1129.19C219.39 1119.9 220.814 1110.99 221.812 1102.85C222.334 1098.79 222.667 1094.89 222.999 1091.26C223.284 1087.65 223.688 1084.28 223.854 1081.17C224.282 1074.94 223.451 1069.77 221.836 1066.61C220.173 1063.45 218.558 1062.26 218.558 1062.26Z" fill="#263238"/>
<path d="M293.295 997.926C293.153 998.045 295.433 999.969 298.14 1004.43C300.847 1008.85 303.721 1016.09 304.243 1025.43C304.861 1034.76 302.771 1045.83 299.28 1057.73C295.765 1069.67 291.894 1082.76 287.833 1096.51C279.83 1124.01 272.587 1148.87 267.314 1167.06C264.797 1175.99 262.731 1183.28 261.258 1188.49C260.593 1190.91 260.071 1192.85 259.691 1194.33C259.335 1195.66 259.192 1196.37 259.24 1196.39C259.287 1196.42 259.549 1195.73 259.976 1194.4C260.451 1192.95 261.045 1191.03 261.828 1188.63C263.42 1183.45 265.628 1176.21 268.336 1167.33C273.726 1149.16 281.112 1124.32 289.282 1096.89C293.295 1083.11 297.119 1070 300.61 1058.06C304.053 1046.11 306.072 1034.83 305.312 1025.33C304.647 1015.83 301.56 1008.52 298.663 1004.1C295.718 999.684 293.295 997.926 293.295 997.926Z" fill="#263238"/>
<path d="M234.375 1196.51C234.422 1196.54 234.731 1195.87 235.277 1194.59C235.8 1193.31 236.655 1191.43 237.557 1188.94C239.481 1184 241.927 1176.75 244.444 1167.63C246.985 1158.51 249.503 1147.54 251.925 1135.29C254.253 1123.01 256.794 1109.54 259.477 1095.39C262.256 1081.26 265.367 1067.91 268.977 1055.99C272.563 1044.07 276.6 1033.57 280.661 1025.09C284.698 1016.59 288.569 1010.01 291.467 1005.62C292.844 1003.36 294.103 1001.75 294.839 1000.59C295.623 999.422 296.003 998.805 295.955 998.781C295.908 998.757 295.456 999.303 294.601 1000.42C293.77 1001.54 292.44 1003.1 290.992 1005.31C287.928 1009.63 283.915 1016.16 279.711 1024.67C275.508 1033.15 271.352 1043.67 267.647 1055.64C263.942 1067.6 260.807 1081 258.005 1095.15C255.369 1109.31 252.851 1122.8 250.571 1135.07C248.22 1147.33 245.845 1158.3 243.423 1167.42C241.025 1176.54 238.745 1183.83 236.987 1188.79C236.18 1191.31 235.396 1193.21 234.969 1194.52C234.541 1195.78 234.327 1196.49 234.375 1196.51Z" fill="#263238"/>
<path d="M307.473 1065.8C307.378 1066.2 309.563 1067.06 312.342 1067.75C315.12 1068.44 317.471 1068.65 317.566 1068.25C317.661 1067.84 315.476 1066.99 312.698 1066.3C309.896 1065.63 307.568 1065.42 307.473 1065.8Z" fill="#263238"/>
<path d="M311.724 1038.44C311.748 1038.85 314.787 1039.01 318.492 1039.18C322.197 1039.32 325.237 1039.39 325.284 1038.99C325.332 1038.58 322.339 1037.85 318.54 1037.71C314.74 1037.54 311.7 1038.04 311.724 1038.44Z" fill="#263238"/>
<path d="M307.188 1013.43C307.449 1013.74 309.634 1012.32 312.057 1010.28C314.479 1008.21 316.236 1006.31 315.975 1006C315.714 1005.69 313.529 1007.09 311.107 1009.16C308.684 1011.2 306.927 1013.13 307.188 1013.43Z" fill="#263238"/>
<path d="M294.958 990.279C294.554 990.374 294.673 992.322 294.72 994.673C294.791 997.024 294.791 998.971 295.219 999.042C295.599 999.114 296.288 997.143 296.216 994.625C296.121 992.108 295.338 990.184 294.958 990.279Z" fill="#263238"/>
<path d="M269.95 1001.18C269.618 1001.42 270.592 1003.39 272.135 1005.6C273.679 1007.81 275.199 1009.4 275.531 1009.16C275.864 1008.92 274.89 1006.95 273.346 1004.74C271.803 1002.56 270.283 1000.97 269.95 1001.18Z" fill="#263238"/>
<path d="M253.73 1029.37C253.587 1029.75 255.653 1030.96 258.361 1032.05C261.068 1033.17 263.395 1033.76 263.562 1033.38C263.704 1033 261.638 1031.79 258.931 1030.7C256.199 1029.58 253.872 1028.99 253.73 1029.37Z" fill="#263238"/>
<path d="M243.875 1058.39C243.708 1058.75 246.463 1060.31 250.239 1061.17C254.015 1062.02 257.174 1061.81 257.174 1061.41C257.198 1060.98 254.181 1060.55 250.572 1059.72C246.962 1058.91 244.041 1057.99 243.875 1058.39Z" fill="#263238"/>
<path d="M289.092 1050.15C289.472 1050.03 289.21 1048.01 288.474 1045.68C287.738 1043.33 286.835 1041.53 286.432 1041.65C286.052 1041.77 286.313 1043.79 287.049 1046.11C287.785 1048.46 288.688 1050.27 289.092 1050.15Z" fill="#263238"/>
<path d="M282.774 1086.56C283.154 1086.39 282.347 1083.71 280.97 1080.52C279.592 1077.37 278.167 1074.92 277.811 1075.09C277.455 1075.25 278.239 1077.94 279.616 1081.12C280.993 1084.28 282.395 1086.72 282.774 1086.56Z" fill="#263238"/>
<path d="M298.354 1096.53C298.52 1096.91 301.061 1096.22 304.125 1095.27C307.188 1094.3 309.682 1093.42 309.587 1093.02C309.492 1092.61 306.832 1092.87 303.673 1093.85C300.539 1094.82 298.188 1096.15 298.354 1096.53Z" fill="#263238"/>
<path d="M289.377 1126.22C289.139 1126.55 290.849 1128.19 293.224 1129.85C295.575 1131.54 297.689 1132.63 297.926 1132.3C298.163 1131.96 296.454 1130.32 294.079 1128.66C291.704 1126.98 289.614 1125.88 289.377 1126.22Z" fill="#263238"/>
<path d="M282.181 1155.81C282.086 1156.21 284.199 1157.07 286.931 1157.73C289.638 1158.4 291.941 1158.61 292.036 1158.21C292.131 1157.8 290.018 1156.95 287.287 1156.28C284.556 1155.62 282.276 1155.4 282.181 1155.81Z" fill="#263238"/>
<path d="M243.09 1083.11C242.877 1083.45 244.705 1084.89 247.341 1085.89C249.978 1086.89 252.305 1087.01 252.376 1086.6C252.447 1086.2 250.381 1085.46 247.864 1084.51C245.347 1083.56 243.304 1082.76 243.09 1083.11Z" fill="#263238"/>
<path d="M237.51 1129.16C237.676 1129.54 239.837 1128.88 242.354 1127.71C244.848 1126.55 246.724 1125.29 246.558 1124.91C246.391 1124.53 244.23 1125.2 241.713 1126.38C239.219 1127.52 237.343 1128.78 237.51 1129.16Z" fill="#263238"/>
<path d="M227.654 1162.1C227.797 1162.48 230.67 1161.72 234.043 1160.39C237.415 1159.06 240.051 1157.68 239.885 1157.3C239.742 1156.92 236.869 1157.68 233.496 1159.01C230.124 1160.34 227.512 1161.72 227.654 1162.1Z" fill="#263238"/>
<path d="M280.589 1187.92C280.779 1187.54 278.167 1185.78 275.127 1183.38C272.087 1181 269.736 1178.87 269.428 1179.13C269.119 1179.39 271.043 1182.05 274.225 1184.52C277.36 1187.04 280.423 1188.27 280.589 1187.92Z" fill="#263238"/>
<path d="M254.537 1171.17C254.965 1171.22 255.511 1169.01 256.532 1166.45C257.506 1163.86 258.574 1161.84 258.242 1161.6C257.933 1161.36 256.223 1163.12 255.155 1165.92C254.062 1168.68 254.133 1171.13 254.537 1171.17Z" fill="#263238"/>
<path d="M261.448 1131.54C261.686 1131.87 263.372 1131.06 265.201 1129.76C267.029 1128.43 268.336 1127.1 268.098 1126.76C267.861 1126.43 266.174 1127.24 264.346 1128.54C262.493 1129.87 261.211 1131.2 261.448 1131.54Z" fill="#263238"/>
<path d="M200.699 1069.43C200.462 1069.77 202.1 1071.38 204.356 1073.04C206.613 1074.71 208.655 1075.8 208.892 1075.47C209.13 1075.13 207.491 1073.52 205.235 1071.86C202.979 1070.19 200.96 1069.1 200.699 1069.43Z" fill="#263238"/>
<path d="M191.556 1094.46C191.509 1094.87 194.073 1095.39 197.256 1095.06C200.438 1094.73 202.837 1093.66 202.694 1093.28C202.575 1092.87 200.106 1093.28 197.089 1093.61C194.073 1093.89 191.58 1094.04 191.556 1094.46Z" fill="#263238"/>
<path d="M230.908 1100.07C230.813 1100.45 233.187 1101.3 236.275 1101.52C239.338 1101.73 241.808 1101.21 241.784 1100.81C241.761 1100.4 239.338 1100.26 236.37 1100.05C233.401 1099.83 230.979 1099.67 230.908 1100.07Z" fill="#263238"/>
<path d="M227.511 1076.42C227.535 1076.8 229.934 1076.87 232.57 1075.66C235.206 1074.44 236.726 1072.59 236.441 1072.31C236.156 1072 234.351 1073.23 231.952 1074.3C229.577 1075.42 227.464 1075.99 227.511 1076.42Z" fill="#263238"/>
<path d="M188.184 1121.32C188.397 1121.68 190.867 1120.52 193.67 1118.74C196.496 1116.95 198.586 1115.24 198.372 1114.91C198.158 1114.56 195.688 1115.72 192.886 1117.5C190.06 1119.26 187.97 1120.97 188.184 1121.32Z" fill="#263238"/>
<path d="M92.1812 1228.73H302.095V1191.52H92.1812V1228.73Z" fill="#A1E2E0"/>
<path d="M286.408 1221.35L260.878 1332.55H135.771L107.842 1221.35H286.408Z" fill="#71DFDF"/>
<path d="M92.2869 1228.79C92.2869 1229.19 139.642 1229.52 198.039 1229.52C256.461 1229.52 303.792 1229.19 303.792 1228.79C303.792 1228.38 256.461 1228.05 198.039 1228.05C139.642 1228.05 92.2869 1228.38 92.2869 1228.79Z" fill="#263238"/>
<path d="M209.035 1100.88C209.391 1101.09 210.816 1099.43 212.241 1097.15C213.666 1094.87 214.545 1092.85 214.189 1092.64C213.832 1092.42 212.407 1094.08 210.982 1096.36C209.558 1098.64 208.679 1100.66 209.035 1100.88Z" fill="#263238"/>
<path d="M208.964 1130.8C209.344 1130.68 208.869 1128.14 207.871 1125.15C206.874 1122.16 205.758 1119.83 205.378 1119.97C204.998 1120.09 205.473 1122.63 206.47 1125.62C207.444 1128.62 208.56 1130.94 208.964 1130.8Z" fill="#263238"/>
<path d="M198.704 1162.24C199.06 1162.41 200.652 1159.92 202.219 1156.64C203.786 1153.36 204.76 1150.56 204.38 1150.39C204.024 1150.23 202.433 1152.72 200.865 1156C199.322 1159.25 198.348 1162.05 198.704 1162.24Z" fill="#263238"/>
<path d="M220.886 1187.51C221.195 1187.25 219.936 1185.3 218.084 1183.17C216.231 1181.03 214.474 1179.51 214.165 1179.79C213.856 1180.05 215.115 1182 216.967 1184.14C218.82 1186.28 220.577 1187.8 220.886 1187.51Z" fill="#263238"/>
<path d="M225.541 1141.61C225.612 1142.01 227.63 1141.99 230.053 1141.56C232.475 1141.13 234.375 1140.47 234.304 1140.06C234.233 1139.66 232.214 1139.68 229.792 1140.11C227.369 1140.54 225.469 1141.2 225.541 1141.61Z" fill="#263238"/>
<path d="M822.747 1140.8H793.394V1331.95H822.747V1140.8Z" fill="#455A64"/>
<path d="M993.072 1140.8H963.719V1331.95H993.072V1140.8Z" fill="#455A64"/>
<path d="M968.92 1208.72H813.272V1234.75H968.92V1208.72Z" fill="#455A64"/>
<path d="M993.072 1140.8C993.096 1140.8 993.12 1141.13 993.144 1141.77C993.167 1142.46 993.167 1143.41 993.191 1144.62C993.215 1147.19 993.262 1150.89 993.31 1155.62C993.357 1165.26 993.429 1179.1 993.5 1196.28C993.547 1230.76 993.619 1278.52 993.69 1331.95V1332.57H993.072C988.655 1332.57 983.953 1332.57 979.203 1332.57C973.907 1332.57 968.659 1332.57 963.719 1332.57H963.102V1331.95C963.315 1278.9 963.505 1231.52 963.624 1197.34C963.743 1180.32 963.838 1166.59 963.909 1157.07C963.957 1152.36 964.004 1148.71 964.051 1146.17C964.075 1144.95 964.099 1144.03 964.123 1143.34C964.146 1142.7 964.17 1142.37 964.194 1142.37C964.218 1142.37 964.241 1142.7 964.241 1143.34C964.265 1144.03 964.265 1144.98 964.289 1146.17C964.313 1148.71 964.336 1152.36 964.384 1157.07C964.408 1166.61 964.431 1180.34 964.479 1197.34C964.455 1231.52 964.408 1278.9 964.336 1331.95L963.719 1331.33C968.635 1331.33 973.883 1331.33 979.203 1331.33C983.953 1331.33 988.679 1331.33 993.072 1331.33L992.455 1331.95C992.526 1278.54 992.597 1230.76 992.645 1196.28C992.716 1179.1 992.787 1165.26 992.835 1155.62C992.882 1150.89 992.93 1147.19 992.954 1144.62C992.977 1143.41 993.001 1142.46 993.001 1141.77C993.049 1141.13 993.049 1140.8 993.072 1140.8Z" fill="#263238"/>
<path d="M793.727 1148.92C793.75 1148.92 793.774 1149.23 793.774 1149.85C793.798 1150.51 793.798 1151.41 793.822 1152.58C793.845 1155.05 793.869 1158.56 793.916 1163.07C793.94 1172.27 793.988 1185.49 794.035 1201.9C794.035 1234.87 794.011 1280.61 794.011 1331.97L793.394 1331.36C799.189 1331.36 805.34 1331.36 811.585 1331.36C815.409 1331.36 819.209 1331.36 822.747 1331.36L822.13 1331.97C822.201 1278.97 822.272 1231.47 822.32 1197.15C822.391 1180.08 822.462 1166.28 822.51 1156.69C822.557 1151.96 822.605 1148.28 822.629 1145.71C822.652 1144.5 822.676 1143.55 822.676 1142.86C822.7 1142.22 822.724 1141.89 822.747 1141.89C822.771 1141.89 822.795 1142.22 822.819 1142.86C822.842 1143.55 822.842 1144.5 822.89 1145.71C822.914 1148.28 822.961 1151.96 823.009 1156.69C823.056 1166.28 823.127 1180.08 823.199 1197.15C823.246 1231.47 823.317 1278.97 823.389 1331.97V1332.59H822.771C819.233 1332.59 815.433 1332.59 811.609 1332.59C805.387 1332.59 799.212 1332.59 793.418 1332.59H792.8V1331.97C792.967 1280.63 793.109 1234.89 793.228 1201.9C793.347 1185.49 793.418 1172.27 793.489 1163.07C793.537 1158.56 793.584 1155.02 793.608 1152.58C793.632 1151.41 793.655 1150.51 793.679 1149.85C793.679 1149.23 793.703 1148.92 793.727 1148.92Z" fill="#263238"/>
<path d="M1016.27 1142.79H774.3C762.188 1142.79 752.38 1132.99 752.38 1120.87V1074.42C752.38 1062.31 762.188 1052.5 774.3 1052.5H1016.27C1028.39 1052.5 1038.19 1062.31 1038.19 1074.42V1120.87C1038.22 1132.96 1028.39 1142.79 1016.27 1142.79Z" fill="#455A64"/>
<path d="M804.01 1142.79C804.01 1142.46 851.436 1142.18 909.928 1142.18C968.445 1142.18 1015.87 1142.46 1015.87 1142.79C1015.87 1143.13 968.445 1143.41 909.928 1143.41C851.436 1143.41 804.01 1143.13 804.01 1142.79Z" fill="#263238"/>
<path d="M967.352 620.087C966.426 612.369 963.03 574.751 962.222 569.051C961.13 561.357 957.425 553.852 951.417 548.936C945.408 544.02 936.408 542.334 929.663 546.181C925.127 547.654 921.755 551.43 920.757 556.108C908.527 613.509 914.868 673.379 911.614 732.133C932.513 734.175 960.299 731.017 981.15 728.571C978.158 682 973.432 670.149 967.352 620.087Z" fill="#263238"/>
<path d="M963.719 700.12C963.671 700.12 963.576 699.597 963.458 698.624C963.339 697.484 963.173 696.059 962.983 694.325C962.603 690.383 962.104 685.016 961.463 678.461C960.299 664.877 958.732 646.448 956.998 626.048C956.19 615.812 955.407 606.075 954.694 597.17C954.362 592.752 954.029 588.525 953.721 584.559C953.436 580.617 953.103 576.959 952.272 573.753C950.776 567.223 946.715 563.067 943.39 561.523C940.018 559.908 937.785 560.407 937.833 560.217C937.833 560.193 937.952 560.169 938.213 560.122C938.474 560.098 938.854 560.027 939.353 560.05C940.35 560.05 941.87 560.264 943.627 561.024C945.385 561.784 947.38 563.162 949.137 565.251C950.918 567.318 952.343 570.191 953.222 573.492C954.124 576.793 954.528 580.522 954.861 584.464C955.193 588.406 955.573 592.634 955.953 597.051C956.689 605.933 957.497 615.67 958.352 625.905C959.943 646.305 961.368 664.758 962.413 678.342C962.864 684.921 963.22 690.312 963.481 694.254C963.576 696.011 963.648 697.436 963.695 698.576C963.766 699.597 963.766 700.12 963.719 700.12Z" fill="#455A64"/>
<path d="M943.532 679.957C943.437 679.957 943.271 678.77 943.057 676.585C942.843 674.4 942.582 671.242 942.345 667.323C941.822 659.51 941.3 648.68 940.825 636.735C940.397 624.932 940.017 614.245 939.709 606.147C939.59 602.442 939.495 599.331 939.424 596.885C939.376 594.7 939.376 593.489 939.471 593.465C939.566 593.465 939.732 594.652 939.946 596.837C940.16 599.022 940.421 602.181 940.658 606.099C941.181 613.912 941.703 624.742 942.178 636.687C942.606 648.49 942.986 659.154 943.295 667.276C943.413 670.98 943.508 674.091 943.58 676.537C943.651 678.746 943.627 679.957 943.532 679.957Z" fill="#455A64"/>
<path d="M797.621 701.045L839.062 687.224L903.35 685.015L957.378 701.639L985.14 757.187L964.289 874.458L1002.45 950.026L900.239 969.215L810.944 927.773L803.32 922.026L788.145 722.182L797.621 701.045Z" fill="#71DFDF"/>
<path d="M661.494 1108.62L604.663 1201.05L649.619 1234.89L720.438 1148.33L661.494 1108.62Z" fill="#FFBE9D"/>
<path d="M746.728 1176.4L704.028 1309.84H753.852L809.519 1195.44L746.728 1176.4Z" fill="#FFBE9D"/>
<path d="M797.621 701.046C797.621 701.046 764.729 714.701 761.286 751.108C759.956 765.143 750.053 830.998 750.053 830.998L703.529 825.465L692.272 862.584C692.272 862.584 744.305 889.705 760.36 893.243C788.098 899.323 801.516 883.649 801.516 883.649L797.621 701.046Z" fill="#71DFDF"/>
<path d="M788.81 745.432C788.858 745.432 788.858 746.05 788.834 747.237C788.787 748.543 788.739 750.253 788.668 752.414C788.549 754.647 788.478 757.401 788.502 760.584C788.502 763.766 788.431 767.4 788.597 771.413C788.692 775.427 788.834 779.82 789.143 784.522C789.357 789.225 789.832 794.259 790.235 799.531C791.209 810.1 792.515 821.665 794.106 833.824C797.313 858.096 800.4 880.087 801.825 896.093C802.228 900.083 802.49 903.717 802.703 906.899C802.941 910.081 803.107 912.836 803.155 915.069C803.226 917.23 803.273 918.94 803.321 920.246C803.345 921.433 803.345 922.051 803.297 922.051C803.25 922.051 803.178 921.433 803.083 920.246C802.988 918.94 802.846 917.23 802.68 915.092C802.537 912.86 802.323 910.129 802.015 906.946C801.73 903.764 801.421 900.154 800.946 896.165C799.307 880.206 796.101 858.262 792.871 833.967C791.28 821.808 790.022 810.195 789.095 799.626C788.715 794.331 788.288 789.296 788.098 784.57C787.813 779.844 787.718 775.45 787.694 771.437C787.576 767.423 787.718 763.79 787.789 760.584C787.813 757.401 787.979 754.647 788.146 752.414C788.312 750.277 788.431 748.543 788.526 747.261C788.692 746.05 788.763 745.432 788.81 745.432Z" fill="#263238"/>
<path d="M701.392 752.367C701.392 752.367 715.546 738.616 720.961 740.302C726.375 741.965 730.959 746.263 730.959 746.263C730.959 746.263 736.374 743.081 739.295 746.263C742.216 749.445 745.113 755.288 745.113 755.288C745.113 755.288 750.266 754.551 754.28 761.201C758.294 767.851 768.125 790.269 771.806 794.022C775.511 797.774 779.929 799.888 785.225 801.74C790.497 803.592 834.717 818.554 834.717 818.554L818.425 859.117C818.425 859.117 753.449 821.095 750.931 818.601C748.414 816.108 728.869 803.189 725.948 795.28C723.027 787.372 701.392 763.22 701.392 763.22V752.367Z" fill="#FFBE9D"/>
<path d="M744.377 768.468C744.424 768.492 744.258 769.086 743.593 770.012C742.952 770.914 741.764 772.173 739.817 773.052L740.055 772.648C740.411 775.094 740.031 778.466 738.036 781.53C737.537 782.29 736.967 783.026 736.231 783.715C735.495 784.356 734.592 784.997 733.381 785.116C732.17 785.235 730.935 784.451 730.389 783.43C729.819 782.432 729.605 781.34 729.439 780.295C728.94 776.59 728.465 773.123 728.109 769.869C727.919 768.231 728.251 766.402 729.273 765.167C730.27 763.932 731.553 763.267 732.645 762.721C734.877 761.676 736.682 760.987 737.751 760.156C738.82 759.373 739.223 758.731 739.318 758.803C739.366 758.826 739.081 759.586 738.036 760.536C737.015 761.51 735.162 762.389 733.049 763.505C732.004 764.075 730.864 764.74 730.104 765.808C729.32 766.853 729.059 768.231 729.249 769.798C729.7 773.028 730.175 776.495 730.674 780.153C730.888 782.1 731.695 784.095 733.286 783.952C734.854 783.81 736.16 782.29 737.086 780.96C738.962 778.181 739.437 775.094 739.247 772.79L739.223 772.482L739.508 772.387C741.337 771.698 742.524 770.606 743.237 769.822C743.997 768.943 744.306 768.421 744.377 768.468Z" fill="#EB996E"/>
<path d="M748.485 780.508C748.367 780.817 746.229 779.986 744.709 777.706C743.166 775.45 743.189 773.17 743.522 773.146C743.878 773.099 744.377 775.046 745.73 776.994C747.06 779.012 748.675 780.2 748.485 780.508Z" fill="#EB996E"/>
<path d="M746.894 806.632C746.514 806.608 746.681 802.524 745.137 797.821C743.641 793.095 741.147 789.866 741.432 789.628C741.646 789.391 744.733 792.454 746.324 797.441C747.915 802.405 747.179 806.703 746.894 806.632Z" fill="#EB996E"/>
<path d="M729.842 772.743C729.914 772.767 729.724 773.479 729.249 774.714C728.726 775.901 727.966 777.825 725.9 779.274C724.879 779.962 723.502 780.509 721.934 780.295C720.39 780.081 718.966 778.965 718.111 777.54C717.232 776.139 716.733 774.5 716.33 772.838C715.95 771.199 715.546 769.466 715.38 767.637C714.952 763.932 716.139 760.322 717.849 757.686C719.559 754.979 721.673 753.008 723.502 751.535C725.354 750.063 726.945 749.018 728.061 748.329C729.178 747.641 729.819 747.284 729.866 747.356C729.985 747.522 727.586 749.184 724.072 752.2C722.338 753.744 720.39 755.691 718.823 758.28C717.256 760.845 716.235 764.075 716.614 767.542C716.781 769.276 717.137 770.962 717.517 772.577C717.873 774.192 718.348 775.711 719.084 776.946C719.797 778.205 720.889 779.06 722.1 779.274C723.288 779.487 724.499 779.108 725.425 778.538C727.301 777.374 728.18 775.593 728.821 774.5C729.439 773.36 729.771 772.719 729.842 772.743Z" fill="#EB996E"/>
<g opacity="0.3">
<g opacity="0.3">
<path opacity="0.3" d="M986.898 1046.61C947.285 1045.26 907.696 1043.93 868.083 1042.57C861.101 1042.34 853.431 1042.31 848.016 1046.78C842.957 1050.96 841.319 1057.89 839.989 1064.3C833.981 1093.42 827.948 1122.54 821.94 1151.65L825.716 1158.14C849.132 1143.74 866.896 1120.38 874.472 1093.94C876.514 1086.84 878.77 1078.41 885.705 1075.85C888.745 1074.73 892.117 1075.04 895.347 1075.35C904.704 1076.3 914.061 1077.22 923.418 1078.17C936.883 1079.53 950.847 1080.83 963.648 1076.42C976.448 1071.98 987.729 1060.12 986.898 1046.61Z" fill="black"/>
</g>
</g>
<path d="M813.414 912.788C813.414 912.788 792.397 903.645 768.031 918.203C749.364 929.365 629.529 1123.2 629.529 1123.2L707.02 1176.4L813.414 1018.61L856.969 1056.13C856.969 1056.13 947.143 1074.42 974.074 1062.88C1001 1051.34 1015.68 1020.75 1013.52 994.579C1011.29 967.743 1002.43 950.026 1002.43 950.026C971.342 954.776 950.277 966.08 907.696 945.704L813.414 912.788Z" fill="#263238"/>
<path d="M810.374 1010.44C810.374 1010.44 866.112 1032.36 866.825 1047.56C867.537 1062.74 791.257 1258.38 791.257 1258.38L714.311 1230.33L755.61 1096.55C755.61 1096.55 772.804 1047.94 785.723 1034.74C798.666 1021.51 810.374 1010.44 810.374 1010.44Z" fill="#263238"/>
<path d="M736.136 958.718C736.136 958.718 735.993 959.003 735.637 959.526C735.281 960.096 734.758 960.879 734.117 961.877C732.74 963.967 730.721 967.006 728.133 970.949C722.884 978.905 715.261 990.423 705.69 1004.91C686.596 1033.98 659.808 1075.02 630.027 1123.49L629.861 1122.7C651.235 1137.36 674.461 1153.29 698.542 1169.82C701.51 1171.86 704.479 1173.9 707.353 1175.88L706.498 1176.04C748.414 1114.01 786.055 1058.32 813.058 1018.37L813.105 1018.33L813.153 1018.28C817.926 1014.6 821.298 1009.78 823.673 1004.93C826.024 1000.04 827.402 995.054 828.114 990.328C829.682 980.828 828.019 972.469 825.431 966.294C822.866 960.072 819.588 955.892 817.214 953.28C816.026 951.974 815.053 951.024 814.388 950.43C813.723 949.812 813.39 949.48 813.39 949.48C813.39 949.48 814.91 950.549 817.38 953.114C819.802 955.678 823.174 959.834 825.834 966.104C828.518 972.302 830.275 980.804 828.755 990.423C828.067 995.22 826.689 1000.28 824.338 1005.27C821.94 1010.21 818.544 1015.14 813.651 1018.94L813.746 1018.85C786.839 1058.84 749.316 1114.6 707.519 1176.73L707.162 1177.25L706.64 1176.9C703.766 1174.93 700.798 1172.88 697.806 1170.84C673.724 1154.31 650.522 1138.35 629.148 1123.68L628.673 1123.37L628.958 1122.89C658.834 1074.42 685.765 1033.48 705.025 1004.51C714.715 990.114 722.433 978.643 727.753 970.735C730.412 966.864 732.479 963.848 733.903 961.782C734.592 960.784 735.115 960.048 735.518 959.478C735.946 958.979 736.136 958.718 736.136 958.718Z" fill="#455A64"/>
<path d="M791.874 1258.9C791.85 1258.9 791.945 1258.62 792.135 1258.05C792.349 1257.43 792.634 1256.62 792.99 1255.6C793.797 1253.39 794.913 1250.26 796.362 1246.27C799.354 1238.12 803.653 1226.41 808.973 1212C819.636 1183.02 834.336 1143.08 850.557 1098.98C854.333 1088.55 858.037 1078.34 861.481 1068.44C863.215 1063.47 865.019 1058.65 864.853 1053.67C864.711 1048.73 862.953 1044 859.985 1040.27C857.111 1036.47 853.311 1033.6 849.44 1031.22C845.546 1028.85 841.461 1027 837.424 1025.5C829.325 1022.51 821.37 1020.63 814.007 1019.56L812.606 1019.35L813.865 1018.68C821.417 1014.76 826.927 1009.02 830.584 1003.34C834.312 997.666 836.236 992.037 837.329 987.406C838.397 982.752 838.563 978.999 838.611 976.482C838.611 975.223 838.54 974.25 838.54 973.608C838.516 972.967 838.54 972.635 838.563 972.635C838.587 972.635 838.635 972.967 838.682 973.608C838.73 974.25 838.848 975.223 838.872 976.482C838.896 979.023 838.825 982.799 837.804 987.525C836.759 992.227 834.882 997.951 831.178 1003.75C827.52 1009.54 821.963 1015.43 814.269 1019.49L814.126 1018.64C821.583 1019.66 829.586 1021.51 837.804 1024.5C841.912 1026 846.044 1027.85 850.034 1030.27C854 1032.67 857.895 1035.62 860.911 1039.56C864.022 1043.41 865.898 1048.42 866.041 1053.62C866.207 1058.87 864.331 1063.92 862.621 1068.82C859.177 1078.74 855.496 1088.96 851.72 1099.38C835.619 1143.58 820.657 1183.43 809.804 1212.28C804.342 1226.65 799.924 1238.29 796.837 1246.41C795.293 1250.37 794.082 1253.49 793.251 1255.67C792.847 1256.67 792.539 1257.48 792.277 1258.07C792.016 1258.64 791.897 1258.9 791.874 1258.9Z" fill="#455A64"/>
<path d="M963.837 1010.44C963.505 1010.44 964.835 1005.12 963.006 996.811C961.296 988.57 955.763 977.741 946.192 969.002C936.598 960.286 925.934 954.966 918.359 951.19C914.678 949.433 911.59 947.96 909.239 946.844C907.078 945.823 905.914 945.206 905.938 945.134C905.962 945.063 907.221 945.514 909.429 946.393C911.638 947.295 914.82 948.625 918.715 950.406C926.433 953.969 937.239 959.217 947.023 968.099C956.784 977.005 962.341 988.167 963.861 996.645C964.668 1000.87 964.716 1004.41 964.455 1006.79C964.407 1008 964.17 1008.9 964.075 1009.52C963.956 1010.13 963.861 1010.44 963.837 1010.44Z" fill="#455A64"/>
<g opacity="0.3">
<path d="M923.441 878.781C919.404 882.794 914.916 886.903 909.287 887.829C904.324 888.66 899.337 886.831 894.611 885.027C867.965 874.886 841.319 864.745 814.696 854.628L808.237 863.463C835.738 885.786 870.102 905.332 904.039 913.525C915.058 916.185 927.502 913.715 936.646 907.065C943.77 901.888 948.116 893.766 951.702 885.715C960.014 867.001 965.429 846.981 967.685 826.629C954.481 845.224 939.638 862.703 923.441 878.781Z" fill="#6EA3A3"/>
</g>
<path d="M944.055 727.026C942.036 729.164 895.56 828.386 895.56 828.386L805.363 808.223L795.199 857.881C795.199 857.881 876.965 894.169 898.363 900.605C912.018 904.737 921.446 903.859 934.817 891.106C948.187 878.353 982.124 796.182 985.9 779.653C989.51 763.932 1002.48 722.158 957.402 701.639L944.055 727.026Z" fill="#71DFDF"/>
<path d="M735.637 791.076L670.756 701.164C669.544 699.478 667.336 698.671 665.222 699.146L600.531 713.87C596.969 714.677 595.378 718.596 597.467 721.446L664.035 812.427C665.531 814.469 668.405 815.134 670.732 813.994L677.643 810.574C678.046 810.384 678.474 810.218 678.925 810.123L732.478 798.629C736.064 797.869 737.703 793.926 735.637 791.076Z" fill="#263238"/>
<path d="M735.637 791.077C735.637 791.077 735.898 791.314 736.183 791.908C736.468 792.502 736.824 793.523 736.563 794.829C736.326 796.111 735.376 797.702 733.571 798.486C731.718 799.127 729.605 799.436 727.23 800.03C717.612 802.143 703.79 805.183 686.739 808.912C684.601 809.387 682.416 809.862 680.184 810.337C678.997 810.574 678.118 810.835 677.025 811.429C675.98 811.952 674.912 812.474 673.843 813.02C672.751 813.543 671.753 814.089 670.566 814.635C669.331 815.134 667.93 815.205 666.624 814.801C665.341 814.445 664.13 813.495 663.417 812.403C662.657 811.382 661.921 810.361 661.161 809.316C655.058 801.027 648.551 792.145 641.711 782.836C628.032 764.169 612.999 743.651 597.206 722.111C596.066 720.733 595.615 718.572 596.328 716.838C596.969 715.057 598.584 713.727 600.365 713.347C603.595 712.611 606.777 711.875 609.959 711.163C616.3 709.714 622.546 708.289 628.697 706.912C640.975 704.133 652.826 701.449 664.106 698.884C664.795 698.742 665.531 698.505 666.338 698.505C667.122 698.481 667.93 698.623 668.666 698.908C669.402 699.193 670.067 699.621 670.637 700.191C671.231 700.761 671.563 701.378 671.991 701.948C673.629 704.228 675.268 706.484 676.859 708.716C680.065 713.157 683.176 717.48 686.169 721.659C692.177 730.019 697.758 737.808 702.864 744.933C713.005 759.135 721.245 770.653 726.969 778.68C729.771 782.646 731.956 785.733 733.476 787.894C734.188 788.915 734.734 789.723 735.138 790.317C735.471 790.768 735.637 791.053 735.637 791.077C735.613 791.1 735.399 790.815 734.996 790.293C734.568 789.723 733.975 788.939 733.238 787.942C731.671 785.804 729.415 782.765 726.541 778.87C720.747 770.914 712.411 759.467 702.128 745.361C696.974 738.283 691.346 730.518 685.314 722.182C682.298 718.002 679.163 713.704 675.957 709.263C674.342 707.054 672.727 704.798 671.064 702.494C670.233 701.283 669.497 700.309 668.238 699.882C667.645 699.644 667.003 699.549 666.362 699.549C665.745 699.549 665.08 699.739 664.344 699.906C653.063 702.494 641.212 705.202 628.934 708.004C622.784 709.405 616.538 710.83 610.197 712.279C607.038 712.991 603.832 713.727 600.626 714.464C599.201 714.796 597.943 715.817 597.444 717.195C596.921 718.572 597.206 720.092 598.18 721.303C613.925 742.867 628.958 763.409 642.614 782.1C649.429 791.457 655.913 800.339 661.969 808.651C662.729 809.696 663.489 810.717 664.225 811.738C664.89 812.759 665.792 813.448 666.885 813.78C667.953 814.113 669.141 814.065 670.186 813.662C671.231 813.187 672.347 812.617 673.392 812.094C674.461 811.572 675.529 811.049 676.574 810.527C677.548 809.981 678.902 809.553 679.946 809.387C682.179 808.912 684.387 808.461 686.525 808.009C703.624 804.423 717.469 801.526 727.111 799.507C729.486 798.961 731.695 798.676 733.428 798.106C735.138 797.418 736.064 795.945 736.326 794.734C736.611 793.499 736.326 792.525 736.088 791.932C735.803 791.362 735.589 791.1 735.637 791.077Z" fill="#455A64"/>
<path d="M734.568 797.18C734.545 797.204 734.117 796.705 733.357 795.731C732.526 794.662 731.434 793.214 730.08 791.409C727.206 787.514 723.145 782.076 718.182 775.402C708.16 761.723 694.457 742.985 679.329 722.3C675.553 717.171 671.872 711.899 668.286 707.268C667.289 706.294 666.006 705.629 664.653 705.368C663.251 705.083 661.993 705.273 660.544 705.653C657.694 706.294 654.916 706.935 652.208 707.529C641.379 709.951 631.594 712.136 623.33 713.988C615.184 715.77 608.582 717.218 603.832 718.239C601.624 718.691 599.843 719.071 598.513 719.332C597.301 719.569 596.66 719.664 596.636 719.641C596.636 719.593 597.254 719.403 598.441 719.094C599.748 718.762 601.505 718.334 603.69 717.764C608.392 716.648 614.994 715.057 623.092 713.133C631.333 711.21 641.094 708.93 651.9 706.413C654.607 705.795 657.385 705.154 660.235 704.489C661.589 704.133 663.299 703.824 664.843 704.18C666.41 704.465 667.93 705.225 669.093 706.389C672.941 711.305 676.432 716.363 680.279 721.564C695.312 742.344 708.92 761.153 718.847 774.88C723.668 781.648 727.61 787.182 730.412 791.124C731.695 792.976 732.74 794.472 733.5 795.589C734.26 796.61 734.616 797.156 734.568 797.18Z" fill="#455A64"/>
<path d="M640.476 730.043C642.365 730.043 643.896 728.746 643.896 727.145C643.896 725.545 642.365 724.248 640.476 724.248C638.588 724.248 637.057 725.545 637.057 727.145C637.057 728.746 638.588 730.043 640.476 730.043Z" fill="white"/>
<path d="M661.802 745.717C661.517 747.45 649.999 782.432 648.266 785.828C646.532 789.224 648.266 795.85 648.266 795.85C648.266 795.85 644.228 804.21 650.569 809.957C650.569 809.957 651.044 817.438 654.393 818.886C657.765 820.335 660.354 823.778 660.354 823.778C660.354 823.778 679.376 849.712 681.371 852.301C683.39 854.889 692.224 862.536 692.224 862.536C692.224 862.536 719.084 852.752 704.835 827.175L696.76 822.045L699.515 801.36C699.515 801.36 706.141 796.135 704.692 792.668C703.244 789.2 700.37 790.649 700.37 790.649C700.37 790.649 702.911 783.453 696.737 782.29L672.988 793.76C672.988 793.76 690.562 776.044 687.973 771.152C685.385 766.259 684.221 767.043 684.221 767.043L661.47 786.303C661.47 786.303 667.122 765.096 668.666 758.327C671.587 745.717 661.802 745.717 661.802 745.717Z" fill="#FFBE9D"/>
<path d="M700.085 791.789C700.204 791.884 698.66 793.76 695.81 796.42C692.96 799.103 688.757 802.523 683.699 805.682C678.64 808.84 673.724 811.12 670.067 812.521C666.409 813.923 664.058 814.493 664.011 814.35C663.94 814.16 666.196 813.305 669.711 811.714C673.249 810.147 678.023 807.748 683.01 804.637C687.997 801.502 692.224 798.249 695.193 795.755C698.185 793.285 699.943 791.646 700.085 791.789Z" fill="#EB996E"/>
<path d="M684.269 767.067C684.387 767.162 682.962 768.967 680.303 771.532C677.667 774.097 673.819 777.421 669.426 780.912C660.639 787.871 652.897 792.692 652.636 792.288C652.564 792.146 654.417 790.887 657.338 788.654C660.259 786.446 664.272 783.382 668.666 779.939C673.036 776.471 676.954 773.265 679.709 770.89C682.488 768.492 684.126 766.948 684.269 767.067Z" fill="#EB996E"/>
<path d="M696.523 797.37C696.475 797.346 696.95 796.848 697.971 797.061C698.921 797.275 700.299 798.32 700.418 800.267C700.465 802.144 699.159 803.972 697.758 805.587C696.357 807.25 694.765 809.031 693.032 810.836C689.564 814.445 686.168 817.461 683.604 819.504C681.039 821.546 679.329 822.662 679.234 822.544C678.996 822.259 685.266 817.153 692.129 809.981C693.839 808.2 695.454 806.442 696.879 804.851C698.328 803.284 699.468 801.74 699.515 800.267C699.563 798.866 698.518 797.798 697.805 797.536C697.069 797.204 696.547 797.465 696.523 797.37Z" fill="#EB996E"/>
<path d="M694.338 821.214C694.053 821.404 692.842 820.05 691.132 818.673C689.446 817.271 687.879 816.369 687.997 816.037C688.116 815.728 690.04 816.179 691.916 817.723C693.792 819.219 694.623 821.047 694.338 821.214Z" fill="#EB996E"/>
<path d="M695.003 835.795C695.145 835.819 695.145 837.03 694.362 838.788C693.602 840.521 691.915 842.754 689.232 844.107C686.548 845.437 683.746 845.437 681.894 845.01C680.017 844.582 679.067 843.846 679.139 843.727C679.21 843.537 680.279 843.965 682.036 844.155C683.77 844.345 686.287 844.202 688.662 843.015C691.037 841.828 692.675 839.904 693.554 838.408C694.504 836.864 694.813 835.748 695.003 835.795Z" fill="#EB996E"/>
<path d="M697.14 782.527C697.211 782.67 695.193 783.881 691.844 785.615C688.496 787.372 683.793 789.676 678.521 792.027C673.249 794.402 668.404 796.373 664.866 797.726C661.327 799.08 659.095 799.792 659.023 799.626C658.952 799.46 661.066 798.463 664.533 796.919C668.38 795.209 672.964 793.167 677.999 790.911C683.033 788.631 687.593 786.565 691.44 784.831C694.908 783.287 697.045 782.361 697.14 782.527Z" fill="#EB996E"/>
<path d="M935.102 745.432C935.102 745.432 934.912 745.955 934.461 746.952C933.986 747.973 933.321 749.446 932.442 751.322C930.637 755.193 928.001 760.821 924.629 767.993C917.789 782.456 907.957 803.213 895.964 828.6L895.798 828.956L895.418 828.861C869.627 823.138 838.849 816.274 805.197 808.817L805.909 808.342C802.656 824.23 799.26 840.902 795.745 858.001L795.389 857.312C797.645 858.309 800.067 859.378 802.49 860.447C833.22 873.865 862.479 886.665 889.599 896.996C896.392 899.489 903.112 901.936 909.905 902.244C916.72 902.601 923.061 899.846 928.143 896.022C930.708 894.122 933.178 892.08 935.221 889.824C936.218 888.684 937.239 887.568 938.047 886.261C938.878 885.003 939.804 883.815 940.54 882.509C942.06 879.944 943.58 877.427 944.886 874.886C946.264 872.368 947.522 869.875 948.757 867.405C958.447 847.717 965.144 831.212 969.894 819.908C972.197 814.256 973.978 809.862 975.237 806.799C975.831 805.326 976.306 804.21 976.614 803.403C976.923 802.643 977.113 802.263 977.113 802.263C977.113 802.263 976.994 802.666 976.733 803.45C976.424 804.281 975.997 805.421 975.451 806.894C974.311 809.933 972.601 814.374 970.321 820.074C965.714 831.473 959.135 848.002 949.541 867.785C948.33 870.255 947.071 872.772 945.694 875.313C944.387 877.878 942.891 880.419 941.348 883.008C940.611 884.314 939.685 885.549 938.83 886.831C938.023 888.138 936.978 889.325 935.933 890.512C933.819 892.864 931.373 894.906 928.737 896.853C926.101 898.777 923.228 900.511 920.045 901.698C916.863 902.885 913.372 903.479 909.881 903.313C902.827 903.028 896.035 900.511 889.219 898.064C862.004 887.781 832.722 874.981 801.991 861.563C799.568 860.494 797.122 859.425 794.89 858.428L794.439 858.238L794.534 857.739C798.049 840.617 801.468 823.969 804.722 808.081L804.841 807.487L805.434 807.63C839.062 815.206 869.841 822.116 895.608 827.911L895.062 828.172C907.221 802.856 917.172 782.171 924.106 767.756C927.573 760.631 930.281 755.05 932.157 751.203C933.083 749.351 933.796 747.902 934.294 746.881C934.817 745.907 935.102 745.432 935.102 745.432Z" fill="#263238"/>
<path d="M970.273 895.737C970.321 895.808 969.537 896.52 968.041 897.755C966.569 899.014 964.313 900.7 961.463 902.671C955.763 906.614 947.404 911.435 937.548 915.306C927.668 919.153 918.264 921.29 911.401 922.264C907.981 922.763 905.179 923.048 903.231 923.119C901.307 923.214 900.215 923.238 900.215 923.143C900.215 923.048 901.26 922.881 903.184 922.62C905.107 922.383 907.862 921.979 911.258 921.385C918.027 920.198 927.312 917.942 937.097 914.142C946.881 910.295 955.217 905.664 960.988 901.911C963.885 900.059 966.189 898.468 967.756 897.352C969.324 896.259 970.226 895.665 970.273 895.737Z" fill="#263238"/>
<path d="M969.704 905.331C969.751 905.402 969.252 905.949 968.302 906.899C967.352 907.849 965.904 909.155 964.099 910.746C960.465 913.904 955.193 918.013 949.042 922.027C942.891 926.04 937.002 929.222 932.656 931.288C930.471 932.333 928.69 933.117 927.455 933.616C926.196 934.115 925.507 934.352 925.46 934.281C925.389 934.115 928.048 932.785 932.276 930.529C936.503 928.272 942.25 925.019 948.377 921.029C954.481 917.039 959.777 913.073 963.553 910.105C967.305 907.089 969.585 905.189 969.704 905.331Z" fill="#263238"/>
<path d="M608.629 1193.71L606.35 1196.68C606.35 1196.68 540.352 1178.63 532.515 1187.82L633.376 1263.48L657.172 1228.88C637.009 1224.61 620.718 1213.61 608.629 1193.71Z" fill="#6EA3A3"/>
<g opacity="0.6">
<g opacity="0.6">
<g opacity="0.6">
<g opacity="0.6">
<g opacity="0.6">
<g opacity="0.6">
<g opacity="0.6">
<g opacity="0.6">
<g opacity="0.6">
<g opacity="0.6">
<g opacity="0.6">
<g opacity="0.6">
<g opacity="0.6">
<g opacity="0.6">
<g opacity="0.6">
<g opacity="0.6">
<path opacity="0.6" d="M638.956 1231.97C640.5 1233.96 640.215 1237.17 638.268 1238.81C636.344 1240.45 633.067 1240.16 631.476 1238.19C629.885 1236.22 630.122 1232.37 632.236 1230.95C634.349 1229.55 638.149 1230.07 639.218 1232.37" fill="white"/>
</g>
</g>
</g>
</g>
</g>
</g>
</g>
</g>
</g>
</g>
</g>
</g>
</g>
</g>
</g>
</g>
<g opacity="0.6">
<g opacity="0.6">
<g opacity="0.6">
<g opacity="0.6">
<g opacity="0.6">
<g opacity="0.6">
<g opacity="0.6">
<g opacity="0.6">
<g opacity="0.6">
<g opacity="0.6">
<g opacity="0.6">
<g opacity="0.6">
<g opacity="0.6">
<g opacity="0.6">
<g opacity="0.6">
<path opacity="0.6" d="M633.399 1263.51L639.123 1255.2L540.352 1185.73C540.352 1185.73 534.391 1184.31 532.539 1187.87L633.399 1263.51Z" fill="white"/>
</g>
</g>
</g>
</g>
</g>
</g>
</g>
</g>
</g>
</g>
</g>
</g>
</g>
</g>
</g>
<path d="M605.804 1196.7C605.447 1197.2 607.751 1199.27 608.986 1202.69C610.316 1206.06 609.96 1209.12 610.553 1209.27C611.076 1209.5 612.548 1206.01 610.981 1201.93C609.461 1197.82 606.041 1196.18 605.804 1196.7Z" fill="#263238"/>
<path d="M591.934 1193.14C591.46 1193.54 592.979 1195.97 593.074 1199.32C593.288 1202.64 592.006 1205.23 592.528 1205.56C592.932 1205.99 595.449 1203.35 595.212 1199.22C595.046 1195.06 592.291 1192.69 591.934 1193.14Z" fill="#263238"/>
<path d="M576.426 1201.31C576.782 1201.76 579.324 1199.81 580.083 1196.16C580.867 1192.52 579.347 1189.72 578.825 1189.96C578.231 1190.15 578.659 1192.71 577.994 1195.71C577.4 1198.7 575.975 1200.88 576.426 1201.31Z" fill="#263238"/>
<path d="M756.75 1301.98C756.75 1301.98 719.274 1316.68 708.207 1293.72L701.938 1302.1L667.954 1364.37C665.745 1368.41 666.719 1373.63 670.59 1376.27C673.582 1378.29 677.358 1378.43 680.374 1376.72C696.523 1367.55 755.752 1333.54 756.726 1327.27L760.383 1310.89C761.143 1307.49 759.694 1303.98 756.75 1301.98Z" fill="#6EA3A3"/>
<g opacity="0.6">
<g opacity="0.6">
<g opacity="0.6">
<g opacity="0.6">
<g opacity="0.6">
<g opacity="0.6">
<g opacity="0.6">
<g opacity="0.6">
<g opacity="0.6">
<g opacity="0.6">
<path opacity="0.6" d="M672.062 1377.1L758.103 1321.62L757.248 1325.18C756.678 1329.13 754.589 1330.27 752.119 1332.28C744.804 1338.32 725.449 1351.12 680.659 1376.79C678.023 1378.28 674.793 1378.4 672.062 1377.1Z" fill="white"/>
</g>
</g>
</g>
</g>
</g>
</g>
</g>
</g>
</g>
</g>
<g opacity="0.6">
<g opacity="0.6">
<g opacity="0.6">
<g opacity="0.6">
<g opacity="0.6">
<g opacity="0.6">
<g opacity="0.6">
<g opacity="0.6">
<g opacity="0.6">
<g opacity="0.6">
<g opacity="0.6">
<path opacity="0.6" d="M750.456 1308.58C747.939 1309.53 746.466 1312.55 747.345 1315.04C748.224 1317.54 751.382 1319.08 753.923 1318.18C756.464 1317.27 758.34 1313.71 757.177 1311.31C756.013 1308.91 752.213 1307.32 749.981 1308.8" fill="white"/>
</g>
</g>
</g>
</g>
</g>
</g>
</g>
</g>
</g>
</g>
</g>
<path d="M700.631 1345.04C700.085 1345.16 699.183 1340.26 694.623 1336.68C690.158 1332.95 685.1 1333 685.124 1332.45C685.1 1332.24 686.359 1331.83 688.448 1332.05C690.515 1332.24 693.388 1333.21 695.882 1335.23C698.375 1337.25 699.872 1339.84 700.465 1341.78C701.035 1343.75 700.869 1345.01 700.631 1345.04Z" fill="#263238"/>
<path d="M691.773 1354.85C691.275 1355.11 689.161 1351.71 684.981 1349.38C680.849 1346.98 676.812 1346.87 676.788 1346.3C676.645 1345.8 681.229 1345.01 685.955 1347.74C690.681 1350.4 692.272 1354.73 691.773 1354.85Z" fill="#263238"/>
<path d="M715.57 1333.33C715.071 1333.64 711.841 1328.39 705.667 1324.23C699.563 1319.98 693.412 1318.82 693.531 1318.25C693.507 1317.77 700.204 1318.13 706.759 1322.67C713.361 1327.15 716.045 1333.19 715.57 1333.33Z" fill="#263238"/>
<path d="M721.863 1313.43C721.507 1313.88 717.208 1310.79 711.033 1309.08C704.882 1307.3 699.587 1307.66 699.539 1307.09C699.397 1306.61 704.954 1305.35 711.556 1307.25C718.182 1309.11 722.243 1313.1 721.863 1313.43Z" fill="#263238"/>
<path d="M707.542 1308.06C707.447 1308.01 707.732 1306.87 708.777 1305.02C709.822 1303.19 711.651 1300.6 714.738 1298.25C716.282 1297.16 718.039 1295.69 720.77 1295.62C722.148 1295.59 723.739 1296.52 724.214 1297.99C724.712 1299.42 724.427 1300.86 723.905 1302.12C721.578 1307.11 714.952 1310.03 708.825 1308.2C702.721 1306.28 698.874 1300.72 698.494 1295.38C698.494 1294.02 698.755 1292.51 699.99 1291.44C701.225 1290.37 703.101 1290.53 704.194 1291.25C706.45 1292.65 707.376 1294.67 708.35 1296.3C710.178 1299.72 710.867 1302.79 711.152 1304.88C711.437 1306.99 711.294 1308.16 711.176 1308.16C710.796 1308.23 710.867 1303.38 707.138 1296.95C706.165 1295.43 705.072 1293.55 703.41 1292.62C702.602 1292.17 701.724 1292.17 701.13 1292.72C700.536 1293.22 700.251 1294.29 700.299 1295.35C700.655 1299.75 704.194 1304.81 709.371 1306.37C714.524 1307.97 720.343 1305.38 722.243 1301.39C722.694 1300.41 722.86 1299.32 722.575 1298.51C722.314 1297.71 721.578 1297.21 720.699 1297.18C718.846 1297.11 717.042 1298.3 715.545 1299.32C709.537 1303.64 707.875 1308.3 707.542 1308.06Z" fill="#263238"/>
<path d="M906.794 559.433C904.537 553.519 905.416 546.941 904.537 540.695C902.59 526.921 891.499 515.854 878.675 510.487C866.73 505.476 852.148 506.545 837.756 511.176C827.901 514.358 818.615 519.891 812.013 527.895C803.273 538.51 800.186 553.519 804.01 566.724L874.495 556.559C881.098 562.021 887.842 567.579 895.822 570.642C898.173 571.545 900.69 572.21 903.184 571.83C905.677 571.45 908.076 569.763 908.67 567.317C909.358 564.61 907.767 561.998 906.794 559.433Z" fill="#263238"/>
<path d="M863.001 506.925C878.438 504.312 891.975 510.273 904.989 518.989C917.979 527.705 927.764 540.838 933.416 555.443C939.353 570.808 940.849 593.061 936.242 608.877C931.635 624.694 920.473 636.26 906.01 641.365C884.779 648.87 860.27 647.944 842.34 634.36C824.41 620.752 814.174 598.309 813.343 575.819C812.773 560.335 816.501 544.471 825.17 531.623C833.814 518.751 847.66 509.157 863.001 506.925Z" fill="#263238"/>
<path d="M839.063 687.248C839.063 687.224 839.063 687.271 839.063 687.295C839.134 688.53 839.182 689.884 839.253 691.332C839.253 691.332 839.229 691.712 839.205 692.401C839.965 700.903 843.931 716.981 862.954 717.218C886.821 717.527 904.87 691.166 907.578 687.01L908.48 556.037C908.385 550.076 903.73 545.184 897.769 544.78L836.261 531.671C816.668 530.341 804.604 554.849 804.105 574.489C803.559 596.291 803.725 622.936 806.931 639.086C813.343 671.526 838.517 674.756 838.517 674.756C838.493 674.613 838.635 678.342 839.063 687.248Z" fill="#FFBE9D"/>
<path d="M813.414 598.404C813.414 600.612 815.29 602.441 817.617 602.465C819.921 602.512 821.797 600.731 821.797 598.523C821.797 596.314 819.921 594.485 817.617 594.438C815.29 594.438 813.414 596.195 813.414 598.404Z" fill="#263238"/>
<path d="M810.374 587.052C810.921 587.575 814.008 585.105 818.496 584.962C822.985 584.749 826.381 586.933 826.856 586.363C827.093 586.102 826.523 585.152 825.051 584.155C823.602 583.157 821.132 582.231 818.33 582.35C815.528 582.469 813.2 583.585 811.894 584.701C810.54 585.793 810.113 586.815 810.374 587.052Z" fill="#263238"/>
<path d="M853.787 597.454C853.787 599.663 855.663 601.491 857.991 601.515C860.294 601.563 862.17 599.781 862.17 597.573C862.17 595.364 860.294 593.536 857.991 593.488C855.663 593.488 853.787 595.245 853.787 597.454Z" fill="#263238"/>
<path d="M853.169 586.007C853.716 586.53 856.803 584.06 861.292 583.917C865.78 583.704 869.176 585.888 869.651 585.319C869.888 585.057 869.318 584.107 867.846 583.11C866.397 582.112 863.928 581.186 861.125 581.305C858.323 581.424 855.996 582.54 854.689 583.656C853.336 584.772 852.884 585.77 853.169 586.007Z" fill="#263238"/>
<path d="M839.609 620.253C839.609 619.991 836.807 619.611 832.247 619.208C831.083 619.136 829.991 618.946 829.777 618.163C829.468 617.332 829.92 616.073 830.418 614.719C831.392 611.893 832.413 608.925 833.482 605.837C837.733 593.179 840.773 582.801 840.25 582.635C839.728 582.469 835.88 592.585 831.629 605.243C830.608 608.355 829.635 611.323 828.708 614.173C828.328 615.503 827.64 616.999 828.281 618.709C828.613 619.564 829.492 620.158 830.228 620.324C830.964 620.514 831.629 620.514 832.199 620.514C836.759 620.585 839.585 620.49 839.609 620.253Z" fill="#263238"/>
<path d="M838.493 673.663C838.493 673.663 860.508 674.257 881.763 660.364C881.763 660.364 871.622 683.377 838.825 681.548L838.493 673.663Z" fill="#EB996E"/>
<path d="M841.913 631.035C843.456 628.826 846.259 627.544 849.085 627.757C851.056 627.9 853.051 628.755 854.309 630.322C855.568 631.866 855.901 634.122 854.879 635.69C853.716 637.447 851.198 637.946 849.037 637.399C846.852 636.877 844.952 635.523 843.148 634.17C842.649 633.79 842.126 633.41 841.818 632.887C841.485 632.365 841.414 631.676 841.77 631.201" fill="#EB996E"/>
<path d="M852.979 622.865C852.243 622.841 852.41 627.733 848.372 631.367C844.335 635 839.087 634.644 839.087 635.333C839.039 635.642 840.274 636.235 842.483 636.212C844.644 636.212 847.778 635.404 850.248 633.172C852.718 630.939 853.716 628.066 853.811 626.047C853.906 624.005 853.312 622.817 852.979 622.865Z" fill="#263238"/>
<path d="M853.43 572.637C853.929 573.848 858.394 573.088 863.714 573.539C869.033 573.872 873.356 575.249 874.021 574.133C874.306 573.587 873.522 572.471 871.764 571.354C870.007 570.238 867.252 569.217 864.07 568.979C860.888 568.742 857.99 569.359 856.114 570.214C854.167 571.069 853.217 572.067 853.43 572.637Z" fill="#263238"/>
<path d="M810.944 567.293C811.775 568.291 814.839 567.103 818.568 566.913C822.296 566.605 825.478 567.341 826.167 566.248C826.476 565.726 825.93 564.705 824.505 563.802C823.103 562.9 820.8 562.187 818.235 562.354C815.67 562.52 813.485 563.541 812.227 564.633C810.968 565.75 810.588 566.818 810.944 567.293Z" fill="#263238"/>
<path d="M918.098 549.933C911.733 531.195 883.923 505.618 864.212 507.375L833.054 526.873C835.168 537.584 843.622 546.774 854.119 549.767C859.724 551.358 866.444 551.69 869.841 556.44C873.308 561.261 871.479 568.433 874.709 573.42C879.198 580.331 891.143 579.785 894.539 587.29C896.035 590.567 895.347 594.533 896.914 597.786C898.98 602.109 910.142 607.452 914.702 605.908C919.261 604.365 919.119 596.575 920.544 592.467C922.966 585.437 921.85 581.851 920.924 577.956C918.763 568.766 921.114 558.886 918.098 549.933Z" fill="#263238"/>
<path d="M901.26 610.017C901.165 607.594 903.777 601.752 906.152 601.277C912.517 600.042 924.106 600.114 924.819 616.405C925.792 638.658 903.255 635.048 903.184 634.407C903.16 633.908 901.569 618.4 901.26 610.017Z" fill="#FFBE9D"/>
<path d="M909.643 625.667C909.738 625.596 910.047 625.928 910.712 626.19C911.353 626.451 912.469 626.617 913.609 626.118C915.913 625.145 917.742 621.321 917.67 617.308C917.647 615.289 917.124 613.365 916.34 611.798C915.581 610.207 914.488 609.114 913.301 608.948C912.113 608.734 911.306 609.471 911.068 610.112C910.807 610.753 910.95 611.18 910.831 611.228C910.783 611.299 910.332 610.872 910.475 609.946C910.546 609.494 910.783 608.972 911.282 608.521C911.804 608.069 912.564 607.808 913.396 607.856C915.105 607.903 916.72 609.399 917.599 611.133C918.549 612.843 919.19 615.004 919.214 617.284C919.262 621.772 917.172 626.071 913.989 627.139C912.446 627.614 911.116 627.211 910.427 626.712C909.691 626.213 909.548 625.715 909.643 625.667Z" fill="#EB996E"/>
<path d="M938.261 579.571C938.427 579.595 939.021 577.078 939.092 572.898C939.187 568.742 938.569 562.9 936.551 556.844C934.508 550.788 931.469 545.753 928.904 542.5C926.315 539.222 924.32 537.56 924.202 537.679C923.798 537.964 931.255 545.373 935.15 557.319C939.234 569.193 937.762 579.595 938.261 579.571Z" fill="#71DFDF"/>
<path d="M839.514 520.152C837.448 529.201 823.673 540.814 817.618 547.843C806.076 561.285 803.891 563.256 803.986 603.819C798.547 593.417 794.273 575.273 794.7 563.541C795.128 551.809 799.474 540.077 807.619 531.647C815.789 523.24 827.901 518.466 839.514 520.152Z" fill="#263238"/>
<path d="M929.426 549.672C929.45 549.767 928.096 550.1 925.65 550.598C924.415 550.883 922.919 551.168 921.138 551.382C919.381 551.62 917.362 551.952 915.13 552.071C910.665 552.498 905.298 552.546 899.361 552.213C893.423 551.786 886.94 550.883 880.267 549.268C873.593 547.606 867.419 545.397 861.957 543.046C856.542 540.6 851.792 538.083 848.016 535.637C846.069 534.497 844.454 533.262 843.005 532.241C841.533 531.243 840.321 530.27 839.372 529.462C837.424 527.871 836.379 526.969 836.45 526.897C836.498 526.826 837.662 527.61 839.68 529.058C840.678 529.795 841.913 530.697 843.433 531.623C844.929 532.573 846.567 533.737 848.515 534.829C852.315 537.157 857.04 539.579 862.431 541.93C867.87 544.186 873.973 546.324 880.575 547.986C887.178 549.577 893.59 550.48 899.456 550.978C905.321 551.382 910.641 551.406 915.082 551.121C917.315 551.073 919.309 550.788 921.067 550.622C922.824 550.48 924.344 550.266 925.579 550.076C928.025 549.72 929.426 549.577 929.426 549.672Z" fill="#455A64"/>
<path d="M931.73 565.631C931.753 565.726 930.827 565.94 929.141 566.249C927.455 566.581 925.009 566.914 921.969 567.151C915.889 567.65 907.34 567.507 898.173 565.703C888.982 563.874 881.05 560.787 875.588 558.008C872.857 556.631 870.719 555.396 869.294 554.446C867.87 553.52 867.11 552.973 867.157 552.878C867.276 552.688 870.506 554.636 876.015 557.153C881.501 559.694 889.386 562.591 898.434 564.396C907.482 566.178 915.889 566.462 921.921 566.201C927.977 565.964 931.706 565.394 931.73 565.631Z" fill="#455A64"/>
<path d="M937.358 566.177C937.43 566.154 937.762 567.341 938.118 569.526C938.498 571.711 938.807 574.893 939.021 578.835C939.234 582.778 939.282 587.48 939.021 592.705C938.712 597.905 938.213 603.676 936.741 609.566C933.606 621.464 926.03 630.346 919.452 634.763C916.175 637.019 913.23 638.373 911.187 639.204C909.145 640.036 907.958 640.368 907.934 640.297C907.886 640.202 909.003 639.703 910.974 638.729C912.921 637.756 915.747 636.283 918.882 633.98C922.041 631.7 925.389 628.446 928.334 624.243C931.184 619.968 934.081 615.028 935.387 609.234C936.836 603.486 937.358 597.787 937.738 592.633C938.071 587.456 938.118 582.801 938.023 578.883C937.928 574.964 937.762 571.782 937.548 569.597C937.406 567.412 937.24 566.201 937.358 566.177Z" fill="#455A64"/>
<path d="M769.597 877.332C769.36 877.284 769.977 874.268 769.954 869.376C769.977 866.93 769.692 864.009 769.17 860.826C768.552 857.668 767.626 854.224 766.272 850.757C764.848 847.313 763.138 844.202 761.357 841.495C759.528 838.835 757.699 836.555 755.989 834.798C752.593 831.259 750.076 829.526 750.218 829.336C750.266 829.264 750.931 829.668 752.071 830.452C752.665 830.832 753.353 831.331 754.089 831.972C754.849 832.613 755.752 833.302 756.607 834.204C758.435 835.914 760.383 838.17 762.283 840.878C764.135 843.609 765.94 846.791 767.389 850.329C768.79 853.892 769.716 857.407 770.262 860.66C770.761 863.937 770.927 866.906 770.808 869.4C770.808 870.658 770.642 871.774 770.547 872.748C770.452 873.746 770.31 874.577 770.144 875.242C769.882 876.619 769.692 877.355 769.597 877.332Z" fill="#263238"/>
<path d="M778.883 865.03C778.669 865.053 778.289 862.655 777.102 858.974C775.938 855.293 773.777 850.329 770.381 845.508C766.961 840.687 763.019 837.006 759.932 834.655C756.844 832.304 754.707 831.14 754.826 830.95C754.873 830.879 755.42 831.093 756.417 831.568C757.414 832.019 758.816 832.827 760.454 833.943C763.731 836.151 767.888 839.832 771.402 844.772C774.893 849.736 776.983 854.889 777.957 858.713C778.456 860.636 778.741 862.204 778.836 863.296C778.954 864.412 778.978 865.03 778.883 865.03Z" fill="#263238"/>
<path d="M927.526 472.299L951.204 462.396C962.579 467.597 975.427 469.853 988.56 468.214C1026.37 463.536 1052.47 428.696 1046.86 390.413C1041.26 352.131 1006.04 324.915 968.232 329.593C930.424 334.272 904.324 369.111 909.929 407.394C912.28 423.377 919.784 437.412 930.495 448.028L930.471 448.004L927.526 472.299Z" fill="white"/>
<path d="M927.526 472.299C927.526 472.299 927.55 471.8 927.669 470.779C927.788 469.686 927.954 468.167 928.168 466.172C928.643 461.992 929.307 455.888 930.186 447.98C930.21 447.838 930.329 447.719 930.495 447.743C930.542 447.743 930.566 447.766 930.614 447.79L930.637 447.814L930.305 448.241C923.75 441.782 916.341 432.021 912.066 418.556C909.881 411.882 908.717 404.306 908.789 396.256C908.86 388.205 910.332 379.655 913.633 371.32C916.934 362.984 922.088 354.909 929.023 348.022C935.957 341.159 944.673 335.507 954.576 332.134C964.479 328.833 975.451 327.717 986.352 329.237C991.814 329.878 997.181 331.517 1002.45 333.441C1007.61 335.673 1012.74 338.167 1017.34 341.586C1022.07 344.745 1026.11 348.711 1029.93 352.748C1033.49 357.023 1036.84 361.44 1039.33 366.309C1044.54 375.903 1047.43 386.4 1048.03 396.731C1048.69 407.085 1046.86 417.226 1043.3 426.203C1039.74 435.227 1034.4 443.088 1028.1 449.381C1021.81 455.698 1014.57 460.401 1007.2 463.583C1005.33 464.295 1003.52 465.103 1001.67 465.72C999.793 466.243 997.965 466.765 996.136 467.288C994.308 467.739 992.455 467.953 990.674 468.309C988.893 468.665 987.112 468.855 985.354 468.974C971.295 470.019 959.444 466.599 951.037 462.681H951.251C943.509 465.839 937.548 468.262 933.464 469.924C931.516 470.708 930.02 471.325 928.951 471.753C928.025 472.109 927.526 472.299 927.526 472.299C927.526 472.299 928.073 472.038 929.094 471.586C930.162 471.135 931.659 470.47 933.63 469.615C937.643 467.905 943.485 465.388 951.085 462.134C951.156 462.111 951.251 462.111 951.299 462.134C959.682 465.934 971.438 469.211 985.33 468.095C987.064 467.977 988.822 467.763 990.579 467.407C992.336 467.074 994.165 466.837 995.97 466.385C997.751 465.863 999.58 465.34 1001.41 464.818C1003.24 464.224 1005.02 463.417 1006.85 462.704C1014.09 459.546 1021.19 454.867 1027.37 448.621C1033.54 442.399 1038.76 434.633 1042.26 425.751C1045.75 416.893 1047.53 406.919 1046.84 396.754C1046.22 386.59 1043.37 376.259 1038.27 366.831C1035.8 362.058 1032.5 357.712 1029 353.508C1025.25 349.542 1021.26 345.647 1016.63 342.536C1012.12 339.164 1007.04 336.718 1002 334.533C996.825 332.657 991.553 331.042 986.185 330.401C975.475 328.905 964.693 329.973 954.956 333.203C945.219 336.528 936.646 342.038 929.83 348.782C922.99 355.527 917.884 363.459 914.607 371.652C911.306 379.845 909.834 388.276 909.739 396.208C909.62 404.14 910.736 411.645 912.85 418.247C916.982 431.57 924.249 441.307 930.685 447.79C930.804 447.885 930.804 448.075 930.685 448.17C930.59 448.265 930.447 448.265 930.352 448.218C930.329 448.218 930.329 448.194 930.329 448.194L930.732 447.98C929.711 455.793 928.928 461.802 928.381 465.934C928.12 467.953 927.906 469.496 927.764 470.613C927.621 471.729 927.526 472.299 927.526 472.299Z" fill="#263238"/>
<path d="M959.824 409.887C965.346 409.887 969.822 405.411 969.822 399.889C969.822 394.367 965.346 389.891 959.824 389.891C954.302 389.891 949.826 394.367 949.826 399.889C949.826 405.411 954.302 409.887 959.824 409.887Z" fill="#71DFDF"/>
<path d="M991.98 392.029C997.502 392.029 1001.98 387.552 1001.98 382.03C1001.98 376.509 997.502 372.032 991.98 372.032C986.458 372.032 981.982 376.509 981.982 382.03C981.982 387.552 986.458 392.029 991.98 392.029Z" fill="#71DFDF"/>
<path d="M990.199 427.414C995.721 427.414 1000.2 422.937 1000.2 417.415C1000.2 411.894 995.721 407.417 990.199 407.417C984.677 407.417 980.201 411.894 980.201 417.415C980.201 422.937 984.677 427.414 990.199 427.414Z" fill="#71DFDF"/>
<path d="M990.792 420.551L955.003 399.866L990.84 379.964L993.143 384.097L964.645 399.937L993.167 416.418L990.792 420.551Z" fill="#71DFDF"/>
</svg>
