<svg width="427" height="857" viewBox="0 0 427 857" fill="none" xmlns="http://www.w3.org/2000/svg">
<rect x="360.24" width="135.76" height="141.797" rx="8" fill="#71DFDF"/>
<rect x="52.2085" y="72.3984" width="389.798" height="635.086" rx="6.5" stroke="#164A89" stroke-width="3"/>
<path d="M274.29 652.088C273.915 652.168 263.402 609.896 250.803 557.648C238.203 505.374 228.305 462.94 228.68 462.859C229.054 462.778 239.567 505.05 252.167 557.325C264.767 609.572 274.664 652.007 274.29 652.088Z" fill="#EBEBEB"/>
<path d="M133.517 814.448C131.186 812.44 125.984 806.044 129.999 798.615C131.465 795.898 134.601 794.539 137.43 793.343C140.258 792.146 143.233 791.098 145.563 789.089C149.975 785.308 151.191 779.016 154.122 773.965C157.478 768.175 163.765 763.833 170.389 764.128C177.981 764.483 184.312 770.73 187.184 777.849C190.057 784.983 190.159 792.885 190.218 800.594C190.247 804.848 190.057 809.648 186.964 812.528C184.107 815.172 179.798 815.216 175.929 815.098C162.094 814.67 148.26 814.242 134.425 813.813" fill="#F5F5F5"/>
<path d="M439.394 699.422H330.242L349.909 817.565C350.774 822.719 354.467 826.707 359.23 828.081C359.362 828.125 359.479 828.155 359.611 828.184C359.933 828.273 360.256 828.376 360.578 828.435C361.296 828.583 362.044 828.657 362.791 828.686C362.791 828.716 362.806 828.76 362.806 828.804L363.333 828.716H411.974C412.883 828.716 413.777 828.627 414.642 828.45C420.386 827.549 424.988 822.911 425.677 816.9L435.159 735.49L435.584 732.255H435.54L439.292 700.013L439.394 699.422ZM418.804 774.792H407.607L408.735 740.497H421.72L418.804 774.792ZM422.805 740.497H433.532L429.546 774.792H419.903L422.805 740.497ZM390.797 812.809L390.123 783.019H406.259L405.277 812.809H390.797ZM373.372 783.019H389.039L389.713 812.809H375.658L373.372 783.019ZM374.574 812.809H361.428C360.182 804.759 358.556 794.317 356.797 783.019H372.273L374.574 812.809ZM372.727 774.792L370.089 740.497H388.071L388.848 774.792H372.727ZM389.933 774.792L389.156 740.497H407.666L406.537 774.792H389.933ZM388.965 732.285L388.233 700.53H408.97L407.929 732.285H388.965ZM387.881 732.285H369.459L367.012 700.53H387.163L387.881 732.285ZM368.36 732.285H348.869C348.18 727.898 347.52 723.748 346.934 720.011C344.897 707.176 344.135 702.347 343.71 700.53H365.913L368.36 732.285ZM369.005 740.497L371.643 774.792H355.522C354.98 771.306 354.438 767.791 353.881 764.276C352.62 756.182 351.345 748.088 350.158 740.512H369.005V740.497ZM354.423 774.792H343.886L338.185 740.497H349.059C350.73 751.101 352.576 762.888 354.423 774.792ZM355.713 783.019C357.325 793.328 358.893 803.489 360.344 812.809H350.217L345.263 783.019H355.713ZM406.361 812.809L407.343 783.019H418.115L415.594 812.809H406.361ZM409.014 732.285L410.054 700.53H425.105L422.409 732.285H409.014ZM342.684 700.53C343.124 702.819 345.102 715.314 347.784 732.285H336.822L331.531 700.53H342.684ZM425.105 812.809H416.664L419.185 783.019H428.564L425.105 812.809ZM434.485 732.285H423.508L426.205 700.53H438.193L434.485 732.285Z" fill="#E0E0E0"/>
<path d="M280.3 209.233C285.928 206.855 289.929 201.007 289.958 194.124C289.988 185.1 283.217 177.759 274.834 177.715C266.451 177.67 259.607 184.952 259.578 193.976C259.549 200.933 263.579 206.841 269.265 209.218C245.875 212.763 246.945 238.388 246.945 238.388L302.239 238.64C302.21 238.654 303.47 212.763 280.3 209.233Z" fill="#EBEBEB"/>
<path d="M274.57 269.611C240.966 269.611 213.634 242.066 213.634 208.199C213.619 174.318 240.966 146.772 274.57 146.772C308.175 146.772 335.522 174.318 335.522 208.184C335.507 242.051 308.175 269.611 274.57 269.611ZM274.57 148.249C241.772 148.249 215.099 175.145 215.099 208.184C215.099 241.239 241.786 268.12 274.57 268.12C307.369 268.12 334.056 241.224 334.056 208.184C334.042 175.145 307.369 148.249 274.57 148.249Z" fill="#EBEBEB"/>
<path d="M92.6199 433.294C63.5584 433.294 39.9194 409.47 39.9194 380.182C39.9194 350.894 63.5584 327.07 92.6199 327.07C121.681 327.07 145.32 350.894 145.32 380.182C145.32 409.47 121.681 433.294 92.6199 433.294ZM92.6199 328.547C64.3645 328.547 41.385 351.706 41.385 380.182C41.385 408.658 64.3645 431.817 92.6199 431.817C120.875 431.817 143.855 408.658 143.855 380.182C143.855 351.706 120.875 328.547 92.6199 328.547Z" fill="#EBEBEB"/>
<path d="M131.544 588.685C116.728 588.685 104.681 576.544 104.681 561.612C104.681 546.68 116.728 534.539 131.544 534.539C146.361 534.539 158.407 546.68 158.407 561.612C158.407 576.544 146.361 588.685 131.544 588.685ZM131.544 536.016C117.548 536.016 106.147 547.492 106.147 561.612C106.147 575.717 117.534 587.208 131.544 587.208C145.54 587.208 156.942 575.732 156.942 561.612C156.942 547.507 145.555 536.016 131.544 536.016Z" fill="#EBEBEB"/>
<path d="M97.5003 380.152C102.293 378.129 105.693 373.152 105.722 367.288C105.751 359.608 99.9917 353.36 92.8399 353.331C85.7028 353.301 79.8846 359.49 79.8553 367.17C79.826 373.093 83.2554 378.114 88.0916 380.152C68.1897 383.18 69.0837 404.98 69.0837 404.98L116.156 405.202C116.156 405.202 117.226 383.151 97.5003 380.152Z" fill="#EBEBEB"/>
<path d="M133.948 562.056C136.293 561.066 137.964 558.614 137.978 555.749C137.993 551.983 135.164 548.911 131.662 548.896C128.159 548.881 125.301 551.924 125.287 555.69C125.272 558.599 126.957 561.066 129.332 562.056C119.557 563.533 120.011 574.241 120.011 574.241L143.108 574.344C143.108 574.344 143.635 563.518 133.948 562.056Z" fill="#EBEBEB"/>
<path d="M127.441 535.278C127.236 535.322 121.476 512.163 114.573 483.54C107.671 454.901 102.248 431.654 102.453 431.61C102.659 431.565 108.418 454.724 115.321 483.362C122.223 511.986 127.646 535.233 127.441 535.278Z" fill="#EBEBEB"/>
<path d="M415.099 408.047C400.283 408.047 388.236 395.907 388.236 380.974C388.236 366.042 400.283 353.902 415.099 353.902C429.916 353.902 441.963 366.042 441.963 380.974C441.963 395.907 429.901 408.047 415.099 408.047ZM415.099 355.379C401.104 355.379 389.702 366.855 389.702 380.974C389.702 395.094 401.089 406.57 415.099 406.57C429.095 406.57 440.497 395.094 440.497 380.974C440.497 366.855 429.095 355.379 415.099 355.379Z" fill="#EBEBEB"/>
<path d="M417.488 381.417C419.833 380.428 421.504 377.976 421.518 375.111C421.533 371.345 418.705 368.273 415.202 368.258C411.699 368.243 408.842 371.286 408.827 375.052C408.812 377.961 410.498 380.428 412.872 381.417C403.097 382.894 403.551 393.602 403.551 393.602L426.648 393.706C426.648 393.706 427.175 382.88 417.488 381.417Z" fill="#EBEBEB"/>
<path d="M115.541 232.146C100.724 232.146 88.6777 220.005 88.6777 205.073C88.6777 190.141 100.724 178 115.541 178C130.357 178 142.404 190.141 142.404 205.073C142.389 219.99 130.343 232.146 115.541 232.146ZM115.541 179.477C101.545 179.477 90.1432 190.953 90.1432 205.073C90.1432 219.193 101.53 230.669 115.541 230.669C129.551 230.669 140.938 219.193 140.938 205.073C140.938 190.953 129.537 179.477 115.541 179.477Z" fill="#EBEBEB"/>
<path d="M117.93 205.501C120.275 204.512 121.945 202.06 121.96 199.194C121.975 195.428 119.146 192.356 115.643 192.341C112.141 192.327 109.283 195.369 109.268 199.135C109.254 202.045 110.939 204.512 113.313 205.501C103.538 206.978 103.993 217.686 103.993 217.686L127.089 217.789C127.089 217.804 127.617 206.978 117.93 205.501Z" fill="#EBEBEB"/>
<path d="M398.686 359.883C398.539 360.031 376.893 338.393 350.353 311.542C323.797 284.691 302.401 262.802 302.547 262.655C302.694 262.507 324.34 284.145 350.88 310.996C377.436 337.847 398.832 359.736 398.686 359.883Z" fill="#EBEBEB"/>
<path d="M234.073 325.859C233.926 326.007 210.888 303.719 182.618 276.085C154.333 248.437 131.544 225.898 131.691 225.75C131.838 225.603 154.876 247.89 183.146 275.539C211.416 303.173 234.219 325.711 234.073 325.859Z" fill="#EBEBEB"/>
<path d="M37.9578 828.376C37.9578 828.17 125.524 827.992 233.518 827.992C341.548 827.992 429.096 828.17 429.096 828.376C429.096 828.583 341.548 828.76 233.518 828.76C125.524 828.76 37.9578 828.583 37.9578 828.376Z" fill="#263238"/>
<path d="M67.0916 676.205C67.2529 676.397 68.5572 675.614 70.0227 674.432C71.4882 673.251 72.5434 672.143 72.3822 671.936C72.221 671.744 70.9167 672.527 69.4511 673.708C67.9856 674.89 66.9304 675.998 67.0916 676.205Z" fill="#263238"/>
<path d="M27.2291 616.151C26.9946 610.538 26.8334 604.793 28.592 599.461C30.3506 594.129 34.4248 589.226 39.8766 588.089C46.1051 586.789 52.4801 590.747 55.9681 596.109C59.456 601.47 60.6578 607.969 61.6837 614.29C68.7915 657.875 71.4148 702.184 69.4949 746.316L44.0094 749.92C32.8274 703.838 29.2515 663.562 27.2291 616.151Z" fill="#49A6A6"/>
<path d="M43.4084 587.897C43.3938 587.897 43.4377 588.045 43.5257 588.311C43.6429 588.621 43.7748 589.005 43.9507 589.478C44.361 590.57 44.9326 592.047 45.6507 593.908C46.0024 594.868 46.4714 595.917 46.8524 597.113C47.2335 598.31 47.6438 599.61 48.0835 600.998C48.5378 602.401 49.0067 603.893 49.505 605.458C49.9154 607.068 50.355 608.767 50.824 610.554C52.7438 617.673 54.3413 626.328 55.7482 635.972C57.1258 645.632 58.0344 656.325 58.7379 667.565C60.0422 690.059 60.2474 710.485 60.8189 725.255C61.0974 732.64 61.3465 738.621 61.6249 742.742C61.7568 744.751 61.8594 746.331 61.9474 747.498C61.9913 748 62.0206 748.399 62.0499 748.724C62.0793 749.004 62.1086 749.137 62.1232 749.137C62.1379 749.137 62.1525 748.99 62.1525 748.709C62.1525 748.369 62.1379 747.971 62.1379 747.468C62.1086 746.302 62.0499 744.721 61.9913 742.713C61.8155 738.592 61.6689 732.61 61.4784 725.225C61.068 710.456 60.9655 690.029 59.6611 667.491C58.943 656.236 58.0198 645.514 56.5835 635.839C55.1327 626.165 53.4619 617.496 51.4542 610.377C50.9706 608.589 50.5016 606.891 50.0766 605.281C49.549 603.701 49.0507 602.209 48.5817 600.821C48.1128 599.432 47.6731 598.133 47.2628 596.936C46.8524 595.74 46.3541 594.706 45.9731 593.746C45.1817 591.9 44.5662 590.438 44.1119 589.359C43.9067 588.902 43.7455 588.532 43.6136 588.237C43.4964 588.015 43.4231 587.897 43.4084 587.897Z" fill="#263238"/>
<path d="M41.0493 587.912C41.0493 587.912 39.4811 589.522 37.9423 593.229C36.3449 596.892 35.3337 602.726 35.6121 609.845C36.2863 624.039 37.5466 643.594 39.232 665.172C40.9174 686.765 42.7786 706.291 44.2881 720.396C45.0355 727.456 45.695 733.157 46.1639 737.1C46.4131 739.006 46.6036 740.512 46.7355 741.635C46.8088 742.107 46.8674 742.491 46.9114 742.816C46.9553 743.082 46.9846 743.215 46.9993 743.215C47.014 743.215 47.014 743.082 46.9993 742.801C46.97 742.476 46.9553 742.092 46.9114 741.62C46.8088 740.497 46.6769 738.991 46.501 737.071C46.12 733.039 45.5777 727.352 44.9036 720.352C43.57 706.232 41.7967 686.706 40.1113 665.128C38.4406 643.549 37.0777 623.994 36.2277 609.845C35.8613 602.785 36.7552 597.04 38.2354 593.392C39.6863 589.67 41.1665 587.971 41.0493 587.912Z" fill="#263238"/>
<path d="M23.375 654.375C23.463 654.611 25.6173 654.05 28.2113 653.12C30.7906 652.189 32.813 651.229 32.7398 650.993C32.6518 650.757 30.4975 651.318 27.9035 652.248C25.3242 653.194 23.3017 654.139 23.375 654.375Z" fill="#263238"/>
<path d="M20.312 628.203C20.2094 628.44 22.2611 629.592 24.8991 630.773C27.537 631.97 29.7646 632.738 29.8672 632.516C29.9698 632.28 27.9181 631.128 25.2654 629.946C22.6422 628.75 20.4145 627.967 20.312 628.203Z" fill="#263238"/>
<path d="M21.9094 606.846C21.924 607.097 23.6241 607.186 25.7051 607.038C27.7862 606.891 29.4569 606.566 29.4422 606.315C29.4276 606.064 27.7275 605.975 25.6465 606.123C23.5654 606.27 21.8801 606.595 21.9094 606.846Z" fill="#263238"/>
<path d="M48.2009 593.155C48.4208 593.288 49.5346 591.885 50.6923 590.024C51.8501 588.163 52.6268 586.538 52.407 586.405C52.1872 586.273 51.0734 587.676 49.9156 589.537C48.7578 591.398 47.9811 593.022 48.2009 593.155Z" fill="#263238"/>
<path d="M56.8915 606.064C56.8915 606.315 58.5182 606.492 60.5113 606.448C62.5044 606.404 64.1165 606.167 64.1165 605.916C64.1165 605.665 62.4898 605.488 60.4967 605.532C58.4889 605.577 56.8768 605.813 56.8915 606.064Z" fill="#263238"/>
<path d="M63.1347 631.911C63.2226 632.147 64.9373 631.675 66.945 630.862C68.9528 630.05 70.5063 629.193 70.4183 628.957C70.3304 628.721 68.6157 629.193 66.608 630.006C64.5855 630.833 63.0321 631.675 63.1347 631.911Z" fill="#263238"/>
<path d="M63.7943 653.651C63.7357 653.902 65.2012 654.419 67.0331 654.803C68.8797 655.187 70.4038 655.305 70.4624 655.054C70.5211 654.803 69.0555 654.286 67.2236 653.902C65.3771 653.518 63.8529 653.4 63.7943 653.651Z" fill="#263238"/>
<path d="M66.7252 689.202C66.6812 689.453 68.22 689.941 70.1692 690.295C72.1184 690.65 73.7304 690.723 73.7744 690.472C73.8184 690.221 72.2796 689.734 70.3304 689.379C68.3813 689.04 66.7692 688.951 66.7252 689.202Z" fill="#263238"/>
<path d="M68.6746 708.831C68.5574 709.052 69.847 709.968 71.547 710.884C73.2471 711.785 74.7272 712.346 74.8445 712.125C74.9617 711.903 73.6721 710.987 71.972 710.072C70.272 709.156 68.7918 708.609 68.6746 708.831Z" fill="#263238"/>
<path d="M52.7735 731.104C52.9934 731.237 54.1071 729.671 55.2796 727.618C56.4373 725.565 57.2141 723.807 56.9942 723.689C56.7744 723.556 55.6606 725.122 54.4882 727.175C53.3304 729.213 52.5537 730.986 52.7735 731.104Z" fill="#263238"/>
<path d="M48.1863 694.091C48.0105 694.268 49.2562 695.789 50.9709 697.488C52.6855 699.186 54.2243 700.412 54.4002 700.235C54.5761 700.058 53.3304 698.536 51.6157 696.838C49.901 695.139 48.3622 693.914 48.1863 694.091Z" fill="#263238"/>
<path d="M49.2123 674.669C49.4028 674.846 50.5606 673.886 51.7916 672.527C53.0373 671.168 53.8873 669.942 53.7115 669.765C53.5209 669.588 52.3632 670.548 51.1321 671.907C49.8718 673.251 49.0218 674.492 49.2123 674.669Z" fill="#263238"/>
<path d="M46.0467 649.856C45.8562 650.018 46.8967 651.495 48.3622 653.149C49.8277 654.804 51.176 656 51.3666 655.838C51.5571 655.675 50.5166 654.198 49.051 652.544C47.5855 650.89 46.2372 649.679 46.0467 649.856Z" fill="#263238"/>
<path d="M44.2733 631.837C44.4492 632.014 45.9001 630.862 47.5122 629.267C49.1242 627.672 50.2967 626.225 50.1208 626.047C49.9449 625.87 48.4941 627.022 46.882 628.617C45.2699 630.212 44.0975 631.66 44.2733 631.837Z" fill="#263238"/>
<path d="M40.7856 607.496C40.5657 607.629 41.2985 609.254 42.4123 611.145C43.5261 613.035 44.6106 614.453 44.8158 614.32C45.0356 614.187 44.3028 612.562 43.189 610.672C42.0752 608.781 41.0054 607.363 40.7856 607.496Z" fill="#263238"/>
<path d="M34.2198 584.928C33.9999 585.046 34.6448 586.686 35.656 588.576C36.6672 590.467 37.6784 591.914 37.8982 591.796C38.1181 591.678 37.4732 590.038 36.462 588.148C35.4508 586.243 34.4396 584.81 34.2198 584.928Z" fill="#263238"/>
<path d="M26.7751 595.179C26.6725 595.4 27.6837 596.124 29.0467 596.789C30.4096 597.453 31.6114 597.793 31.7139 597.571C31.8165 597.35 30.8053 596.626 29.4424 595.962C28.0794 595.297 26.8923 594.942 26.7751 595.179Z" fill="#263238"/>
<path d="M26.5991 676.205C26.6431 676.441 28.9586 676.116 31.5819 674.994C34.2052 673.871 36.0371 672.409 35.9052 672.202C35.7587 671.981 33.7656 673.059 31.2302 674.137C28.6802 675.245 26.5405 675.954 26.5991 676.205Z" fill="#263238"/>
<path d="M29.6474 693.367C29.6034 693.618 31.1275 694.12 33.0767 694.504C35.0112 694.888 36.6233 694.992 36.6819 694.74C36.7259 694.489 35.2017 693.987 33.2526 693.603C31.3034 693.219 29.6913 693.116 29.6474 693.367Z" fill="#263238"/>
<path d="M33.3844 722.788C33.5309 722.98 35.4801 721.636 37.268 719.361C39.0706 717.087 39.9207 714.871 39.7008 714.768C39.4663 714.65 38.2793 716.599 36.5499 718.785C34.8353 720.986 33.2085 722.596 33.3844 722.788Z" fill="#263238"/>
<path d="M74.3459 736.244C74.5071 736.052 73.4812 734.885 72.0303 733.644C70.5941 732.403 69.2898 731.547 69.1286 731.739C68.9674 731.931 69.9933 733.098 71.4441 734.338C72.8803 735.594 74.1847 736.436 74.3459 736.244Z" fill="#263238"/>
<path d="M86.1139 672.024C87.7699 666.811 90.8915 660.726 96.3286 660.637C99.5528 660.593 102.455 662.926 103.979 665.792C105.503 668.657 106.133 671.995 106.045 675.244C105.43 696.719 101.736 721.281 94.3648 743.642H74.4483C74.7121 718.8 78.5957 695.7 86.1139 672.024Z" fill="#49A6A6"/>
<path d="M122.093 639.177C124.877 627.967 133.172 621.911 142.801 621.35C151.594 622.901 155.009 631.629 156.049 640.565C157.09 649.501 154.335 658.392 151.623 666.973C142.889 694.489 134.169 722.005 125.434 749.521C117.183 748.62 108.932 747.704 100.682 746.803C108.522 709.923 113.021 675.746 122.093 639.177Z" fill="#49A6A6"/>
<path d="M96.3288 660.637C96.2409 660.711 97.1495 661.538 98.0142 663.473C98.8789 665.423 99.2892 668.524 98.9521 672.335C98.5711 676.146 98.1314 680.739 97.5013 685.761C96.8564 690.797 95.9478 696.321 94.834 702.081C92.5771 713.601 90.0564 723.94 88.4443 731.473C87.6236 735.239 87.0081 738.296 86.627 740.408C86.4658 741.383 86.3193 742.195 86.2167 742.86C86.1288 743.421 86.0994 743.717 86.1288 743.731C86.1581 743.731 86.246 743.451 86.3926 742.904C86.5538 742.254 86.7443 741.457 86.9788 740.497C87.5064 738.267 88.2098 735.268 89.0745 731.62C90.8478 724.132 93.4711 713.823 95.728 702.258C96.8418 696.483 97.7211 690.945 98.3366 685.879C98.659 683.353 98.8642 680.931 99.0694 678.671C99.2452 676.426 99.4944 674.329 99.597 672.394C99.8608 668.524 99.3478 665.305 98.3513 663.34C97.3254 661.376 96.3288 660.637 96.3288 660.637Z" fill="#263238"/>
<path d="M142.449 620.626C142.361 620.7 143.768 621.896 145.439 624.673C147.11 627.42 148.883 631.925 149.205 637.729C149.586 643.534 148.297 650.417 146.142 657.816C143.973 665.245 141.584 673.383 139.078 681.935C134.14 699.038 129.67 714.502 126.416 725.816C124.863 731.369 123.588 735.903 122.679 739.138C122.269 740.644 121.946 741.855 121.712 742.771C121.492 743.598 121.404 744.041 121.433 744.056C121.463 744.071 121.624 743.643 121.888 742.815C122.181 741.915 122.547 740.718 123.031 739.226C124.013 736.007 125.376 731.502 127.046 725.978C130.373 714.679 134.931 699.23 139.972 682.171C142.449 673.605 144.809 665.452 146.963 658.023C149.088 650.594 150.334 643.578 149.865 637.67C149.454 631.763 147.549 627.213 145.761 624.466C143.944 621.719 142.449 620.626 142.449 620.626Z" fill="#263238"/>
<path d="M106.089 744.13C106.119 744.145 106.309 743.731 106.646 742.933C106.969 742.136 107.496 740.969 108.053 739.418C109.24 736.346 110.75 731.841 112.303 726.17C113.871 720.498 115.425 713.675 116.919 706.054C118.356 698.418 119.924 690.043 121.58 681.241C123.295 672.453 125.214 664.152 127.442 656.738C129.655 649.323 132.146 642.795 134.652 637.522C137.144 632.235 139.533 628.144 141.321 625.411C142.171 624.008 142.947 623.004 143.402 622.28C143.885 621.556 144.12 621.172 144.09 621.158C144.061 621.143 143.783 621.483 143.255 622.177C142.742 622.871 141.921 623.846 141.027 625.219C139.137 627.907 136.66 631.969 134.066 637.257C131.472 642.529 128.908 649.072 126.621 656.516C124.335 663.96 122.401 672.29 120.671 681.093C119.044 689.896 117.491 698.285 116.084 705.921C114.633 713.542 113.168 720.365 111.673 726.037C110.193 731.708 108.786 736.243 107.701 739.33C107.203 740.895 106.719 742.077 106.456 742.889C106.192 743.672 106.06 744.115 106.089 744.13Z" fill="#263238"/>
<path d="M151.198 662.838C151.14 663.089 152.488 663.621 154.203 664.049C155.917 664.478 157.368 664.611 157.427 664.359C157.485 664.108 156.137 663.577 154.422 663.148C152.693 662.735 151.257 662.602 151.198 662.838Z" fill="#263238"/>
<path d="M153.821 645.823C153.836 646.074 155.712 646.178 157.998 646.281C160.284 646.37 162.16 646.414 162.189 646.163C162.219 645.912 160.372 645.454 158.027 645.365C155.683 645.262 153.807 645.572 153.821 645.823Z" fill="#263238"/>
<path d="M151.022 630.271C151.184 630.463 152.532 629.577 154.027 628.307C155.521 627.022 156.606 625.84 156.445 625.648C156.284 625.456 154.935 626.327 153.44 627.612C151.946 628.883 150.861 630.079 151.022 630.271Z" fill="#263238"/>
<path d="M143.475 615.871C143.226 615.93 143.299 617.141 143.328 618.603C143.372 620.065 143.372 621.276 143.636 621.321C143.871 621.365 144.296 620.139 144.252 618.573C144.193 617.008 143.709 615.811 143.475 615.871Z" fill="#263238"/>
<path d="M128.043 622.65C127.838 622.798 128.439 624.023 129.391 625.397C130.344 626.771 131.282 627.76 131.487 627.612C131.692 627.465 131.091 626.239 130.139 624.865C129.186 623.507 128.248 622.517 128.043 622.65Z" fill="#263238"/>
<path d="M118.033 640.182C117.945 640.418 119.22 641.171 120.891 641.85C122.562 642.545 123.998 642.914 124.1 642.678C124.188 642.441 122.913 641.688 121.243 641.009C119.557 640.314 118.121 639.945 118.033 640.182Z" fill="#263238"/>
<path d="M111.952 658.23C111.849 658.452 113.549 659.426 115.879 659.958C118.209 660.49 120.158 660.357 120.158 660.106C120.173 659.84 118.312 659.574 116.084 659.057C113.857 658.555 112.054 657.979 111.952 658.23Z" fill="#263238"/>
<path d="M139.855 653.105C140.09 653.031 139.928 651.775 139.474 650.328C139.02 648.866 138.463 647.743 138.214 647.817C137.979 647.891 138.14 649.146 138.595 650.594C139.049 652.056 139.606 653.179 139.855 653.105Z" fill="#263238"/>
<path d="M135.957 675.747C136.191 675.643 135.693 673.974 134.843 671.995C133.993 670.031 133.114 668.509 132.894 668.613C132.674 668.716 133.158 670.385 134.008 672.364C134.858 674.329 135.722 675.85 135.957 675.747Z" fill="#263238"/>
<path d="M145.571 681.95C145.673 682.186 147.241 681.758 149.132 681.167C151.022 680.561 152.561 680.015 152.503 679.764C152.444 679.513 150.803 679.675 148.853 680.281C146.919 680.886 145.468 681.714 145.571 681.95Z" fill="#263238"/>
<path d="M140.031 700.412C139.884 700.619 140.939 701.638 142.405 702.672C143.856 703.72 145.16 704.4 145.307 704.193C145.453 703.986 144.398 702.967 142.933 701.933C141.467 700.884 140.177 700.205 140.031 700.412Z" fill="#263238"/>
<path d="M135.59 718.815C135.532 719.066 136.836 719.598 138.521 720.011C140.192 720.425 141.614 720.558 141.672 720.306C141.731 720.055 140.427 719.524 138.741 719.11C137.056 718.697 135.649 718.564 135.59 718.815Z" fill="#263238"/>
<path d="M111.468 673.605C111.336 673.812 112.464 674.713 114.091 675.333C115.718 675.954 117.154 676.028 117.198 675.777C117.242 675.525 115.967 675.068 114.413 674.477C112.86 673.886 111.6 673.384 111.468 673.605Z" fill="#263238"/>
<path d="M108.024 702.244C108.126 702.48 109.46 702.067 111.013 701.343C112.552 700.619 113.71 699.836 113.607 699.6C113.505 699.364 112.171 699.777 110.618 700.516C109.079 701.225 107.921 702.007 108.024 702.244Z" fill="#263238"/>
<path d="M101.942 722.729C102.03 722.965 103.803 722.493 105.884 721.665C107.965 720.838 109.592 719.982 109.489 719.745C109.401 719.509 107.628 719.982 105.547 720.809C103.466 721.636 101.854 722.493 101.942 722.729Z" fill="#263238"/>
<path d="M134.608 738.783C134.726 738.547 133.113 737.454 131.238 735.962C129.362 734.485 127.911 733.156 127.72 733.319C127.53 733.481 128.717 735.135 130.681 736.671C132.615 738.237 134.506 739.005 134.608 738.783Z" fill="#263238"/>
<path d="M118.531 728.371C118.795 728.4 119.132 727.027 119.762 725.432C120.363 723.822 121.023 722.566 120.818 722.419C120.627 722.271 119.572 723.364 118.912 725.107C118.238 726.82 118.282 728.341 118.531 728.371Z" fill="#263238"/>
<path d="M122.796 703.721C122.943 703.927 123.983 703.425 125.112 702.613C126.24 701.786 127.046 700.959 126.9 700.752C126.753 700.545 125.713 701.047 124.584 701.86C123.441 702.687 122.65 703.514 122.796 703.721Z" fill="#263238"/>
<path d="M85.3079 665.098C85.1614 665.305 86.1726 666.309 87.5648 667.343C88.9571 668.377 90.2174 669.056 90.364 668.849C90.5105 668.643 89.4993 667.638 88.1071 666.604C86.7148 665.57 85.4691 664.891 85.3079 665.098Z" fill="#263238"/>
<path d="M79.6657 680.665C79.6364 680.916 81.2192 681.241 83.183 681.034C85.1468 680.827 86.627 680.163 86.539 679.926C86.4658 679.675 84.9416 679.926 83.0804 680.133C81.2192 680.31 79.6804 680.399 79.6657 680.665Z" fill="#263238"/>
<path d="M103.95 684.151C103.891 684.387 105.356 684.919 107.262 685.052C109.152 685.184 110.676 684.86 110.662 684.608C110.647 684.357 109.152 684.269 107.32 684.136C105.488 684.003 103.994 683.899 103.95 684.151Z" fill="#263238"/>
<path d="M101.854 669.44C101.868 669.677 103.349 669.721 104.975 668.968C106.602 668.214 107.54 667.062 107.364 666.885C107.188 666.693 106.074 667.461 104.594 668.126C103.129 668.82 101.824 669.174 101.854 669.44Z" fill="#263238"/>
<path d="M77.5846 697.369C77.7165 697.591 79.2407 696.867 80.97 695.759C82.714 694.652 84.0037 693.588 83.8718 693.381C83.7399 693.16 82.2157 693.884 80.4864 694.991C78.7424 696.084 77.4527 697.148 77.5846 697.369Z" fill="#263238"/>
<path d="M18.3415 764.167H147.88V741.023H18.3415V764.167Z" fill="#A1E2E0"/>
<path d="M138.199 759.58L122.445 828.731H45.2406L28.006 759.58H138.199Z" fill="#71DFDF"/>
<path d="M18.4059 764.202C18.4059 764.453 47.6286 764.66 83.6659 764.66C119.718 764.66 148.926 764.453 148.926 764.202C148.926 763.951 119.718 763.745 83.6659 763.745C47.6286 763.745 18.4059 763.951 18.4059 764.202Z" fill="#263238"/>
<path d="M90.4521 684.653C90.6719 684.786 91.5512 683.752 92.4305 682.334C93.3098 680.916 93.8521 679.661 93.6323 679.528C93.4124 679.395 92.5331 680.429 91.6538 681.847C90.7745 683.265 90.2322 684.52 90.4521 684.653Z" fill="#263238"/>
<path d="M90.4081 703.262C90.6426 703.188 90.3495 701.608 89.734 699.747C89.1185 697.886 88.4297 696.439 88.1952 696.527C87.9607 696.601 88.2538 698.182 88.8693 700.042C89.4702 701.903 90.159 703.351 90.4081 703.262Z" fill="#263238"/>
<path d="M84.0768 722.818C84.2966 722.921 85.2785 721.37 86.2458 719.332C87.213 717.294 87.8139 715.551 87.5794 715.448C87.3596 715.344 86.3777 716.895 85.4104 718.933C84.4578 720.957 83.857 722.699 84.0768 722.818Z" fill="#263238"/>
<path d="M97.7651 738.532C97.9556 738.37 97.1789 737.159 96.0358 735.83C94.8927 734.5 93.8082 733.555 93.6177 733.732C93.4272 733.895 94.2039 735.106 95.347 736.435C96.4901 737.764 97.5746 738.71 97.7651 738.532Z" fill="#263238"/>
<path d="M100.638 709.983C100.682 710.234 101.927 710.219 103.422 709.953C104.917 709.687 106.089 709.274 106.045 709.023C106.001 708.772 104.756 708.786 103.261 709.052C101.766 709.318 100.594 709.732 100.638 709.983Z" fill="#263238"/>
<path d="M339.582 293.731L354.194 287.572C361.214 290.807 369.142 292.21 377.246 291.191C400.578 288.281 416.684 266.614 413.225 242.805C409.767 218.997 388.033 202.071 364.702 204.98C341.37 207.89 325.264 229.557 328.723 253.366C330.174 263.306 334.805 272.034 341.414 278.636L341.4 278.622L339.582 293.731Z" fill="white"/>
<path d="M339.581 293.73C339.581 293.73 339.596 293.42 339.669 292.785C339.742 292.105 339.845 291.16 339.977 289.92C340.27 287.32 340.68 283.524 341.223 278.606C341.237 278.517 341.311 278.444 341.413 278.458C341.442 278.458 341.457 278.473 341.486 278.488L341.501 278.503L341.296 278.768C337.251 274.751 332.679 268.681 330.041 260.306C328.692 256.156 327.974 251.445 328.018 246.438C328.062 241.431 328.971 236.114 331.008 230.93C333.045 225.745 336.225 220.724 340.504 216.441C344.784 212.172 350.162 208.657 356.274 206.56C362.385 204.507 369.156 203.813 375.882 204.758C379.253 205.157 382.565 206.176 385.819 207.372C388.999 208.76 392.164 210.311 395.008 212.438C397.924 214.402 400.415 216.869 402.775 219.38C404.973 222.038 407.04 224.785 408.578 227.813C411.788 233.78 413.576 240.308 413.942 246.733C414.353 253.173 413.224 259.479 411.026 265.062C408.827 270.675 405.53 275.563 401.646 279.477C397.763 283.406 393.293 286.331 388.75 288.31C387.592 288.753 386.478 289.255 385.335 289.639C384.177 289.964 383.049 290.289 381.92 290.614C380.792 290.894 379.649 291.027 378.55 291.249C377.45 291.47 376.351 291.589 375.267 291.662C366.591 292.312 359.278 290.185 354.09 287.748H354.222C349.444 289.713 345.766 291.219 343.245 292.253C342.043 292.741 341.12 293.125 340.461 293.39C339.889 293.612 339.581 293.73 339.581 293.73C339.581 293.73 339.918 293.568 340.548 293.287C341.208 293.006 342.131 292.593 343.348 292.061C345.824 290.998 349.43 289.432 354.119 287.409C354.163 287.394 354.222 287.394 354.251 287.409C359.424 289.772 366.679 291.81 375.252 291.116C376.322 291.042 377.406 290.909 378.491 290.688C379.575 290.481 380.704 290.333 381.818 290.052C382.917 289.728 384.045 289.403 385.174 289.078C386.302 288.708 387.401 288.206 388.53 287.763C393 285.799 397.382 282.889 401.192 279.005C405.002 275.135 408.227 270.305 410.381 264.782C412.535 259.273 413.634 253.069 413.209 246.748C412.828 240.426 411.07 234.002 407.919 228.138C406.395 225.169 404.358 222.467 402.203 219.852C399.888 217.386 397.426 214.964 394.568 213.029C391.783 210.931 388.647 209.41 385.54 208.051C382.345 206.885 379.092 205.88 375.78 205.482C369.17 204.551 362.517 205.216 356.508 207.224C350.499 209.292 345.209 212.719 341.003 216.913C336.782 221.108 333.631 226.041 331.609 231.136C329.572 236.232 328.663 241.475 328.604 246.408C328.531 251.341 329.22 256.008 330.524 260.114C333.074 268.4 337.559 274.456 341.53 278.488C341.604 278.547 341.604 278.665 341.53 278.724C341.472 278.783 341.384 278.783 341.325 278.754C341.311 278.754 341.311 278.739 341.311 278.739L341.56 278.606C340.93 283.465 340.446 287.202 340.109 289.772C339.948 291.027 339.816 291.987 339.728 292.681C339.64 293.376 339.581 293.73 339.581 293.73Z" fill="#263238"/>
<path d="M359.512 254.916C362.92 254.916 365.682 252.132 365.682 248.698C365.682 245.263 362.92 242.479 359.512 242.479C356.105 242.479 353.342 245.263 353.342 248.698C353.342 252.132 356.105 254.916 359.512 254.916Z" fill="#71DFDF"/>
<path d="M379.356 243.809C382.763 243.809 385.526 241.025 385.526 237.591C385.526 234.156 382.763 231.373 379.356 231.373C375.948 231.373 373.186 234.156 373.186 237.591C373.186 241.025 375.948 243.809 379.356 243.809Z" fill="#71DFDF"/>
<path d="M378.256 265.815C381.664 265.815 384.426 263.031 384.426 259.597C384.426 256.163 381.664 253.379 378.256 253.379C374.849 253.379 372.087 256.163 372.087 259.597C372.087 263.031 374.849 265.815 378.256 265.815Z" fill="#71DFDF"/>
<path d="M378.623 261.547L356.537 248.683L378.652 236.306L380.074 238.876L362.487 248.727L380.088 258.977L378.623 261.547Z" fill="#71DFDF"/>
<path d="M314.848 526.593L15.2092 482.669C7.10024 481.481 1.46286 473.895 2.61529 465.723L65.5453 19.4681C66.6978 11.2959 74.2029 5.63661 82.3119 6.82528L381.95 50.7487C390.059 51.9373 395.697 59.5232 394.544 67.6954L331.614 513.95C330.462 522.122 322.957 527.781 314.848 526.593Z" fill="#263238"/>
<path d="M314.847 526.592C314.847 526.592 315.199 526.614 315.887 526.67C316.236 526.721 316.652 526.707 317.172 526.694C317.688 526.71 318.274 526.647 318.952 526.567C320.282 526.374 321.952 525.977 323.729 525.029C325.49 524.093 327.411 522.644 328.945 520.482C329.72 519.401 330.357 518.137 330.863 516.749C331.358 515.344 331.562 513.792 331.793 512.155C332.252 508.895 332.743 505.311 333.289 501.437C334.367 493.686 335.625 484.769 337.029 474.709C342.671 434.487 350.849 376.283 360.945 304.379C366 268.428 371.539 229.041 377.487 186.76C380.468 165.62 383.535 143.762 386.712 121.234C388.3 109.977 389.912 98.5448 391.53 86.9642C392.347 81.1749 393.169 75.3418 393.996 69.4795C394.19 68.0008 394.466 66.5641 394.376 65.1035C394.313 63.6618 394.105 62.1988 393.59 60.8102C392.649 58.0312 390.849 55.5739 388.523 53.8004C387.341 52.9408 386.033 52.2417 384.669 51.7285C383.287 51.2423 381.836 51.0297 380.342 50.8106C377.383 50.3769 374.394 49.9388 371.421 49.5029C365.459 48.6289 359.453 47.7486 353.404 46.8619C341.32 45.0906 329.106 43.3001 316.762 41.4905C292.072 37.8714 266.86 34.1756 241.197 30.4286C189.874 22.9053 136.724 15.1141 82.297 7.13577C78.9585 6.66132 75.5007 7.34816 72.63 9.12083C69.776 10.881 67.5774 13.6624 66.4918 16.8457C65.9149 18.4174 65.7918 20.1302 65.5215 21.8364L64.802 26.9386C64.3238 30.3303 63.8455 33.7219 63.3672 37.1136C61.4561 50.6657 59.5594 64.1155 57.6751 77.4776C53.9065 104.202 50.1936 130.531 46.5467 156.393C39.2507 208.13 32.1979 258.039 25.4936 305.581C18.7748 353.12 12.4045 398.294 6.4279 440.571C5.6816 445.863 4.94355 451.097 4.21168 456.287C3.84472 458.889 3.48188 461.462 3.11904 464.035C2.93762 465.322 2.72925 466.589 2.7571 467.862C2.72487 469.14 2.962 470.398 3.24882 471.619C4.55775 476.511 8.4852 480.579 13.2582 481.905C14.4354 482.272 15.658 482.421 16.9055 482.604C18.1386 482.785 19.3716 482.965 20.6046 483.146C23.0561 483.506 25.5077 483.865 27.9447 484.222C47.4099 487.09 66.1082 489.831 83.9363 492.445C155.271 502.946 213.014 511.455 252.904 517.318C272.846 520.271 288.336 522.556 298.836 524.111C304.086 524.895 308.087 525.497 310.785 525.892C313.473 526.361 314.847 526.592 314.847 526.592C314.847 526.592 313.465 526.419 310.767 526.024C308.067 525.643 304.063 525.056 298.81 524.301C288.305 522.776 272.81 520.519 252.86 517.625C212.95 511.804 155.211 503.37 83.8641 492.956C66.0216 490.341 47.3356 487.617 27.8684 484.763C25.4314 484.406 22.9944 484.049 20.5283 483.687C19.2953 483.506 18.0623 483.326 16.8293 483.145C15.6107 482.966 14.3301 482.808 13.1093 482.435C8.16436 481.069 4.07934 476.859 2.72262 471.781C2.41297 470.512 2.18409 469.195 2.20594 467.885C2.18428 466.569 2.39884 465.257 2.5782 463.986C2.94104 461.413 3.30594 458.825 3.67084 456.237C4.4027 451.047 5.14282 445.799 5.88705 440.522C11.8347 398.24 18.205 353.067 24.8948 305.523C31.599 257.981 38.6228 208.068 45.9188 156.33C49.5678 130.454 53.2807 104.125 57.0472 77.4153C58.9315 64.0533 60.8282 50.6035 62.7393 37.0514C63.2176 33.6597 63.6959 30.2681 64.1742 26.8764L64.8937 21.7742C65.1597 20.0973 65.2911 18.3259 65.8825 16.6519C67.0032 13.3245 69.3094 10.4097 72.294 8.56423C75.293 6.72086 78.9186 5.99893 82.4022 6.49465C136.829 14.473 189.98 22.2642 241.302 29.7875C266.964 33.5491 292.175 37.2449 316.863 40.8786C329.207 42.6882 341.422 44.4787 353.505 46.25C359.54 47.1346 365.545 48.0149 371.522 48.891C374.51 49.329 377.484 49.765 380.443 50.1988C381.908 50.4135 383.446 50.6389 384.884 51.1482C386.321 51.6721 387.668 52.4068 388.903 53.3042C391.321 55.1656 393.21 57.7256 394.18 60.6133C394.703 62.0478 394.918 63.5714 394.985 65.0884C395.082 66.6096 394.78 68.1172 394.591 69.5667C393.764 75.429 392.941 81.2621 392.125 87.0514C390.492 98.6299 388.88 110.062 387.278 121.317C384.103 143.831 381.005 165.699 378.024 186.839C372.047 229.115 366.478 268.498 361.395 304.445C351.212 376.336 342.961 434.529 337.275 474.745C335.843 484.801 334.583 493.733 333.478 501.464C332.932 505.339 332.414 508.904 331.952 512.178C331.723 513.801 331.501 515.38 331.004 516.799C330.481 518.2 329.842 519.479 329.053 520.557C327.486 522.745 325.564 524.194 323.775 525.125C321.971 526.054 320.301 526.451 318.956 526.642C318.279 526.722 317.678 526.783 317.164 526.752C316.644 526.766 316.217 526.748 315.883 526.699C315.181 526.641 314.847 526.592 314.847 526.592Z" fill="#263238"/>
<path d="M380.253 85.148L71.9835 39.9594L15.9454 437.342L324.215 482.53L380.253 85.148Z" fill="white"/>
<path d="M324.214 482.529C324.585 479.898 346.871 321.027 379.948 85.1022L380.197 85.4371C288.197 71.966 183.086 56.5579 71.9666 40.2842L71.9376 40.2799L72.3186 39.9926C51.5233 187.353 32.1998 324.171 16.2224 437.366L15.986 437.048C202 464.509 321.937 482.195 324.214 482.529C321.937 482.195 201.984 464.731 15.9056 437.618L15.63 437.578L15.6691 437.3C31.6175 324.101 50.8995 187.262 71.6493 39.9094L71.6967 39.5731L72.0303 39.622L72.0593 39.6263C183.189 55.9314 288.283 71.352 380.281 84.8377L380.586 84.8824L380.545 85.1748C347.103 321.061 324.583 479.912 324.214 482.529Z" fill="#263238"/>
<path d="M181.021 482.563C180.029 489.595 173.57 494.452 166.607 493.432C159.63 492.409 154.791 485.88 155.78 478.863C156.772 471.831 163.231 466.973 170.194 467.994C177.157 469.015 182.01 475.545 181.021 482.563Z" fill="#455A64"/>
<path d="M261.628 53.9555L194.436 44.1059C191.853 43.7274 190.049 41.2993 190.416 38.697C190.783 36.0948 193.185 34.2833 195.767 34.6618L262.96 44.5114C265.542 44.8899 267.346 47.318 266.979 49.9203C266.612 52.5225 264.21 54.334 261.628 53.9555Z" fill="#455A64"/>
<path d="M153.316 425.575C153.316 425.575 153.583 425.569 154.095 425.615C154.358 425.638 154.681 425.656 155.048 425.68C155.433 425.677 155.864 425.665 156.356 425.648C158.322 425.563 161.318 425.107 164.555 423.149C167.716 421.21 171.147 417.565 172.307 412.274C172.58 410.971 172.749 409.563 172.951 408.13C173.037 407.412 173.169 406.685 173.214 405.945C173.251 405.578 173.274 405.208 173.311 404.841C173.305 404.467 173.298 404.093 173.294 403.704C173.326 402.948 173.168 402.178 173.099 401.407C172.925 400.651 172.814 399.859 172.536 399.102C172.087 397.559 171.365 396.065 170.436 394.675C168.613 391.856 165.793 389.488 162.396 388.17C160.684 387.501 158.877 387.191 156.943 386.938C155.043 386.659 153.099 386.374 151.124 386.1C143.231 384.957 134.801 383.737 125.923 382.435C108.165 379.847 88.6691 376.989 68.1844 374.001C63.1673 373.251 57.9551 374.934 54.3521 378.33C52.5589 380.022 51.141 382.097 50.231 384.351C49.2773 386.599 49.0491 389.057 48.6903 391.497C48.3046 393.917 48.2338 396.309 48.7514 398.623C49.24 400.933 50.2051 403.119 51.5533 405.003C54.2165 408.795 58.4102 411.29 62.7641 411.913C80.5009 414.543 96.4826 416.916 109.911 418.914C123.309 420.923 134.153 422.557 141.678 423.69C145.401 424.266 148.299 424.72 150.313 425.03C151.268 425.185 152.021 425.311 152.555 425.404C153.059 425.507 153.316 425.575 153.316 425.575C153.316 425.575 153.051 425.566 152.541 425.506C152.002 425.442 151.262 425.334 150.286 425.22C148.282 424.942 145.362 424.543 141.63 424.026C134.083 422.95 123.226 421.403 109.831 419.484C96.3939 417.544 80.4061 415.216 62.661 412.644C58.1309 412.01 53.7446 409.412 50.9568 405.452C49.5609 403.487 48.5336 401.218 48.0304 398.801C47.4816 396.393 47.5606 393.838 47.9484 391.403C48.3031 388.993 48.5292 386.445 49.5304 384.07C50.486 381.703 51.9618 379.532 53.8399 377.763C57.5962 374.225 63.0424 372.457 68.2916 373.241C88.7722 376.258 108.283 379.118 126.022 381.734C134.898 383.05 143.324 384.3 151.215 385.456C153.188 385.746 155.132 386.031 157.03 386.324C158.92 386.571 160.855 386.914 162.592 387.617C166.099 388.996 169.01 391.452 170.879 394.367C171.829 395.82 172.574 397.361 173.017 398.948C173.293 399.72 173.399 400.541 173.584 401.329C173.649 402.13 173.805 402.913 173.768 403.699C173.773 404.087 173.777 404.476 173.767 404.863C173.728 405.245 173.689 405.627 173.666 405.997C173.617 406.766 173.472 407.475 173.386 408.194C173.169 409.625 173.003 411.018 172.709 412.362C171.486 417.779 167.931 421.465 164.698 423.394C161.374 425.339 158.324 425.757 156.349 425.796C155.846 425.797 155.417 425.793 155.034 425.782C154.669 425.744 154.35 425.697 154.087 425.673C153.56 425.626 153.316 425.575 153.316 425.575Z" fill="#263238"/>
<path d="M292.837 445.177L202.304 431.906C192.89 430.526 186.344 421.717 187.682 412.23L188.29 407.917C189.628 398.429 198.343 391.858 207.757 393.238L298.29 406.509C307.704 407.889 314.25 416.697 312.912 426.185L312.304 430.498C310.966 439.986 302.252 446.557 292.837 445.177Z" fill="#49A6A6"/>
<path d="M232.638 421.118L233.725 419.397C234.519 420.17 235.775 420.817 237.037 421.002C238.474 421.212 239.122 420.815 239.215 420.157C239.493 418.183 233.209 418.65 233.763 414.717C234.017 412.919 235.663 411.638 238.651 412.076C239.971 412.27 241.275 412.789 242.161 413.546L241.144 415.292C240.251 414.594 239.289 414.169 238.361 414.033C236.925 413.823 236.297 414.283 236.202 414.955C235.928 416.9 242.21 416.448 241.662 420.337C241.412 422.105 239.749 423.399 236.747 422.958C235.076 422.729 233.464 421.985 232.638 421.118Z" fill="white"/>
<path d="M253.986 414.518L252.496 425.088L250.073 424.733L250.684 420.406L245.926 419.708L245.315 424.035L242.893 423.68L244.383 413.11L246.806 413.466L246.218 417.632L250.976 418.33L251.564 414.163L253.986 414.518Z" fill="white"/>
<path d="M262.201 424.198L257.327 423.483L256.079 425.613L253.599 425.25L259.76 415.365L262.154 415.715L265.349 426.972L262.795 426.598L262.201 424.198ZM261.709 422.231L260.612 417.936L258.372 421.741L261.709 422.231Z" fill="white"/>
<path d="M273.138 428.114L271.536 424.88L271.42 424.863L269.302 424.552L268.888 427.491L266.465 427.136L267.956 416.566L272.496 417.231C275.296 417.642 276.845 419.361 276.511 421.729C276.288 423.308 275.326 424.361 273.88 424.746L275.751 428.482L273.14 428.099L273.138 428.114ZM272.069 419.213L270.096 418.924L269.576 422.608L271.549 422.897C273.029 423.114 273.882 422.523 274.043 421.383C274.208 420.213 273.548 419.43 272.069 419.213Z" fill="white"/>
<path d="M285.861 427.979L285.584 429.938L277.461 428.748L278.952 418.178L286.872 419.339L286.596 421.298L281.083 420.49L280.76 422.785L285.634 423.499L285.366 425.4L280.492 424.685L280.147 427.127L285.863 427.965L285.861 427.979Z" fill="white"/>
<path d="M226.035 421.955L214.836 420.314C214.43 420.254 214.156 419.886 214.214 419.476L215.426 410.88C215.484 410.471 215.849 410.196 216.255 410.255L218.735 410.619C219.142 410.679 219.415 411.047 219.358 411.456C219.3 411.866 218.935 412.141 218.529 412.081L216.774 411.824L215.768 418.958L225.516 420.387L226.522 413.253L224.723 412.989C224.317 412.929 224.043 412.561 224.101 412.152C224.159 411.742 224.523 411.468 224.929 411.527L227.454 411.897C227.86 411.957 228.133 412.325 228.076 412.734L226.864 421.331C226.806 421.74 226.427 422.013 226.035 421.955Z" fill="white"/>
<path d="M220.931 417.626C220.525 417.566 220.251 417.198 220.309 416.788L221.793 406.262C221.851 405.853 222.215 405.578 222.621 405.638C223.027 405.697 223.301 406.066 223.244 406.475L221.759 417.001C221.701 417.41 221.322 417.683 220.931 417.626Z" fill="white"/>
<path d="M224.178 410.238C223.961 410.207 223.758 410.072 223.637 409.876L222.311 407.518L220.181 409.399C219.876 409.667 219.408 409.629 219.14 409.321C218.873 409.013 218.91 408.541 219.214 408.272L222.022 405.789C222.19 405.65 222.407 405.577 222.623 405.623C222.841 405.655 223.027 405.802 223.135 405.982L224.911 409.137C225.112 409.495 224.99 409.94 224.636 410.141C224.504 410.241 224.338 410.262 224.178 410.238Z" fill="white"/>
<path d="M82.3328 394.623C82.7389 391.743 85.22 390.003 88.1647 390.434C89.8039 390.675 91.083 391.474 91.8132 392.7L90.2206 393.81C89.6854 392.985 88.9412 392.488 87.9983 392.35C86.2285 392.09 84.7892 393.163 84.5356 394.961C84.282 396.759 85.3668 398.201 87.1365 398.461C88.0794 398.599 88.9309 398.336 89.6743 397.684L90.8979 399.191C89.8439 400.156 88.3937 400.57 86.7545 400.33C83.8264 399.885 81.9266 397.503 82.3328 394.623Z" fill="#263238"/>
<path d="M98.4986 399.783L94.1033 399.139L92.9733 401.062L90.7249 400.733L96.2924 391.805L98.4538 392.122L101.343 402.289L99.0369 401.951L98.4986 399.783ZM98.0394 398L97.0607 394.126L95.0367 397.56L98.0394 398Z" fill="#263238"/>
<path d="M112.365 394.161L111.021 403.693L109.222 403.429L105.324 396.949L104.508 402.738L102.346 402.422L103.693 392.875L105.506 393.141L109.389 399.619L110.206 393.83L112.367 394.147L112.365 394.161Z" fill="#263238"/>
<path d="M113.333 399.167C113.739 396.287 116.22 394.547 119.165 394.979C120.804 395.219 122.083 396.018 122.828 397.246L121.235 398.356C120.7 397.531 119.956 397.034 119.013 396.896C117.243 396.637 115.804 397.709 115.55 399.507C115.296 401.305 116.381 402.748 118.151 403.007C119.094 403.145 119.945 402.882 120.689 402.23L121.912 403.737C120.858 404.702 119.408 405.116 117.769 404.876C114.826 404.43 112.926 402.047 113.333 399.167Z" fill="#263238"/>
<path d="M130.752 404.78L130.503 406.549L123.177 405.475L124.524 395.929L131.675 396.977L131.426 398.746L126.45 398.017L126.157 400.093L130.553 400.737L130.311 402.447L125.916 401.803L125.605 404.011L130.754 404.765L130.752 404.78Z" fill="#263238"/>
<path d="M133.588 397.272L135.778 397.593L134.686 405.341L139.429 406.037L139.178 407.82L132.244 406.804L133.588 397.272Z" fill="#263238"/>
<path d="M295.861 432.34L296.43 454.447L301.785 451.756L306.221 459.568L312.631 456.211L308.218 448.551L313.357 445.603L295.861 432.34Z" fill="#263238"/>
<rect width="256.332" height="13.935" transform="matrix(0.989426 0.145038 -0.139637 0.990203 101.965 71.2949)" fill="#578080"/>
<rect width="258.968" height="6.63571" transform="matrix(0.989426 0.145038 -0.139637 0.990203 93.8107 129.117)" fill="#E7E7E7"/>
<rect width="123.224" height="6.63571" transform="matrix(0.989426 0.145038 -0.139637 0.990203 218.39 217.797)" fill="#E7E7E7"/>
<rect width="123.224" height="6.63571" transform="matrix(0.989426 0.145038 -0.139637 0.990203 209.309 282.19)" fill="#E7E7E7"/>
<rect width="123.224" height="6.63571" transform="matrix(0.989426 0.145038 -0.139637 0.990203 70.8347 296.765)" fill="#E7E7E7"/>
<rect width="258.968" height="6.63571" transform="matrix(0.989426 0.145038 -0.139637 0.990203 91.4015 146.201)" fill="#E7E7E7"/>
<rect width="123.224" height="6.63571" transform="matrix(0.989426 0.145038 -0.139637 0.990203 215.981 234.881)" fill="#E7E7E7"/>
<rect width="123.224" height="6.63571" transform="matrix(0.989426 0.145038 -0.139637 0.990203 206.9 299.274)" fill="#E7E7E7"/>
<rect width="123.224" height="6.63571" transform="matrix(0.989426 0.145038 -0.139637 0.990203 68.4255 313.849)" fill="#E7E7E7"/>
<rect width="258.968" height="6.63571" transform="matrix(0.989426 0.145038 -0.139637 0.990203 88.9924 163.285)" fill="#E7E7E7"/>
<rect width="123.224" height="6.63571" transform="matrix(0.989426 0.145038 -0.139637 0.990203 213.572 251.965)" fill="#E7E7E7"/>
<rect width="123.224" height="6.63571" transform="matrix(0.989426 0.145038 -0.139637 0.990203 204.491 316.358)" fill="#E7E7E7"/>
<rect width="257.65" height="6.63571" transform="matrix(0.989426 0.145038 -0.139637 0.990203 66.0164 330.933)" fill="#E7E7E7"/>
<rect width="258.968" height="6.63571" transform="matrix(0.989426 0.145038 -0.139637 0.990203 86.5833 180.369)" fill="#E7E7E7"/>
<rect width="123.224" height="6.63571" transform="matrix(0.989426 0.145038 -0.139637 0.990203 211.163 269.049)" fill="#E7E7E7"/>
<rect width="123.224" height="6.63571" transform="matrix(0.989426 0.145038 -0.139637 0.990203 202.082 333.442)" fill="#E7E7E7"/>
<rect width="257.65" height="6.63571" transform="matrix(0.989426 0.145038 -0.139637 0.990203 63.6073 348.017)" fill="#E7E7E7"/>
<rect width="168.691" height="13.935" transform="matrix(0.989426 0.145038 -0.139637 0.990203 98.7216 94.2922)" fill="#578080"/>
<rect width="121.247" height="92.8999" transform="matrix(0.989426 0.145038 -0.139637 0.990203 84.1741 197.452)" fill="#49A6A6"/>
<path opacity="0.5" d="M155.36 244.773L168.703 280.932L132.566 275.635L155.36 244.773Z" fill="white"/>
<path d="M135.231 227.068L146.489 278.011L110.352 272.714L135.231 227.068Z" fill="white"/>
<ellipse rx="5.60108" ry="5.97214" transform="matrix(0.989426 0.145038 -0.139637 0.990203 168.722 242.037)" fill="white"/>
<path d="M274.924 709.481H256.81V828.362H274.924V709.481Z" fill="#49A6A6"/>
<path d="M380.03 709.481H361.916V828.362H380.03V709.481Z" fill="#49A6A6"/>
<path d="M365.125 751.722H269.075V767.91H365.125V751.722Z" fill="#49A6A6"/>
<path d="M380.03 709.481C380.044 709.481 380.059 709.688 380.074 710.086C380.088 710.515 380.088 711.106 380.103 711.859C380.118 713.454 380.147 715.758 380.176 718.697C380.206 724.694 380.249 733.304 380.293 743.983C380.323 765.428 380.367 795.13 380.411 828.362V828.746H380.03C377.304 828.746 374.402 828.746 371.471 828.746C368.203 828.746 364.964 828.746 361.916 828.746H361.535V828.362C361.667 795.366 361.784 765.901 361.857 744.647C361.93 734.058 361.989 725.521 362.033 719.598C362.062 716.674 362.092 714.399 362.121 712.819C362.136 712.066 362.15 711.49 362.165 711.061C362.18 710.662 362.194 710.456 362.209 710.456C362.223 710.456 362.238 710.662 362.238 711.061C362.253 711.49 362.253 712.08 362.267 712.819C362.282 714.399 362.297 716.674 362.326 719.598C362.341 725.535 362.355 734.072 362.385 744.647C362.37 765.901 362.341 795.366 362.297 828.362L361.916 827.978C364.949 827.978 368.188 827.978 371.471 827.978C374.402 827.978 377.318 827.978 380.03 827.978L379.649 828.362C379.693 795.145 379.737 765.428 379.766 743.983C379.81 733.304 379.854 724.694 379.883 718.697C379.912 715.758 379.942 713.454 379.956 711.859C379.971 711.106 379.986 710.515 379.986 710.086C380.015 709.688 380.015 709.481 380.03 709.481Z" fill="#263238"/>
<path d="M257.013 714.532C257.028 714.532 257.042 714.724 257.042 715.108C257.057 715.522 257.057 716.083 257.072 716.806C257.086 718.343 257.101 720.528 257.13 723.335C257.145 729.051 257.174 737.277 257.204 747.483C257.204 767.983 257.189 796.43 257.189 828.376L256.808 827.992C260.384 827.992 264.18 827.992 268.034 827.992C270.393 827.992 272.738 827.992 274.922 827.992L274.541 828.376C274.585 795.41 274.629 765.871 274.658 744.529C274.702 733.91 274.746 725.329 274.775 719.362C274.805 716.422 274.834 714.133 274.849 712.538C274.863 711.785 274.878 711.194 274.878 710.766C274.893 710.367 274.907 710.16 274.922 710.16C274.937 710.16 274.951 710.367 274.966 710.766C274.981 711.194 274.981 711.785 275.01 712.538C275.025 714.133 275.054 716.422 275.083 719.362C275.112 725.329 275.156 733.91 275.2 744.529C275.23 765.871 275.274 795.41 275.318 828.376V828.76H274.937C272.753 828.76 270.408 828.76 268.049 828.76C264.209 828.76 260.399 828.76 256.823 828.76H256.442V828.376C256.544 796.444 256.632 767.998 256.705 747.483C256.779 737.277 256.823 729.051 256.867 723.335C256.896 720.528 256.925 718.328 256.94 716.806C256.955 716.083 256.969 715.522 256.984 715.108C256.984 714.724 256.999 714.532 257.013 714.532Z" fill="#263238"/>
<path d="M394.348 710.722H245.025C237.551 710.722 231.498 704.622 231.498 697.089V668.2C231.498 660.667 237.551 654.568 245.025 654.568H394.348C401.822 654.568 407.875 660.667 407.875 668.2V697.089C407.889 704.607 401.822 710.722 394.348 710.722Z" fill="#49A6A6"/>
<path d="M263.359 710.722C263.359 710.515 292.626 710.338 328.722 710.338C364.832 710.338 394.099 710.515 394.099 710.722C394.099 710.929 364.832 711.106 328.722 711.106C292.626 711.106 263.359 710.929 263.359 710.722Z" fill="#263238"/>
<path d="M364.158 385.642C363.586 380.842 361.49 357.447 360.992 353.902C360.318 349.117 358.032 344.45 354.324 341.392C350.616 338.335 345.062 337.286 340.9 339.679C338.101 340.595 336.019 342.943 335.404 345.853C327.856 381.551 331.769 418.785 329.762 455.325C342.658 456.595 359.805 454.631 372.672 453.11C370.826 424.147 367.909 416.776 364.158 385.642Z" fill="#263238"/>
<path d="M361.916 435.416C361.886 435.416 361.828 435.091 361.754 434.485C361.681 433.777 361.579 432.89 361.461 431.812C361.227 429.36 360.919 426.022 360.523 421.946C359.805 413.498 358.838 402.037 357.768 389.349C357.27 382.984 356.786 376.928 356.347 371.39C356.141 368.642 355.936 366.013 355.746 363.547C355.57 361.095 355.365 358.821 354.852 356.827C353.928 352.765 351.422 350.18 349.371 349.22C347.29 348.216 345.912 348.526 345.941 348.408C345.941 348.393 346.015 348.378 346.176 348.349C346.337 348.334 346.572 348.29 346.879 348.305C347.495 348.305 348.433 348.438 349.517 348.91C350.602 349.383 351.833 350.239 352.917 351.539C354.016 352.824 354.896 354.611 355.438 356.664C355.995 358.717 356.244 361.036 356.449 363.488C356.654 365.94 356.889 368.569 357.123 371.316C357.578 376.84 358.076 382.895 358.604 389.261C359.585 401.948 360.465 413.424 361.11 421.872C361.388 425.963 361.608 429.316 361.769 431.768C361.828 432.861 361.872 433.747 361.901 434.456C361.945 435.091 361.945 435.416 361.916 435.416Z" fill="#455A64"/>
<path d="M349.458 422.877C349.4 422.877 349.297 422.138 349.165 420.779C349.033 419.421 348.872 417.456 348.726 415.019C348.403 410.16 348.081 403.425 347.788 395.996C347.524 388.655 347.289 382.009 347.099 376.973C347.026 374.668 346.967 372.734 346.923 371.212C346.894 369.854 346.894 369.1 346.952 369.086C347.011 369.086 347.114 369.824 347.245 371.183C347.377 372.542 347.539 374.506 347.685 376.943C348.007 381.802 348.33 388.537 348.623 395.966C348.887 403.307 349.121 409.938 349.312 414.99C349.385 417.294 349.444 419.228 349.488 420.75C349.532 422.123 349.517 422.877 349.458 422.877Z" fill="#455A64"/>
<path d="M259.416 435.991L284.99 427.395L324.662 426.022L358.002 436.361L375.134 470.907L362.267 543.839L385.818 590.836L322.742 602.77L267.638 576.997L262.934 573.423L253.569 449.136L259.416 435.991Z" fill="#71DFDF"/>
<path d="M175.412 689.468L140.342 746.952L168.084 767.999L211.786 714.163L175.412 689.468Z" fill="#FFBE9D"/>
<path d="M228.01 731.621L201.66 814.611H232.407L266.759 743.466L228.01 731.621Z" fill="#FFBE9D"/>
<path d="M259.416 435.992C259.416 435.992 239.119 444.484 236.994 467.126C236.173 475.855 230.062 516.811 230.062 516.811L201.352 513.37L194.406 536.455C194.406 536.455 226.515 553.322 236.422 555.522C253.54 559.303 261.82 549.555 261.82 549.555L259.416 435.992Z" fill="#71DFDF"/>
<path d="M253.979 463.596C254.009 463.596 254.009 463.98 253.994 464.719C253.965 465.531 253.936 466.595 253.892 467.939C253.818 469.327 253.774 471.04 253.789 473.019C253.789 474.998 253.745 477.258 253.848 479.754C253.906 482.25 253.994 484.983 254.185 487.907C254.317 490.832 254.61 493.963 254.859 497.242C255.46 503.814 256.266 511.007 257.248 518.569C259.226 533.663 261.131 547.34 262.011 557.295C262.26 559.776 262.421 562.036 262.553 564.015C262.699 565.994 262.802 567.708 262.831 569.096C262.875 570.44 262.905 571.503 262.934 572.316C262.949 573.054 262.949 573.438 262.919 573.438C262.89 573.438 262.846 573.054 262.787 572.316C262.729 571.503 262.641 570.44 262.538 569.111C262.45 567.722 262.318 566.024 262.128 564.045C261.952 562.066 261.761 559.821 261.468 557.339C260.457 547.414 258.479 533.767 256.486 518.658C255.504 511.095 254.727 503.873 254.155 497.301C253.921 494.007 253.657 490.876 253.54 487.937C253.364 484.998 253.305 482.265 253.291 479.769C253.217 477.273 253.305 475.013 253.349 473.019C253.364 471.04 253.467 469.327 253.569 467.939C253.672 466.609 253.745 465.531 253.804 464.734C253.906 463.98 253.95 463.596 253.979 463.596Z" fill="#263238"/>
<path d="M200.033 467.909C200.033 467.909 208.768 459.357 212.109 460.406C215.451 461.44 218.279 464.113 218.279 464.113C218.279 464.113 221.621 462.134 223.423 464.113C225.226 466.092 227.014 469.725 227.014 469.725C227.014 469.725 230.194 469.267 232.671 473.403C235.147 477.538 241.215 491.481 243.486 493.815C245.773 496.148 248.498 497.463 251.767 498.615C255.02 499.767 282.308 509.072 282.308 509.072L272.255 534.298C272.255 534.298 232.158 510.652 230.604 509.101C229.051 507.55 216.99 499.516 215.187 494.597C213.384 489.679 200.033 474.658 200.033 474.658V467.909Z" fill="#FFBE9D"/>
<path d="M226.559 477.922C226.589 477.937 226.486 478.306 226.076 478.882C225.68 479.444 224.947 480.227 223.746 480.773L223.892 480.522C224.112 482.043 223.877 484.14 222.646 486.046C222.339 486.518 221.987 486.976 221.533 487.405C221.078 487.803 220.521 488.202 219.774 488.276C219.027 488.35 218.264 487.862 217.927 487.227C217.576 486.607 217.444 485.928 217.341 485.278C217.033 482.974 216.74 480.817 216.521 478.794C216.403 477.775 216.608 476.638 217.239 475.869C217.854 475.101 218.646 474.688 219.32 474.348C220.697 473.698 221.811 473.27 222.471 472.753C223.13 472.266 223.379 471.867 223.438 471.911C223.467 471.926 223.291 472.399 222.646 472.989C222.016 473.595 220.873 474.141 219.569 474.836C218.924 475.19 218.221 475.604 217.752 476.268C217.268 476.918 217.107 477.775 217.224 478.75C217.502 480.758 217.796 482.915 218.103 485.189C218.235 486.4 218.733 487.641 219.715 487.552C220.683 487.464 221.489 486.518 222.06 485.691C223.218 483.963 223.511 482.043 223.394 480.611L223.379 480.419L223.555 480.359C224.684 479.931 225.416 479.252 225.856 478.764C226.325 478.218 226.515 477.893 226.559 477.922Z" fill="#EB996E"/>
<path d="M229.095 485.411C229.021 485.603 227.702 485.086 226.765 483.668C225.812 482.265 225.827 480.847 226.032 480.832C226.252 480.802 226.559 482.014 227.395 483.225C228.215 484.48 229.212 485.219 229.095 485.411Z" fill="#EB996E"/>
<path d="M228.113 501.657C227.878 501.643 227.981 499.102 227.028 496.178C226.105 493.239 224.566 491.23 224.742 491.082C224.874 490.935 226.779 492.84 227.761 495.942C228.743 499.028 228.289 501.702 228.113 501.657Z" fill="#EB996E"/>
<path d="M217.59 480.581C217.634 480.596 217.517 481.039 217.224 481.807C216.901 482.546 216.433 483.742 215.157 484.643C214.527 485.071 213.677 485.411 212.71 485.278C211.757 485.145 210.878 484.451 210.351 483.565C209.808 482.693 209.501 481.674 209.251 480.64C209.017 479.621 208.768 478.543 208.665 477.406C208.401 475.102 209.134 472.857 210.189 471.217C211.245 469.534 212.549 468.308 213.677 467.392C214.82 466.476 215.802 465.826 216.491 465.398C217.18 464.97 217.576 464.748 217.605 464.793C217.678 464.896 216.198 465.93 214.029 467.806C212.959 468.766 211.757 469.977 210.79 471.587C209.823 473.182 209.193 475.19 209.427 477.347C209.53 478.425 209.75 479.474 209.984 480.478C210.204 481.482 210.497 482.428 210.951 483.196C211.391 483.978 212.065 484.51 212.813 484.643C213.545 484.776 214.293 484.54 214.864 484.185C216.022 483.461 216.564 482.354 216.96 481.674C217.341 480.965 217.546 480.567 217.59 480.581Z" fill="#EB996E"/>
<g opacity="0.3">
<g opacity="0.3">
<path opacity="0.3" d="M376.219 650.905C351.774 650.063 327.344 649.236 302.899 648.394C298.59 648.246 293.857 648.231 290.515 651.008C287.394 653.608 286.382 657.92 285.562 661.908C281.854 680.016 278.131 698.123 274.424 716.231L276.754 720.263C291.204 711.313 302.166 696.779 306.841 680.341C308.102 675.925 309.494 670.681 313.773 669.086C315.649 668.392 317.73 668.584 319.723 668.776C325.497 669.367 331.272 669.943 337.046 670.534C345.355 671.376 353.973 672.188 361.872 669.441C369.771 666.679 376.732 659.309 376.219 650.905Z" fill="black"/>
</g>
</g>
<path d="M269.162 567.678C269.162 567.678 256.192 561.992 241.156 571.045C229.637 577.987 155.686 698.537 155.686 698.537L203.507 731.621L269.162 633.491L296.04 656.827C296.04 656.827 351.686 668.2 368.305 661.022C384.925 653.844 393.981 634.821 392.648 618.544C391.27 601.855 385.804 590.837 385.804 590.837C366.62 593.791 353.621 600.821 327.344 588.149L269.162 567.678Z" fill="#263238"/>
<path d="M267.286 628.411C267.286 628.411 301.682 642.043 302.122 651.495C302.562 660.933 255.489 782.606 255.489 782.606L208.006 765.163L233.491 681.965C233.491 681.965 244.102 651.732 252.074 643.52C260.061 635.293 267.286 628.411 267.286 628.411Z" fill="#263238"/>
<path d="M221.474 596.242C221.474 596.242 221.386 596.42 221.166 596.745C220.946 597.099 220.624 597.586 220.228 598.207C219.378 599.506 218.133 601.397 216.535 603.849C213.296 608.797 208.592 615.96 202.686 624.969C190.903 643.047 174.372 668.569 155.994 698.714L155.891 698.227C169.081 707.34 183.414 717.25 198.275 727.53C200.107 728.8 201.938 730.07 203.712 731.296L203.184 731.399C229.051 692.821 252.279 658.186 268.942 633.344L268.972 633.314L269.001 633.285C271.947 630.995 274.028 627.997 275.493 624.984C276.944 621.942 277.794 618.84 278.234 615.901C279.201 609.993 278.175 604.794 276.578 600.954C274.995 597.084 272.973 594.485 271.507 592.86C270.774 592.048 270.173 591.457 269.763 591.088C269.353 590.704 269.148 590.497 269.148 590.497C269.148 590.497 270.086 591.162 271.61 592.757C273.105 594.352 275.186 596.937 276.827 600.836C278.483 604.691 279.568 609.978 278.63 615.96C278.205 618.943 277.355 622.089 275.904 625.191C274.423 628.263 272.328 631.335 269.309 633.698L269.367 633.639C252.763 658.511 229.608 693.19 203.814 731.828L203.594 732.153L203.272 731.931C201.499 730.705 199.667 729.435 197.82 728.165C182.96 717.885 168.642 707.96 155.452 698.832L155.159 698.64L155.335 698.345C173.771 668.2 190.39 642.737 202.275 624.718C208.255 615.768 213.018 608.634 216.301 603.716C217.942 601.308 219.217 599.433 220.096 598.148C220.521 597.527 220.844 597.069 221.093 596.715C221.357 596.405 221.474 596.242 221.474 596.242Z" fill="#455A64"/>
<path d="M255.87 782.93C255.855 782.93 255.914 782.753 256.031 782.399C256.163 782.015 256.339 781.512 256.559 780.877C257.057 779.504 257.746 777.554 258.64 775.073C260.486 770.007 263.139 762.725 266.422 753.76C273.002 735.741 282.073 710.899 292.083 683.472C294.413 676.988 296.699 670.637 298.824 664.478C299.894 661.391 301.008 658.393 300.906 655.291C300.818 652.219 299.733 649.28 297.901 646.961C296.128 644.598 293.783 642.811 291.394 641.334C288.991 639.857 286.47 638.705 283.979 637.774C278.981 635.913 274.072 634.747 269.529 634.082L268.664 633.949L269.441 633.535C274.101 631.098 277.501 627.524 279.758 623.994C282.059 620.464 283.246 616.964 283.92 614.084C284.579 611.189 284.682 608.855 284.711 607.29C284.711 606.507 284.667 605.901 284.667 605.503C284.653 605.104 284.667 604.897 284.682 604.897C284.697 604.897 284.726 605.104 284.755 605.503C284.785 605.901 284.858 606.507 284.873 607.29C284.887 608.87 284.843 611.219 284.213 614.158C283.568 617.082 282.411 620.642 280.124 624.245C277.867 627.849 274.438 631.512 269.69 634.038L269.602 633.506C274.204 634.141 279.142 635.293 284.213 637.154C286.748 638.084 289.299 639.237 291.761 640.743C294.208 642.235 296.612 644.066 298.473 646.518C300.393 648.911 301.55 652.027 301.638 655.262C301.741 658.526 300.583 661.672 299.528 664.714C297.403 670.888 295.131 677.239 292.801 683.723C282.865 711.209 273.632 735.992 266.935 753.938C263.564 762.873 260.838 770.11 258.933 775.162C257.98 777.628 257.233 779.563 256.72 780.922C256.471 781.542 256.28 782.044 256.119 782.413C255.958 782.768 255.884 782.93 255.87 782.93Z" fill="#455A64"/>
<path d="M361.989 628.41C361.783 628.41 362.604 625.102 361.476 619.933C360.421 614.808 357.006 608.073 351.1 602.637C345.179 597.217 338.599 593.909 333.924 591.56C331.652 590.467 329.747 589.552 328.296 588.857C326.962 588.222 326.244 587.838 326.259 587.794C326.274 587.75 327.05 588.03 328.413 588.577C329.776 589.138 331.74 589.965 334.144 591.073C338.907 593.288 345.575 596.552 351.613 602.076C357.636 607.615 361.065 614.557 362.003 619.829C362.502 622.458 362.531 624.659 362.37 626.136C362.34 626.889 362.194 627.45 362.135 627.834C362.062 628.218 362.003 628.41 361.989 628.41Z" fill="#455A64"/>
<g opacity="0.3">
<path d="M337.06 546.528C334.569 549.024 331.799 551.579 328.326 552.155C325.263 552.672 322.185 551.535 319.269 550.412C302.826 544.106 286.382 537.799 269.954 531.507L265.967 537.001C282.938 550.885 304.145 563.04 325.087 568.136C331.887 569.79 339.566 568.254 345.209 564.118C349.605 560.899 352.287 555.847 354.5 550.84C359.629 539.202 362.971 526.751 364.363 514.094C356.215 525.658 347.055 536.529 337.06 546.528Z" fill="#6EA3A3"/>
</g>
<path d="M349.781 452.149C348.535 453.479 319.855 515.186 319.855 515.186L264.194 502.647L257.922 533.53C257.922 533.53 308.38 556.098 321.584 560.101C330.011 562.671 335.829 562.124 344.08 554.193C352.331 546.262 373.274 495.159 375.604 484.879C377.831 475.101 385.833 449.122 358.017 436.361L349.781 452.149Z" fill="#71DFDF"/>
<path d="M221.168 491.984L181.129 436.066C180.382 435.017 179.019 434.515 177.715 434.811L137.794 443.968C135.595 444.47 134.614 446.907 135.903 448.679L176.982 505.262C177.905 506.532 179.679 506.946 181.115 506.237L185.379 504.11C185.629 503.992 185.892 503.888 186.171 503.829L219.219 496.681C221.431 496.208 222.443 493.756 221.168 491.984Z" fill="#263238"/>
<path d="M221.166 491.983C221.166 491.983 221.327 492.131 221.503 492.5C221.679 492.869 221.899 493.504 221.738 494.317C221.591 495.114 221.005 496.104 219.891 496.591C218.748 496.99 217.444 497.182 215.978 497.551C210.043 498.866 201.513 500.756 190.991 503.075C189.672 503.371 188.324 503.666 186.946 503.961C186.213 504.109 185.671 504.272 184.997 504.641C184.352 504.966 183.692 505.291 183.033 505.63C182.359 505.955 181.743 506.295 181.011 506.635C180.248 506.945 179.384 506.989 178.578 506.738C177.786 506.517 177.039 505.926 176.599 505.246C176.13 504.611 175.676 503.976 175.207 503.326C171.441 498.172 167.425 492.648 163.204 486.858C154.763 475.249 145.486 462.488 135.74 449.092C135.037 448.236 134.758 446.891 135.198 445.813C135.594 444.706 136.59 443.878 137.69 443.642C139.683 443.184 141.646 442.726 143.61 442.283C147.523 441.382 151.378 440.496 155.173 439.64C162.75 437.912 170.063 436.243 177.024 434.647C177.449 434.559 177.904 434.411 178.402 434.411C178.886 434.396 179.384 434.485 179.838 434.662C180.292 434.839 180.703 435.105 181.055 435.46C181.421 435.814 181.626 436.198 181.89 436.553C182.901 437.971 183.912 439.374 184.894 440.762C186.873 443.524 188.793 446.212 190.639 448.812C194.347 454.01 197.791 458.855 200.942 463.286C207.2 472.118 212.285 479.281 215.817 484.273C217.546 486.74 218.894 488.66 219.832 490.004C220.272 490.639 220.609 491.141 220.858 491.511C221.063 491.791 221.166 491.968 221.166 491.983C221.151 491.998 221.019 491.821 220.77 491.496C220.507 491.141 220.14 490.654 219.686 490.034C218.719 488.704 217.326 486.814 215.553 484.392C211.977 479.444 206.833 472.325 200.487 463.552C197.307 459.15 193.834 454.321 190.111 449.136C188.25 446.537 186.316 443.864 184.337 441.102C183.341 439.728 182.344 438.325 181.318 436.892C180.805 436.139 180.351 435.534 179.574 435.268C179.208 435.12 178.812 435.061 178.417 435.061C178.036 435.061 177.625 435.179 177.171 435.283C170.21 436.892 162.897 438.576 155.32 440.319C151.524 441.19 147.67 442.077 143.757 442.978C141.808 443.421 139.829 443.878 137.851 444.336C136.971 444.543 136.195 445.178 135.887 446.035C135.565 446.891 135.74 447.837 136.341 448.59C146.058 462.001 155.334 474.777 163.761 486.4C167.967 492.22 171.968 497.743 175.705 502.913C176.174 503.563 176.643 504.198 177.098 504.833C177.508 505.468 178.065 505.896 178.739 506.103C179.398 506.31 180.131 506.28 180.776 506.029C181.421 505.734 182.11 505.379 182.755 505.054C183.414 504.729 184.074 504.404 184.718 504.08C185.319 503.74 186.155 503.474 186.799 503.371C188.177 503.075 189.54 502.795 190.859 502.514C201.411 500.284 209.955 498.482 215.905 497.226C217.37 496.887 218.733 496.709 219.803 496.355C220.858 495.927 221.43 495.011 221.591 494.258C221.767 493.49 221.591 492.884 221.445 492.515C221.269 492.16 221.137 491.998 221.166 491.983Z" fill="#455A64"/>
<path d="M220.507 495.779C220.492 495.794 220.228 495.483 219.759 494.878C219.246 494.213 218.572 493.312 217.737 492.19C215.964 489.768 213.458 486.385 210.395 482.235C204.21 473.728 195.754 462.075 186.418 449.21C184.088 446.02 181.817 442.741 179.604 439.861C178.988 439.255 178.197 438.842 177.362 438.679C176.497 438.502 175.72 438.62 174.826 438.857C173.068 439.255 171.353 439.654 169.682 440.023C162.999 441.53 156.961 442.889 151.861 444.041C146.835 445.149 142.76 446.049 139.829 446.685C138.466 446.965 137.367 447.201 136.547 447.364C135.799 447.512 135.403 447.571 135.389 447.556C135.389 447.526 135.77 447.408 136.503 447.216C137.309 447.009 138.393 446.744 139.741 446.389C142.643 445.695 146.717 444.705 151.715 443.509C156.8 442.313 162.823 440.895 169.492 439.329C171.162 438.945 172.877 438.546 174.636 438.133C175.471 437.911 176.526 437.719 177.479 437.941C178.446 438.118 179.384 438.591 180.102 439.314C182.476 442.372 184.631 445.518 187.005 448.752C196.282 461.676 204.679 473.373 210.805 481.91C213.78 486.119 216.213 489.561 217.942 492.013C218.733 493.165 219.378 494.095 219.847 494.789C220.316 495.424 220.536 495.764 220.507 495.779Z" fill="#455A64"/>
<path d="M162.442 454.025C163.608 454.025 164.553 453.219 164.553 452.223C164.553 451.228 163.608 450.422 162.442 450.422C161.277 450.422 160.332 451.228 160.332 452.223C160.332 453.219 161.277 454.025 162.442 454.025Z" fill="white"/>
<path d="M175.603 463.773C175.427 464.851 168.319 486.607 167.249 488.719C166.179 490.831 167.249 494.952 167.249 494.952C167.249 494.952 164.758 500.151 168.671 503.725C168.671 503.725 168.964 508.378 171.03 509.279C173.111 510.18 174.709 512.321 174.709 512.321C174.709 512.321 186.448 528.45 187.679 530.059C188.924 531.669 194.376 536.425 194.376 536.425C194.376 536.425 210.951 530.34 202.158 514.433L197.175 511.243L198.875 498.379C198.875 498.379 202.964 495.129 202.07 492.973C201.176 490.817 199.403 491.717 199.403 491.717C199.403 491.717 200.971 487.242 197.161 486.519L182.505 493.652C182.505 493.652 193.35 482.634 191.753 479.592C190.155 476.549 189.437 477.036 189.437 477.036L175.398 489.015C175.398 489.015 178.885 475.825 179.838 471.616C181.641 463.773 175.603 463.773 175.603 463.773Z" fill="#FFBE9D"/>
<path d="M199.227 492.426C199.3 492.485 198.348 493.652 196.589 495.306C194.83 496.975 192.236 499.102 189.115 501.067C185.993 503.031 182.96 504.449 180.703 505.32C178.446 506.192 176.995 506.546 176.966 506.458C176.922 506.339 178.314 505.808 180.483 504.818C182.666 503.843 185.612 502.352 188.69 500.417C191.767 498.467 194.376 496.444 196.208 494.893C198.055 493.357 199.139 492.338 199.227 492.426Z" fill="#EB996E"/>
<path d="M189.467 477.052C189.54 477.111 188.661 478.233 187.019 479.828C185.392 481.424 183.018 483.491 180.307 485.662C174.885 489.99 170.107 492.988 169.946 492.737C169.902 492.648 171.045 491.866 172.848 490.477C174.65 489.104 177.127 487.198 179.838 485.057C182.535 482.9 184.953 480.907 186.653 479.43C188.368 477.938 189.379 476.978 189.467 477.052Z" fill="#EB996E"/>
<path d="M197.029 495.898C196.999 495.883 197.292 495.573 197.923 495.706C198.509 495.838 199.359 496.488 199.432 497.699C199.461 498.866 198.655 500.003 197.791 501.008C196.926 502.042 195.944 503.149 194.874 504.272C192.735 506.517 190.639 508.393 189.056 509.663C187.473 510.933 186.418 511.627 186.36 511.553C186.213 511.376 190.082 508.201 194.317 503.74C195.373 502.632 196.369 501.54 197.249 500.55C198.142 499.575 198.846 498.615 198.875 497.699C198.905 496.828 198.26 496.163 197.82 496.001C197.366 495.794 197.043 495.957 197.029 495.898Z" fill="#EB996E"/>
<path d="M195.681 510.726C195.505 510.844 194.757 510.003 193.702 509.146C192.662 508.274 191.694 507.713 191.768 507.506C191.841 507.314 193.028 507.595 194.186 508.555C195.343 509.486 195.856 510.623 195.681 510.726Z" fill="#EB996E"/>
<path d="M196.091 519.795C196.179 519.81 196.179 520.563 195.695 521.656C195.226 522.734 194.186 524.122 192.529 524.964C190.873 525.791 189.144 525.791 188.001 525.526C186.843 525.26 186.257 524.802 186.301 524.728C186.345 524.61 187.004 524.876 188.089 524.994C189.159 525.112 190.712 525.023 192.178 524.285C193.643 523.546 194.654 522.35 195.197 521.42C195.783 520.46 195.973 519.765 196.091 519.795Z" fill="#EB996E"/>
<path d="M197.41 486.667C197.454 486.755 196.208 487.508 194.141 488.587C192.075 489.68 189.173 491.112 185.92 492.574C182.666 494.051 179.677 495.277 177.493 496.119C175.309 496.961 173.932 497.404 173.888 497.301C173.844 497.197 175.148 496.577 177.288 495.617C179.662 494.554 182.49 493.283 185.597 491.88C188.704 490.462 191.518 489.177 193.892 488.099C196.032 487.139 197.351 486.563 197.41 486.667Z" fill="#EB996E"/>
<path d="M344.256 463.596C344.256 463.596 344.139 463.921 343.86 464.542C343.567 465.177 343.157 466.092 342.615 467.259C341.501 469.667 339.874 473.167 337.793 477.627C333.572 486.622 327.505 499.531 320.104 515.32L320.001 515.541L319.767 515.482C303.851 511.923 284.858 507.654 264.091 503.016L264.531 502.721C262.523 512.602 260.428 522.97 258.259 533.604L258.039 533.176C259.431 533.796 260.926 534.461 262.421 535.126C281.385 543.471 299.44 551.431 316.176 557.856C320.368 559.407 324.515 560.928 328.707 561.12C332.913 561.342 336.826 559.629 339.962 557.251C341.545 556.069 343.069 554.799 344.329 553.396C344.945 552.687 345.575 551.993 346.073 551.18C346.586 550.397 347.158 549.659 347.612 548.847C348.55 547.252 349.488 545.686 350.294 544.106C351.144 542.54 351.921 540.989 352.683 539.453C358.662 527.209 362.795 516.944 365.726 509.914C367.148 506.399 368.247 503.666 369.023 501.761C369.39 500.845 369.683 500.151 369.873 499.649C370.064 499.176 370.181 498.94 370.181 498.94C370.181 498.94 370.108 499.191 369.947 499.679C369.756 500.195 369.492 500.904 369.155 501.82C368.452 503.711 367.397 506.473 365.99 510.017C363.147 517.107 359.087 527.386 353.166 539.69C352.419 541.226 351.642 542.791 350.792 544.372C349.986 545.967 349.063 547.547 348.11 549.157C347.656 549.969 347.084 550.737 346.557 551.535C346.059 552.347 345.414 553.086 344.769 553.824C343.465 555.286 341.955 556.556 340.328 557.768C338.702 558.964 336.928 560.042 334.965 560.781C333.001 561.519 330.846 561.888 328.692 561.785C324.339 561.608 320.148 560.042 315.942 558.521C299.147 552.126 281.077 544.165 262.113 535.82C260.618 535.155 259.109 534.491 257.731 533.87L257.453 533.752L257.511 533.442C259.68 522.793 261.791 512.44 263.798 502.559L263.872 502.189L264.238 502.278C284.99 506.99 303.983 511.288 319.884 514.891L319.547 515.054C327.051 499.309 333.191 486.445 337.471 477.48C339.61 473.049 341.281 469.578 342.439 467.185C343.01 466.033 343.45 465.132 343.758 464.497C344.08 463.892 344.256 463.596 344.256 463.596Z" fill="#263238"/>
<path d="M365.96 557.073C365.99 557.117 365.506 557.56 364.583 558.328C363.674 559.111 362.282 560.16 360.523 561.386C357.006 563.838 351.847 566.836 345.765 569.243C339.669 571.636 333.865 572.965 329.63 573.571C327.52 573.881 325.79 574.058 324.589 574.102C323.401 574.162 322.727 574.176 322.727 574.117C322.727 574.058 323.372 573.955 324.559 573.792C325.746 573.645 327.446 573.394 329.542 573.024C333.719 572.286 339.449 570.883 345.487 568.52C351.525 566.127 356.669 563.247 360.23 560.913C362.018 559.761 363.44 558.772 364.407 558.077C365.374 557.398 365.931 557.029 365.96 557.073Z" fill="#263238"/>
<path d="M365.609 563.04C365.638 563.084 365.33 563.424 364.744 564.015C364.158 564.606 363.264 565.418 362.15 566.407C359.908 568.372 356.654 570.927 352.859 573.423C349.063 575.919 345.428 577.898 342.746 579.183C341.398 579.833 340.299 580.32 339.537 580.631C338.76 580.941 338.335 581.088 338.306 581.044C338.262 580.941 339.903 580.114 342.512 578.711C345.121 577.307 348.667 575.284 352.448 572.803C356.215 570.321 359.483 567.855 361.813 566.009C364.129 564.133 365.535 562.951 365.609 563.04Z" fill="#263238"/>
<path d="M142.79 742.388L141.383 744.234C141.383 744.234 100.656 733.009 95.8194 738.725L158.06 785.781L172.745 764.262C160.303 761.603 150.249 754.765 142.79 742.388Z" fill="#49A6A6"/>
<g opacity="0.6">
<g opacity="0.6">
<g opacity="0.6">
<g opacity="0.6">
<g opacity="0.6">
<g opacity="0.6">
<g opacity="0.6">
<g opacity="0.6">
<g opacity="0.6">
<g opacity="0.6">
<g opacity="0.6">
<g opacity="0.6">
<g opacity="0.6">
<g opacity="0.6">
<g opacity="0.6">
<g opacity="0.6">
<path d="M161.504 766.182C162.457 767.422 162.281 769.416 161.079 770.435C159.892 771.454 157.87 771.277 156.888 770.051C155.906 768.825 156.053 766.433 157.357 765.547C158.661 764.675 161.006 765 161.666 766.433" fill="white"/>
</g>
</g>
</g>
</g>
</g>
</g>
</g>
</g>
</g>
</g>
</g>
</g>
</g>
</g>
</g>
</g>
<g opacity="0.6">
<g opacity="0.6">
<g opacity="0.6">
<g opacity="0.6">
<g opacity="0.6">
<g opacity="0.6">
<g opacity="0.6">
<g opacity="0.6">
<g opacity="0.6">
<g opacity="0.6">
<g opacity="0.6">
<g opacity="0.6">
<g opacity="0.6">
<g opacity="0.6">
<g opacity="0.6">
<path d="M158.075 785.796L161.607 780.627L100.656 737.426C100.656 737.426 96.9774 736.54 95.8343 738.755L158.075 785.796Z" fill="white"/>
</g>
</g>
</g>
</g>
</g>
</g>
</g>
</g>
</g>
</g>
</g>
</g>
</g>
</g>
</g>
<path d="M141.046 744.249C140.826 744.559 142.247 745.844 143.01 747.971C143.83 750.068 143.61 751.973 143.977 752.062C144.299 752.21 145.208 750.038 144.241 747.498C143.303 744.943 141.192 743.924 141.046 744.249Z" fill="#263238"/>
<path d="M132.487 742.033C132.194 742.285 133.132 743.791 133.191 745.874C133.322 747.941 132.531 749.551 132.853 749.758C133.103 750.024 134.656 748.384 134.51 745.814C134.407 743.23 132.707 741.753 132.487 742.033Z" fill="#263238"/>
<path d="M122.917 747.114C123.137 747.395 124.705 746.184 125.174 743.909C125.657 741.649 124.719 739.907 124.397 740.054C124.031 740.173 124.294 741.768 123.884 743.629C123.518 745.49 122.638 746.848 122.917 747.114Z" fill="#263238"/>
<path d="M234.195 809.723C234.195 809.723 211.069 818.865 204.239 804.583L200.37 809.797L179.399 848.523C178.036 851.033 178.636 854.283 181.025 855.922C182.872 857.178 185.202 857.266 187.063 856.203C197.029 850.502 233.579 829.352 234.18 825.452L236.437 815.261C236.906 813.149 236.012 810.963 234.195 809.723Z" fill="#49A6A6"/>
<g opacity="0.6">
<g opacity="0.6">
<g opacity="0.6">
<g opacity="0.6">
<g opacity="0.6">
<g opacity="0.6">
<g opacity="0.6">
<g opacity="0.6">
<g opacity="0.6">
<g opacity="0.6">
<path d="M181.934 856.439L235.03 821.937L234.502 824.153C234.151 826.604 232.861 827.313 231.337 828.569C226.823 832.32 214.879 840.281 187.239 856.247C185.612 857.177 183.619 857.251 181.934 856.439Z" fill="white"/>
</g>
</g>
</g>
</g>
</g>
</g>
</g>
</g>
</g>
</g>
<g opacity="0.6">
<g opacity="0.6">
<g opacity="0.6">
<g opacity="0.6">
<g opacity="0.6">
<g opacity="0.6">
<g opacity="0.6">
<g opacity="0.6">
<g opacity="0.6">
<g opacity="0.6">
<g opacity="0.6">
<path d="M230.311 813.829C228.757 814.419 227.849 816.295 228.391 817.846C228.933 819.397 230.882 820.357 232.451 819.795C234.019 819.234 235.176 817.019 234.458 815.527C233.74 814.035 231.395 813.046 230.018 813.961" fill="white"/>
</g>
</g>
</g>
</g>
</g>
</g>
</g>
</g>
</g>
</g>
</g>
<path d="M199.564 836.5C199.227 836.574 198.67 833.531 195.856 831.301C193.101 828.982 189.98 829.012 189.994 828.672C189.98 828.539 190.756 828.288 192.046 828.421C193.321 828.539 195.094 829.145 196.633 830.4C198.172 831.656 199.095 833.266 199.462 834.477C199.813 835.703 199.711 836.485 199.564 836.5Z" fill="#263238"/>
<path d="M194.098 842.6C193.79 842.762 192.486 840.65 189.906 839.203C187.356 837.711 184.865 837.637 184.85 837.283C184.762 836.973 187.591 836.485 190.507 838.184C193.424 839.838 194.406 842.526 194.098 842.6Z" fill="#263238"/>
<path d="M208.783 829.219C208.475 829.411 206.482 826.147 202.671 823.562C198.905 820.918 195.109 820.194 195.182 819.84C195.168 819.545 199.301 819.766 203.345 822.587C207.42 825.379 209.076 829.13 208.783 829.219Z" fill="#263238"/>
<path d="M212.666 816.842C212.446 817.122 209.794 815.202 205.983 814.139C202.187 813.031 198.919 813.253 198.89 812.898C198.802 812.603 202.231 811.82 206.306 813.001C210.394 814.153 212.9 816.635 212.666 816.842Z" fill="#263238"/>
<path d="M203.829 813.504C203.77 813.474 203.946 812.765 204.591 811.613C205.236 810.476 206.364 808.866 208.269 807.404C209.222 806.725 210.306 805.809 211.992 805.764C212.842 805.75 213.824 806.326 214.117 807.241C214.425 808.128 214.249 809.029 213.926 809.811C212.49 812.913 208.401 814.73 204.62 813.592C200.854 812.396 198.48 808.94 198.245 805.617C198.245 804.775 198.406 803.83 199.168 803.165C199.93 802.5 201.088 802.604 201.762 803.047C203.155 803.918 203.726 805.174 204.327 806.193C205.455 808.32 205.88 810.225 206.056 811.525C206.232 812.839 206.144 813.563 206.071 813.563C205.836 813.607 205.88 810.594 203.58 806.592C202.979 805.646 202.305 804.48 201.279 803.904C200.78 803.623 200.238 803.623 199.872 803.963C199.505 804.273 199.33 804.937 199.359 805.602C199.579 808.334 201.762 811.48 204.957 812.455C208.137 813.445 211.728 811.835 212.9 809.353C213.179 808.748 213.281 808.069 213.106 807.566C212.944 807.064 212.49 806.754 211.948 806.739C210.805 806.695 209.691 807.433 208.768 808.069C205.06 810.757 204.034 813.652 203.829 813.504Z" fill="#263238"/>
<path d="M326.787 347.92C325.395 344.243 325.937 340.151 325.395 336.267C324.193 327.701 317.349 320.818 309.435 317.48C302.063 314.364 293.065 315.028 284.184 317.908C278.102 319.887 272.372 323.329 268.298 328.306C262.905 334.908 260.999 344.243 263.359 352.454L306.856 346.133C310.93 349.53 315.092 352.986 320.016 354.891C321.467 355.453 323.021 355.866 324.559 355.63C326.098 355.394 327.578 354.345 327.945 352.824C328.37 351.14 327.388 349.515 326.787 347.92Z" fill="#263238"/>
<path d="M299.763 315.264C309.289 313.64 317.642 317.347 325.673 322.767C333.69 328.188 339.728 336.356 343.216 345.439C346.879 354.995 347.803 368.834 344.96 378.671C342.116 388.507 335.228 395.7 326.303 398.875C313.202 403.543 298.077 402.967 287.013 394.518C275.948 386.055 269.631 372.098 269.118 358.111C268.767 348.481 271.068 338.615 276.417 330.625C281.751 322.62 290.295 316.653 299.763 315.264Z" fill="#263238"/>
<path d="M284.99 427.41C284.99 427.396 284.99 427.425 284.99 427.44C285.034 428.208 285.064 429.05 285.108 429.951C285.108 429.951 285.093 430.187 285.078 430.615C285.547 435.903 287.995 445.902 299.733 446.05C314.462 446.242 325.6 429.847 327.271 427.263L327.828 345.808C327.769 342.101 324.897 339.058 321.218 338.807L283.261 330.654C271.17 329.827 263.725 345.07 263.418 357.284C263.081 370.843 263.183 387.414 265.162 397.458C269.119 417.633 284.653 419.642 284.653 419.642C284.639 419.553 284.726 421.872 284.99 427.41Z" fill="#FFBE9D"/>
<path d="M269.162 372.157C269.162 373.531 270.32 374.668 271.756 374.683C273.178 374.712 274.336 373.604 274.336 372.231C274.336 370.857 273.178 369.72 271.756 369.69C270.32 369.69 269.162 370.783 269.162 372.157Z" fill="#263238"/>
<path d="M267.287 365.097C267.624 365.422 269.529 363.886 272.299 363.797C275.068 363.664 277.164 365.023 277.457 364.669C277.604 364.506 277.252 363.916 276.343 363.295C275.449 362.675 273.925 362.099 272.196 362.173C270.467 362.247 269.03 362.941 268.224 363.635C267.389 364.314 267.125 364.949 267.287 365.097Z" fill="#263238"/>
<path d="M294.077 371.566C294.077 372.94 295.234 374.077 296.671 374.092C298.092 374.122 299.25 373.014 299.25 371.64C299.25 370.267 298.092 369.129 296.671 369.1C295.234 369.1 294.077 370.193 294.077 371.566Z" fill="#263238"/>
<path d="M293.695 364.447C294.033 364.772 295.938 363.236 298.708 363.148C301.477 363.015 303.573 364.374 303.866 364.019C304.013 363.857 303.661 363.266 302.752 362.646C301.858 362.025 300.334 361.449 298.605 361.523C296.876 361.597 295.439 362.291 294.633 362.985C293.798 363.679 293.52 364.3 293.695 364.447Z" fill="#263238"/>
<path d="M285.327 385.745C285.327 385.583 283.598 385.346 280.784 385.095C280.066 385.051 279.392 384.933 279.26 384.446C279.069 383.929 279.348 383.146 279.656 382.304C280.257 380.546 280.887 378.7 281.546 376.78C284.169 368.908 286.045 362.454 285.723 362.35C285.401 362.247 283.026 368.539 280.403 376.411C279.773 378.346 279.172 380.192 278.601 381.964C278.366 382.791 277.941 383.722 278.337 384.785C278.542 385.317 279.084 385.686 279.538 385.79C279.993 385.908 280.403 385.908 280.755 385.908C283.569 385.952 285.313 385.893 285.327 385.745Z" fill="#263238"/>
<path d="M284.638 418.962C284.638 418.962 298.224 419.331 311.34 410.691C311.34 410.691 305.083 425.003 284.844 423.866L284.638 418.962Z" fill="#EB996E"/>
<path d="M286.749 392.451C287.701 391.077 289.431 390.279 291.175 390.412C292.391 390.501 293.622 391.033 294.399 392.007C295.176 392.967 295.381 394.371 294.751 395.345C294.033 396.438 292.479 396.748 291.145 396.409C289.797 396.084 288.625 395.242 287.511 394.4C287.203 394.164 286.881 393.927 286.69 393.603C286.485 393.278 286.441 392.849 286.661 392.554" fill="#EB996E"/>
<path d="M293.578 387.37C293.124 387.355 293.226 390.398 290.735 392.657C288.244 394.917 285.005 394.695 285.005 395.124C284.976 395.316 285.738 395.685 287.101 395.67C288.434 395.67 290.369 395.168 291.893 393.78C293.417 392.391 294.032 390.604 294.091 389.349C294.15 388.079 293.783 387.34 293.578 387.37Z" fill="#263238"/>
<path d="M293.857 356.132C294.164 356.885 296.919 356.413 300.202 356.693C303.485 356.9 306.152 357.757 306.563 357.062C306.739 356.723 306.255 356.029 305.17 355.334C304.086 354.64 302.386 354.005 300.422 353.857C298.458 353.71 296.67 354.094 295.513 354.625C294.311 355.157 293.725 355.777 293.857 356.132Z" fill="#263238"/>
<path d="M267.639 352.809C268.152 353.429 270.042 352.691 272.343 352.573C274.644 352.381 276.608 352.838 277.033 352.159C277.224 351.834 276.887 351.199 276.007 350.638C275.143 350.077 273.721 349.633 272.138 349.737C270.555 349.84 269.207 350.475 268.43 351.155C267.654 351.849 267.419 352.514 267.639 352.809Z" fill="#263238"/>
<path d="M333.763 342.012C329.835 330.359 312.674 314.452 300.51 315.545L281.282 327.671C282.586 334.332 287.804 340.048 294.281 341.909C297.74 342.898 301.887 343.105 303.983 346.059C306.123 349.057 304.994 353.518 306.988 356.619C309.757 360.917 317.129 360.578 319.225 365.245C320.148 367.283 319.723 369.75 320.69 371.773C321.965 374.461 328.853 377.784 331.667 376.824C334.481 375.864 334.393 371.02 335.272 368.465C336.767 364.093 336.078 361.863 335.507 359.44C334.173 353.725 335.624 347.58 333.763 342.012Z" fill="#263238"/>
<path d="M323.372 379.379C323.314 377.873 324.926 374.239 326.391 373.944C330.319 373.176 337.471 373.22 337.91 383.352C338.511 397.191 324.603 394.946 324.559 394.548C324.545 394.237 323.563 384.593 323.372 379.379Z" fill="#FFBE9D"/>
<path d="M328.546 389.113C328.604 389.068 328.795 389.275 329.205 389.437C329.601 389.6 330.29 389.703 330.993 389.393C332.415 388.788 333.543 386.41 333.499 383.914C333.484 382.658 333.162 381.462 332.678 380.487C332.209 379.498 331.535 378.818 330.802 378.715C330.07 378.582 329.571 379.04 329.425 379.438C329.264 379.837 329.352 380.103 329.278 380.133C329.249 380.177 328.971 379.911 329.058 379.335C329.102 379.054 329.249 378.729 329.557 378.449C329.879 378.168 330.348 378.006 330.861 378.035C331.916 378.065 332.913 378.995 333.455 380.074C334.041 381.137 334.437 382.481 334.452 383.899C334.481 386.69 333.191 389.364 331.227 390.028C330.275 390.324 329.454 390.073 329.029 389.762C328.575 389.452 328.487 389.142 328.546 389.113Z" fill="#EB996E"/>
<path d="M346.205 360.445C346.308 360.459 346.674 358.894 346.718 356.294C346.777 353.71 346.396 350.076 345.15 346.31C343.89 342.544 342.014 339.413 340.431 337.389C338.834 335.351 337.603 334.317 337.529 334.391C337.28 334.568 341.882 339.176 344.285 346.606C346.806 353.99 345.898 360.459 346.205 360.445Z" fill="#71DFDF"/>
<path d="M285.269 323.491C283.994 329.118 275.493 336.341 271.756 340.713C264.634 349.072 263.286 350.298 263.344 375.525C259.988 369.055 257.35 357.771 257.614 350.475C257.878 343.179 260.56 335.883 265.586 330.64C270.628 325.411 278.102 322.442 285.269 323.491Z" fill="#263238"/>
<path d="M340.754 341.85C340.768 341.909 339.933 342.116 338.423 342.426C337.661 342.603 336.738 342.78 335.639 342.913C334.554 343.061 333.309 343.268 331.931 343.342C329.176 343.607 325.864 343.637 322.2 343.43C318.536 343.164 314.535 342.603 310.417 341.599C306.299 340.565 302.489 339.191 299.118 337.729C295.777 336.208 292.845 334.642 290.515 333.121C289.314 332.412 288.317 331.644 287.423 331.009C286.514 330.389 285.767 329.783 285.181 329.281C283.979 328.291 283.334 327.73 283.378 327.686C283.407 327.641 284.126 328.129 285.371 329.03C285.987 329.488 286.749 330.049 287.687 330.625C288.61 331.216 289.621 331.939 290.823 332.619C293.168 334.066 296.084 335.573 299.411 337.035C302.767 338.438 306.534 339.767 310.608 340.801C314.682 341.791 318.639 342.352 322.259 342.662C325.878 342.913 329.161 342.928 331.902 342.751C333.279 342.721 334.51 342.544 335.595 342.441C336.679 342.352 337.617 342.219 338.379 342.101C339.889 341.879 340.754 341.791 340.754 341.85Z" fill="#455A64"/>
<path d="M342.175 351.775C342.19 351.834 341.618 351.967 340.578 352.159C339.537 352.366 338.028 352.573 336.152 352.721C332.4 353.031 327.124 352.942 321.467 351.82C315.795 350.682 310.901 348.762 307.53 347.034C305.845 346.178 304.526 345.41 303.646 344.819C302.767 344.243 302.298 343.903 302.327 343.844C302.401 343.726 304.394 344.937 307.794 346.503C311.179 348.083 316.045 349.885 321.628 351.007C327.212 352.115 332.4 352.292 336.122 352.13C339.859 351.982 342.16 351.628 342.175 351.775Z" fill="#455A64"/>
<path d="M345.649 352.115C345.693 352.1 345.898 352.839 346.117 354.197C346.352 355.556 346.542 357.535 346.674 359.987C346.806 362.439 346.836 365.363 346.674 368.613C346.484 371.847 346.176 375.436 345.267 379.099C343.333 386.499 338.658 392.022 334.598 394.77C332.576 396.173 330.759 397.015 329.498 397.531C328.238 398.048 327.505 398.255 327.491 398.211C327.461 398.152 328.15 397.842 329.366 397.236C330.568 396.631 332.312 395.715 334.247 394.282C336.196 392.864 338.262 390.841 340.08 388.227C341.838 385.568 343.626 382.496 344.432 378.892C345.326 375.318 345.649 371.773 345.883 368.568C346.088 365.348 346.118 362.454 346.059 360.017C346 357.58 345.898 355.6 345.766 354.242C345.678 352.883 345.575 352.13 345.649 352.115Z" fill="#455A64"/>
<path d="M242.123 545.627C241.976 545.597 242.357 543.721 242.343 540.679C242.357 539.157 242.182 537.341 241.859 535.362C241.478 533.397 240.907 531.256 240.071 529.099C239.192 526.958 238.137 525.023 237.038 523.339C235.909 521.685 234.781 520.267 233.726 519.174C231.63 516.973 230.076 515.895 230.164 515.777C230.194 515.733 230.604 515.984 231.307 516.471C231.674 516.708 232.099 517.018 232.553 517.417C233.022 517.815 233.579 518.244 234.107 518.805C235.235 519.868 236.437 521.271 237.609 522.955C238.752 524.654 239.866 526.633 240.76 528.833C241.625 531.049 242.196 533.235 242.533 535.258C242.841 537.296 242.944 539.143 242.87 540.693C242.87 541.476 242.768 542.17 242.709 542.776C242.651 543.396 242.563 543.913 242.46 544.327C242.299 545.183 242.182 545.641 242.123 545.627Z" fill="#263238"/>
<path d="M247.853 537.976C247.721 537.991 247.487 536.499 246.754 534.21C246.036 531.92 244.702 528.833 242.607 525.835C240.496 522.837 238.064 520.548 236.158 519.085C234.253 517.623 232.934 516.9 233.007 516.781C233.037 516.737 233.374 516.87 233.989 517.165C234.605 517.446 235.47 517.948 236.481 518.642C238.503 520.016 241.068 522.305 243.237 525.377C245.391 528.464 246.681 531.669 247.282 534.047C247.589 535.243 247.765 536.218 247.824 536.898C247.897 537.592 247.912 537.976 247.853 537.976Z" fill="#263238"/>
</svg>
