<svg width="414" height="282" viewBox="0 0 414 282" fill="none" xmlns="http://www.w3.org/2000/svg">
<mask id="mask0_121:3322" style="mask-type:alpha" maskUnits="userSpaceOnUse" x="-1" y="0" width="416" height="282">
<rect x="-1" width="416" height="282" fill="#C4C4C4"/>
</mask>
<g mask="url(#mask0_121:3322)">
<rect x="27.5001" y="64.5" width="354" height="319" rx="6.5" stroke="#164A89" stroke-width="3"/>
<rect x="235" y="5" width="96" height="100" rx="8" fill="#71DFDF"/>
<path d="M283.29 347.078C283.04 347.131 276.036 319.186 267.642 284.646C259.247 250.089 252.653 222.037 252.903 221.983C253.152 221.93 260.156 249.875 268.551 284.433C276.945 318.972 283.539 347.024 283.29 347.078Z" fill="#EBEBEB"/>
<path d="M287.294 54.3186C291.043 52.7466 293.709 48.8801 293.728 44.3302C293.748 38.3645 289.237 33.5118 283.652 33.4826C278.067 33.4533 273.507 38.2668 273.488 44.2325C273.468 48.8313 276.153 52.7368 279.942 54.3088C264.359 56.6521 265.072 73.5924 265.072 73.5924L301.91 73.7583C301.891 73.7681 302.731 56.6521 287.294 54.3186Z" fill="#EBEBEB"/>
<path d="M283.476 94.2328C261.088 94.2328 242.878 76.0233 242.878 53.6349C242.869 31.2366 261.088 13.0271 283.476 13.0271C305.865 13.0271 324.084 31.2366 324.084 53.6251C324.074 76.0135 305.865 94.2328 283.476 94.2328ZM283.476 14.0035C261.625 14.0035 243.855 31.7834 243.855 53.6251C243.855 75.4765 261.635 93.2467 283.476 93.2467C305.328 93.2467 323.108 75.4668 323.108 53.6251C323.098 31.7834 305.328 14.0035 283.476 14.0035Z" fill="#EBEBEB"/>
<path d="M-19.4366 214.201C-38.7983 214.201 -54.5473 198.452 -54.5473 179.09C-54.5473 159.729 -38.7983 143.979 -19.4366 143.979C-0.0749474 143.979 15.6741 159.729 15.6741 179.09C15.6741 198.452 -0.0749474 214.201 -19.4366 214.201ZM-19.4366 144.956C-38.2613 144.956 -53.571 160.266 -53.571 179.09C-53.571 197.915 -38.2613 213.225 -19.4366 213.225C-0.611958 213.225 14.6977 197.915 14.6977 179.09C14.6977 160.266 -0.611958 144.956 -19.4366 144.956Z" fill="#EBEBEB"/>
<path d="M6.496 316.927C-3.37523 316.927 -11.4011 308.901 -11.4011 299.029C-11.4011 289.158 -3.37523 281.132 6.496 281.132C16.3672 281.132 24.3931 289.158 24.3931 299.029C24.3931 308.901 16.3672 316.927 6.496 316.927ZM6.496 282.109C-2.82845 282.109 -10.4247 289.695 -10.4247 299.029C-10.4247 308.354 -2.83821 315.95 6.496 315.95C15.8205 315.95 23.4167 308.364 23.4167 299.029C23.4167 289.705 15.8302 282.109 6.496 282.109Z" fill="#EBEBEB"/>
<path d="M268.46 76.9998C268.509 77.1365 210.834 96.2833 139.665 119.765C68.477 143.257 10.7435 162.189 10.7044 162.052C10.6556 161.916 68.3208 142.769 139.509 119.277C210.677 95.7951 268.421 76.8631 268.46 76.9998Z" fill="#EBEBEB"/>
<path d="M3.7621 281.62C3.62541 281.65 -0.211775 266.34 -4.81054 247.418C-9.4093 228.485 -13.0219 213.117 -12.8852 213.088C-12.7485 213.059 -8.91134 228.368 -4.31258 247.3C0.286182 266.223 3.8988 281.591 3.7621 281.62Z" fill="#EBEBEB"/>
<path d="M377.101 185.749C367.23 185.749 359.204 177.723 359.204 167.852C359.204 157.981 367.23 149.955 377.101 149.955C386.973 149.955 394.999 157.981 394.999 167.852C394.999 177.723 386.963 185.749 377.101 185.749ZM377.101 150.931C367.777 150.931 360.181 158.518 360.181 167.852C360.181 177.186 367.767 184.773 377.101 184.773C386.426 184.773 394.022 177.186 394.022 167.852C394.022 158.518 386.426 150.931 377.101 150.931Z" fill="#EBEBEB"/>
<path d="M378.693 168.145C380.255 167.491 381.368 165.87 381.378 163.976C381.388 161.486 379.503 159.455 377.17 159.445C374.836 159.436 372.932 161.447 372.923 163.937C372.913 165.86 374.036 167.491 375.617 168.145C369.105 169.121 369.408 176.2 369.408 176.2L384.795 176.268C384.795 176.268 385.147 169.112 378.693 168.145Z" fill="#EBEBEB"/>
<path d="M-4.16599 81.2278C-14.0372 81.2278 -22.0631 73.2019 -22.0631 63.3307C-22.0631 53.4595 -14.0372 45.4336 -4.16599 45.4336C5.70524 45.4336 13.7311 53.4595 13.7311 63.3307C13.7213 73.1922 5.69548 81.2278 -4.16599 81.2278ZM-4.16599 46.41C-13.4904 46.41 -21.0867 53.9965 -21.0867 63.3307C-21.0867 72.6649 -13.5002 80.2514 -4.16599 80.2514C5.16823 80.2514 12.7547 72.6649 12.7547 63.3307C12.7547 53.9965 5.15847 46.41 -4.16599 46.41Z" fill="#EBEBEB"/>
<path d="M-2.57448 63.6139C-1.01226 62.9597 0.100813 61.3389 0.110577 59.4448C0.12034 56.955 -1.76408 54.9241 -4.09763 54.9143C-6.43119 54.9046 -8.33513 56.9159 -8.3449 59.4057C-8.35466 61.3292 -7.23182 62.9597 -5.65008 63.6139C-12.1625 64.5903 -11.8599 71.6691 -11.8599 71.6691L3.52792 71.7374C3.52792 71.7472 3.87941 64.5903 -2.57448 63.6139Z" fill="#EBEBEB"/>
<path d="M366.166 153.909C366.069 154.007 351.647 139.703 333.965 121.952C316.273 104.202 302.018 89.7317 302.116 89.634C302.213 89.5364 316.634 103.84 334.317 121.591C352.009 139.342 366.264 153.812 366.166 153.909Z" fill="#EBEBEB"/>
<path d="M74.8039 143.179C74.7063 143.277 59.3575 128.543 40.5231 110.275C21.6789 91.997 6.49618 77.0974 6.59382 76.9998C6.69146 76.9021 22.0402 91.6357 40.8746 109.914C59.709 128.182 74.9015 143.081 74.8039 143.179Z" fill="#EBEBEB"/>
<path d="M253.247 354.117H51.5658C46.1078 354.117 41.6848 349.694 41.6848 344.236V46.195C41.6848 40.737 46.1078 36.314 51.5658 36.314H253.247C258.705 36.314 263.128 40.737 263.128 46.195V344.236C263.128 349.694 258.705 354.117 253.247 354.117Z" fill="#263238"/>
<path d="M253.247 354.117C253.247 354.117 253.482 354.097 253.941 354.068C254.175 354.068 254.448 354.019 254.79 353.96C255.132 353.921 255.513 353.824 255.952 353.707C256.811 353.453 257.875 353.033 258.959 352.242C260.033 351.461 261.166 350.328 261.976 348.766C262.386 347.985 262.689 347.096 262.894 346.14C263.089 345.173 263.08 344.138 263.08 343.044C263.08 340.867 263.07 338.475 263.07 335.888C263.06 330.713 263.06 324.757 263.05 318.039C263.031 291.179 263.011 252.309 262.982 204.291C262.972 180.282 262.962 153.978 262.953 125.741C262.953 111.622 262.943 97.0254 262.943 81.9793C262.943 74.4612 262.943 66.8259 262.933 59.0929C262.933 55.2265 262.933 51.3307 262.933 47.4154C262.923 46.4292 262.972 45.4626 262.777 44.5155C262.601 43.5782 262.328 42.6409 261.859 41.7817C260.98 40.0535 259.565 38.6182 257.866 37.6809C257.006 37.2317 256.079 36.8998 255.132 36.6947C254.175 36.5092 253.199 36.5092 252.193 36.5092C250.201 36.5092 248.19 36.5092 246.188 36.5092C242.175 36.5092 238.133 36.5092 234.061 36.5092C225.928 36.5092 217.707 36.5092 209.398 36.5092C192.78 36.5092 175.811 36.5092 158.538 36.519C123.994 36.519 88.2192 36.519 51.5854 36.519C49.3397 36.5287 47.1233 37.3098 45.3951 38.7451C43.6767 40.1706 42.4855 42.2015 42.0656 44.3886C41.8313 45.4724 41.9094 46.605 41.8899 47.7474V51.1549C41.8899 53.4201 41.8899 55.6854 41.8899 57.9506C41.8899 67.0016 41.8899 75.9843 41.8899 84.9085C41.8899 102.757 41.8899 120.341 41.8899 137.614C41.8899 172.168 41.8801 205.501 41.8801 237.253C41.8704 269.005 41.8704 299.176 41.8606 327.413C41.8606 330.947 41.8606 334.443 41.8606 337.909C41.8606 339.647 41.8606 341.365 41.8606 343.084C41.8606 343.943 41.8411 344.792 41.9778 345.622C42.0754 346.462 42.3488 347.262 42.6515 348.034C43.9696 351.109 46.9378 353.394 50.2087 353.804C51.0191 353.931 51.8392 353.912 52.6789 353.912C53.5088 353.912 54.3388 353.912 55.1687 353.912C56.8188 353.912 58.4689 353.912 60.1092 353.912C73.2122 353.921 85.7978 353.921 97.7975 353.921C145.816 353.951 184.686 353.98 211.536 353.99C224.962 354.009 235.389 354.019 242.458 354.029C245.993 354.039 248.688 354.048 250.504 354.048C252.32 354.097 253.247 354.117 253.247 354.117C253.247 354.117 252.32 354.136 250.504 354.136C248.688 354.146 245.993 354.146 242.458 354.156C235.389 354.165 224.962 354.175 211.536 354.195C184.676 354.214 145.816 354.234 97.7975 354.263C85.788 354.263 73.2122 354.273 60.1092 354.273C58.4689 354.273 56.8285 354.273 55.1687 354.273C54.3388 354.273 53.5088 354.273 52.6789 354.273C51.8587 354.273 50.9995 354.292 50.1598 354.166C46.7718 353.746 43.6864 351.383 42.3195 348.19C41.9973 347.389 41.7239 346.55 41.6165 345.69C41.4798 344.831 41.4993 343.953 41.4993 343.103C41.4993 341.385 41.4993 339.656 41.4993 337.928C41.4993 334.462 41.4993 330.957 41.4993 327.432C41.4896 299.195 41.4896 269.025 41.4798 237.273C41.4798 205.521 41.47 172.187 41.47 137.633C41.47 120.351 41.47 102.767 41.47 84.928C41.47 76.0039 41.47 67.0212 41.47 57.9701C41.47 55.7049 41.47 53.4397 41.47 51.1745V47.7669C41.4896 46.6441 41.4114 45.4724 41.6458 44.3203C42.0754 42.0355 43.3252 39.907 45.1217 38.4131C46.928 36.9193 49.2518 36.0991 51.5951 36.0894C88.229 36.0894 124.004 36.0894 158.548 36.0894C175.82 36.0894 192.79 36.0894 209.408 36.0991C217.717 36.0991 225.938 36.0991 234.071 36.0991C238.133 36.0991 242.175 36.0991 246.198 36.0991C248.209 36.0991 250.211 36.0991 252.203 36.0991C253.189 36.0991 254.224 36.0991 255.22 36.2944C256.216 36.4994 257.172 36.8509 258.071 37.3196C259.838 38.3057 261.322 39.7996 262.23 41.5962C262.709 42.4847 262.992 43.461 263.177 44.4472C263.382 45.4333 263.324 46.4488 263.333 47.4154C263.333 51.3307 263.333 55.2265 263.333 59.0929C263.333 66.8259 263.333 74.4612 263.324 81.9793C263.324 97.0156 263.314 111.622 263.314 125.741C263.304 153.978 263.294 180.282 263.285 204.291C263.255 252.309 263.226 291.179 263.216 318.039C263.207 324.757 263.207 330.723 263.197 335.888C263.197 338.475 263.187 340.857 263.187 343.044C263.187 344.128 263.187 345.183 262.992 346.159C262.777 347.126 262.474 348.024 262.054 348.805C261.224 350.387 260.092 351.52 258.998 352.301C257.895 353.082 256.831 353.502 255.962 353.755C255.522 353.873 255.132 353.97 254.79 354C254.448 354.058 254.165 354.087 253.941 354.087C253.472 354.117 253.247 354.117 253.247 354.117Z" fill="#263238"/>
<path d="M255.327 58.9854H47.8361V324.386H255.327V58.9854Z" fill="white"/>
<path d="M255.327 324.386C255.327 322.628 255.249 216.535 255.122 58.9856L255.317 59.1808C193.395 59.1906 122.647 59.1906 47.8556 59.2004H47.8361L48.0606 58.9758C48.0509 157.395 48.0314 248.775 48.0216 324.376L47.8361 324.191C173.057 324.318 253.794 324.386 255.327 324.386C253.794 324.386 173.067 324.464 47.8361 324.571H47.6506V324.386C47.6408 248.785 47.631 157.395 47.6115 58.9856V58.761H47.8361H47.8556C122.656 58.7708 193.395 58.7805 255.317 58.7805H255.522V58.9758C255.405 216.535 255.327 322.638 255.327 324.386Z" fill="#263238"/>
<path d="M174.199 49.9539H128.973C127.235 49.9539 125.82 48.5382 125.82 46.8002C125.82 45.0622 127.235 43.6465 128.973 43.6465H174.199C175.937 43.6465 177.353 45.0622 177.353 46.8002C177.353 48.5382 175.937 49.9539 174.199 49.9539Z" fill="#455A64"/>
<path d="M137.331 303.511C137.331 303.511 137.507 303.482 137.849 303.462C138.025 303.452 138.239 303.433 138.483 303.413C138.737 303.374 139.02 303.325 139.343 303.267C140.631 303.023 142.565 302.437 144.517 300.845C146.421 299.273 148.345 296.559 148.618 292.985C148.677 292.107 148.657 291.169 148.657 290.213C148.648 289.734 148.667 289.246 148.628 288.758C148.618 288.514 148.599 288.27 148.589 288.025C148.55 287.781 148.511 287.537 148.472 287.283C148.423 286.785 148.247 286.297 148.13 285.799C147.945 285.321 147.798 284.813 147.544 284.344C147.105 283.378 146.49 282.47 145.748 281.65C144.283 279.98 142.203 278.701 139.841 278.164C138.649 277.891 137.429 277.861 136.13 277.881C134.851 277.881 133.543 277.881 132.215 277.891C126.904 277.9 121.231 277.91 115.255 277.91C103.304 277.92 90.1818 277.92 76.3953 277.93C73.017 277.92 69.7363 279.521 67.6762 282.089C66.651 283.368 65.9089 284.862 65.5184 286.424C65.0985 287.986 65.1766 289.617 65.1669 291.247C65.1376 292.868 65.3133 294.44 65.8699 295.905C66.4069 297.369 67.2466 298.707 68.3108 299.81C70.4198 302.037 73.4173 303.267 76.3464 303.257C88.2876 303.277 99.0473 303.296 108.089 303.316C117.11 303.345 124.414 303.374 129.481 303.394C131.99 303.413 133.943 303.433 135.3 303.443C135.945 303.452 136.453 303.462 136.814 303.472C137.156 303.491 137.331 303.511 137.331 303.511C137.331 303.511 137.156 303.53 136.814 303.54C136.453 303.55 135.955 303.55 135.3 303.569C133.953 303.579 131.99 303.599 129.481 303.618C124.404 303.638 117.101 303.667 108.089 303.696C99.0473 303.716 88.2876 303.726 76.3464 303.745C73.3001 303.765 70.1659 302.486 67.9593 300.162C66.856 299.01 65.9675 297.623 65.411 296.09C64.8251 294.567 64.6396 292.888 64.6689 291.257C64.6787 289.646 64.5908 287.957 65.0302 286.307C65.4403 284.667 66.2116 283.104 67.2856 281.767C69.4337 279.092 72.8608 277.412 76.3953 277.422C90.1818 277.432 103.314 277.432 115.255 277.441C121.231 277.451 126.904 277.461 132.215 277.461C133.543 277.461 134.851 277.461 136.13 277.471C137.4 277.451 138.708 277.49 139.919 277.783C142.36 278.349 144.508 279.677 146.011 281.406C146.773 282.265 147.408 283.202 147.847 284.198C148.101 284.676 148.247 285.204 148.443 285.702C148.56 286.219 148.735 286.717 148.784 287.235C148.823 287.488 148.862 287.742 148.892 287.996C148.901 288.25 148.911 288.504 148.931 288.748C148.97 289.256 148.94 289.734 148.95 290.213C148.94 291.169 148.96 292.097 148.892 293.005C148.589 296.666 146.587 299.42 144.635 300.992C142.623 302.583 140.651 303.15 139.352 303.364C139.02 303.413 138.737 303.452 138.483 303.482C138.239 303.491 138.025 303.491 137.849 303.501C137.497 303.521 137.331 303.511 137.331 303.511Z" fill="#263238"/>
<path d="M231.162 302.954H170.226C163.889 302.954 158.753 297.819 158.753 291.482V288.602C158.753 282.265 163.889 277.129 170.226 277.129H231.162C237.498 277.129 242.634 282.265 242.634 288.602V291.482C242.634 297.819 237.498 302.954 231.162 302.954Z" fill="#6EA3A3"/>
<path d="M326.789 110.177L336.523 106.106C341.2 108.244 346.482 109.172 351.882 108.498C367.426 106.574 378.156 92.2508 375.852 76.5115C373.548 60.7722 359.068 49.5829 343.524 51.5064C327.98 53.4299 317.25 67.7534 319.554 83.4927C320.52 90.0637 323.606 95.8341 328.009 100.199L328 100.189L326.789 110.177Z" fill="white"/>
<path d="M326.789 110.177C326.789 110.177 326.799 109.972 326.847 109.552C326.896 109.103 326.965 108.478 327.052 107.658C327.248 105.94 327.521 103.43 327.882 100.179C327.892 100.12 327.941 100.072 328.009 100.081C328.029 100.081 328.039 100.091 328.058 100.101L328.068 100.111L327.931 100.286C325.236 97.6306 322.19 93.6176 320.433 88.0816C319.534 85.3379 319.056 82.2233 319.085 78.9133C319.114 75.6034 319.72 72.0884 321.077 68.6613C322.434 65.2342 324.553 61.9145 327.404 59.083C330.255 56.2612 333.838 53.9375 337.91 52.551C341.981 51.1938 346.492 50.7349 350.974 51.3598C353.219 51.6234 355.426 52.2971 357.594 53.088C359.712 54.0058 361.821 55.031 363.716 56.437C365.659 57.7356 367.318 59.3661 368.89 61.026C370.355 62.7835 371.732 64.5995 372.757 66.6011C374.895 70.5457 376.086 74.8613 376.33 79.1086C376.604 83.3656 375.852 87.5348 374.387 91.2255C372.923 94.9357 370.726 98.1676 368.139 100.755C365.551 103.352 362.573 105.285 359.546 106.594C358.775 106.887 358.033 107.219 357.271 107.473C356.5 107.687 355.748 107.902 354.997 108.117C354.245 108.302 353.483 108.39 352.751 108.537C352.019 108.683 351.286 108.761 350.564 108.81C344.784 109.24 339.911 107.834 336.455 106.223H336.543C333.36 107.521 330.909 108.517 329.23 109.201C328.429 109.523 327.814 109.777 327.375 109.953C326.994 110.099 326.789 110.177 326.789 110.177C326.789 110.177 327.013 110.07 327.433 109.884C327.873 109.699 328.488 109.425 329.298 109.074C330.948 108.371 333.35 107.336 336.475 105.998C336.504 105.988 336.543 105.988 336.562 105.998C340.009 107.56 344.842 108.908 350.554 108.449C351.267 108.4 351.989 108.312 352.712 108.166C353.434 108.029 354.186 107.931 354.928 107.746C355.66 107.531 356.412 107.316 357.164 107.101C357.916 106.857 358.648 106.525 359.4 106.232C362.378 104.934 365.297 103.01 367.836 100.443C370.375 97.8844 372.523 94.6917 373.958 91.04C375.393 87.3981 376.125 83.2973 375.842 79.1184C375.588 74.9394 374.417 70.6922 372.318 66.8159C371.302 64.8534 369.945 63.0666 368.51 61.3384C366.967 59.7079 365.327 58.1066 363.423 56.8275C361.568 55.4411 359.478 54.4354 357.408 53.5371C355.28 52.7658 353.112 52.1019 350.905 51.8382C346.502 51.2231 342.069 51.6625 338.066 52.9904C334.063 54.3573 330.538 56.6225 327.736 59.3954C324.924 62.1684 322.825 65.4295 321.477 68.798C320.12 72.1665 319.515 75.6327 319.476 78.8938C319.427 82.1549 319.886 85.2403 320.755 87.9546C322.454 93.4321 325.441 97.4353 328.087 100.101C328.136 100.14 328.136 100.218 328.087 100.257C328.048 100.296 327.99 100.296 327.951 100.277C327.941 100.277 327.941 100.267 327.941 100.267L328.107 100.179C327.687 103.391 327.365 105.861 327.14 107.56C327.033 108.39 326.945 109.025 326.886 109.484C326.828 109.943 326.789 110.177 326.789 110.177Z" fill="#263238"/>
<path d="M340.068 84.5178C342.338 84.5178 344.178 82.6774 344.178 80.4072C344.178 78.137 342.338 76.2966 340.068 76.2966C337.797 76.2966 335.957 78.137 335.957 80.4072C335.957 82.6774 337.797 84.5178 340.068 84.5178Z" fill="#71DFDF"/>
<path d="M353.288 77.1752C355.558 77.1752 357.398 75.3349 357.398 73.0647C357.398 70.7945 355.558 68.9541 353.288 68.9541C351.018 68.9541 349.177 70.7945 349.177 73.0647C349.177 75.3349 351.018 77.1752 353.288 77.1752Z" fill="#71DFDF"/>
<path d="M352.555 91.7233C354.826 91.7233 356.666 89.883 356.666 87.6128C356.666 85.3426 354.826 83.5022 352.555 83.5022C350.285 83.5022 348.445 85.3426 348.445 87.6128C348.445 89.883 350.285 91.7233 352.555 91.7233Z" fill="#71DFDF"/>
<path d="M352.799 88.9015L338.085 80.3972L352.819 72.2151L353.766 73.914L342.05 80.4265L353.776 87.2026L352.799 88.9015Z" fill="#71DFDF"/>
<rect x="70.5216" y="76.6147" width="170.708" height="9.21561" fill="#578080"/>
<rect x="70.5217" y="115.233" width="172.464" height="4.38838" fill="#E7E7E7"/>
<rect x="160.922" y="161.311" width="82.0628" height="4.38838" fill="#E7E7E7"/>
<rect x="160.922" y="204.317" width="82.0628" height="4.38838" fill="#E7E7E7"/>
<rect x="70.9605" y="227.136" width="82.0628" height="4.38838" fill="#E7E7E7"/>
<rect x="70.5217" y="126.643" width="172.464" height="4.38838" fill="#E7E7E7"/>
<rect x="160.922" y="172.721" width="82.0628" height="4.38838" fill="#E7E7E7"/>
<rect x="160.922" y="215.727" width="82.0628" height="4.38838" fill="#E7E7E7"/>
<rect x="70.9605" y="238.546" width="82.0628" height="4.38838" fill="#E7E7E7"/>
<rect x="70.5217" y="138.052" width="172.464" height="4.38838" fill="#E7E7E7"/>
<rect x="160.922" y="184.131" width="82.0628" height="4.38838" fill="#E7E7E7"/>
<rect x="160.922" y="227.136" width="82.0628" height="4.38838" fill="#E7E7E7"/>
<rect x="70.9605" y="249.956" width="171.586" height="4.38838" fill="#E7E7E7"/>
<rect x="70.5217" y="149.462" width="172.464" height="4.38838" fill="#E7E7E7"/>
<rect x="160.922" y="195.54" width="82.0628" height="4.38838" fill="#E7E7E7"/>
<rect x="160.922" y="238.546" width="82.0628" height="4.38838" fill="#E7E7E7"/>
<rect x="70.9605" y="261.366" width="171.586" height="4.38838" fill="#E7E7E7"/>
<rect x="70.5217" y="91.9741" width="112.343" height="9.21561" fill="#578080"/>
<rect x="70.5217" y="160.872" width="80.7463" height="61.4374" fill="#6EA3A3"/>
<path opacity="0.5" d="M121.866 185.008L134.027 207.389H109.704L121.866 185.008Z" fill="white"/>
<path d="M106.945 175.354L119.107 207.608H94.7838L106.945 175.354Z" fill="white"/>
<ellipse cx="130.423" cy="181.936" rx="3.73013" ry="3.94955" fill="white"/>
<path d="M343.162 170.938C342.782 167.765 341.385 152.299 341.053 149.955C340.604 146.792 339.081 143.707 336.611 141.685C334.141 139.664 330.44 138.971 327.667 140.553C325.802 141.158 324.416 142.711 324.006 144.634C318.977 168.233 321.584 192.848 320.247 217.004C328.839 217.843 340.263 216.545 348.835 215.539C347.605 196.392 345.662 191.52 343.162 170.938Z" fill="#263238"/>
<path d="M341.669 203.842C341.649 203.842 341.61 203.627 341.561 203.227C341.512 202.758 341.444 202.172 341.366 201.46C341.21 199.839 341.005 197.632 340.741 194.937C340.263 189.352 339.618 181.776 338.906 173.389C338.574 169.18 338.251 165.177 337.958 161.516C337.822 159.7 337.685 157.962 337.558 156.331C337.441 154.71 337.304 153.207 336.963 151.889C336.347 149.204 334.678 147.495 333.311 146.86C331.924 146.196 331.007 146.401 331.026 146.323C331.026 146.313 331.075 146.304 331.182 146.284C331.29 146.274 331.446 146.245 331.651 146.255C332.061 146.255 332.686 146.343 333.409 146.655C334.131 146.968 334.951 147.534 335.674 148.393C336.406 149.243 336.992 150.424 337.353 151.781C337.724 153.138 337.89 154.671 338.027 156.292C338.164 157.913 338.32 159.651 338.476 161.467C338.779 165.119 339.111 169.122 339.462 173.33C340.116 181.717 340.702 189.304 341.132 194.889C341.317 197.593 341.464 199.809 341.571 201.43C341.61 202.153 341.639 202.739 341.659 203.207C341.688 203.627 341.688 203.842 341.669 203.842Z" fill="#455A64"/>
<path d="M333.369 195.553C333.33 195.553 333.262 195.064 333.174 194.166C333.086 193.268 332.979 191.969 332.881 190.358C332.666 187.146 332.452 182.694 332.256 177.782C332.08 172.93 331.924 168.536 331.797 165.207C331.749 163.683 331.709 162.404 331.68 161.399C331.661 160.5 331.661 160.002 331.7 159.993C331.739 159.993 331.807 160.481 331.895 161.379C331.983 162.277 332.09 163.576 332.188 165.187C332.403 168.399 332.618 172.852 332.813 177.763C332.989 182.615 333.145 186.999 333.272 190.339C333.321 191.862 333.36 193.141 333.389 194.147C333.418 195.055 333.408 195.553 333.369 195.553Z" fill="#455A64"/>
<path d="M273.38 204.222L290.418 198.54L316.849 197.632L339.062 204.467L350.476 227.304L341.903 275.518L357.593 306.586L315.57 314.476L278.858 297.438L275.724 295.075L269.485 212.912L273.38 204.222Z" fill="#71DFDF"/>
<path d="M273.381 204.222C273.381 204.222 259.858 209.837 258.442 224.805C257.895 230.575 253.824 257.65 253.824 257.65L234.696 255.375L230.068 270.636C230.068 270.636 251.461 281.786 258.061 283.241C269.465 285.741 274.982 279.296 274.982 279.296L273.381 204.222Z" fill="#71DFDF"/>
<path d="M269.758 222.471C269.778 222.471 269.778 222.725 269.768 223.213C269.748 223.751 269.729 224.453 269.7 225.342C269.651 226.26 269.621 227.392 269.631 228.701C269.631 230.009 269.602 231.503 269.67 233.153C269.709 234.803 269.768 236.609 269.895 238.543C269.983 240.476 270.178 242.546 270.344 244.713C270.744 249.058 271.281 253.813 271.936 258.812C273.254 268.791 274.523 277.832 275.109 284.413C275.275 286.053 275.382 287.547 275.47 288.856C275.568 290.164 275.636 291.297 275.656 292.214C275.685 293.103 275.704 293.806 275.724 294.343C275.734 294.831 275.734 295.085 275.714 295.085C275.695 295.085 275.665 294.831 275.626 294.343C275.587 293.806 275.529 293.103 275.46 292.224C275.402 291.306 275.314 290.184 275.187 288.875C275.07 287.567 274.943 286.083 274.748 284.442C274.074 277.881 272.756 268.859 271.428 258.871C270.774 253.872 270.256 249.097 269.875 244.752C269.719 242.575 269.543 240.505 269.465 238.562C269.348 236.619 269.309 234.813 269.299 233.163C269.25 231.513 269.309 230.019 269.338 228.701C269.348 227.392 269.416 226.26 269.485 225.342C269.553 224.463 269.602 223.751 269.641 223.223C269.709 222.725 269.739 222.471 269.758 222.471Z" fill="#263238"/>
<path d="M233.818 225.322C233.818 225.322 239.637 219.669 241.863 220.362C244.089 221.046 245.974 222.813 245.974 222.813C245.974 222.813 248.2 221.505 249.401 222.813C250.602 224.121 251.793 226.523 251.793 226.523C251.793 226.523 253.911 226.221 255.562 228.955C257.212 231.688 261.254 240.905 262.767 242.448C264.29 243.991 266.107 244.86 268.284 245.621C270.451 246.383 288.632 252.534 288.632 252.534L281.934 269.211C281.934 269.211 255.22 253.579 254.185 252.554C253.15 251.529 245.114 246.217 243.913 242.966C242.712 239.714 233.818 229.784 233.818 229.784V225.322Z" fill="#FFBE9D"/>
<path d="M251.49 231.943C251.51 231.952 251.441 232.197 251.168 232.577C250.904 232.948 250.416 233.466 249.615 233.827L249.713 233.661C249.859 234.667 249.703 236.053 248.883 237.313C248.678 237.625 248.444 237.928 248.141 238.211C247.838 238.475 247.467 238.738 246.969 238.787C246.471 238.836 245.964 238.514 245.739 238.094C245.505 237.684 245.417 237.235 245.349 236.805C245.144 235.282 244.948 233.856 244.802 232.519C244.724 231.845 244.86 231.093 245.28 230.585C245.69 230.078 246.218 229.804 246.667 229.58C247.585 229.15 248.327 228.867 248.766 228.525C249.205 228.203 249.371 227.939 249.41 227.969C249.43 227.979 249.313 228.291 248.883 228.682C248.463 229.082 247.702 229.443 246.833 229.902C246.403 230.136 245.934 230.41 245.622 230.849C245.3 231.279 245.192 231.845 245.27 232.489C245.456 233.817 245.651 235.243 245.856 236.746C245.944 237.547 246.276 238.367 246.93 238.309C247.575 238.25 248.112 237.625 248.493 237.078C249.264 235.936 249.459 234.667 249.381 233.72L249.371 233.593L249.488 233.554C250.24 233.271 250.728 232.821 251.021 232.499C251.334 232.138 251.461 231.923 251.49 231.943Z" fill="#EB996E"/>
<path d="M253.179 236.893C253.13 237.02 252.252 236.678 251.627 235.74C250.992 234.813 251.002 233.876 251.139 233.866C251.285 233.846 251.49 234.647 252.047 235.448C252.593 236.278 253.257 236.766 253.179 236.893Z" fill="#EB996E"/>
<path d="M252.525 247.633C252.369 247.623 252.437 245.944 251.803 244.01C251.187 242.067 250.162 240.739 250.279 240.642C250.367 240.544 251.637 241.804 252.291 243.854C252.945 245.895 252.642 247.662 252.525 247.633Z" fill="#EB996E"/>
<path d="M245.515 233.7C245.544 233.71 245.466 234.003 245.27 234.51C245.056 234.999 244.743 235.789 243.894 236.385C243.474 236.668 242.908 236.893 242.263 236.805C241.629 236.717 241.043 236.258 240.691 235.672C240.33 235.096 240.125 234.423 239.959 233.739C239.803 233.065 239.637 232.353 239.568 231.601C239.393 230.078 239.881 228.594 240.584 227.51C241.287 226.397 242.156 225.586 242.908 224.981C243.669 224.376 244.323 223.946 244.782 223.663C245.241 223.38 245.505 223.233 245.524 223.262C245.573 223.331 244.587 224.014 243.142 225.254C242.429 225.889 241.629 226.69 240.984 227.754C240.34 228.808 239.92 230.136 240.076 231.562C240.144 232.274 240.291 232.968 240.447 233.632C240.594 234.296 240.789 234.92 241.092 235.428C241.384 235.946 241.834 236.297 242.332 236.385C242.82 236.473 243.318 236.317 243.698 236.082C244.47 235.604 244.831 234.872 245.095 234.423C245.349 233.954 245.485 233.69 245.515 233.7Z" fill="#EB996E"/>
<g opacity="0.3">
<path d="M325.109 277.295C323.449 278.945 321.604 280.634 319.29 281.015C317.249 281.357 315.199 280.605 313.256 279.863C302.301 275.694 291.346 271.524 280.401 267.365L277.745 270.997C289.052 280.175 303.18 288.211 317.132 291.579C321.663 292.673 326.779 291.657 330.538 288.924C333.467 286.795 335.254 283.456 336.728 280.146C340.146 272.452 342.372 264.221 343.299 255.854C337.871 263.499 331.768 270.685 325.109 277.295Z" fill="#6EA3A3"/>
</g>
<path d="M333.584 214.904C332.754 215.783 313.647 256.576 313.647 256.576L276.564 248.287L272.385 268.703C272.385 268.703 306.001 283.622 314.799 286.268C320.413 287.967 324.289 287.606 329.786 282.362C335.283 277.119 349.236 243.336 350.788 236.541C352.272 230.077 357.603 212.902 339.072 204.467L333.584 214.904Z" fill="#71DFDF"/>
<path d="M247.897 241.237L221.222 204.271C220.724 203.578 219.816 203.246 218.947 203.442L192.35 209.495C190.886 209.827 190.232 211.438 191.091 212.61L218.459 250.015C219.074 250.855 220.255 251.128 221.212 250.659L224.054 249.253C224.22 249.175 224.395 249.107 224.581 249.068L246.598 244.342C248.073 244.03 248.746 242.409 247.897 241.237Z" fill="#263238"/>
<path d="M247.897 241.237C247.897 241.237 248.004 241.335 248.121 241.579C248.239 241.823 248.385 242.243 248.278 242.78C248.18 243.307 247.789 243.961 247.047 244.284C246.286 244.547 245.417 244.674 244.44 244.918C240.486 245.787 234.804 247.037 227.793 248.57C226.914 248.765 226.016 248.96 225.098 249.156C224.61 249.253 224.249 249.361 223.8 249.605C223.37 249.82 222.931 250.034 222.491 250.259C222.042 250.474 221.632 250.698 221.144 250.923C220.636 251.128 220.06 251.157 219.523 250.991C218.996 250.845 218.498 250.454 218.205 250.005C217.893 249.585 217.59 249.165 217.277 248.736C214.768 245.328 212.093 241.677 209.281 237.849C203.657 230.175 197.476 221.739 190.984 212.883C190.515 212.317 190.329 211.428 190.622 210.715C190.886 209.983 191.55 209.436 192.282 209.28C193.61 208.978 194.918 208.675 196.227 208.382C198.834 207.786 201.402 207.2 203.93 206.634C208.978 205.492 213.85 204.389 218.488 203.334C218.771 203.275 219.074 203.178 219.406 203.178C219.728 203.168 220.06 203.227 220.363 203.344C220.666 203.461 220.939 203.637 221.173 203.871C221.417 204.105 221.554 204.359 221.73 204.594C222.403 205.531 223.077 206.458 223.731 207.376C225.05 209.202 226.329 210.979 227.559 212.698C230.029 216.134 232.324 219.337 234.423 222.266C238.592 228.105 241.98 232.84 244.333 236.14C245.485 237.771 246.383 239.04 247.008 239.929C247.301 240.349 247.526 240.681 247.692 240.925C247.828 241.11 247.897 241.227 247.897 241.237C247.887 241.247 247.799 241.13 247.633 240.915C247.457 240.681 247.213 240.358 246.911 239.948C246.266 239.07 245.339 237.82 244.157 236.219C241.775 232.948 238.348 228.242 234.12 222.442C232.001 219.532 229.687 216.339 227.207 212.912C225.967 211.194 224.678 209.427 223.36 207.601C222.696 206.693 222.032 205.765 221.349 204.818C221.007 204.32 220.705 203.92 220.187 203.744C219.943 203.646 219.679 203.607 219.416 203.607C219.162 203.607 218.889 203.686 218.586 203.754C213.948 204.818 209.076 205.931 204.028 207.083C201.499 207.659 198.931 208.245 196.324 208.841C195.026 209.134 193.708 209.436 192.39 209.739C191.804 209.876 191.286 210.296 191.081 210.862C190.866 211.428 190.984 212.053 191.384 212.551C197.857 221.417 204.038 229.862 209.652 237.546C212.454 241.393 215.12 245.045 217.609 248.462C217.922 248.892 218.234 249.312 218.537 249.732C218.81 250.152 219.181 250.435 219.631 250.571C220.07 250.708 220.558 250.689 220.988 250.523C221.417 250.327 221.876 250.093 222.306 249.878C222.745 249.663 223.185 249.449 223.614 249.234C224.015 249.009 224.571 248.833 225.001 248.765C225.918 248.57 226.827 248.384 227.705 248.199C234.735 246.724 240.428 245.533 244.392 244.703C245.368 244.479 246.276 244.362 246.989 244.127C247.692 243.844 248.073 243.239 248.18 242.741C248.297 242.233 248.18 241.833 248.082 241.589C247.965 241.354 247.877 241.247 247.897 241.237Z" fill="#455A64"/>
<path d="M247.458 243.747C247.448 243.756 247.272 243.551 246.96 243.151C246.618 242.712 246.169 242.116 245.612 241.374C244.431 239.773 242.761 237.537 240.721 234.793C236.6 229.169 230.966 221.466 224.747 212.961C223.194 210.852 221.681 208.685 220.207 206.781C219.797 206.38 219.269 206.107 218.713 206C218.137 205.883 217.619 205.961 217.024 206.117C215.852 206.38 214.71 206.644 213.597 206.888C209.144 207.884 205.122 208.782 201.724 209.544C198.375 210.276 195.66 210.872 193.708 211.292C192.8 211.477 192.067 211.633 191.521 211.741C191.023 211.838 190.759 211.877 190.749 211.868C190.749 211.848 191.003 211.77 191.491 211.643C192.028 211.506 192.751 211.331 193.649 211.096C195.582 210.637 198.297 209.983 201.626 209.192C205.014 208.402 209.027 207.464 213.47 206.429C214.583 206.175 215.725 205.912 216.897 205.638C217.453 205.492 218.156 205.365 218.791 205.511C219.435 205.629 220.06 205.941 220.539 206.42C222.12 208.441 223.556 210.52 225.137 212.659C231.318 221.202 236.913 228.935 240.994 234.578C242.976 237.361 244.597 239.636 245.749 241.257C246.276 242.018 246.706 242.634 247.018 243.092C247.331 243.512 247.477 243.737 247.458 243.747Z" fill="#455A64"/>
<path d="M208.773 216.144C209.55 216.144 210.179 215.611 210.179 214.953C210.179 214.295 209.55 213.762 208.773 213.762C207.997 213.762 207.367 214.295 207.367 214.953C207.367 215.611 207.997 216.144 208.773 216.144Z" fill="white"/>
<path d="M217.541 222.588C217.424 223.301 212.688 237.683 211.976 239.079C211.263 240.475 211.976 243.2 211.976 243.2C211.976 243.2 210.316 246.636 212.923 248.999C212.923 248.999 213.118 252.075 214.495 252.67C215.881 253.266 216.945 254.682 216.945 254.682C216.945 254.682 224.766 265.344 225.586 266.408C226.416 267.472 230.049 270.616 230.049 270.616C230.049 270.616 241.091 266.594 235.233 256.078L231.913 253.969L233.046 245.465C233.046 245.465 235.77 243.317 235.175 241.891C234.579 240.466 233.398 241.061 233.398 241.061C233.398 241.061 234.442 238.103 231.904 237.624L222.14 242.34C222.14 242.34 229.365 235.057 228.301 233.045C227.237 231.034 226.758 231.356 226.758 231.356L217.404 239.275C217.404 239.275 219.728 230.555 220.363 227.773C221.564 222.588 217.541 222.588 217.541 222.588Z" fill="#FFBE9D"/>
<path d="M233.28 241.53C233.329 241.569 232.694 242.34 231.523 243.434C230.351 244.537 228.623 245.943 226.543 247.242C224.464 248.54 222.442 249.478 220.939 250.054C219.435 250.63 218.469 250.864 218.449 250.806C218.42 250.727 219.347 250.376 220.792 249.722C222.247 249.077 224.21 248.091 226.26 246.812C228.311 245.523 230.048 244.186 231.269 243.16C232.499 242.145 233.222 241.471 233.28 241.53Z" fill="#EB996E"/>
<path d="M226.778 231.366C226.827 231.405 226.241 232.147 225.147 233.202C224.063 234.256 222.482 235.623 220.675 237.058C217.063 239.919 213.88 241.901 213.772 241.735C213.743 241.677 214.505 241.159 215.706 240.241C216.906 239.333 218.557 238.074 220.363 236.658C222.159 235.233 223.77 233.915 224.903 232.938C226.045 231.952 226.719 231.317 226.778 231.366Z" fill="#EB996E"/>
<path d="M231.816 243.825C231.796 243.815 231.991 243.61 232.411 243.698C232.802 243.785 233.368 244.215 233.417 245.016C233.437 245.787 232.9 246.539 232.323 247.203C231.747 247.886 231.093 248.619 230.38 249.361C228.955 250.845 227.559 252.085 226.504 252.924C225.45 253.764 224.747 254.223 224.708 254.174C224.61 254.057 227.188 251.958 230.009 249.009C230.712 248.277 231.376 247.554 231.962 246.9C232.558 246.256 233.026 245.621 233.046 245.016C233.065 244.44 232.636 244 232.343 243.893C232.04 243.756 231.826 243.864 231.816 243.825Z" fill="#EB996E"/>
<path d="M230.918 253.628C230.8 253.706 230.302 253.149 229.599 252.583C228.906 252.007 228.262 251.636 228.311 251.499C228.359 251.372 229.15 251.558 229.922 252.192C230.693 252.807 231.035 253.559 230.918 253.628Z" fill="#EB996E"/>
<path d="M231.191 259.623C231.249 259.632 231.249 260.13 230.927 260.853C230.615 261.566 229.922 262.483 228.818 263.04C227.715 263.587 226.563 263.587 225.801 263.411C225.03 263.235 224.639 262.933 224.669 262.884C224.698 262.806 225.137 262.981 225.86 263.06C226.573 263.138 227.608 263.079 228.584 262.591C229.56 262.103 230.234 261.312 230.595 260.697C230.986 260.062 231.113 259.603 231.191 259.623Z" fill="#EB996E"/>
<path d="M232.069 237.722C232.099 237.781 231.269 238.279 229.892 238.992C228.515 239.714 226.582 240.661 224.415 241.628C222.247 242.604 220.255 243.415 218.8 243.971C217.346 244.528 216.428 244.821 216.399 244.752C216.369 244.684 217.238 244.274 218.664 243.639C220.245 242.936 222.13 242.097 224.2 241.169C226.27 240.232 228.144 239.382 229.726 238.67C231.152 238.035 232.03 237.654 232.069 237.722Z" fill="#EB996E"/>
<path d="M329.903 222.471C329.903 222.471 329.825 222.686 329.64 223.096C329.444 223.516 329.171 224.122 328.81 224.893C328.068 226.484 326.984 228.798 325.597 231.747C322.785 237.693 318.743 246.227 313.813 256.664L313.744 256.811L313.588 256.772C302.984 254.419 290.331 251.597 276.495 248.531L276.788 248.336C275.45 254.868 274.054 261.722 272.609 268.752L272.463 268.469C273.39 268.879 274.386 269.318 275.382 269.758C288.016 275.274 300.046 280.537 311.196 284.784C313.988 285.809 316.751 286.815 319.544 286.942C322.346 287.088 324.953 285.956 327.043 284.384C328.097 283.603 329.112 282.763 329.952 281.836C330.362 281.367 330.782 280.908 331.114 280.371C331.456 279.853 331.837 279.365 332.139 278.828C332.764 277.774 333.389 276.739 333.926 275.694C334.492 274.659 335.01 273.634 335.518 272.618C339.501 264.524 342.255 257.738 344.207 253.091C345.154 250.767 345.887 248.961 346.404 247.701C346.648 247.096 346.844 246.637 346.97 246.305C347.097 245.992 347.176 245.836 347.176 245.836C347.176 245.836 347.127 246.002 347.019 246.324C346.892 246.666 346.717 247.135 346.492 247.74C346.023 248.99 345.32 250.816 344.383 253.159C342.489 257.846 339.784 264.641 335.84 272.775C335.342 273.79 334.824 274.825 334.258 275.87C333.721 276.924 333.106 277.969 332.471 279.033C332.169 279.57 331.788 280.078 331.436 280.605C331.104 281.142 330.675 281.63 330.245 282.119C329.376 283.085 328.37 283.925 327.287 284.726C326.203 285.516 325.021 286.229 323.713 286.717C322.405 287.206 320.969 287.45 319.534 287.381C316.634 287.264 313.842 286.229 311.04 285.224C299.85 280.996 287.811 275.733 275.177 270.217C274.181 269.777 273.175 269.338 272.258 268.928L272.072 268.85L272.111 268.645C273.556 261.605 274.962 254.76 276.3 248.228L276.349 247.984L276.593 248.043C290.418 251.158 303.072 253.999 313.666 256.381L313.442 256.489C318.441 246.08 322.532 237.576 325.383 231.649C326.808 228.72 327.921 226.426 328.693 224.844C329.073 224.082 329.366 223.487 329.571 223.067C329.786 222.667 329.903 222.471 329.903 222.471Z" fill="#263238"/>
<path d="M318.265 146.001C317.337 143.57 317.699 140.865 317.337 138.297C316.537 132.634 311.977 128.084 306.704 125.878C301.793 123.818 295.798 124.257 289.881 126.161C285.829 127.469 282.012 129.744 279.297 133.035C275.704 137.399 274.435 143.57 276.007 148.998L304.986 144.82C307.7 147.065 310.473 149.35 313.754 150.609C314.721 150.981 315.756 151.254 316.781 151.098C317.806 150.941 318.792 150.248 319.036 149.243C319.319 148.129 318.665 147.055 318.265 146.001Z" fill="#263238"/>
<path d="M300.26 124.413C306.607 123.339 312.172 125.79 317.523 129.373C322.864 132.956 326.886 138.356 329.21 144.361C331.651 150.678 332.266 159.826 330.372 166.329C328.478 172.832 323.889 177.587 317.943 179.686C309.214 182.771 299.138 182.391 291.766 176.806C284.394 171.211 280.186 161.984 279.844 152.738C279.61 146.372 281.143 139.85 284.707 134.567C288.261 129.275 293.953 125.331 300.26 124.413Z" fill="#263238"/>
<path d="M290.419 198.55C290.419 198.54 290.419 198.56 290.419 198.569C290.448 199.077 290.467 199.634 290.497 200.229C290.497 200.229 290.487 200.385 290.477 200.669C290.79 204.164 292.42 210.774 300.241 210.872C310.054 210.999 317.474 200.161 318.587 198.452L318.958 144.605C318.919 142.154 317.005 140.143 314.555 139.977L289.266 134.587C281.211 134.04 276.251 144.116 276.046 152.191C275.822 161.154 275.89 172.109 277.208 178.749C279.844 192.086 290.194 193.414 290.194 193.414C290.184 193.355 290.243 194.888 290.419 198.55Z" fill="#FFBE9D"/>
<path d="M279.873 162.024C279.873 162.932 280.645 163.683 281.602 163.693C282.549 163.713 283.32 162.98 283.32 162.072C283.32 161.164 282.549 160.413 281.602 160.393C280.645 160.393 279.873 161.116 279.873 162.024Z" fill="#263238"/>
<path d="M278.624 157.356C278.848 157.571 280.118 156.556 281.963 156.497C283.808 156.409 285.205 157.308 285.4 157.073C285.497 156.966 285.263 156.575 284.658 156.165C284.062 155.755 283.047 155.374 281.895 155.423C280.742 155.472 279.786 155.931 279.249 156.39C278.692 156.839 278.516 157.259 278.624 157.356Z" fill="#263238"/>
<path d="M296.472 161.633C296.472 162.541 297.244 163.293 298.2 163.302C299.147 163.322 299.919 162.59 299.919 161.682C299.919 160.774 299.147 160.022 298.2 160.002C297.244 160.002 296.472 160.725 296.472 161.633Z" fill="#263238"/>
<path d="M296.218 156.927C296.443 157.142 297.712 156.126 299.557 156.068C301.403 155.98 302.799 156.878 302.994 156.644C303.092 156.536 302.858 156.146 302.252 155.736C301.657 155.325 300.641 154.945 299.489 154.993C298.337 155.042 297.38 155.501 296.843 155.96C296.287 156.419 296.101 156.829 296.218 156.927Z" fill="#263238"/>
<path d="M290.643 171.006C290.643 170.899 289.491 170.743 287.616 170.577C287.138 170.547 286.689 170.469 286.601 170.147C286.474 169.805 286.659 169.288 286.865 168.731C287.265 167.569 287.685 166.349 288.124 165.08C289.872 159.876 291.122 155.609 290.907 155.54C290.692 155.472 289.11 159.631 287.362 164.836C286.943 166.115 286.542 167.335 286.162 168.507C286.005 169.054 285.722 169.669 285.986 170.372C286.122 170.723 286.484 170.967 286.786 171.036C287.089 171.114 287.362 171.114 287.597 171.114C289.471 171.143 290.633 171.104 290.643 171.006Z" fill="#263238"/>
<path d="M290.184 192.965C290.184 192.965 299.235 193.209 307.974 187.497C307.974 187.497 303.805 196.958 290.321 196.207L290.184 192.965Z" fill="#EB996E"/>
<path d="M291.59 175.439C292.225 174.531 293.377 174.004 294.539 174.092C295.349 174.15 296.169 174.502 296.687 175.146C297.204 175.781 297.341 176.708 296.921 177.353C296.443 178.075 295.408 178.28 294.519 178.056C293.621 177.841 292.84 177.285 292.098 176.728C291.893 176.572 291.678 176.416 291.551 176.201C291.414 175.986 291.385 175.703 291.532 175.508" fill="#EB996E"/>
<path d="M296.14 172.08C295.837 172.07 295.906 174.081 294.246 175.575C292.586 177.069 290.428 176.923 290.428 177.206C290.409 177.333 290.916 177.577 291.825 177.567C292.713 177.567 294.002 177.235 295.017 176.317C296.033 175.4 296.443 174.218 296.482 173.388C296.521 172.549 296.277 172.06 296.14 172.08Z" fill="#263238"/>
<path d="M296.326 151.429C296.531 151.927 298.366 151.615 300.553 151.8C302.74 151.937 304.517 152.503 304.791 152.044C304.908 151.82 304.586 151.361 303.863 150.902C303.141 150.443 302.008 150.023 300.7 149.926C299.391 149.828 298.2 150.082 297.429 150.433C296.628 150.785 296.238 151.195 296.326 151.429Z" fill="#263238"/>
<path d="M278.858 149.233C279.2 149.643 280.459 149.155 281.992 149.076C283.525 148.95 284.834 149.252 285.117 148.803C285.244 148.588 285.019 148.168 284.433 147.797C283.857 147.426 282.91 147.133 281.856 147.202C280.801 147.27 279.903 147.69 279.385 148.139C278.868 148.598 278.712 149.037 278.858 149.233Z" fill="#263238"/>
<path d="M322.912 142.095C320.296 134.391 308.862 123.876 300.758 124.598L287.948 132.614C288.817 137.018 292.293 140.796 296.609 142.027C298.913 142.681 301.676 142.818 303.072 144.77C304.498 146.752 303.746 149.701 305.074 151.752C306.919 154.593 311.83 154.368 313.227 157.454C313.842 158.801 313.559 160.432 314.203 161.769C315.053 163.546 319.642 165.743 321.516 165.108C323.391 164.474 323.332 161.271 323.918 159.582C324.914 156.692 324.455 155.218 324.074 153.616C323.186 149.838 324.152 145.776 322.912 142.095Z" fill="#263238"/>
<path d="M315.99 166.798C315.951 165.802 317.025 163.4 318.001 163.205C320.618 162.697 325.383 162.726 325.676 169.424C326.076 178.573 316.81 177.089 316.781 176.825C316.771 176.62 316.117 170.244 315.99 166.798Z" fill="#FFBE9D"/>
<path d="M319.437 173.232C319.476 173.203 319.602 173.339 319.876 173.447C320.14 173.554 320.598 173.622 321.067 173.417C322.014 173.017 322.766 171.445 322.737 169.795C322.727 168.965 322.512 168.174 322.19 167.53C321.877 166.876 321.428 166.426 320.94 166.358C320.452 166.27 320.12 166.573 320.022 166.837C319.915 167.1 319.974 167.276 319.925 167.295C319.905 167.325 319.72 167.149 319.778 166.768C319.808 166.583 319.905 166.368 320.11 166.182C320.325 165.997 320.637 165.889 320.979 165.909C321.682 165.929 322.346 166.544 322.707 167.256C323.098 167.959 323.362 168.848 323.371 169.785C323.391 171.631 322.532 173.398 321.223 173.837C320.589 174.033 320.042 173.867 319.759 173.661C319.456 173.456 319.397 173.251 319.437 173.232Z" fill="#EB996E"/>
<path d="M331.202 154.281C331.27 154.29 331.514 153.255 331.544 151.537C331.583 149.828 331.329 147.426 330.499 144.937C329.659 142.447 328.41 140.377 327.355 139.039C326.291 137.692 325.471 137.008 325.422 137.057C325.256 137.174 328.322 140.221 329.923 145.132C331.602 150.014 330.997 154.29 331.202 154.281Z" fill="#71DFDF"/>
<path d="M290.604 129.852C289.755 133.572 284.091 138.346 281.602 141.236C276.857 146.762 275.958 147.573 275.997 164.25C273.761 159.973 272.004 152.513 272.18 147.69C272.355 142.867 274.142 138.043 277.491 134.577C280.85 131.121 285.829 129.158 290.604 129.852Z" fill="#263238"/>
<path d="M327.57 141.988C327.58 142.027 327.023 142.164 326.017 142.369C325.51 142.486 324.895 142.603 324.162 142.691C323.44 142.789 322.61 142.925 321.692 142.974C319.856 143.15 317.65 143.17 315.209 143.033C312.768 142.857 310.102 142.486 307.359 141.822C304.615 141.139 302.077 140.231 299.831 139.264C297.605 138.258 295.652 137.223 294.1 136.218C293.299 135.749 292.635 135.241 292.039 134.821C291.434 134.411 290.936 134.011 290.545 133.679C289.745 133.025 289.315 132.654 289.345 132.625C289.364 132.595 289.843 132.918 290.672 133.513C291.083 133.816 291.59 134.187 292.215 134.568C292.83 134.958 293.504 135.437 294.305 135.886C295.867 136.843 297.81 137.839 300.026 138.805C302.262 139.733 304.771 140.611 307.486 141.295C310.2 141.949 312.836 142.32 315.248 142.525C317.66 142.691 319.847 142.701 321.673 142.584C322.59 142.564 323.411 142.447 324.133 142.379C324.856 142.32 325.48 142.232 325.988 142.154C326.994 142.008 327.57 141.949 327.57 141.988Z" fill="#455A64"/>
<path d="M328.517 148.549C328.527 148.589 328.146 148.676 327.453 148.803C326.759 148.94 325.754 149.077 324.504 149.174C322.004 149.379 318.489 149.321 314.721 148.579C310.942 147.827 307.681 146.558 305.435 145.415C304.312 144.849 303.434 144.341 302.848 143.951C302.262 143.57 301.95 143.345 301.969 143.306C302.018 143.228 303.346 144.029 305.611 145.064C307.866 146.109 311.108 147.3 314.828 148.042C318.548 148.774 322.004 148.891 324.484 148.784C326.974 148.686 328.507 148.452 328.517 148.549Z" fill="#455A64"/>
<path d="M330.831 148.774C330.86 148.764 330.997 149.252 331.143 150.151C331.3 151.049 331.427 152.357 331.515 153.978C331.602 155.599 331.622 157.532 331.515 159.68C331.388 161.818 331.183 164.191 330.577 166.612C329.288 171.504 326.174 175.156 323.469 176.972C322.122 177.899 320.911 178.456 320.071 178.798C319.232 179.139 318.743 179.276 318.734 179.247C318.714 179.208 319.173 179.003 319.983 178.602C320.784 178.202 321.946 177.597 323.235 176.65C324.533 175.712 325.91 174.375 327.121 172.646C328.292 170.889 329.484 168.858 330.021 166.476C330.616 164.113 330.831 161.769 330.987 159.651C331.124 157.522 331.144 155.609 331.104 153.997C331.065 152.386 330.997 151.078 330.909 150.18C330.851 149.282 330.782 148.784 330.831 148.774Z" fill="#455A64"/>
<path d="M261.859 276.699C261.761 276.68 262.015 275.44 262.005 273.429C262.015 272.423 261.898 271.222 261.683 269.914C261.429 268.615 261.049 267.199 260.492 265.774C259.906 264.358 259.203 263.079 258.471 261.966C257.719 260.872 256.967 259.935 256.264 259.212C254.868 257.758 253.833 257.045 253.892 256.967C253.911 256.937 254.185 257.103 254.653 257.426C254.897 257.582 255.181 257.787 255.483 258.05C255.796 258.314 256.167 258.597 256.518 258.968C257.27 259.671 258.071 260.599 258.852 261.712C259.613 262.835 260.355 264.143 260.951 265.598C261.527 267.062 261.908 268.508 262.132 269.845C262.337 271.193 262.406 272.413 262.357 273.438C262.357 273.956 262.289 274.415 262.25 274.815C262.211 275.225 262.152 275.567 262.084 275.84C261.976 276.406 261.898 276.709 261.859 276.699Z" fill="#263238"/>
<path d="M265.677 271.642C265.589 271.651 265.433 270.665 264.944 269.152C264.466 267.638 263.578 265.598 262.181 263.616C260.775 261.634 259.154 260.12 257.885 259.154C256.616 258.187 255.737 257.709 255.786 257.631C255.805 257.601 256.03 257.689 256.44 257.884C256.85 258.07 257.426 258.402 258.1 258.861C259.447 259.769 261.156 261.282 262.601 263.313C264.036 265.354 264.896 267.472 265.296 269.044C265.501 269.835 265.618 270.48 265.657 270.929C265.706 271.388 265.716 271.642 265.677 271.642Z" fill="#263238"/>
</g>
</svg>
