<svg width="108" height="93" viewBox="0 0 108 93" fill="none" xmlns="http://www.w3.org/2000/svg">
<rect x="83" y="41" width="21.9595" height="21.9595" rx="2" fill="#71DFDF"/>
<rect y="15.0002" width="70" height="43" rx="4" fill="#49A6A6"/>
<rect x="41.5" y="53.5002" width="66" height="39" rx="1.5" stroke="#025A66"/>
<rect x="22.0199" y="4.55344" width="66" height="64.339" transform="rotate(-2.82347 22.0199 4.55344)" fill="white" stroke="#025A66"/>
<rect x="30.792" y="28.085" width="50.8741" height="5" transform="rotate(-3.12834 30.792 28.085)" fill="#E3E3E3"/>
<rect x="30.792" y="46.085" width="22.3874" height="5" transform="rotate(-3.12834 30.792 46.085)" fill="#E3E3E3"/>
<rect x="60" y="44.2217" width="22.3874" height="5" transform="rotate(-3.12834 60 44.2217)" fill="#E3E3E3"/>
<rect x="65" y="54.9257" width="16.9619" height="6.92615" transform="rotate(-3.12834 65 54.9257)" fill="#49A6A6"/>
<line x1="30.9723" y1="43.5008" x2="48.9723" y2="42.5008" stroke="#6EA3A3"/>
<line x1="59.9723" y1="41.5008" x2="77.9723" y2="40.5008" stroke="#6EA3A3"/>
<line x1="30.9723" y1="24.5008" x2="48.9723" y2="23.5008" stroke="#6EA3A3"/>
<path d="M33.8427 14.8399L33.7797 13.8098L30.6775 13.9997L30.5096 11.2568L33.6118 11.0669L33.5487 10.0369L29.2967 10.2971L29.8099 18.6814L30.9597 18.611L30.7405 15.0297L33.8427 14.8399ZM37.7843 12.0379C36.0356 12.1449 34.8151 13.6142 34.9221 15.3629C35.0291 17.1116 36.4197 18.4211 38.1684 18.3141C39.9172 18.2071 41.1377 16.7378 41.0307 14.989C40.9236 13.2403 39.533 11.9308 37.7843 12.0379ZM39.9167 15.0572C39.9878 16.2191 39.2328 17.2391 38.1069 17.308C36.981 17.3769 36.1071 16.4566 36.036 15.2947C35.9649 14.1329 36.72 13.1129 37.8459 13.044C38.9718 12.9751 39.8456 13.8954 39.9167 15.0572ZM43.4435 11.8358L42.3536 11.9025L42.7201 17.8913L43.8101 17.8246L43.5645 13.8121C43.8962 13.1425 44.3174 12.7561 44.9282 12.7187C45.1558 12.7048 45.3137 12.7312 45.4985 12.804L45.631 11.6297C45.4005 11.5958 45.2314 11.5821 44.9798 11.5975C44.333 11.637 43.8241 12.1611 43.5044 12.8299L43.4435 11.8358ZM56.0682 17.0743L55.8776 13.9601C55.8211 13.0379 55.6381 12.2075 55.1851 11.6822C54.8226 11.2595 54.2915 11.0276 53.489 11.0767C52.6745 11.1265 51.9426 11.544 51.4723 12.3062C51.4313 12.2245 51.3768 12.1197 51.3117 12.0395C50.9052 11.4873 50.291 11.2724 49.5963 11.3149C48.9016 11.3574 48.1846 11.8221 47.7803 12.484L47.7246 11.5737L46.6346 11.6405L47.0012 17.6292L48.0911 17.5625L47.8448 13.5381C48.2063 12.9629 48.8194 12.3724 49.4303 12.335C49.8854 12.3071 50.1831 12.4572 50.3782 12.6977C50.7167 13.1218 50.7712 13.8158 50.8064 14.3907L50.9897 17.3851L52.0797 17.3184L51.8891 14.2042C51.8671 13.8449 51.8211 13.4871 51.7549 13.1906C52.1621 12.5765 52.772 12.1304 53.3469 12.0952C53.862 12.0637 54.1971 12.2356 54.4063 12.5113C54.7082 12.9256 54.7598 13.5717 54.795 14.1466L54.9782 17.141L56.0682 17.0743Z" fill="#49A6A6"/>
</svg>
