<svg width="112" height="95" viewBox="0 0 112 95" fill="none" xmlns="http://www.w3.org/2000/svg">
<rect x="31" width="81" height="37" rx="4" fill="#49A6A6"/>
<rect x="0.5" y="26.5" width="48" height="31" rx="3.5" stroke="#76BCBC"/>
<path d="M95.9821 24.7414L30.3174 20.6267L26 89.5266L91.6648 93.6413L95.9821 24.7414Z" fill="#ADF8F8" stroke="#263238" stroke-miterlimit="10" stroke-linecap="round" stroke-linejoin="round"/>
<path d="M85.993 16.4551L37.1628 13.3953L35.4476 40.7677L84.2778 43.8275L85.993 16.4551Z" fill="#6EA3A3"/>
<path d="M85.0278 31.8084L74.5579 24.0953L62.7626 34.4965L55.5621 24.9467L35.9811 40.4914L35.4476 40.7708L84.2745 43.8304L85.0278 31.8084Z" fill="#ADF8F8" stroke="#263238" stroke-miterlimit="10" stroke-linecap="round" stroke-linejoin="round"/>
<path d="M44.1069 24.045C46.252 24.1794 48.1 22.5494 48.2344 20.4042C48.3689 18.259 46.7388 16.4111 44.5937 16.2767C42.4485 16.1422 40.6005 17.7723 40.4661 19.9174C40.3317 22.0626 41.9617 23.9106 44.1069 24.045Z" fill="#ADF8F8" stroke="#263238" stroke-miterlimit="10" stroke-linecap="round" stroke-linejoin="round"/>
<path d="M35.5144 42.633L83.9751 45.6696" stroke="#263238" stroke-miterlimit="10"/>
<path d="M35.3755 44.8497L64.4153 46.6694" stroke="#263238" stroke-miterlimit="10"/>
<path d="M17.5 43.5378V7.54087L105.5 14.4622V50.4591L17.5 43.5378Z" fill="white" stroke="#455A64"/>
<path d="M106.241 63.8826L106.241 63.8826L106.247 63.8884C106.397 64.0393 106.465 64.1756 106.489 64.2972C106.513 64.4187 106.502 64.57 106.419 64.7658L106.417 64.7699C106.332 64.9782 106.23 65.0991 106.129 65.17C106.03 65.2393 105.897 65.2857 105.703 65.2857H98.083H97.339L97.62 65.9746L101.628 75.7979C101.715 76.027 101.712 76.2318 101.629 76.4388C101.543 76.6516 101.407 76.7965 101.206 76.8936L97.688 78.4365C97.4772 78.5228 97.2931 78.5192 97.1041 78.4376C96.9074 78.3528 96.7653 78.2151 96.6678 77.9984L92.8609 68.6732L92.5711 67.9634L92.0383 68.5148L85.8147 74.9567C85.6508 75.1264 85.4792 75.1964 85.2766 75.1964C85.1915 75.1964 85.0996 75.1786 84.9977 75.1348C84.8035 75.0491 84.6878 74.9462 84.6177 74.8392C84.5476 74.732 84.5 74.5856 84.5 74.375V43.3214C84.5 43.1108 84.5476 42.9644 84.6177 42.8572C84.6878 42.7502 84.8035 42.6473 84.9975 42.5617C85.0995 42.5179 85.1915 42.5 85.2766 42.5C85.4975 42.5 85.6622 42.5733 85.8055 42.7299L85.8053 42.73L85.8147 42.7397L106.241 63.8826Z" fill="white" stroke="#013E46"/>
<path d="M38.2426 32.8391L39.1876 20.2745L37.4644 20.1449L37.0648 25.4579L30.4236 24.9584L30.8232 19.6455L29.1 19.5159L28.1551 32.0804L29.8782 32.21L30.3075 26.5021L36.9487 27.0016L36.5194 32.7095L38.2426 32.8391ZM49.1761 22.5781L49.2922 21.0345L41.2509 20.4297L41.1348 21.9734L44.2939 22.211L43.465 33.2318L45.1881 33.3614L46.017 22.3406L49.1761 22.5781ZM58.4838 23.2782L58.5999 21.7345L50.5586 21.1298L50.4425 22.6734L53.6016 22.911L52.7727 33.9319L54.4958 34.0615L55.3247 23.0406L58.4838 23.2782ZM68.5718 26.2572C68.7784 23.5109 66.4488 22.3249 64.4205 22.1723L60.6691 21.8902L59.7241 34.4547L61.4472 34.5843L61.8252 29.5585L63.8535 29.711C65.8997 29.8649 68.3626 29.0393 68.5718 26.2572ZM66.737 26.1733C66.6155 27.7887 65.262 28.2646 63.5209 28.1336L61.9413 28.0148L62.2761 23.5634L64.2147 23.7092C65.8121 23.8293 66.8436 24.7553 66.737 26.1733ZM77.3511 25.4914L78.5046 24.3146C77.4386 23.368 76.2145 22.8427 74.7068 22.7293C72.6606 22.5754 70.8371 23.5394 70.6589 25.9087C70.5077 27.919 72.2751 28.9003 73.9358 29.6209C75.3518 30.2328 76.6616 30.8187 76.5576 32.2008C76.4416 33.7445 75.1199 34.2768 73.8276 34.1796C72.5711 34.0851 71.6979 33.6946 70.601 32.4388L69.2941 33.4957C70.5238 34.9059 71.8627 35.5842 73.6935 35.7219C75.6141 35.8664 78.1914 34.9591 78.4033 32.1411C78.5802 29.7897 76.614 28.8115 74.8843 28.0496C73.5386 27.461 72.3312 26.9551 72.4135 25.8602C72.4972 24.7473 73.4599 24.1879 74.7881 24.2878C75.7753 24.3621 76.8006 24.8905 77.3511 25.4914ZM82.9941 29.2733L83.1507 27.1912L81.266 27.0494L81.1094 29.1315L82.9941 29.2733ZM82.4757 36.1658L82.6323 34.0837L80.7476 33.942L80.591 36.0241L82.4757 36.1658ZM91.6444 23.588L90.4064 23.0076L84.1015 36.7574L85.3394 37.3379L91.6444 23.588ZM97.2711 24.0112L96.0331 23.4307L89.7282 37.1806L90.9661 37.7611L97.2711 24.0112Z" fill="#49A6A6"/>
</svg>
