<svg width="109" height="97" viewBox="0 0 109 97" fill="none" xmlns="http://www.w3.org/2000/svg">
<path d="M107.543 28.3814L54.6489 3.82642L23.8002 70.2781L76.6943 94.8331L107.543 28.3814Z" fill="white" stroke="#013E46" stroke-miterlimit="10" stroke-linecap="round" stroke-linejoin="round"/>
<path d="M96.8809 29.2724L57.5474 11.0127L51.5321 23.9702L90.8657 42.23L96.8809 29.2724Z" fill="#6EA3A3"/>
<path d="M77.154 29.9633L77.7335 42.8689L66.8618 37.7711L77.154 29.9633Z" fill="#C4C4C4"/>
<path d="M72.3095 22.3319L70.9024 39.4744L60.0306 34.3766L72.3095 22.3319Z" fill="#E7E7E7"/>
<circle cx="81.5084" cy="30.4738" r="2.07978" transform="rotate(25.1222 81.5084 30.4738)" fill="#E7E7E7"/>
<rect x="45.9785" y="36.3652" width="42.9324" height="3.65846" transform="rotate(25.1102 45.9785 36.3652)" fill="#E3E3E3"/>
<rect x="48.5525" y="30" width="42.9324" height="3.65846" transform="rotate(25.1102 48.5525 30)" fill="#E3E3E3"/>
<rect x="43.4722" y="42.7883" width="42.9324" height="3.65846" transform="rotate(25.1102 43.4722 42.7883)" fill="#E3E3E3"/>
<rect x="40.3381" y="48.9668" width="42.9324" height="3.65846" transform="rotate(25.1102 40.3381 48.9668)" fill="#E3E3E3"/>
<rect x="37.8318" y="55.3899" width="42.9324" height="3.65846" transform="rotate(25.1102 37.8318 55.3899)" fill="#E3E3E3"/>
<rect x="35.5742" y="61.1753" width="16.0011" height="3.65846" transform="rotate(25.1102 35.5742 61.1753)" fill="#6EA3A3"/>
<path d="M88.8665 16.4315L32.6462 0.938721L13.1825 71.569L69.4027 87.0617L88.8665 16.4315Z" fill="white" stroke="#013E46" stroke-miterlimit="10" stroke-linecap="round" stroke-linejoin="round"/>
<path d="M59.1546 23.0049L61.8552 35.6382L50.2914 32.4036L59.1546 23.0049Z" fill="#C4C4C4"/>
<path d="M53.1178 16.2774L54.5578 33.4172L42.994 30.1826L53.1178 16.2774Z" fill="#E7E7E7"/>
<rect x="29.4624" y="34.4619" width="42.9324" height="3.65846" transform="rotate(15.6148 29.4624 34.4619)" fill="#E3E3E3"/>
<rect x="31.9849" y="27" width="42.9324" height="3.65846" transform="rotate(15.6148 31.9849 27)" fill="#E3E3E3"/>
<rect x="33.9849" y="20" width="42.9324" height="3.65846" transform="rotate(15.6148 33.9849 20)" fill="#E3E3E3"/>
<rect x="35.9849" y="13" width="42.9324" height="3.65846" transform="rotate(15.6148 35.9849 13)" fill="#E3E3E3"/>
<rect x="28.05" y="41.2104" width="42.9324" height="3.65846" transform="rotate(15.6148 28.05 41.2104)" fill="#E3E3E3"/>
<rect x="25.9783" y="47.8213" width="42.9324" height="3.65846" transform="rotate(15.6148 25.9783 47.8213)" fill="#E3E3E3"/>
<rect x="24.5657" y="54.5698" width="42.9324" height="3.65846" transform="rotate(15.6148 24.5657 54.5698)" fill="#E3E3E3"/>
<rect x="23.2935" y="60.6484" width="16.0011" height="3.65846" transform="rotate(15.6148 23.2935 60.6484)" fill="#6EA3A3"/>
<path d="M62.8662 7.43004L4.56519 8.7439L6.2158 81.9884L64.5168 80.6745L62.8662 7.43004Z" fill="white" stroke="#013E46" stroke-miterlimit="10" stroke-linecap="round" stroke-linejoin="round"/>
<path d="M53.6922 12.9358L10.3379 13.9128L10.8856 38.2156L54.2398 37.2386L53.6922 12.9358Z" fill="#6EA3A3"/>
<path opacity="0.5" d="M36.2959 22.2633L42.5124 33.5879L30.5069 33.8123L36.2959 22.2633Z" fill="white"/>
<path d="M28.5806 17.5538L34.8846 33.5571L22.8791 33.7815L28.5806 17.5538Z" fill="white"/>
<circle cx="40.4286" cy="20.7993" r="2.07978" transform="rotate(-1.0708 40.4286 20.7993)" fill="white"/>
<rect x="11.1477" y="41.7683" width="42.9324" height="3.65846" transform="rotate(-1.08287 11.1477 41.7683)" fill="#E3E3E3"/>
<rect x="11.7339" y="48.6382" width="42.9324" height="3.65846" transform="rotate(-1.08287 11.7339 48.6382)" fill="#E3E3E3"/>
<rect x="11.6487" y="55.5654" width="42.9324" height="3.65846" transform="rotate(-1.08287 11.6487 55.5654)" fill="#E3E3E3"/>
<rect x="12.2349" y="62.4353" width="42.9324" height="3.65846" transform="rotate(-1.08287 12.2349 62.4353)" fill="#E3E3E3"/>
<rect x="12.7629" y="68.623" width="16.0011" height="3.65846" transform="rotate(-1.08287 12.7629 68.623)" fill="#6EA3A3"/>
</svg>
