<svg width="94" height="114" viewBox="0 0 94 114" fill="none" xmlns="http://www.w3.org/2000/svg">
<g clip-path="url(#clip0_52:161)">
<path d="M92.2668 92.689C93.7121 93.0639 93.9911 93.4239 93.9941 95.0099C94 100.574 94 106.142 93.9941 111.706C93.9911 113.491 93.4658 114 91.6614 114C66.6812 114 41.7009 114 16.7207 114C14.8688 114 14.3762 113.494 14.3732 111.614C14.3702 110.167 14.3524 108.718 14.3851 107.272C14.3969 106.743 14.2426 106.57 13.7054 106.585C12.2631 106.621 10.8177 106.606 9.37537 106.594C7.77868 106.579 7.2326 106.034 7.22369 104.46C7.21479 103.05 7.18808 101.639 7.23556 100.232C7.25931 99.5625 7.0842 99.3185 6.37786 99.3453C4.89988 99.3989 3.41894 99.3781 1.93799 99.3572C0.623244 99.3394 0.0801313 98.78 0.017807 97.4469C0.00890348 97.2237 0.0148391 97.0006 0.0148391 96.7804C0.0118713 65.3881 0.0148391 33.9989 0 2.60957C0 1.56515 0.115745 0.642723 1.0328 0C26.8677 0 52.7027 0 78.5406 0C79.3924 0.55048 79.7069 1.31818 79.6565 2.3388C79.5882 3.70756 79.6684 5.08227 79.6268 6.45401C79.609 7.04317 79.7871 7.2098 80.3688 7.19493C81.8111 7.15327 83.2535 7.17112 84.6959 7.186C86.2184 7.20088 86.7793 7.75731 86.7882 9.25997C86.8 10.7061 86.8386 12.1552 86.7733 13.5984C86.7377 14.4047 86.9217 14.7142 87.7943 14.6666C89.2337 14.5892 90.679 14.6279 92.1184 14.6517C93.3708 14.6725 93.9169 15.229 93.9941 16.4906C94.0089 16.7108 93.997 16.934 93.997 17.1571C93.997 40.0333 93.997 62.9095 93.997 85.7857C93.997 87.4669 93.7804 87.812 92.5042 88.2346C91.421 88.4547 90.7829 88.0887 90.5158 87.0681C90.3436 86.4135 90.3971 85.741 90.3971 85.0745C90.3941 63.8914 90.3941 42.7083 90.3941 21.5253C90.3941 21.1533 90.3941 20.7843 90.3941 20.4124C90.3911 18.4604 89.7441 17.9784 87.8061 18.4366C87.3669 18.5408 87.1918 18.7877 87.1503 19.2013C87.1028 19.6834 87.1176 20.1654 87.1176 20.6475C87.1176 36.0788 87.1176 51.5131 87.1176 66.9444C87.1176 67.4264 87.1295 67.9084 87.1057 68.3905C87.0345 69.7414 86.6131 70.2413 85.239 70.6311C83.942 70.4704 83.3692 69.9586 83.1526 68.7416C83.0339 68.081 83.0725 67.4085 83.0725 66.742C83.0695 48.9719 83.0725 31.1988 83.0725 13.4287C83.0725 13.0568 83.0784 12.6878 83.0695 12.3159C83.0428 10.962 82.927 10.846 81.6153 10.8311C80.1195 10.8132 80.0156 10.9084 80.0156 12.4914C80.0097 25.9232 80.0126 39.3519 80.0126 52.7836C80.0126 53.34 80.0334 53.8965 79.983 54.4529C79.8702 55.7086 79.4072 56.2412 78.1281 56.6072C76.7362 56.4317 76.1366 55.8455 76.0001 54.5124C75.9437 53.959 75.9675 53.3996 75.9675 52.8431C75.9675 37.2601 75.9675 21.677 75.9675 6.09397C75.9675 5.90948 75.9675 5.72202 75.9675 5.53753C75.9586 3.73434 75.9586 3.73136 74.1987 3.70756C73.9405 3.70458 73.6823 3.68078 73.4211 3.6778C72.8661 3.73136 72.3111 3.71053 71.7561 3.71053C49.7349 3.71053 27.7106 3.71053 5.68933 3.71053C3.62372 3.71053 3.62372 3.71053 3.62372 5.77558C3.62372 35.0165 3.62372 64.2574 3.62372 93.4983C3.62372 95.608 3.62372 95.608 5.76649 95.608C27.8264 95.608 49.8862 95.608 71.9431 95.608C72.4239 95.608 72.9047 95.5872 73.3855 95.6407C73.6437 95.6437 73.9019 95.614 74.1601 95.611C75.9645 95.5931 75.9705 95.5902 75.9705 93.7245C75.9734 83.8753 75.9705 74.0262 75.9734 64.1741C75.9734 63.6563 75.9526 63.1356 76.0061 62.6208C76.1426 61.2937 76.7451 60.7046 78.131 60.5231C79.4072 60.8801 79.8731 61.4157 79.9919 62.6714C80.0334 63.1148 80.0215 63.5611 80.0215 64.0075C80.0215 74.6927 80.0215 85.378 80.0215 96.0633C80.0215 96.5453 80.0364 97.0303 79.983 97.5094C79.8257 98.8752 79.1074 99.5655 77.7482 99.6578C77.2318 99.6935 76.7124 99.6756 76.193 99.6756C55.1363 99.6756 34.0825 99.6756 13.0258 99.6756C10.9721 99.6756 10.6189 100.134 10.978 102.211C11.0641 102.708 11.3045 102.919 11.7793 102.943C12.1503 102.964 12.5183 102.961 12.8893 102.961C35.6466 102.961 58.4068 102.961 81.1642 102.961C81.3125 102.961 81.1285 102.961 81.274 102.961C83.0725 102.955 83.0784 102.955 83.0784 101.193C83.0814 93.5489 83.0784 85.9077 83.0814 78.2634C83.0814 77.6713 83.0547 77.0732 83.1556 76.487C83.3633 75.2611 83.9213 74.7403 85.2093 74.5529C86.714 74.9397 87.1206 75.4664 87.1236 77.1982C87.1414 84.4705 87.1295 91.7457 87.1295 99.018C87.1295 100.762 87.1532 102.505 87.1206 104.249C87.082 106.177 86.343 106.915 84.4169 107.007C83.8619 107.034 83.3069 107.022 82.7519 107.022C61.8762 107.022 41.0005 107.022 20.1278 107.022C18.0622 107.022 17.7981 107.35 18.083 109.456C18.1542 109.986 18.3679 110.269 18.911 110.289C19.282 110.304 19.65 110.307 20.021 110.307C42.8198 110.307 65.6216 110.307 88.4205 110.307C90.4119 110.307 90.4119 110.304 90.4119 108.263C90.4149 103.957 90.4119 99.6548 90.4149 95.3491C90.4149 94.8671 90.3911 94.3821 90.5069 93.909C90.7116 92.9836 91.2429 92.6265 92.2668 92.689Z" fill="#013E46"/>
<path d="M85.1974 70.3901C86.5774 69.9289 86.7881 69.6195 86.7911 68.0097C86.7911 51.8018 86.7911 35.5938 86.7941 19.3859C86.7941 17.8059 86.5893 17.9874 88.2245 17.9814C90.676 17.9725 90.676 17.9785 90.676 20.4869C90.676 42.2591 90.676 64.0313 90.676 85.8006C90.676 87.6276 91.0113 88.068 92.5071 88.2287C92.0679 89.6956 92.4774 91.2102 92.2697 92.6891C91.0588 92.8944 90.6611 93.671 90.6671 94.8344C90.6908 99.7322 90.6493 104.63 90.6997 109.525C90.7086 110.459 90.4564 110.682 89.5393 110.682C65.9688 110.656 42.3954 110.656 18.8249 110.685C17.89 110.685 17.5725 110.447 17.6941 109.525C17.8158 108.582 17.2876 107.314 17.9256 106.763C18.4688 106.296 19.6885 106.603 20.6086 106.603C41.7751 106.6 62.9416 106.6 84.1082 106.6C86.4142 106.6 86.7941 106.216 86.7941 103.877C86.7941 94.9356 86.7822 85.994 86.8089 77.0554C86.8119 75.8503 86.4528 75.035 85.2033 74.788C84.6602 73.3181 84.6602 71.8541 85.1974 70.3901Z" fill="#49A6A6"/>
<path d="M73.433 95.9678C73.065 95.9857 72.697 96.0184 72.329 96.0184C49.7586 96.0214 27.1883 96.0125 4.62095 96.0482C3.50505 96.0512 3.32104 95.7179 3.32104 94.6884C3.35072 64.6768 3.35072 34.6682 3.32104 4.65657C3.32104 3.62703 3.49911 3.30566 4.61205 3.30566C27.1824 3.34435 49.7527 3.33542 72.3201 3.33542C72.6881 3.33542 73.0591 3.35922 73.4271 3.37113C73.8841 3.8621 73.7862 4.48101 73.7891 5.06125C73.801 9.36095 73.7951 13.6636 73.7951 17.9633C73.7951 43.211 73.798 68.4587 73.7862 93.7094C73.7891 94.4741 73.9702 95.2835 73.433 95.9678Z" fill="#71DFDF"/>
<path d="M85.1973 70.3899C85.1973 71.8539 85.1973 73.3179 85.1973 74.7819C83.8084 75.13 83.4671 75.5615 83.4641 77.0433C83.4611 85.3898 83.4433 93.7333 83.4878 102.08C83.4938 103.088 83.2059 103.282 82.2562 103.282C58.7629 103.252 35.2725 103.252 11.7792 103.285C10.7345 103.285 10.5001 102.987 10.5238 101.996C10.5891 99.363 10.5446 99.363 13.1859 99.363C34.4593 99.363 55.7298 99.363 77.0031 99.363C79.2587 99.363 79.6326 98.9851 79.6326 96.7118C79.6326 85.5088 79.6237 74.3088 79.6475 63.1057C79.6504 61.9185 79.3151 61.0794 78.0953 60.7669C77.5492 59.3 77.5492 57.833 78.0953 56.3631C79.3448 56.0774 79.6504 55.2145 79.6475 54.0362C79.6297 39.9737 79.6475 25.9082 79.6119 11.8456C79.6089 10.8131 79.7959 10.4471 80.9147 10.4888C83.4641 10.584 83.4671 10.5185 83.4671 13.021C83.4671 31.3534 83.4671 49.6829 83.4671 68.0154C83.4641 69.6133 83.7728 70.0299 85.1973 70.3899Z" fill="#49A6A6"/>
<path d="M78.0924 56.3662C78.0924 57.8332 78.0924 59.3031 78.0924 60.7701C76.6293 61.0944 76.3058 61.5021 76.3058 63.0732C76.3028 73.6007 76.288 84.1283 76.3295 94.6529C76.3325 95.7271 76.1426 96.2418 74.9762 96.0365C74.4717 95.9473 73.9464 95.9889 73.43 95.9681C73.43 65.1025 73.427 34.2399 73.427 3.37432C76.3058 3.22852 76.3058 3.22852 76.3058 6.03151C76.3058 22.043 76.3058 38.0576 76.3058 54.0691C76.3088 55.6581 76.6471 56.0836 78.0924 56.3662Z" fill="#71DFDF"/>
<path d="M8.56211 25.706C8.56211 20.7368 8.55914 15.7676 8.56211 10.7954C8.56211 9.06063 9.07554 8.53693 10.8058 8.53693C17.9078 8.53098 25.0098 8.53098 32.1148 8.53693C33.7501 8.53991 34.3199 9.11419 34.3199 10.7478C34.3228 20.7249 34.3228 30.702 34.3199 40.679C34.3199 42.3751 33.753 42.9405 32.0525 42.9405C24.9504 42.9434 17.8484 42.9464 10.7435 42.9405C9.10225 42.9405 8.56211 42.387 8.56211 40.7266C8.55914 35.7188 8.56211 30.7139 8.56211 25.706Z" fill="#013E46"/>
<path d="M55.1392 8.53379C59.6859 8.53379 64.2356 8.53082 68.7823 8.53677C70.5927 8.53974 71.0972 9.04262 71.1061 10.8488C71.115 13.0358 71.121 15.2229 71.1032 17.4099C71.0913 18.978 70.5155 19.5464 68.9367 19.5464C59.6919 19.5523 50.4501 19.5523 41.2053 19.5464C39.6412 19.5464 39.0536 18.9513 39.0447 17.398C39.0328 15.1753 39.0358 12.9495 39.0447 10.7238C39.0506 9.1051 39.6234 8.53677 41.2735 8.53379C45.8944 8.53082 50.5183 8.53379 55.1392 8.53379Z" fill="#013E46"/>
<path d="M48.2152 51.0072C41.5228 51.0072 34.8303 51.0072 28.1349 51.0072C27.8025 51.0072 27.4671 51.0281 27.1377 50.9924C26.2533 50.8912 25.7132 50.3943 25.6419 49.4927C25.5648 48.5346 26.0752 47.9513 26.9715 47.7192C27.2861 47.6389 27.6333 47.6716 27.9657 47.6716C41.5732 47.6687 55.1807 47.6687 68.7882 47.6746C69.1533 47.6746 69.542 47.6627 69.8833 47.7698C70.7262 48.0347 71.1565 48.6476 71.0586 49.5433C70.9666 50.3824 70.4591 50.8763 69.6222 50.9894C69.2957 51.034 68.9574 51.0102 68.625 51.0102C61.8227 51.0072 55.0175 51.0072 48.2152 51.0072Z" fill="#013E46"/>
<path d="M48.4884 63.8855C55.1808 63.8855 61.8733 63.8855 68.5687 63.8855C68.9011 63.8855 69.2364 63.8647 69.5659 63.9034C70.5126 64.0165 71.0498 64.5818 71.0705 65.5191C71.0913 66.4683 70.5334 67.0218 69.6193 67.1974C69.3344 67.2539 69.0287 67.2182 68.7349 67.2182C55.1274 67.2182 41.5199 67.2182 27.9094 67.2182C27.577 67.2182 27.2268 67.2539 26.9182 67.1646C26.0813 66.9266 25.5856 66.3701 25.6361 65.4596C25.6836 64.5551 26.2029 64.0403 27.0814 63.9064C27.4079 63.8558 27.7462 63.8826 28.0786 63.8826C34.8809 63.8855 41.6861 63.8855 48.4884 63.8855Z" fill="#013E46"/>
<path d="M48.3518 75.2998C41.6208 75.2998 34.8927 75.2998 28.1617 75.2998C27.7937 75.2998 27.4168 75.3176 27.0547 75.27C26.2178 75.154 25.7192 74.66 25.642 73.812C25.5589 72.9133 25.9863 72.3034 26.841 72.0594C27.2209 71.9522 27.6453 71.9641 28.0489 71.9641C41.5822 71.9612 55.1155 71.9612 68.6488 71.9641C69.0524 71.9641 69.4739 71.9493 69.8567 72.0594C70.7115 72.3004 71.1448 72.9134 71.0617 73.809C70.9845 74.6481 70.4918 75.1599 69.649 75.27C69.2839 75.3176 68.91 75.2998 68.542 75.2998C61.8109 75.2998 55.0799 75.2998 48.3518 75.2998Z" fill="#013E46"/>
<path d="M48.334 55.789C55.1362 55.789 61.9385 55.789 68.7408 55.789C69.2216 55.789 69.7142 55.7414 70.1594 55.9616C70.7797 56.2681 71.0972 56.7977 71.0735 57.4881C71.0497 58.223 70.6966 58.7884 69.9754 58.9877C69.5213 59.1127 69.0257 59.1246 68.5508 59.1246C55.0947 59.1306 41.6356 59.1306 28.1795 59.1306C28.0697 59.1306 27.9569 59.1306 27.8471 59.1306C26.3513 59.1097 25.6064 58.5325 25.6271 57.4107C25.6479 56.3335 26.3602 55.795 27.8144 55.792C34.6553 55.789 41.4931 55.789 48.334 55.789Z" fill="#013E46"/>
<path d="M48.4529 80.0815C55.1453 80.0815 61.8378 80.0815 68.5302 80.0845C68.9368 80.0845 69.3493 80.0726 69.747 80.1381C70.5394 80.269 70.9876 80.7838 71.0647 81.5693C71.1449 82.4025 70.7828 83.0303 69.9726 83.2832C69.5601 83.4112 69.1 83.4201 68.6608 83.4201C55.1275 83.4261 41.5972 83.4261 28.0639 83.4201C27.6247 83.4201 27.1647 83.4112 26.7521 83.2892C25.936 83.0452 25.5769 82.4263 25.6451 81.5872C25.7104 80.7927 26.1586 80.2839 26.9421 80.144C27.3368 80.0726 27.7523 80.0875 28.1589 80.0875C34.9196 80.0815 41.6862 80.0815 48.4529 80.0815Z" fill="#013E46"/>
<path d="M55.0976 27.6191C50.4708 27.6191 45.8469 27.6221 41.22 27.6191C39.8341 27.6191 39.0446 27.0061 39.0506 25.9587C39.0535 24.9113 39.8519 24.2894 41.2319 24.2865C50.4826 24.2835 59.7363 24.2865 68.987 24.2805C69.9664 24.2805 70.7618 24.5275 71.023 25.5868C71.3079 26.7354 70.5273 27.6132 69.1977 27.6161C65.4969 27.631 61.796 27.6221 58.0951 27.6221C57.0979 27.6191 56.0978 27.6191 55.0976 27.6191Z" fill="#013E46"/>
<path d="M55.0649 34.8082C50.4411 34.8082 45.8172 34.8023 41.1903 34.8142C40.4098 34.8172 39.7094 34.713 39.2791 33.9661C38.7419 33.0318 39.2138 31.8743 40.2851 31.5887C40.7066 31.4756 41.1636 31.4756 41.6029 31.4756C50.5924 31.4696 59.582 31.4696 68.5715 31.4726C68.8297 31.4726 69.0909 31.4607 69.3491 31.4816C70.4591 31.5827 71.1298 32.276 71.0764 33.255C71.023 34.1953 70.37 34.7993 69.269 34.8053C64.9775 34.8231 60.686 34.8142 56.3945 34.8142C55.9523 34.8082 55.5071 34.8082 55.0649 34.8082Z" fill="#013E46"/>
<path d="M55.1006 39.6049C59.763 39.6049 64.4255 39.6108 69.088 39.5989C69.9368 39.5959 70.6342 39.8012 70.9696 40.6552C71.3465 41.6163 70.7885 42.6489 69.7557 42.8839C69.4352 42.9583 69.0939 42.9405 68.7615 42.9405C59.6592 42.9435 50.5568 42.9435 41.4515 42.9435C41.229 42.9435 41.0064 42.9554 40.7867 42.9375C39.7599 42.8512 39.0535 42.1698 39.0506 41.2623C39.0446 40.319 39.7896 39.6138 40.8877 39.6108C45.6273 39.5989 50.3639 39.6049 55.1006 39.6049Z" fill="#013E46"/>
<path d="M14.6996 80.0845C16.139 80.0845 17.5784 80.0606 19.0178 80.0904C20.1812 80.1142 20.8252 80.7361 20.8252 81.7418C20.8252 82.7268 20.1574 83.3963 19.0148 83.4111C16.136 83.4409 13.2602 83.4439 10.3814 83.4111C9.23881 83.3992 8.57104 82.7238 8.57104 81.7389C8.57104 80.745 9.22694 80.1142 10.3844 80.0904C11.8208 80.0606 13.2602 80.0845 14.6996 80.0845Z" fill="#013E46"/>
<path d="M14.6878 51.007C13.284 51.007 11.8832 51.0189 10.4794 51.0041C9.27746 50.9922 8.56222 50.3554 8.56815 49.3407C8.57409 48.3707 9.27449 47.6893 10.3904 47.6804C13.2692 47.6566 16.148 47.6536 19.0268 47.6804C20.1427 47.6893 20.8312 48.3856 20.8253 49.3616C20.8193 50.3524 20.1397 50.9862 19.006 51.0011C17.5666 51.0219 16.1272 51.007 14.6878 51.007Z" fill="#013E46"/>
<path d="M14.7799 63.8854C16.1451 63.8854 17.5103 63.8735 18.8755 63.8883C20.113 63.9002 20.8075 64.4954 20.8253 65.516C20.8431 66.5396 20.1338 67.2091 18.9348 67.215C16.0946 67.2329 13.2514 67.2329 10.4112 67.215C9.28938 67.2061 8.586 66.5455 8.56819 65.5785C8.55039 64.5638 9.2686 63.9062 10.4617 63.8883C11.9011 63.8735 13.3405 63.8854 14.7799 63.8854Z" fill="#013E46"/>
<path d="M14.6225 75.2998C13.2573 75.2998 11.8921 75.3117 10.5269 75.2968C9.27747 75.2819 8.58894 74.6957 8.57113 73.6781C8.55332 72.6605 9.26263 71.9791 10.4587 71.9701C13.2989 71.9493 16.1421 71.9463 18.9823 71.9701C20.1219 71.9791 20.8105 72.6337 20.8283 73.6067C20.8461 74.6392 20.1575 75.276 18.9407 75.2938C17.5013 75.3147 16.0619 75.2998 14.6225 75.2998Z" fill="#013E46"/>
<path d="M14.6461 59.1304C13.2809 59.1304 11.9157 59.1512 10.5505 59.1244C9.24763 59.1006 8.54129 58.4579 8.57097 57.3986C8.60065 56.375 9.27137 55.8037 10.5446 55.7948C13.3106 55.7769 16.0796 55.7799 18.8456 55.7948C20.1277 55.8007 20.7925 56.3661 20.8222 57.3927C20.8548 58.4609 20.1574 59.1006 18.8515 59.1244C17.4507 59.1512 16.0469 59.1304 14.6461 59.1304Z" fill="#013E46"/>
<path d="M11.8892 25.679C11.8892 21.415 11.913 17.151 11.8684 12.887C11.8595 12.0331 12.1177 11.8396 12.9309 11.8456C18.6262 11.8783 24.3214 11.8783 30.0167 11.8456C30.7883 11.8426 31.0139 12.0539 31.0109 12.8365C30.9842 21.4388 30.9842 30.0412 31.0109 38.6436C31.0139 39.444 30.7646 39.6255 30.0048 39.6195C24.3096 39.5898 18.6143 39.5868 12.919 39.6225C12.097 39.6285 11.8566 39.4232 11.8655 38.5781C11.913 34.2814 11.8892 29.9817 11.8892 25.679Z" fill="#76BCBC"/>
<path d="M55.0323 16.2169C51.1504 16.2169 47.2685 16.1902 43.3896 16.2378C42.5437 16.2467 42.2766 15.9967 42.3538 15.1725C42.422 14.4375 42.428 13.6847 42.3538 12.9527C42.2588 12.0452 42.6239 11.8399 43.4786 11.8458C50.2808 11.8756 57.0801 11.8637 63.8824 11.8637C64.9182 11.8637 65.9539 11.8934 66.9867 11.8548C67.6278 11.8309 67.8355 12.0868 67.8118 12.6998C67.7762 13.5508 67.7554 14.4078 67.8177 15.2558C67.8741 16.0652 67.5358 16.2407 66.7909 16.2348C62.8704 16.2021 58.9499 16.2169 55.0323 16.2169Z" fill="#013E46"/>
</g>
<defs>
<clipPath id="clip0_52:161">
<rect width="94" height="114" fill="white"/>
</clipPath>
</defs>
</svg>
