<svg width="132" height="118" viewBox="0 0 132 118" fill="none" xmlns="http://www.w3.org/2000/svg">
<path d="M45.7747 31.4796C42.87 31.9265 40.1888 33.0437 37.5075 34.3843C25.4419 31.4796 10.9185 35.278 9.3544 38.853C8.01378 41.7577 14.27 47.7905 18.5153 51.3655C16.5044 55.164 15.1638 59.1859 14.4935 63.6546C10.2482 64.1015 4.43878 65.4421 3.54503 69.0171C1.98097 75.0499 3.54503 89.1265 11.3653 90.6905C14.7169 91.3609 18.5153 91.3609 21.6435 91.3609C24.5482 94.9359 28.1232 97.6171 32.145 100.298L28.57 115.716H51.5841L54.7122 107.448C56.4997 107.672 58.2872 107.895 60.0747 107.895C62.9794 107.895 66.1075 107.225 69.0122 106.778L66.7778 115.716H88.6747C88.6747 115.716 105.879 93.1484 108.337 80.8593C109.901 77.0609 111.242 73.039 111.018 68.7937C110.572 60.0796 99.1763 22.0952 45.7747 31.4796Z" fill="#71DFDF"/>
<path d="M73.4265 1.62988C61.8077 1.62988 52.4233 11.0143 52.4233 22.633C52.4233 30.2299 56.4452 36.7096 62.2546 40.508C66.9468 40.508 72.7561 40.9549 77.8952 43.1893C87.503 41.1783 94.653 32.6877 94.653 22.633C94.4296 11.0143 85.0452 1.62988 73.4265 1.62988Z" fill="#49A6A6"/>
<path d="M104.931 50.1158C102.473 46.7643 99.5687 43.6361 95.9937 40.7314" stroke="#013E46" stroke-width="4" stroke-miterlimit="10" stroke-linecap="round" stroke-linejoin="round"/>
<path d="M54.6578 32.6876C53.0937 29.7829 52.2 26.4313 52.2 23.0798C52.2 11.461 61.5843 2.07666 73.2031 2.07666C84.8218 2.07666 94.2062 11.461 94.2062 23.0798C94.2062 29.336 91.5249 34.6985 87.2796 38.7204" stroke="#013E46" stroke-width="4" stroke-miterlimit="10" stroke-linecap="round" stroke-linejoin="round"/>
<path d="M81.0233 16.3765C81.0233 16.3765 80.353 13.0249 73.4265 13.0249C68.064 13.0249 65.8296 15.9296 65.8296 18.6108C65.8296 21.2921 68.9577 23.0796 73.4265 23.0796C79.4593 23.0796 81.0233 25.0905 81.0233 27.5483C81.0233 30.8999 77.4483 33.1343 73.4265 33.1343C69.4046 33.1343 66.2765 30.8999 65.8296 29.7827" stroke="#013E46" stroke-width="4" stroke-miterlimit="10" stroke-linecap="round" stroke-linejoin="round"/>
<path d="M73.2031 10.3438V34.9219" stroke="#013E46" stroke-width="4" stroke-miterlimit="10" stroke-linecap="round" stroke-linejoin="round"/>
<path d="M30.75 63.522C31.984 63.522 32.9844 62.5216 32.9844 61.2876C32.9844 60.0536 31.984 59.0532 30.75 59.0532C29.516 59.0532 28.5156 60.0536 28.5156 61.2876C28.5156 62.5216 29.516 63.522 30.75 63.522Z" stroke="#013E46" stroke-width="4" stroke-miterlimit="10" stroke-linecap="round" stroke-linejoin="round"/>
<path d="M45.4969 31.1235C42.5922 31.7938 39.9109 32.6876 37.2297 34.0282C25.1641 31.1235 10.6406 34.922 9.07657 38.497C7.73595 41.4017 13.9922 47.4345 18.2375 51.0095C16.2266 54.8079 14.8859 58.8298 14.2156 63.2985C9.97032 63.7454 4.16095 65.086 3.2672 68.661C1.70313 74.6938 3.2672 88.7704 11.0875 90.3345C14.4391 91.0048 18.2375 91.0048 21.3656 91.0048C24.2703 94.5798 27.8453 97.261 31.8672 99.9423L28.2922 115.359H51.3063L54.4344 107.092C56.2219 107.316 58.0094 107.539 59.7969 107.539C62.7016 107.539 65.8297 106.869 68.7344 106.422L66.5 115.359H88.3969C88.3969 115.359 105.602 92.7923 108.059 80.5032C109.623 76.7048 110.741 72.6829 110.741 68.4376" stroke="#013E46" stroke-width="4" stroke-miterlimit="10" stroke-linecap="round" stroke-linejoin="round"/>
<path d="M105.825 59.9471C105.825 59.9471 121.242 60.8408 120.348 49.8924C119.678 41.8486 115.656 40.2846 112.975 43.6361C110.741 46.5408 112.975 54.5846 122.359 54.1377C131.744 53.6908 129.062 41.8486 129.062 41.8486" stroke="#013E46" stroke-width="4" stroke-miterlimit="10" stroke-linecap="round" stroke-linejoin="round"/>
<path d="M54.2109 41.1781C54.2109 41.1781 72.0859 37.8265 82.1406 45.8703" stroke="#013E46" stroke-width="4" stroke-miterlimit="10" stroke-linecap="round" stroke-linejoin="round"/>
</svg>
