<svg width="128" height="115" viewBox="0 0 128 115" fill="none" xmlns="http://www.w3.org/2000/svg">
<path d="M43.7747 30.4796C40.87 30.9265 38.1888 32.0437 35.5075 33.3843C23.4419 30.4796 8.91847 34.278 7.3544 37.853C6.01378 40.7577 12.27 46.7905 16.5153 50.3655C14.5044 54.164 13.1638 58.1859 12.4935 62.6546C8.24815 63.1015 2.43878 64.4421 1.54503 68.0171C-0.0190347 74.0499 1.54503 88.1265 9.36534 89.6905C12.7169 90.3609 16.5153 90.3609 19.6435 90.3609C22.5482 93.9359 26.1232 96.6171 30.145 99.2984L26.57 114.716H49.5841L52.7122 106.448C54.4997 106.672 56.2872 106.895 58.0747 106.895C60.9794 106.895 64.1075 106.225 67.0122 105.778L64.7778 114.716H86.6747C86.6747 114.716 103.879 92.1484 106.337 79.8593C107.901 76.0609 109.242 72.039 109.018 67.7937C108.572 59.0796 97.1763 21.0952 43.7747 30.4796Z" fill="#71DFDF"/>
<path d="M71.4265 0.629883C59.8077 0.629883 50.4233 10.0143 50.4233 21.633C50.4233 29.2299 54.4452 35.7096 60.2546 39.508C64.9468 39.508 70.7561 39.9549 75.8952 42.1893C85.503 40.1783 92.653 31.6877 92.653 21.633C92.4296 10.0143 83.0452 0.629883 71.4265 0.629883Z" fill="#49A6A6"/>
<path d="M102.931 49.1158C100.473 45.7643 97.5687 42.6361 93.9937 39.7314" stroke="#013E46" stroke-miterlimit="10" stroke-linecap="round" stroke-linejoin="round"/>
<path d="M52.6578 31.6876C51.0937 28.7829 50.2 25.4313 50.2 22.0798C50.2 10.461 59.5843 1.07666 71.2031 1.07666C82.8218 1.07666 92.2062 10.461 92.2062 22.0798C92.2062 28.336 89.5249 33.6985 85.2796 37.7204" stroke="#013E46" stroke-miterlimit="10" stroke-linecap="round" stroke-linejoin="round"/>
<path d="M79.0233 15.3765C79.0233 15.3765 78.353 12.0249 71.4265 12.0249C66.064 12.0249 63.8296 14.9296 63.8296 17.6108C63.8296 20.2921 66.9577 22.0796 71.4265 22.0796C77.4593 22.0796 79.0233 24.0905 79.0233 26.5483C79.0233 29.8999 75.4483 32.1343 71.4265 32.1343C67.4046 32.1343 64.2765 29.8999 63.8296 28.7827" stroke="#013E46" stroke-miterlimit="10" stroke-linecap="round" stroke-linejoin="round"/>
<path d="M71.2031 9.34375V33.9219" stroke="#013E46" stroke-miterlimit="10" stroke-linecap="round" stroke-linejoin="round"/>
<path d="M28.75 62.522C29.984 62.522 30.9844 61.5216 30.9844 60.2876C30.9844 59.0536 29.984 58.0532 28.75 58.0532C27.516 58.0532 26.5156 59.0536 26.5156 60.2876C26.5156 61.5216 27.516 62.522 28.75 62.522Z" stroke="#013E46" stroke-miterlimit="10" stroke-linecap="round" stroke-linejoin="round"/>
<path d="M43.4969 30.1235C40.5922 30.7938 37.9109 31.6876 35.2297 33.0282C23.1641 30.1235 8.64063 33.922 7.07657 37.497C5.73595 40.4017 11.9922 46.4345 16.2375 50.0095C14.2266 53.8079 12.8859 57.8298 12.2156 62.2985C7.97032 62.7454 2.16095 64.086 1.2672 67.661C-0.296867 73.6938 1.2672 87.7704 9.08751 89.3345C12.4391 90.0048 16.2375 90.0048 19.3656 90.0048C22.2703 93.5798 25.8453 96.261 29.8672 98.9423L26.2922 114.359H49.3063L52.4344 106.092C54.2219 106.316 56.0094 106.539 57.7969 106.539C60.7016 106.539 63.8297 105.869 66.7344 105.422L64.5 114.359H86.3969C86.3969 114.359 103.602 91.7923 106.059 79.5032C107.623 75.7048 108.741 71.6829 108.741 67.4376" stroke="#013E46" stroke-miterlimit="10" stroke-linecap="round" stroke-linejoin="round"/>
<path d="M103.825 58.9471C103.825 58.9471 119.242 59.8408 118.348 48.8924C117.678 40.8486 113.656 39.2846 110.975 42.6361C108.741 45.5408 110.975 53.5846 120.359 53.1377C129.744 52.6908 127.062 40.8486 127.062 40.8486" stroke="#013E46" stroke-miterlimit="10" stroke-linecap="round" stroke-linejoin="round"/>
<path d="M52.2109 40.1781C52.2109 40.1781 70.0859 36.8265 80.1406 44.8703" stroke="#013E46" stroke-miterlimit="10" stroke-linecap="round" stroke-linejoin="round"/>
</svg>
