<svg width="101" height="89" viewBox="0 0 101 89" fill="none" xmlns="http://www.w3.org/2000/svg">
<rect x="48" width="52.7027" height="21.9595" rx="2" fill="#71DFDF"/>
<rect y="66.8609" width="21.9595" height="21.9595" rx="2" fill="#71DFDF"/>
<rect x="11.5" y="11.5" width="77" height="69" rx="1.5" stroke="#007B88"/>
<path d="M28.0226 40.1645C28.4818 40.9321 28.6459 41.6997 28.6459 42.6208C28.6459 45.6911 26.0433 49.847 23.9 52.6103L18.9902 52.6103L17 40.7895L21.4396 40.4825L22.5113 48.9369C23.4298 47.4017 24.6655 44.7809 24.6655 43.1032C24.6655 42.1821 24.5124 41.5681 24.2062 40.943L28.0226 40.1645ZM33.6869 45.395C34.4524 45.395 36.4426 45.088 36.4426 43.8599C36.4426 43.2348 36.1364 43.0923 35.6771 43.0923C34.7695 43.0923 33.6869 44.0134 33.6869 45.395ZM33.5448 47.6978C33.5448 49.0904 34.3102 49.6935 35.3819 49.6935C36.4535 49.6935 37.5361 49.3864 38.903 48.7724L38.2797 52.1497C37.3611 52.6103 35.8302 52.9173 34.2993 52.9173C30.6361 52.9173 29.2473 50.6146 29.2473 47.8513C29.2473 44.1779 31.4015 40.329 35.8302 40.329C38.2797 40.329 39.6575 41.7216 39.6575 43.7063C39.8215 46.6231 35.8302 47.6978 33.5448 47.6978ZM52.2219 42.9278C52.2219 43.3883 52.2219 44.0024 52.0688 44.463L50.8441 52.5993L46.7106 52.5993L47.9354 45.077C47.9354 44.9235 48.0885 44.452 48.0885 44.3094C48.0885 43.6844 47.7823 43.6844 47.323 43.6844C46.6997 43.6844 46.2514 43.9914 45.9342 44.145L44.4033 52.5993L40.2589 52.5993L42.096 40.307L45.7593 40.307L45.7593 41.2281C46.6778 40.6031 47.7495 40 49.2804 40C51.4565 40.329 52.2219 41.3926 52.2219 42.9278ZM64.6223 41.5571C65.847 40.636 66.9187 40.1645 68.4496 40.1645C70.6038 40.1645 71.3693 41.2391 71.3693 42.9278C71.3693 43.3883 71.3693 44.0024 71.2162 44.463L70.0024 52.6103L65.858 52.6103L67.0827 44.9345L67.0827 44.3094C67.0827 43.6844 66.7765 43.5419 66.3173 43.5419C65.858 43.5419 65.2456 43.6954 64.9285 44.0024L63.5507 52.5993L59.4063 52.5993L60.631 44.9235L60.631 44.2985C60.631 43.6734 60.3248 43.5309 59.8655 43.5309C59.2422 43.5309 58.7939 43.8379 58.4768 43.9914L57.099 52.5774L52.9546 52.5774L54.8026 40.2961L58.3237 40.2961L58.4768 41.3707C59.2423 40.7457 60.467 40.1426 61.9979 40.1426C63.2445 40.329 64.1521 40.7895 64.6223 41.5571ZM79.6253 45.2415C79.6253 44.1669 79.3191 43.5528 78.5536 43.5528C76.8696 43.5528 76.5634 46.4806 76.5634 48.0048C76.5634 49.0794 76.8696 49.847 77.6351 49.847C79.33 49.6935 79.6253 46.6232 79.6253 45.2415ZM72.43 47.6978C72.43 43.8599 74.4202 40.1755 79.166 40.1755C82.6871 40.1755 83.9118 42.3357 83.9118 45.099C83.9118 48.9369 81.9216 52.7748 77.1758 52.7748C73.6547 52.9173 72.43 50.6146 72.43 47.6978Z" fill="#3D95CE"/>
</svg>
